ISO-10303-21;
HEADER;
/* Generated by software containing ST-Developer
 * from STEP Tools, Inc. (www.steptools.com) 
 */

FILE_DESCRIPTION(
/* description */ (''),
/* implementation_level */ '2;1');

FILE_NAME(
/* name */ 'Enclosure_Top_v4.step',
/* time_stamp */ '2026-04-10T15:32:05-04:00',
/* author */ (''),
/* organization */ (''),
/* preprocessor_version */ 'ST-DEVELOPER v20.1',
/* originating_system */ 'Autodesk Translation Framework v14.24.0.0',
/* authorisation */ '');

FILE_SCHEMA (('AUTOMOTIVE_DESIGN { 1 0 10303 214 3 1 1 }'));
ENDSEC;

DATA;
#10=MECHANICAL_DESIGN_GEOMETRIC_PRESENTATION_REPRESENTATION('',(#13),#1461);
#11=SHAPE_REPRESENTATION_RELATIONSHIP('SRR','None',#1471,#12);
#12=ADVANCED_BREP_SHAPE_REPRESENTATION('',(#14),#1460);
#13=STYLED_ITEM('',(#1480),#14);
#14=MANIFOLD_SOLID_BREP('Body9',#846);
#15=FACE_BOUND('',#143,.T.);
#16=FACE_BOUND('',#145,.T.);
#17=FACE_BOUND('',#146,.T.);
#18=FACE_BOUND('',#148,.T.);
#19=FACE_BOUND('',#150,.T.);
#20=FACE_BOUND('',#151,.T.);
#21=FACE_BOUND('',#153,.T.);
#22=FACE_BOUND('',#154,.T.);
#23=FACE_BOUND('',#156,.T.);
#24=FACE_BOUND('',#157,.T.);
#25=FACE_BOUND('',#159,.T.);
#26=FACE_BOUND('',#160,.T.);
#27=FACE_BOUND('',#162,.T.);
#28=FACE_BOUND('',#164,.T.);
#29=FACE_BOUND('',#166,.T.);
#30=FACE_BOUND('',#167,.T.);
#31=FACE_BOUND('',#181,.T.);
#32=FACE_BOUND('',#182,.T.);
#33=FACE_BOUND('',#183,.T.);
#34=FACE_BOUND('',#184,.T.);
#35=FACE_BOUND('',#185,.T.);
#36=FACE_BOUND('',#186,.T.);
#37=FACE_BOUND('',#187,.T.);
#38=FACE_BOUND('',#188,.T.);
#39=FACE_BOUND('',#189,.T.);
#40=FACE_BOUND('',#190,.T.);
#41=FACE_BOUND('',#191,.T.);
#42=FACE_BOUND('',#192,.T.);
#43=FACE_BOUND('',#214,.T.);
#44=FACE_BOUND('',#215,.T.);
#45=FACE_BOUND('',#216,.T.);
#46=FACE_BOUND('',#217,.T.);
#47=FACE_BOUND('',#218,.T.);
#48=FACE_BOUND('',#219,.T.);
#49=FACE_BOUND('',#220,.T.);
#50=FACE_BOUND('',#221,.T.);
#51=FACE_BOUND('',#222,.T.);
#52=FACE_BOUND('',#223,.T.);
#53=FACE_BOUND('',#224,.T.);
#54=FACE_BOUND('',#225,.T.);
#55=FACE_BOUND('',#226,.T.);
#56=FACE_BOUND('',#227,.T.);
#57=FACE_BOUND('',#228,.T.);
#58=FACE_BOUND('',#229,.T.);
#59=FACE_BOUND('',#230,.T.);
#60=FACE_BOUND('',#231,.T.);
#61=CYLINDRICAL_SURFACE('',#865,0.32);
#62=CYLINDRICAL_SURFACE('',#903,0.0375);
#63=CYLINDRICAL_SURFACE('',#905,0.0375);
#64=CYLINDRICAL_SURFACE('',#907,0.135);
#65=CYLINDRICAL_SURFACE('',#909,0.12);
#66=CYLINDRICAL_SURFACE('',#911,0.12);
#67=CYLINDRICAL_SURFACE('',#913,0.135);
#68=CYLINDRICAL_SURFACE('',#915,0.135);
#69=CYLINDRICAL_SURFACE('',#917,0.135);
#70=CYLINDRICAL_SURFACE('',#919,0.12);
#71=CYLINDRICAL_SURFACE('',#921,0.12);
#72=CYLINDRICAL_SURFACE('',#923,0.135);
#73=CYLINDRICAL_SURFACE('',#925,0.135);
#74=CYLINDRICAL_SURFACE('',#930,0.0375);
#75=CYLINDRICAL_SURFACE('',#932,0.0375);
#76=CYLINDRICAL_SURFACE('',#934,0.57);
#77=CYLINDRICAL_SURFACE('',#936,0.325);
#78=CYLINDRICAL_SURFACE('',#938,0.067);
#79=CYLINDRICAL_SURFACE('',#940,0.0375);
#80=CYLINDRICAL_SURFACE('',#942,0.0375);
#81=CYLINDRICAL_SURFACE('',#944,0.0375);
#82=CYLINDRICAL_SURFACE('',#946,0.0375);
#83=CYLINDRICAL_SURFACE('',#948,0.0375);
#84=CYLINDRICAL_SURFACE('',#950,0.0670000000000001);
#85=CYLINDRICAL_SURFACE('',#952,0.0670000000000001);
#86=CYLINDRICAL_SURFACE('',#954,0.067);
#87=CYLINDRICAL_SURFACE('',#956,0.0375);
#88=CYLINDRICAL_SURFACE('',#958,0.0375);
#89=CYLINDRICAL_SURFACE('',#960,0.0375);
#90=FACE_OUTER_BOUND('',#138,.T.);
#91=FACE_OUTER_BOUND('',#139,.T.);
#92=FACE_OUTER_BOUND('',#140,.T.);
#93=FACE_OUTER_BOUND('',#141,.T.);
#94=FACE_OUTER_BOUND('',#142,.T.);
#95=FACE_OUTER_BOUND('',#144,.T.);
#96=FACE_OUTER_BOUND('',#147,.T.);
#97=FACE_OUTER_BOUND('',#149,.T.);
#98=FACE_OUTER_BOUND('',#152,.T.);
#99=FACE_OUTER_BOUND('',#155,.T.);
#100=FACE_OUTER_BOUND('',#158,.T.);
#101=FACE_OUTER_BOUND('',#161,.T.);
#102=FACE_OUTER_BOUND('',#163,.T.);
#103=FACE_OUTER_BOUND('',#165,.T.);
#104=FACE_OUTER_BOUND('',#168,.T.);
#105=FACE_OUTER_BOUND('',#169,.T.);
#106=FACE_OUTER_BOUND('',#170,.T.);
#107=FACE_OUTER_BOUND('',#171,.T.);
#108=FACE_OUTER_BOUND('',#172,.T.);
#109=FACE_OUTER_BOUND('',#173,.T.);
#110=FACE_OUTER_BOUND('',#174,.T.);
#111=FACE_OUTER_BOUND('',#175,.T.);
#112=FACE_OUTER_BOUND('',#176,.T.);
#113=FACE_OUTER_BOUND('',#177,.T.);
#114=FACE_OUTER_BOUND('',#178,.T.);
#115=FACE_OUTER_BOUND('',#179,.T.);
#116=FACE_OUTER_BOUND('',#180,.T.);
#117=FACE_OUTER_BOUND('',#193,.T.);
#118=FACE_OUTER_BOUND('',#194,.T.);
#119=FACE_OUTER_BOUND('',#195,.T.);
#120=FACE_OUTER_BOUND('',#196,.T.);
#121=FACE_OUTER_BOUND('',#197,.T.);
#122=FACE_OUTER_BOUND('',#198,.T.);
#123=FACE_OUTER_BOUND('',#199,.T.);
#124=FACE_OUTER_BOUND('',#200,.T.);
#125=FACE_OUTER_BOUND('',#201,.T.);
#126=FACE_OUTER_BOUND('',#202,.T.);
#127=FACE_OUTER_BOUND('',#203,.T.);
#128=FACE_OUTER_BOUND('',#204,.T.);
#129=FACE_OUTER_BOUND('',#205,.T.);
#130=FACE_OUTER_BOUND('',#206,.T.);
#131=FACE_OUTER_BOUND('',#207,.T.);
#132=FACE_OUTER_BOUND('',#208,.T.);
#133=FACE_OUTER_BOUND('',#209,.T.);
#134=FACE_OUTER_BOUND('',#210,.T.);
#135=FACE_OUTER_BOUND('',#211,.T.);
#136=FACE_OUTER_BOUND('',#212,.T.);
#137=FACE_OUTER_BOUND('',#213,.T.);
#138=EDGE_LOOP('',(#565,#566,#567,#568));
#139=EDGE_LOOP('',(#569,#570,#571,#572));
#140=EDGE_LOOP('',(#573,#574,#575,#576));
#141=EDGE_LOOP('',(#577,#578,#579,#580));
#142=EDGE_LOOP('',(#581));
#143=EDGE_LOOP('',(#582));
#144=EDGE_LOOP('',(#583));
#145=EDGE_LOOP('',(#584));
#146=EDGE_LOOP('',(#585));
#147=EDGE_LOOP('',(#586));
#148=EDGE_LOOP('',(#587));
#149=EDGE_LOOP('',(#588));
#150=EDGE_LOOP('',(#589));
#151=EDGE_LOOP('',(#590));
#152=EDGE_LOOP('',(#591));
#153=EDGE_LOOP('',(#592));
#154=EDGE_LOOP('',(#593));
#155=EDGE_LOOP('',(#594));
#156=EDGE_LOOP('',(#595));
#157=EDGE_LOOP('',(#596));
#158=EDGE_LOOP('',(#597));
#159=EDGE_LOOP('',(#598));
#160=EDGE_LOOP('',(#599));
#161=EDGE_LOOP('',(#600));
#162=EDGE_LOOP('',(#601));
#163=EDGE_LOOP('',(#602));
#164=EDGE_LOOP('',(#603));
#165=EDGE_LOOP('',(#604));
#166=EDGE_LOOP('',(#605));
#167=EDGE_LOOP('',(#606));
#168=EDGE_LOOP('',(#607,#608,#609,#610));
#169=EDGE_LOOP('',(#611,#612,#613,#614));
#170=EDGE_LOOP('',(#615,#616,#617,#618));
#171=EDGE_LOOP('',(#619,#620,#621,#622));
#172=EDGE_LOOP('',(#623,#624,#625,#626));
#173=EDGE_LOOP('',(#627,#628,#629,#630));
#174=EDGE_LOOP('',(#631,#632,#633,#634));
#175=EDGE_LOOP('',(#635,#636,#637,#638));
#176=EDGE_LOOP('',(#639,#640,#641,#642));
#177=EDGE_LOOP('',(#643,#644,#645,#646));
#178=EDGE_LOOP('',(#647,#648,#649,#650));
#179=EDGE_LOOP('',(#651,#652,#653,#654));
#180=EDGE_LOOP('',(#655,#656,#657,#658));
#181=EDGE_LOOP('',(#659));
#182=EDGE_LOOP('',(#660));
#183=EDGE_LOOP('',(#661));
#184=EDGE_LOOP('',(#662));
#185=EDGE_LOOP('',(#663));
#186=EDGE_LOOP('',(#664));
#187=EDGE_LOOP('',(#665));
#188=EDGE_LOOP('',(#666));
#189=EDGE_LOOP('',(#667));
#190=EDGE_LOOP('',(#668));
#191=EDGE_LOOP('',(#669));
#192=EDGE_LOOP('',(#670));
#193=EDGE_LOOP('',(#671,#672,#673,#674));
#194=EDGE_LOOP('',(#675,#676,#677,#678));
#195=EDGE_LOOP('',(#679,#680,#681,#682,#683,#684,#685));
#196=EDGE_LOOP('',(#686,#687,#688,#689));
#197=EDGE_LOOP('',(#690,#691,#692,#693));
#198=EDGE_LOOP('',(#694,#695,#696,#697));
#199=EDGE_LOOP('',(#698,#699,#700,#701));
#200=EDGE_LOOP('',(#702,#703,#704,#705));
#201=EDGE_LOOP('',(#706,#707,#708,#709));
#202=EDGE_LOOP('',(#710,#711,#712,#713));
#203=EDGE_LOOP('',(#714,#715,#716,#717));
#204=EDGE_LOOP('',(#718,#719,#720,#721));
#205=EDGE_LOOP('',(#722,#723,#724,#725));
#206=EDGE_LOOP('',(#726,#727,#728,#729));
#207=EDGE_LOOP('',(#730,#731,#732,#733));
#208=EDGE_LOOP('',(#734,#735,#736,#737));
#209=EDGE_LOOP('',(#738,#739,#740,#741));
#210=EDGE_LOOP('',(#742,#743,#744,#745));
#211=EDGE_LOOP('',(#746,#747,#748,#749));
#212=EDGE_LOOP('',(#750,#751,#752,#753));
#213=EDGE_LOOP('',(#754,#755,#756,#757));
#214=EDGE_LOOP('',(#758));
#215=EDGE_LOOP('',(#759));
#216=EDGE_LOOP('',(#760));
#217=EDGE_LOOP('',(#761));
#218=EDGE_LOOP('',(#762,#763,#764,#765));
#219=EDGE_LOOP('',(#766));
#220=EDGE_LOOP('',(#767));
#221=EDGE_LOOP('',(#768));
#222=EDGE_LOOP('',(#769));
#223=EDGE_LOOP('',(#770));
#224=EDGE_LOOP('',(#771));
#225=EDGE_LOOP('',(#772));
#226=EDGE_LOOP('',(#773));
#227=EDGE_LOOP('',(#774));
#228=EDGE_LOOP('',(#775));
#229=EDGE_LOOP('',(#776));
#230=EDGE_LOOP('',(#777));
#231=EDGE_LOOP('',(#778));
#232=CIRCLE('',#861,0.57);
#233=CIRCLE('',#862,0.32);
#234=CIRCLE('',#866,0.32);
#235=CIRCLE('',#868,0.12);
#236=CIRCLE('',#869,0.0670000000000001);
#237=CIRCLE('',#871,0.135);
#238=CIRCLE('',#872,0.0375);
#239=CIRCLE('',#873,0.0375);
#240=CIRCLE('',#875,0.12);
#241=CIRCLE('',#876,0.067);
#242=CIRCLE('',#878,0.135);
#243=CIRCLE('',#879,0.0375);
#244=CIRCLE('',#880,0.0375);
#245=CIRCLE('',#882,0.135);
#246=CIRCLE('',#883,0.0375);
#247=CIRCLE('',#884,0.0375);
#248=CIRCLE('',#886,0.135);
#249=CIRCLE('',#887,0.0375);
#250=CIRCLE('',#888,0.0375);
#251=CIRCLE('',#890,0.135);
#252=CIRCLE('',#891,0.0375);
#253=CIRCLE('',#892,0.0375);
#254=CIRCLE('',#894,0.12);
#255=CIRCLE('',#895,0.067);
#256=CIRCLE('',#897,0.12);
#257=CIRCLE('',#898,0.0670000000000001);
#258=CIRCLE('',#900,0.135);
#259=CIRCLE('',#901,0.0375);
#260=CIRCLE('',#902,0.0375);
#261=CIRCLE('',#904,0.0375);
#262=CIRCLE('',#906,0.0375);
#263=CIRCLE('',#908,0.135);
#264=CIRCLE('',#910,0.12);
#265=CIRCLE('',#912,0.12);
#266=CIRCLE('',#914,0.135);
#267=CIRCLE('',#916,0.135);
#268=CIRCLE('',#918,0.135);
#269=CIRCLE('',#920,0.12);
#270=CIRCLE('',#922,0.12);
#271=CIRCLE('',#924,0.135);
#272=CIRCLE('',#926,0.135);
#273=CIRCLE('',#928,0.57);
#274=CIRCLE('',#929,0.325);
#275=CIRCLE('',#931,0.0375);
#276=CIRCLE('',#933,0.0375);
#277=CIRCLE('',#935,0.57);
#278=CIRCLE('',#937,0.325);
#279=CIRCLE('',#939,0.067);
#280=CIRCLE('',#941,0.0375);
#281=CIRCLE('',#943,0.0375);
#282=CIRCLE('',#945,0.0375);
#283=CIRCLE('',#947,0.0375);
#284=CIRCLE('',#949,0.0375);
#285=CIRCLE('',#951,0.0670000000000001);
#286=CIRCLE('',#953,0.0670000000000001);
#287=CIRCLE('',#955,0.067);
#288=CIRCLE('',#957,0.0375);
#289=CIRCLE('',#959,0.0375);
#290=CIRCLE('',#961,0.0375);
#291=LINE('',#1235,#339);
#292=LINE('',#1239,#340);
#293=LINE('',#1243,#341);
#294=LINE('',#1245,#342);
#295=LINE('',#1246,#343);
#296=LINE('',#1249,#344);
#297=LINE('',#1251,#345);
#298=LINE('',#1252,#346);
#299=LINE('',#1319,#347);
#300=LINE('',#1323,#348);
#301=LINE('',#1328,#349);
#302=LINE('',#1332,#350);
#303=LINE('',#1336,#351);
#304=LINE('',#1340,#352);
#305=LINE('',#1344,#353);
#306=LINE('',#1348,#354);
#307=LINE('',#1352,#355);
#308=LINE('',#1356,#356);
#309=LINE('',#1360,#357);
#310=LINE('',#1364,#358);
#311=LINE('',#1368,#359);
#312=LINE('',#1370,#360);
#313=LINE('',#1372,#361);
#314=LINE('',#1373,#362);
#315=LINE('',#1380,#363);
#316=LINE('',#1384,#364);
#317=LINE('',#1387,#365);
#318=LINE('',#1391,#366);
#319=LINE('',#1395,#367);
#320=LINE('',#1399,#368);
#321=LINE('',#1403,#369);
#322=LINE('',#1407,#370);
#323=LINE('',#1411,#371);
#324=LINE('',#1415,#372);
#325=LINE('',#1419,#373);
#326=LINE('',#1423,#374);
#327=LINE('',#1427,#375);
#328=LINE('',#1431,#376);
#329=LINE('',#1435,#377);
#330=LINE('',#1439,#378);
#331=LINE('',#1444,#379);
#332=LINE('',#1445,#380);
#333=LINE('',#1446,#381);
#334=LINE('',#1449,#382);
#335=LINE('',#1450,#383);
#336=LINE('',#1453,#384);
#337=LINE('',#1454,#385);
#338=LINE('',#1456,#386);
#339=VECTOR('',#971,0.393700787401575);
#340=VECTOR('',#974,0.393700787401575);
#341=VECTOR('',#979,0.393700787401575);
#342=VECTOR('',#980,0.393700787401575);
#343=VECTOR('',#981,0.393700787401575);
#344=VECTOR('',#984,0.393700787401575);
#345=VECTOR('',#985,0.393700787401575);
#346=VECTOR('',#986,0.393700787401575);
#347=VECTOR('',#1065,0.0375);
#348=VECTOR('',#1070,0.0375);
#349=VECTOR('',#1077,0.135);
#350=VECTOR('',#1082,0.12);
#351=VECTOR('',#1087,0.12);
#352=VECTOR('',#1092,0.135);
#353=VECTOR('',#1097,0.135);
#354=VECTOR('',#1102,0.135);
#355=VECTOR('',#1107,0.12);
#356=VECTOR('',#1112,0.12);
#357=VECTOR('',#1117,0.135);
#358=VECTOR('',#1122,0.135);
#359=VECTOR('',#1125,0.393700787401575);
#360=VECTOR('',#1126,0.393700787401575);
#361=VECTOR('',#1127,0.393700787401575);
#362=VECTOR('',#1128,0.393700787401575);
#363=VECTOR('',#1135,0.0375);
#364=VECTOR('',#1140,0.0375);
#365=VECTOR('',#1145,0.57);
#366=VECTOR('',#1150,0.325);
#367=VECTOR('',#1155,0.067);
#368=VECTOR('',#1160,0.0375);
#369=VECTOR('',#1165,0.0375);
#370=VECTOR('',#1170,0.0375);
#371=VECTOR('',#1175,0.0375);
#372=VECTOR('',#1180,0.0375);
#373=VECTOR('',#1185,0.0670000000000001);
#374=VECTOR('',#1190,0.0670000000000001);
#375=VECTOR('',#1195,0.067);
#376=VECTOR('',#1200,0.0375);
#377=VECTOR('',#1205,0.0375);
#378=VECTOR('',#1210,0.0375);
#379=VECTOR('',#1215,0.393700787401575);
#380=VECTOR('',#1216,0.393700787401575);
#381=VECTOR('',#1217,0.393700787401575);
#382=VECTOR('',#1220,0.393700787401575);
#383=VECTOR('',#1221,0.393700787401575);
#384=VECTOR('',#1224,0.393700787401575);
#385=VECTOR('',#1225,0.393700787401575);
#386=VECTOR('',#1228,0.393700787401575);
#387=VERTEX_POINT('',#1233);
#388=VERTEX_POINT('',#1234);
#389=VERTEX_POINT('',#1236);
#390=VERTEX_POINT('',#1238);
#391=VERTEX_POINT('',#1242);
#392=VERTEX_POINT('',#1244);
#393=VERTEX_POINT('',#1248);
#394=VERTEX_POINT('',#1250);
#395=VERTEX_POINT('',#1256);
#396=VERTEX_POINT('',#1258);
#397=VERTEX_POINT('',#1261);
#398=VERTEX_POINT('',#1263);
#399=VERTEX_POINT('',#1265);
#400=VERTEX_POINT('',#1268);
#401=VERTEX_POINT('',#1270);
#402=VERTEX_POINT('',#1273);
#403=VERTEX_POINT('',#1275);
#404=VERTEX_POINT('',#1277);
#405=VERTEX_POINT('',#1280);
#406=VERTEX_POINT('',#1282);
#407=VERTEX_POINT('',#1284);
#408=VERTEX_POINT('',#1287);
#409=VERTEX_POINT('',#1289);
#410=VERTEX_POINT('',#1291);
#411=VERTEX_POINT('',#1294);
#412=VERTEX_POINT('',#1296);
#413=VERTEX_POINT('',#1298);
#414=VERTEX_POINT('',#1301);
#415=VERTEX_POINT('',#1303);
#416=VERTEX_POINT('',#1306);
#417=VERTEX_POINT('',#1308);
#418=VERTEX_POINT('',#1311);
#419=VERTEX_POINT('',#1313);
#420=VERTEX_POINT('',#1315);
#421=VERTEX_POINT('',#1318);
#422=VERTEX_POINT('',#1322);
#423=VERTEX_POINT('',#1326);
#424=VERTEX_POINT('',#1330);
#425=VERTEX_POINT('',#1334);
#426=VERTEX_POINT('',#1338);
#427=VERTEX_POINT('',#1342);
#428=VERTEX_POINT('',#1346);
#429=VERTEX_POINT('',#1350);
#430=VERTEX_POINT('',#1354);
#431=VERTEX_POINT('',#1358);
#432=VERTEX_POINT('',#1362);
#433=VERTEX_POINT('',#1366);
#434=VERTEX_POINT('',#1367);
#435=VERTEX_POINT('',#1369);
#436=VERTEX_POINT('',#1371);
#437=VERTEX_POINT('',#1374);
#438=VERTEX_POINT('',#1376);
#439=VERTEX_POINT('',#1379);
#440=VERTEX_POINT('',#1383);
#441=VERTEX_POINT('',#1390);
#442=VERTEX_POINT('',#1394);
#443=VERTEX_POINT('',#1398);
#444=VERTEX_POINT('',#1402);
#445=VERTEX_POINT('',#1406);
#446=VERTEX_POINT('',#1410);
#447=VERTEX_POINT('',#1414);
#448=VERTEX_POINT('',#1418);
#449=VERTEX_POINT('',#1422);
#450=VERTEX_POINT('',#1426);
#451=VERTEX_POINT('',#1430);
#452=VERTEX_POINT('',#1434);
#453=VERTEX_POINT('',#1438);
#454=VERTEX_POINT('',#1442);
#455=VERTEX_POINT('',#1443);
#456=VERTEX_POINT('',#1448);
#457=VERTEX_POINT('',#1452);
#458=EDGE_CURVE('',#387,#388,#291,.T.);
#459=EDGE_CURVE('',#389,#387,#232,.T.);
#460=EDGE_CURVE('',#390,#389,#292,.T.);
#461=EDGE_CURVE('',#388,#390,#233,.T.);
#462=EDGE_CURVE('',#388,#391,#293,.T.);
#463=EDGE_CURVE('',#392,#391,#294,.T.);
#464=EDGE_CURVE('',#387,#392,#295,.T.);
#465=EDGE_CURVE('',#393,#389,#296,.T.);
#466=EDGE_CURVE('',#394,#393,#297,.T.);
#467=EDGE_CURVE('',#390,#394,#298,.T.);
#468=EDGE_CURVE('',#391,#394,#234,.T.);
#469=EDGE_CURVE('',#395,#395,#235,.T.);
#470=EDGE_CURVE('',#396,#396,#236,.T.);
#471=EDGE_CURVE('',#397,#397,#237,.T.);
#472=EDGE_CURVE('',#398,#398,#238,.T.);
#473=EDGE_CURVE('',#399,#399,#239,.T.);
#474=EDGE_CURVE('',#400,#400,#240,.T.);
#475=EDGE_CURVE('',#401,#401,#241,.T.);
#476=EDGE_CURVE('',#402,#402,#242,.T.);
#477=EDGE_CURVE('',#403,#403,#243,.T.);
#478=EDGE_CURVE('',#404,#404,#244,.T.);
#479=EDGE_CURVE('',#405,#405,#245,.T.);
#480=EDGE_CURVE('',#406,#406,#246,.T.);
#481=EDGE_CURVE('',#407,#407,#247,.T.);
#482=EDGE_CURVE('',#408,#408,#248,.T.);
#483=EDGE_CURVE('',#409,#409,#249,.T.);
#484=EDGE_CURVE('',#410,#410,#250,.T.);
#485=EDGE_CURVE('',#411,#411,#251,.T.);
#486=EDGE_CURVE('',#412,#412,#252,.T.);
#487=EDGE_CURVE('',#413,#413,#253,.T.);
#488=EDGE_CURVE('',#414,#414,#254,.T.);
#489=EDGE_CURVE('',#415,#415,#255,.T.);
#490=EDGE_CURVE('',#416,#416,#256,.T.);
#491=EDGE_CURVE('',#417,#417,#257,.T.);
#492=EDGE_CURVE('',#418,#418,#258,.T.);
#493=EDGE_CURVE('',#419,#419,#259,.T.);
#494=EDGE_CURVE('',#420,#420,#260,.T.);
#495=EDGE_CURVE('',#412,#421,#299,.T.);
#496=EDGE_CURVE('',#421,#421,#261,.T.);
#497=EDGE_CURVE('',#413,#422,#300,.T.);
#498=EDGE_CURVE('',#422,#422,#262,.T.);
#499=EDGE_CURVE('',#423,#423,#263,.T.);
#500=EDGE_CURVE('',#423,#397,#301,.T.);
#501=EDGE_CURVE('',#424,#424,#264,.T.);
#502=EDGE_CURVE('',#424,#414,#302,.T.);
#503=EDGE_CURVE('',#425,#425,#265,.T.);
#504=EDGE_CURVE('',#425,#400,#303,.T.);
#505=EDGE_CURVE('',#426,#426,#266,.T.);
#506=EDGE_CURVE('',#426,#405,#304,.T.);
#507=EDGE_CURVE('',#427,#427,#267,.T.);
#508=EDGE_CURVE('',#427,#411,#305,.T.);
#509=EDGE_CURVE('',#428,#428,#268,.T.);
#510=EDGE_CURVE('',#428,#402,#306,.T.);
#511=EDGE_CURVE('',#429,#429,#269,.T.);
#512=EDGE_CURVE('',#429,#416,#307,.T.);
#513=EDGE_CURVE('',#430,#430,#270,.T.);
#514=EDGE_CURVE('',#430,#395,#308,.T.);
#515=EDGE_CURVE('',#431,#431,#271,.T.);
#516=EDGE_CURVE('',#431,#418,#309,.T.);
#517=EDGE_CURVE('',#432,#432,#272,.T.);
#518=EDGE_CURVE('',#432,#408,#310,.T.);
#519=EDGE_CURVE('',#433,#434,#311,.T.);
#520=EDGE_CURVE('',#434,#435,#312,.T.);
#521=EDGE_CURVE('',#435,#436,#313,.T.);
#522=EDGE_CURVE('',#436,#433,#314,.T.);
#523=EDGE_CURVE('',#437,#437,#273,.T.);
#524=EDGE_CURVE('',#438,#438,#274,.T.);
#525=EDGE_CURVE('',#404,#439,#315,.T.);
#526=EDGE_CURVE('',#439,#439,#275,.T.);
#527=EDGE_CURVE('',#407,#440,#316,.T.);
#528=EDGE_CURVE('',#440,#440,#276,.T.);
#529=EDGE_CURVE('',#437,#389,#317,.T.);
#530=EDGE_CURVE('',#393,#392,#277,.T.);
#531=EDGE_CURVE('',#438,#441,#318,.T.);
#532=EDGE_CURVE('',#441,#441,#278,.T.);
#533=EDGE_CURVE('',#415,#442,#319,.T.);
#534=EDGE_CURVE('',#442,#442,#279,.T.);
#535=EDGE_CURVE('',#409,#443,#320,.T.);
#536=EDGE_CURVE('',#443,#443,#280,.T.);
#537=EDGE_CURVE('',#420,#444,#321,.T.);
#538=EDGE_CURVE('',#444,#444,#281,.T.);
#539=EDGE_CURVE('',#398,#445,#322,.T.);
#540=EDGE_CURVE('',#445,#445,#282,.T.);
#541=EDGE_CURVE('',#403,#446,#323,.T.);
#542=EDGE_CURVE('',#446,#446,#283,.T.);
#543=EDGE_CURVE('',#406,#447,#324,.T.);
#544=EDGE_CURVE('',#447,#447,#284,.T.);
#545=EDGE_CURVE('',#396,#448,#325,.T.);
#546=EDGE_CURVE('',#448,#448,#285,.T.);
#547=EDGE_CURVE('',#417,#449,#326,.T.);
#548=EDGE_CURVE('',#449,#449,#286,.T.);
#549=EDGE_CURVE('',#401,#450,#327,.T.);
#550=EDGE_CURVE('',#450,#450,#287,.T.);
#551=EDGE_CURVE('',#410,#451,#328,.T.);
#552=EDGE_CURVE('',#451,#451,#288,.T.);
#553=EDGE_CURVE('',#419,#452,#329,.T.);
#554=EDGE_CURVE('',#452,#452,#289,.T.);
#555=EDGE_CURVE('',#399,#453,#330,.T.);
#556=EDGE_CURVE('',#453,#453,#290,.T.);
#557=EDGE_CURVE('',#454,#455,#331,.T.);
#558=EDGE_CURVE('',#455,#433,#332,.T.);
#559=EDGE_CURVE('',#454,#436,#333,.T.);
#560=EDGE_CURVE('',#456,#454,#334,.T.);
#561=EDGE_CURVE('',#456,#435,#335,.T.);
#562=EDGE_CURVE('',#457,#456,#336,.T.);
#563=EDGE_CURVE('',#457,#434,#337,.T.);
#564=EDGE_CURVE('',#455,#457,#338,.T.);
#565=ORIENTED_EDGE('',*,*,#458,.F.);
#566=ORIENTED_EDGE('',*,*,#459,.F.);
#567=ORIENTED_EDGE('',*,*,#460,.F.);
#568=ORIENTED_EDGE('',*,*,#461,.F.);
#569=ORIENTED_EDGE('',*,*,#458,.T.);
#570=ORIENTED_EDGE('',*,*,#462,.T.);
#571=ORIENTED_EDGE('',*,*,#463,.F.);
#572=ORIENTED_EDGE('',*,*,#464,.F.);
#573=ORIENTED_EDGE('',*,*,#460,.T.);
#574=ORIENTED_EDGE('',*,*,#465,.F.);
#575=ORIENTED_EDGE('',*,*,#466,.F.);
#576=ORIENTED_EDGE('',*,*,#467,.F.);
#577=ORIENTED_EDGE('',*,*,#461,.T.);
#578=ORIENTED_EDGE('',*,*,#467,.T.);
#579=ORIENTED_EDGE('',*,*,#468,.F.);
#580=ORIENTED_EDGE('',*,*,#462,.F.);
#581=ORIENTED_EDGE('',*,*,#469,.F.);
#582=ORIENTED_EDGE('',*,*,#470,.F.);
#583=ORIENTED_EDGE('',*,*,#471,.F.);
#584=ORIENTED_EDGE('',*,*,#472,.F.);
#585=ORIENTED_EDGE('',*,*,#473,.F.);
#586=ORIENTED_EDGE('',*,*,#474,.F.);
#587=ORIENTED_EDGE('',*,*,#475,.F.);
#588=ORIENTED_EDGE('',*,*,#476,.F.);
#589=ORIENTED_EDGE('',*,*,#477,.F.);
#590=ORIENTED_EDGE('',*,*,#478,.F.);
#591=ORIENTED_EDGE('',*,*,#479,.F.);
#592=ORIENTED_EDGE('',*,*,#480,.F.);
#593=ORIENTED_EDGE('',*,*,#481,.F.);
#594=ORIENTED_EDGE('',*,*,#482,.F.);
#595=ORIENTED_EDGE('',*,*,#483,.F.);
#596=ORIENTED_EDGE('',*,*,#484,.F.);
#597=ORIENTED_EDGE('',*,*,#485,.F.);
#598=ORIENTED_EDGE('',*,*,#486,.F.);
#599=ORIENTED_EDGE('',*,*,#487,.F.);
#600=ORIENTED_EDGE('',*,*,#488,.F.);
#601=ORIENTED_EDGE('',*,*,#489,.F.);
#602=ORIENTED_EDGE('',*,*,#490,.F.);
#603=ORIENTED_EDGE('',*,*,#491,.F.);
#604=ORIENTED_EDGE('',*,*,#492,.F.);
#605=ORIENTED_EDGE('',*,*,#493,.F.);
#606=ORIENTED_EDGE('',*,*,#494,.F.);
#607=ORIENTED_EDGE('',*,*,#486,.T.);
#608=ORIENTED_EDGE('',*,*,#495,.T.);
#609=ORIENTED_EDGE('',*,*,#496,.F.);
#610=ORIENTED_EDGE('',*,*,#495,.F.);
#611=ORIENTED_EDGE('',*,*,#487,.T.);
#612=ORIENTED_EDGE('',*,*,#497,.T.);
#613=ORIENTED_EDGE('',*,*,#498,.F.);
#614=ORIENTED_EDGE('',*,*,#497,.F.);
#615=ORIENTED_EDGE('',*,*,#499,.F.);
#616=ORIENTED_EDGE('',*,*,#500,.T.);
#617=ORIENTED_EDGE('',*,*,#471,.T.);
#618=ORIENTED_EDGE('',*,*,#500,.F.);
#619=ORIENTED_EDGE('',*,*,#501,.F.);
#620=ORIENTED_EDGE('',*,*,#502,.T.);
#621=ORIENTED_EDGE('',*,*,#488,.T.);
#622=ORIENTED_EDGE('',*,*,#502,.F.);
#623=ORIENTED_EDGE('',*,*,#503,.F.);
#624=ORIENTED_EDGE('',*,*,#504,.T.);
#625=ORIENTED_EDGE('',*,*,#474,.T.);
#626=ORIENTED_EDGE('',*,*,#504,.F.);
#627=ORIENTED_EDGE('',*,*,#505,.F.);
#628=ORIENTED_EDGE('',*,*,#506,.T.);
#629=ORIENTED_EDGE('',*,*,#479,.T.);
#630=ORIENTED_EDGE('',*,*,#506,.F.);
#631=ORIENTED_EDGE('',*,*,#507,.F.);
#632=ORIENTED_EDGE('',*,*,#508,.T.);
#633=ORIENTED_EDGE('',*,*,#485,.T.);
#634=ORIENTED_EDGE('',*,*,#508,.F.);
#635=ORIENTED_EDGE('',*,*,#509,.F.);
#636=ORIENTED_EDGE('',*,*,#510,.T.);
#637=ORIENTED_EDGE('',*,*,#476,.T.);
#638=ORIENTED_EDGE('',*,*,#510,.F.);
#639=ORIENTED_EDGE('',*,*,#511,.F.);
#640=ORIENTED_EDGE('',*,*,#512,.T.);
#641=ORIENTED_EDGE('',*,*,#490,.T.);
#642=ORIENTED_EDGE('',*,*,#512,.F.);
#643=ORIENTED_EDGE('',*,*,#513,.F.);
#644=ORIENTED_EDGE('',*,*,#514,.T.);
#645=ORIENTED_EDGE('',*,*,#469,.T.);
#646=ORIENTED_EDGE('',*,*,#514,.F.);
#647=ORIENTED_EDGE('',*,*,#515,.F.);
#648=ORIENTED_EDGE('',*,*,#516,.T.);
#649=ORIENTED_EDGE('',*,*,#492,.T.);
#650=ORIENTED_EDGE('',*,*,#516,.F.);
#651=ORIENTED_EDGE('',*,*,#517,.F.);
#652=ORIENTED_EDGE('',*,*,#518,.T.);
#653=ORIENTED_EDGE('',*,*,#482,.T.);
#654=ORIENTED_EDGE('',*,*,#518,.F.);
#655=ORIENTED_EDGE('',*,*,#519,.T.);
#656=ORIENTED_EDGE('',*,*,#520,.T.);
#657=ORIENTED_EDGE('',*,*,#521,.T.);
#658=ORIENTED_EDGE('',*,*,#522,.T.);
#659=ORIENTED_EDGE('',*,*,#499,.T.);
#660=ORIENTED_EDGE('',*,*,#501,.T.);
#661=ORIENTED_EDGE('',*,*,#503,.T.);
#662=ORIENTED_EDGE('',*,*,#505,.T.);
#663=ORIENTED_EDGE('',*,*,#507,.T.);
#664=ORIENTED_EDGE('',*,*,#509,.T.);
#665=ORIENTED_EDGE('',*,*,#511,.T.);
#666=ORIENTED_EDGE('',*,*,#513,.T.);
#667=ORIENTED_EDGE('',*,*,#515,.T.);
#668=ORIENTED_EDGE('',*,*,#517,.T.);
#669=ORIENTED_EDGE('',*,*,#523,.T.);
#670=ORIENTED_EDGE('',*,*,#524,.T.);
#671=ORIENTED_EDGE('',*,*,#478,.T.);
#672=ORIENTED_EDGE('',*,*,#525,.T.);
#673=ORIENTED_EDGE('',*,*,#526,.F.);
#674=ORIENTED_EDGE('',*,*,#525,.F.);
#675=ORIENTED_EDGE('',*,*,#481,.T.);
#676=ORIENTED_EDGE('',*,*,#527,.T.);
#677=ORIENTED_EDGE('',*,*,#528,.F.);
#678=ORIENTED_EDGE('',*,*,#527,.F.);
#679=ORIENTED_EDGE('',*,*,#523,.F.);
#680=ORIENTED_EDGE('',*,*,#529,.T.);
#681=ORIENTED_EDGE('',*,*,#459,.T.);
#682=ORIENTED_EDGE('',*,*,#464,.T.);
#683=ORIENTED_EDGE('',*,*,#530,.F.);
#684=ORIENTED_EDGE('',*,*,#465,.T.);
#685=ORIENTED_EDGE('',*,*,#529,.F.);
#686=ORIENTED_EDGE('',*,*,#524,.F.);
#687=ORIENTED_EDGE('',*,*,#531,.T.);
#688=ORIENTED_EDGE('',*,*,#532,.F.);
#689=ORIENTED_EDGE('',*,*,#531,.F.);
#690=ORIENTED_EDGE('',*,*,#489,.T.);
#691=ORIENTED_EDGE('',*,*,#533,.T.);
#692=ORIENTED_EDGE('',*,*,#534,.F.);
#693=ORIENTED_EDGE('',*,*,#533,.F.);
#694=ORIENTED_EDGE('',*,*,#483,.T.);
#695=ORIENTED_EDGE('',*,*,#535,.T.);
#696=ORIENTED_EDGE('',*,*,#536,.F.);
#697=ORIENTED_EDGE('',*,*,#535,.F.);
#698=ORIENTED_EDGE('',*,*,#494,.T.);
#699=ORIENTED_EDGE('',*,*,#537,.T.);
#700=ORIENTED_EDGE('',*,*,#538,.F.);
#701=ORIENTED_EDGE('',*,*,#537,.F.);
#702=ORIENTED_EDGE('',*,*,#472,.T.);
#703=ORIENTED_EDGE('',*,*,#539,.T.);
#704=ORIENTED_EDGE('',*,*,#540,.F.);
#705=ORIENTED_EDGE('',*,*,#539,.F.);
#706=ORIENTED_EDGE('',*,*,#477,.T.);
#707=ORIENTED_EDGE('',*,*,#541,.T.);
#708=ORIENTED_EDGE('',*,*,#542,.F.);
#709=ORIENTED_EDGE('',*,*,#541,.F.);
#710=ORIENTED_EDGE('',*,*,#480,.T.);
#711=ORIENTED_EDGE('',*,*,#543,.T.);
#712=ORIENTED_EDGE('',*,*,#544,.F.);
#713=ORIENTED_EDGE('',*,*,#543,.F.);
#714=ORIENTED_EDGE('',*,*,#470,.T.);
#715=ORIENTED_EDGE('',*,*,#545,.T.);
#716=ORIENTED_EDGE('',*,*,#546,.F.);
#717=ORIENTED_EDGE('',*,*,#545,.F.);
#718=ORIENTED_EDGE('',*,*,#491,.T.);
#719=ORIENTED_EDGE('',*,*,#547,.T.);
#720=ORIENTED_EDGE('',*,*,#548,.F.);
#721=ORIENTED_EDGE('',*,*,#547,.F.);
#722=ORIENTED_EDGE('',*,*,#475,.T.);
#723=ORIENTED_EDGE('',*,*,#549,.T.);
#724=ORIENTED_EDGE('',*,*,#550,.F.);
#725=ORIENTED_EDGE('',*,*,#549,.F.);
#726=ORIENTED_EDGE('',*,*,#484,.T.);
#727=ORIENTED_EDGE('',*,*,#551,.T.);
#728=ORIENTED_EDGE('',*,*,#552,.F.);
#729=ORIENTED_EDGE('',*,*,#551,.F.);
#730=ORIENTED_EDGE('',*,*,#493,.T.);
#731=ORIENTED_EDGE('',*,*,#553,.T.);
#732=ORIENTED_EDGE('',*,*,#554,.F.);
#733=ORIENTED_EDGE('',*,*,#553,.F.);
#734=ORIENTED_EDGE('',*,*,#473,.T.);
#735=ORIENTED_EDGE('',*,*,#555,.T.);
#736=ORIENTED_EDGE('',*,*,#556,.F.);
#737=ORIENTED_EDGE('',*,*,#555,.F.);
#738=ORIENTED_EDGE('',*,*,#557,.T.);
#739=ORIENTED_EDGE('',*,*,#558,.T.);
#740=ORIENTED_EDGE('',*,*,#522,.F.);
#741=ORIENTED_EDGE('',*,*,#559,.F.);
#742=ORIENTED_EDGE('',*,*,#560,.T.);
#743=ORIENTED_EDGE('',*,*,#559,.T.);
#744=ORIENTED_EDGE('',*,*,#521,.F.);
#745=ORIENTED_EDGE('',*,*,#561,.F.);
#746=ORIENTED_EDGE('',*,*,#562,.T.);
#747=ORIENTED_EDGE('',*,*,#561,.T.);
#748=ORIENTED_EDGE('',*,*,#520,.F.);
#749=ORIENTED_EDGE('',*,*,#563,.F.);
#750=ORIENTED_EDGE('',*,*,#564,.T.);
#751=ORIENTED_EDGE('',*,*,#563,.T.);
#752=ORIENTED_EDGE('',*,*,#519,.F.);
#753=ORIENTED_EDGE('',*,*,#558,.F.);
#754=ORIENTED_EDGE('',*,*,#564,.F.);
#755=ORIENTED_EDGE('',*,*,#557,.F.);
#756=ORIENTED_EDGE('',*,*,#560,.F.);
#757=ORIENTED_EDGE('',*,*,#562,.F.);
#758=ORIENTED_EDGE('',*,*,#496,.T.);
#759=ORIENTED_EDGE('',*,*,#498,.T.);
#760=ORIENTED_EDGE('',*,*,#526,.T.);
#761=ORIENTED_EDGE('',*,*,#528,.T.);
#762=ORIENTED_EDGE('',*,*,#530,.T.);
#763=ORIENTED_EDGE('',*,*,#463,.T.);
#764=ORIENTED_EDGE('',*,*,#468,.T.);
#765=ORIENTED_EDGE('',*,*,#466,.T.);
#766=ORIENTED_EDGE('',*,*,#532,.T.);
#767=ORIENTED_EDGE('',*,*,#534,.T.);
#768=ORIENTED_EDGE('',*,*,#536,.T.);
#769=ORIENTED_EDGE('',*,*,#538,.T.);
#770=ORIENTED_EDGE('',*,*,#540,.T.);
#771=ORIENTED_EDGE('',*,*,#542,.T.);
#772=ORIENTED_EDGE('',*,*,#544,.T.);
#773=ORIENTED_EDGE('',*,*,#546,.T.);
#774=ORIENTED_EDGE('',*,*,#548,.T.);
#775=ORIENTED_EDGE('',*,*,#550,.T.);
#776=ORIENTED_EDGE('',*,*,#552,.T.);
#777=ORIENTED_EDGE('',*,*,#554,.T.);
#778=ORIENTED_EDGE('',*,*,#556,.T.);
#779=PLANE('',#860);
#780=PLANE('',#863);
#781=PLANE('',#864);
#782=PLANE('',#867);
#783=PLANE('',#870);
#784=PLANE('',#874);
#785=PLANE('',#877);
#786=PLANE('',#881);
#787=PLANE('',#885);
#788=PLANE('',#889);
#789=PLANE('',#893);
#790=PLANE('',#896);
#791=PLANE('',#899);
#792=PLANE('',#927);
#793=PLANE('',#962);
#794=PLANE('',#963);
#795=PLANE('',#964);
#796=PLANE('',#965);
#797=PLANE('',#966);
#798=ADVANCED_FACE('',(#90),#779,.T.);
#799=ADVANCED_FACE('',(#91),#780,.T.);
#800=ADVANCED_FACE('',(#92),#781,.T.);
#801=ADVANCED_FACE('',(#93),#61,.F.);
#802=ADVANCED_FACE('',(#94,#15),#782,.T.);
#803=ADVANCED_FACE('',(#95,#16,#17),#783,.T.);
#804=ADVANCED_FACE('',(#96,#18),#784,.T.);
#805=ADVANCED_FACE('',(#97,#19,#20),#785,.T.);
#806=ADVANCED_FACE('',(#98,#21,#22),#786,.T.);
#807=ADVANCED_FACE('',(#99,#23,#24),#787,.T.);
#808=ADVANCED_FACE('',(#100,#25,#26),#788,.T.);
#809=ADVANCED_FACE('',(#101,#27),#789,.T.);
#810=ADVANCED_FACE('',(#102,#28),#790,.T.);
#811=ADVANCED_FACE('',(#103,#29,#30),#791,.T.);
#812=ADVANCED_FACE('',(#104),#62,.F.);
#813=ADVANCED_FACE('',(#105),#63,.F.);
#814=ADVANCED_FACE('',(#106),#64,.F.);
#815=ADVANCED_FACE('',(#107),#65,.F.);
#816=ADVANCED_FACE('',(#108),#66,.F.);
#817=ADVANCED_FACE('',(#109),#67,.F.);
#818=ADVANCED_FACE('',(#110),#68,.F.);
#819=ADVANCED_FACE('',(#111),#69,.F.);
#820=ADVANCED_FACE('',(#112),#70,.F.);
#821=ADVANCED_FACE('',(#113),#71,.F.);
#822=ADVANCED_FACE('',(#114),#72,.F.);
#823=ADVANCED_FACE('',(#115),#73,.F.);
#824=ADVANCED_FACE('',(#116,#31,#32,#33,#34,#35,#36,#37,#38,#39,#40,#41,
#42),#792,.T.);
#825=ADVANCED_FACE('',(#117),#74,.F.);
#826=ADVANCED_FACE('',(#118),#75,.F.);
#827=ADVANCED_FACE('',(#119),#76,.F.);
#828=ADVANCED_FACE('',(#120),#77,.F.);
#829=ADVANCED_FACE('',(#121),#78,.F.);
#830=ADVANCED_FACE('',(#122),#79,.F.);
#831=ADVANCED_FACE('',(#123),#80,.F.);
#832=ADVANCED_FACE('',(#124),#81,.F.);
#833=ADVANCED_FACE('',(#125),#82,.F.);
#834=ADVANCED_FACE('',(#126),#83,.F.);
#835=ADVANCED_FACE('',(#127),#84,.F.);
#836=ADVANCED_FACE('',(#128),#85,.F.);
#837=ADVANCED_FACE('',(#129),#86,.F.);
#838=ADVANCED_FACE('',(#130),#87,.F.);
#839=ADVANCED_FACE('',(#131),#88,.F.);
#840=ADVANCED_FACE('',(#132),#89,.F.);
#841=ADVANCED_FACE('',(#133),#793,.T.);
#842=ADVANCED_FACE('',(#134),#794,.T.);
#843=ADVANCED_FACE('',(#135),#795,.T.);
#844=ADVANCED_FACE('',(#136),#796,.T.);
#845=ADVANCED_FACE('',(#137,#43,#44,#45,#46,#47,#48,#49,#50,#51,#52,#53,
#54,#55,#56,#57,#58,#59,#60),#797,.F.);
#846=CLOSED_SHELL('',(#798,#799,#800,#801,#802,#803,#804,#805,#806,#807,
#808,#809,#810,#811,#812,#813,#814,#815,#816,#817,#818,#819,#820,#821,#822,
#823,#824,#825,#826,#827,#828,#829,#830,#831,#832,#833,#834,#835,#836,#837,
#838,#839,#840,#841,#842,#843,#844,#845));
#847=DERIVED_UNIT_ELEMENT(#849,1.);
#848=DERIVED_UNIT_ELEMENT(#1465,-3.);
#849=(
MASS_UNIT()
NAMED_UNIT(*)
SI_UNIT(.KILO.,.GRAM.)
);
#850=DERIVED_UNIT((#847,#848));
#851=MEASURE_REPRESENTATION_ITEM('density measure',
POSITIVE_RATIO_MEASURE(7850.),#850);
#852=PROPERTY_DEFINITION_REPRESENTATION(#857,#854);
#853=PROPERTY_DEFINITION_REPRESENTATION(#858,#855);
#854=REPRESENTATION('material name',(#856),#1460);
#855=REPRESENTATION('density',(#851),#1460);
#856=DESCRIPTIVE_REPRESENTATION_ITEM('Steel','Steel');
#857=PROPERTY_DEFINITION('material property','material name',#1473);
#858=PROPERTY_DEFINITION('material property','density of part',#1473);
#859=AXIS2_PLACEMENT_3D('',#1231,#967,#968);
#860=AXIS2_PLACEMENT_3D('',#1232,#969,#970);
#861=AXIS2_PLACEMENT_3D('',#1237,#972,#973);
#862=AXIS2_PLACEMENT_3D('',#1240,#975,#976);
#863=AXIS2_PLACEMENT_3D('',#1241,#977,#978);
#864=AXIS2_PLACEMENT_3D('',#1247,#982,#983);
#865=AXIS2_PLACEMENT_3D('',#1253,#987,#988);
#866=AXIS2_PLACEMENT_3D('',#1254,#989,#990);
#867=AXIS2_PLACEMENT_3D('',#1255,#991,#992);
#868=AXIS2_PLACEMENT_3D('',#1257,#993,#994);
#869=AXIS2_PLACEMENT_3D('',#1259,#995,#996);
#870=AXIS2_PLACEMENT_3D('',#1260,#997,#998);
#871=AXIS2_PLACEMENT_3D('',#1262,#999,#1000);
#872=AXIS2_PLACEMENT_3D('',#1264,#1001,#1002);
#873=AXIS2_PLACEMENT_3D('',#1266,#1003,#1004);
#874=AXIS2_PLACEMENT_3D('',#1267,#1005,#1006);
#875=AXIS2_PLACEMENT_3D('',#1269,#1007,#1008);
#876=AXIS2_PLACEMENT_3D('',#1271,#1009,#1010);
#877=AXIS2_PLACEMENT_3D('',#1272,#1011,#1012);
#878=AXIS2_PLACEMENT_3D('',#1274,#1013,#1014);
#879=AXIS2_PLACEMENT_3D('',#1276,#1015,#1016);
#880=AXIS2_PLACEMENT_3D('',#1278,#1017,#1018);
#881=AXIS2_PLACEMENT_3D('',#1279,#1019,#1020);
#882=AXIS2_PLACEMENT_3D('',#1281,#1021,#1022);
#883=AXIS2_PLACEMENT_3D('',#1283,#1023,#1024);
#884=AXIS2_PLACEMENT_3D('',#1285,#1025,#1026);
#885=AXIS2_PLACEMENT_3D('',#1286,#1027,#1028);
#886=AXIS2_PLACEMENT_3D('',#1288,#1029,#1030);
#887=AXIS2_PLACEMENT_3D('',#1290,#1031,#1032);
#888=AXIS2_PLACEMENT_3D('',#1292,#1033,#1034);
#889=AXIS2_PLACEMENT_3D('',#1293,#1035,#1036);
#890=AXIS2_PLACEMENT_3D('',#1295,#1037,#1038);
#891=AXIS2_PLACEMENT_3D('',#1297,#1039,#1040);
#892=AXIS2_PLACEMENT_3D('',#1299,#1041,#1042);
#893=AXIS2_PLACEMENT_3D('',#1300,#1043,#1044);
#894=AXIS2_PLACEMENT_3D('',#1302,#1045,#1046);
#895=AXIS2_PLACEMENT_3D('',#1304,#1047,#1048);
#896=AXIS2_PLACEMENT_3D('',#1305,#1049,#1050);
#897=AXIS2_PLACEMENT_3D('',#1307,#1051,#1052);
#898=AXIS2_PLACEMENT_3D('',#1309,#1053,#1054);
#899=AXIS2_PLACEMENT_3D('',#1310,#1055,#1056);
#900=AXIS2_PLACEMENT_3D('',#1312,#1057,#1058);
#901=AXIS2_PLACEMENT_3D('',#1314,#1059,#1060);
#902=AXIS2_PLACEMENT_3D('',#1316,#1061,#1062);
#903=AXIS2_PLACEMENT_3D('',#1317,#1063,#1064);
#904=AXIS2_PLACEMENT_3D('',#1320,#1066,#1067);
#905=AXIS2_PLACEMENT_3D('',#1321,#1068,#1069);
#906=AXIS2_PLACEMENT_3D('',#1324,#1071,#1072);
#907=AXIS2_PLACEMENT_3D('',#1325,#1073,#1074);
#908=AXIS2_PLACEMENT_3D('',#1327,#1075,#1076);
#909=AXIS2_PLACEMENT_3D('',#1329,#1078,#1079);
#910=AXIS2_PLACEMENT_3D('',#1331,#1080,#1081);
#911=AXIS2_PLACEMENT_3D('',#1333,#1083,#1084);
#912=AXIS2_PLACEMENT_3D('',#1335,#1085,#1086);
#913=AXIS2_PLACEMENT_3D('',#1337,#1088,#1089);
#914=AXIS2_PLACEMENT_3D('',#1339,#1090,#1091);
#915=AXIS2_PLACEMENT_3D('',#1341,#1093,#1094);
#916=AXIS2_PLACEMENT_3D('',#1343,#1095,#1096);
#917=AXIS2_PLACEMENT_3D('',#1345,#1098,#1099);
#918=AXIS2_PLACEMENT_3D('',#1347,#1100,#1101);
#919=AXIS2_PLACEMENT_3D('',#1349,#1103,#1104);
#920=AXIS2_PLACEMENT_3D('',#1351,#1105,#1106);
#921=AXIS2_PLACEMENT_3D('',#1353,#1108,#1109);
#922=AXIS2_PLACEMENT_3D('',#1355,#1110,#1111);
#923=AXIS2_PLACEMENT_3D('',#1357,#1113,#1114);
#924=AXIS2_PLACEMENT_3D('',#1359,#1115,#1116);
#925=AXIS2_PLACEMENT_3D('',#1361,#1118,#1119);
#926=AXIS2_PLACEMENT_3D('',#1363,#1120,#1121);
#927=AXIS2_PLACEMENT_3D('',#1365,#1123,#1124);
#928=AXIS2_PLACEMENT_3D('',#1375,#1129,#1130);
#929=AXIS2_PLACEMENT_3D('',#1377,#1131,#1132);
#930=AXIS2_PLACEMENT_3D('',#1378,#1133,#1134);
#931=AXIS2_PLACEMENT_3D('',#1381,#1136,#1137);
#932=AXIS2_PLACEMENT_3D('',#1382,#1138,#1139);
#933=AXIS2_PLACEMENT_3D('',#1385,#1141,#1142);
#934=AXIS2_PLACEMENT_3D('',#1386,#1143,#1144);
#935=AXIS2_PLACEMENT_3D('',#1388,#1146,#1147);
#936=AXIS2_PLACEMENT_3D('',#1389,#1148,#1149);
#937=AXIS2_PLACEMENT_3D('',#1392,#1151,#1152);
#938=AXIS2_PLACEMENT_3D('',#1393,#1153,#1154);
#939=AXIS2_PLACEMENT_3D('',#1396,#1156,#1157);
#940=AXIS2_PLACEMENT_3D('',#1397,#1158,#1159);
#941=AXIS2_PLACEMENT_3D('',#1400,#1161,#1162);
#942=AXIS2_PLACEMENT_3D('',#1401,#1163,#1164);
#943=AXIS2_PLACEMENT_3D('',#1404,#1166,#1167);
#944=AXIS2_PLACEMENT_3D('',#1405,#1168,#1169);
#945=AXIS2_PLACEMENT_3D('',#1408,#1171,#1172);
#946=AXIS2_PLACEMENT_3D('',#1409,#1173,#1174);
#947=AXIS2_PLACEMENT_3D('',#1412,#1176,#1177);
#948=AXIS2_PLACEMENT_3D('',#1413,#1178,#1179);
#949=AXIS2_PLACEMENT_3D('',#1416,#1181,#1182);
#950=AXIS2_PLACEMENT_3D('',#1417,#1183,#1184);
#951=AXIS2_PLACEMENT_3D('',#1420,#1186,#1187);
#952=AXIS2_PLACEMENT_3D('',#1421,#1188,#1189);
#953=AXIS2_PLACEMENT_3D('',#1424,#1191,#1192);
#954=AXIS2_PLACEMENT_3D('',#1425,#1193,#1194);
#955=AXIS2_PLACEMENT_3D('',#1428,#1196,#1197);
#956=AXIS2_PLACEMENT_3D('',#1429,#1198,#1199);
#957=AXIS2_PLACEMENT_3D('',#1432,#1201,#1202);
#958=AXIS2_PLACEMENT_3D('',#1433,#1203,#1204);
#959=AXIS2_PLACEMENT_3D('',#1436,#1206,#1207);
#960=AXIS2_PLACEMENT_3D('',#1437,#1208,#1209);
#961=AXIS2_PLACEMENT_3D('',#1440,#1211,#1212);
#962=AXIS2_PLACEMENT_3D('',#1441,#1213,#1214);
#963=AXIS2_PLACEMENT_3D('',#1447,#1218,#1219);
#964=AXIS2_PLACEMENT_3D('',#1451,#1222,#1223);
#965=AXIS2_PLACEMENT_3D('',#1455,#1226,#1227);
#966=AXIS2_PLACEMENT_3D('',#1457,#1229,#1230);
#967=DIRECTION('axis',(0.,0.,1.));
#968=DIRECTION('refdir',(1.,0.,0.));
#969=DIRECTION('center_axis',(0.,0.,1.));
#970=DIRECTION('ref_axis',(-1.,0.,0.));
#971=DIRECTION('',(2.00427939020847E-11,-1.,0.));
#972=DIRECTION('center_axis',(0.,0.,-1.));
#973=DIRECTION('ref_axis',(-1.,0.,0.));
#974=DIRECTION('',(1.,0.,0.));
#975=DIRECTION('center_axis',(0.,0.,1.));
#976=DIRECTION('ref_axis',(-1.,0.,0.));
#977=DIRECTION('center_axis',(1.,2.00427939020847E-11,0.));
#978=DIRECTION('ref_axis',(2.00427939020847E-11,-1.,0.));
#979=DIRECTION('',(0.,0.,-1.));
#980=DIRECTION('',(2.00427939020847E-11,-1.,0.));
#981=DIRECTION('',(0.,0.,-1.));
#982=DIRECTION('center_axis',(0.,1.,0.));
#983=DIRECTION('ref_axis',(1.,0.,0.));
#984=DIRECTION('',(0.,0.,1.));
#985=DIRECTION('',(1.,0.,0.));
#986=DIRECTION('',(0.,0.,-1.));
#987=DIRECTION('center_axis',(0.,0.,-1.));
#988=DIRECTION('ref_axis',(-1.,0.,0.));
#989=DIRECTION('center_axis',(0.,0.,1.));
#990=DIRECTION('ref_axis',(-1.,0.,0.));
#991=DIRECTION('center_axis',(0.,0.,1.));
#992=DIRECTION('ref_axis',(-1.,0.,0.));
#993=DIRECTION('center_axis',(0.,0.,-1.));
#994=DIRECTION('ref_axis',(-1.,0.,0.));
#995=DIRECTION('center_axis',(0.,0.,1.));
#996=DIRECTION('ref_axis',(-1.,0.,0.));
#997=DIRECTION('center_axis',(0.,0.,1.));
#998=DIRECTION('ref_axis',(-1.,0.,0.));
#999=DIRECTION('center_axis',(0.,0.,-1.));
#1000=DIRECTION('ref_axis',(-1.,0.,0.));
#1001=DIRECTION('center_axis',(0.,0.,1.));
#1002=DIRECTION('ref_axis',(-1.,0.,0.));
#1003=DIRECTION('center_axis',(0.,0.,1.));
#1004=DIRECTION('ref_axis',(-1.,0.,0.));
#1005=DIRECTION('center_axis',(0.,0.,1.));
#1006=DIRECTION('ref_axis',(-1.,0.,0.));
#1007=DIRECTION('center_axis',(0.,0.,-1.));
#1008=DIRECTION('ref_axis',(-1.,0.,0.));
#1009=DIRECTION('center_axis',(0.,0.,1.));
#1010=DIRECTION('ref_axis',(-1.,0.,0.));
#1011=DIRECTION('center_axis',(0.,0.,1.));
#1012=DIRECTION('ref_axis',(-1.,0.,0.));
#1013=DIRECTION('center_axis',(0.,0.,-1.));
#1014=DIRECTION('ref_axis',(-1.,0.,0.));
#1015=DIRECTION('center_axis',(0.,0.,1.));
#1016=DIRECTION('ref_axis',(-1.,0.,0.));
#1017=DIRECTION('center_axis',(0.,0.,1.));
#1018=DIRECTION('ref_axis',(-1.,0.,0.));
#1019=DIRECTION('center_axis',(0.,0.,1.));
#1020=DIRECTION('ref_axis',(-1.,0.,0.));
#1021=DIRECTION('center_axis',(0.,0.,-1.));
#1022=DIRECTION('ref_axis',(-1.,0.,0.));
#1023=DIRECTION('center_axis',(0.,0.,1.));
#1024=DIRECTION('ref_axis',(-1.,0.,0.));
#1025=DIRECTION('center_axis',(0.,0.,1.));
#1026=DIRECTION('ref_axis',(-1.,0.,0.));
#1027=DIRECTION('center_axis',(0.,0.,1.));
#1028=DIRECTION('ref_axis',(-1.,0.,0.));
#1029=DIRECTION('center_axis',(0.,0.,-1.));
#1030=DIRECTION('ref_axis',(-1.,0.,0.));
#1031=DIRECTION('center_axis',(0.,0.,1.));
#1032=DIRECTION('ref_axis',(-1.,0.,0.));
#1033=DIRECTION('center_axis',(0.,0.,1.));
#1034=DIRECTION('ref_axis',(-1.,0.,0.));
#1035=DIRECTION('center_axis',(0.,0.,1.));
#1036=DIRECTION('ref_axis',(-1.,0.,0.));
#1037=DIRECTION('center_axis',(0.,0.,-1.));
#1038=DIRECTION('ref_axis',(-1.,0.,0.));
#1039=DIRECTION('center_axis',(0.,0.,1.));
#1040=DIRECTION('ref_axis',(-1.,0.,0.));
#1041=DIRECTION('center_axis',(0.,0.,1.));
#1042=DIRECTION('ref_axis',(-1.,0.,0.));
#1043=DIRECTION('center_axis',(0.,0.,1.));
#1044=DIRECTION('ref_axis',(-1.,0.,0.));
#1045=DIRECTION('center_axis',(0.,0.,-1.));
#1046=DIRECTION('ref_axis',(-1.,0.,0.));
#1047=DIRECTION('center_axis',(0.,0.,1.));
#1048=DIRECTION('ref_axis',(-1.,0.,0.));
#1049=DIRECTION('center_axis',(0.,0.,1.));
#1050=DIRECTION('ref_axis',(-1.,0.,0.));
#1051=DIRECTION('center_axis',(0.,0.,-1.));
#1052=DIRECTION('ref_axis',(-1.,0.,0.));
#1053=DIRECTION('center_axis',(0.,0.,1.));
#1054=DIRECTION('ref_axis',(-1.,0.,0.));
#1055=DIRECTION('center_axis',(0.,0.,1.));
#1056=DIRECTION('ref_axis',(-1.,0.,0.));
#1057=DIRECTION('center_axis',(0.,0.,-1.));
#1058=DIRECTION('ref_axis',(-1.,0.,0.));
#1059=DIRECTION('center_axis',(0.,0.,1.));
#1060=DIRECTION('ref_axis',(-1.,0.,0.));
#1061=DIRECTION('center_axis',(0.,0.,1.));
#1062=DIRECTION('ref_axis',(-1.,0.,0.));
#1063=DIRECTION('center_axis',(0.,0.,-1.));
#1064=DIRECTION('ref_axis',(-1.,0.,0.));
#1065=DIRECTION('',(0.,0.,-1.));
#1066=DIRECTION('center_axis',(0.,0.,1.));
#1067=DIRECTION('ref_axis',(-1.,0.,0.));
#1068=DIRECTION('center_axis',(0.,0.,-1.));
#1069=DIRECTION('ref_axis',(-1.,0.,0.));
#1070=DIRECTION('',(0.,0.,-1.));
#1071=DIRECTION('center_axis',(0.,0.,1.));
#1072=DIRECTION('ref_axis',(-1.,0.,0.));
#1073=DIRECTION('center_axis',(0.,0.,-1.));
#1074=DIRECTION('ref_axis',(-1.,0.,0.));
#1075=DIRECTION('center_axis',(0.,0.,-1.));
#1076=DIRECTION('ref_axis',(-1.,0.,0.));
#1077=DIRECTION('',(0.,0.,-1.));
#1078=DIRECTION('center_axis',(0.,0.,-1.));
#1079=DIRECTION('ref_axis',(-1.,0.,0.));
#1080=DIRECTION('center_axis',(0.,0.,-1.));
#1081=DIRECTION('ref_axis',(-1.,0.,0.));
#1082=DIRECTION('',(0.,0.,-1.));
#1083=DIRECTION('center_axis',(0.,0.,-1.));
#1084=DIRECTION('ref_axis',(-1.,0.,0.));
#1085=DIRECTION('center_axis',(0.,0.,-1.));
#1086=DIRECTION('ref_axis',(-1.,0.,0.));
#1087=DIRECTION('',(0.,0.,-1.));
#1088=DIRECTION('center_axis',(0.,0.,-1.));
#1089=DIRECTION('ref_axis',(-1.,0.,0.));
#1090=DIRECTION('center_axis',(0.,0.,-1.));
#1091=DIRECTION('ref_axis',(-1.,0.,0.));
#1092=DIRECTION('',(0.,0.,-1.));
#1093=DIRECTION('center_axis',(0.,0.,-1.));
#1094=DIRECTION('ref_axis',(-1.,0.,0.));
#1095=DIRECTION('center_axis',(0.,0.,-1.));
#1096=DIRECTION('ref_axis',(-1.,0.,0.));
#1097=DIRECTION('',(0.,0.,-1.));
#1098=DIRECTION('center_axis',(0.,0.,-1.));
#1099=DIRECTION('ref_axis',(-1.,0.,0.));
#1100=DIRECTION('center_axis',(0.,0.,-1.));
#1101=DIRECTION('ref_axis',(-1.,0.,0.));
#1102=DIRECTION('',(0.,0.,-1.));
#1103=DIRECTION('center_axis',(0.,0.,-1.));
#1104=DIRECTION('ref_axis',(-1.,0.,0.));
#1105=DIRECTION('center_axis',(0.,0.,-1.));
#1106=DIRECTION('ref_axis',(-1.,0.,0.));
#1107=DIRECTION('',(0.,0.,-1.));
#1108=DIRECTION('center_axis',(0.,0.,-1.));
#1109=DIRECTION('ref_axis',(-1.,0.,0.));
#1110=DIRECTION('center_axis',(0.,0.,-1.));
#1111=DIRECTION('ref_axis',(-1.,0.,0.));
#1112=DIRECTION('',(0.,0.,-1.));
#1113=DIRECTION('center_axis',(0.,0.,-1.));
#1114=DIRECTION('ref_axis',(-1.,0.,0.));
#1115=DIRECTION('center_axis',(0.,0.,-1.));
#1116=DIRECTION('ref_axis',(-1.,0.,0.));
#1117=DIRECTION('',(0.,0.,-1.));
#1118=DIRECTION('center_axis',(0.,0.,-1.));
#1119=DIRECTION('ref_axis',(-1.,0.,0.));
#1120=DIRECTION('center_axis',(0.,0.,-1.));
#1121=DIRECTION('ref_axis',(-1.,0.,0.));
#1122=DIRECTION('',(0.,0.,-1.));
#1123=DIRECTION('center_axis',(0.,0.,1.));
#1124=DIRECTION('ref_axis',(1.,0.,0.));
#1125=DIRECTION('',(0.,-1.,0.));
#1126=DIRECTION('',(1.,0.,0.));
#1127=DIRECTION('',(0.,1.,0.));
#1128=DIRECTION('',(-1.,0.,0.));
#1129=DIRECTION('center_axis',(0.,0.,-1.));
#1130=DIRECTION('ref_axis',(-1.,0.,0.));
#1131=DIRECTION('center_axis',(0.,0.,-1.));
#1132=DIRECTION('ref_axis',(-1.,0.,0.));
#1133=DIRECTION('center_axis',(0.,0.,-1.));
#1134=DIRECTION('ref_axis',(-1.,0.,0.));
#1135=DIRECTION('',(0.,0.,-1.));
#1136=DIRECTION('center_axis',(0.,0.,1.));
#1137=DIRECTION('ref_axis',(-1.,0.,0.));
#1138=DIRECTION('center_axis',(0.,0.,-1.));
#1139=DIRECTION('ref_axis',(-1.,0.,0.));
#1140=DIRECTION('',(0.,0.,-1.));
#1141=DIRECTION('center_axis',(0.,0.,1.));
#1142=DIRECTION('ref_axis',(-1.,0.,0.));
#1143=DIRECTION('center_axis',(0.,0.,-1.));
#1144=DIRECTION('ref_axis',(-1.,0.,0.));
#1145=DIRECTION('',(0.,0.,-1.));
#1146=DIRECTION('center_axis',(0.,0.,1.));
#1147=DIRECTION('ref_axis',(-1.,0.,0.));
#1148=DIRECTION('center_axis',(0.,0.,-1.));
#1149=DIRECTION('ref_axis',(-1.,0.,0.));
#1150=DIRECTION('',(0.,0.,-1.));
#1151=DIRECTION('center_axis',(0.,0.,1.));
#1152=DIRECTION('ref_axis',(-1.,0.,0.));
#1153=DIRECTION('center_axis',(0.,0.,-1.));
#1154=DIRECTION('ref_axis',(-1.,0.,0.));
#1155=DIRECTION('',(0.,0.,-1.));
#1156=DIRECTION('center_axis',(0.,0.,1.));
#1157=DIRECTION('ref_axis',(-1.,0.,0.));
#1158=DIRECTION('center_axis',(0.,0.,-1.));
#1159=DIRECTION('ref_axis',(-1.,0.,0.));
#1160=DIRECTION('',(0.,0.,-1.));
#1161=DIRECTION('center_axis',(0.,0.,1.));
#1162=DIRECTION('ref_axis',(-1.,0.,0.));
#1163=DIRECTION('center_axis',(0.,0.,-1.));
#1164=DIRECTION('ref_axis',(-1.,0.,0.));
#1165=DIRECTION('',(0.,0.,-1.));
#1166=DIRECTION('center_axis',(0.,0.,1.));
#1167=DIRECTION('ref_axis',(-1.,0.,0.));
#1168=DIRECTION('center_axis',(0.,0.,-1.));
#1169=DIRECTION('ref_axis',(-1.,0.,0.));
#1170=DIRECTION('',(0.,0.,-1.));
#1171=DIRECTION('center_axis',(0.,0.,1.));
#1172=DIRECTION('ref_axis',(-1.,0.,0.));
#1173=DIRECTION('center_axis',(0.,0.,-1.));
#1174=DIRECTION('ref_axis',(-1.,0.,0.));
#1175=DIRECTION('',(0.,0.,-1.));
#1176=DIRECTION('center_axis',(0.,0.,1.));
#1177=DIRECTION('ref_axis',(-1.,0.,0.));
#1178=DIRECTION('center_axis',(0.,0.,-1.));
#1179=DIRECTION('ref_axis',(-1.,0.,0.));
#1180=DIRECTION('',(0.,0.,-1.));
#1181=DIRECTION('center_axis',(0.,0.,1.));
#1182=DIRECTION('ref_axis',(-1.,0.,0.));
#1183=DIRECTION('center_axis',(0.,0.,-1.));
#1184=DIRECTION('ref_axis',(-1.,0.,0.));
#1185=DIRECTION('',(0.,0.,-1.));
#1186=DIRECTION('center_axis',(0.,0.,1.));
#1187=DIRECTION('ref_axis',(-1.,0.,0.));
#1188=DIRECTION('center_axis',(0.,0.,-1.));
#1189=DIRECTION('ref_axis',(-1.,0.,0.));
#1190=DIRECTION('',(0.,0.,-1.));
#1191=DIRECTION('center_axis',(0.,0.,1.));
#1192=DIRECTION('ref_axis',(-1.,0.,0.));
#1193=DIRECTION('center_axis',(0.,0.,-1.));
#1194=DIRECTION('ref_axis',(-1.,0.,0.));
#1195=DIRECTION('',(0.,0.,-1.));
#1196=DIRECTION('center_axis',(0.,0.,1.));
#1197=DIRECTION('ref_axis',(-1.,0.,0.));
#1198=DIRECTION('center_axis',(0.,0.,-1.));
#1199=DIRECTION('ref_axis',(-1.,0.,0.));
#1200=DIRECTION('',(0.,0.,-1.));
#1201=DIRECTION('center_axis',(0.,0.,1.));
#1202=DIRECTION('ref_axis',(-1.,0.,0.));
#1203=DIRECTION('center_axis',(0.,0.,-1.));
#1204=DIRECTION('ref_axis',(-1.,0.,0.));
#1205=DIRECTION('',(0.,0.,-1.));
#1206=DIRECTION('center_axis',(0.,0.,1.));
#1207=DIRECTION('ref_axis',(-1.,0.,0.));
#1208=DIRECTION('center_axis',(0.,0.,-1.));
#1209=DIRECTION('ref_axis',(-1.,0.,0.));
#1210=DIRECTION('',(0.,0.,-1.));
#1211=DIRECTION('center_axis',(0.,0.,1.));
#1212=DIRECTION('ref_axis',(-1.,0.,0.));
#1213=DIRECTION('center_axis',(0.,1.,0.));
#1214=DIRECTION('ref_axis',(-1.,0.,0.));
#1215=DIRECTION('',(-1.,0.,0.));
#1216=DIRECTION('',(0.,0.,1.));
#1217=DIRECTION('',(0.,0.,1.));
#1218=DIRECTION('center_axis',(1.,0.,0.));
#1219=DIRECTION('ref_axis',(0.,1.,0.));
#1220=DIRECTION('',(0.,1.,0.));
#1221=DIRECTION('',(0.,0.,1.));
#1222=DIRECTION('center_axis',(0.,-1.,0.));
#1223=DIRECTION('ref_axis',(1.,0.,0.));
#1224=DIRECTION('',(1.,0.,0.));
#1225=DIRECTION('',(0.,0.,1.));
#1226=DIRECTION('center_axis',(-1.,0.,0.));
#1227=DIRECTION('ref_axis',(0.,-1.,0.));
#1228=DIRECTION('',(0.,-1.,0.));
#1229=DIRECTION('center_axis',(0.,0.,1.));
#1230=DIRECTION('ref_axis',(1.,0.,0.));
#1231=CARTESIAN_POINT('',(0.,0.,0.));
#1232=CARTESIAN_POINT('Origin',(2.,2.,0.05));
#1233=CARTESIAN_POINT('',(1.99999999996467,2.57,0.05));
#1234=CARTESIAN_POINT('',(1.99999999996968,2.32,0.05));
#1235=CARTESIAN_POINT('',(1.99999999997038,2.285,0.05));
#1236=CARTESIAN_POINT('',(2.57,2.,0.05));
#1237=CARTESIAN_POINT('Origin',(2.,2.,0.05));
#1238=CARTESIAN_POINT('',(2.32,2.,0.05));
#1239=CARTESIAN_POINT('',(2.16,2.,0.05));
#1240=CARTESIAN_POINT('Origin',(2.,2.,0.05));
#1241=CARTESIAN_POINT('Origin',(1.99999999996467,2.57,0.2));
#1242=CARTESIAN_POINT('',(1.99999999996968,2.32,0.));
#1243=CARTESIAN_POINT('',(1.99999999996968,2.32,0.2));
#1244=CARTESIAN_POINT('',(1.99999999996467,2.57,0.));
#1245=CARTESIAN_POINT('',(2.,0.807331297023904,0.));
#1246=CARTESIAN_POINT('',(1.99999999996467,2.57,0.2));
#1247=CARTESIAN_POINT('Origin',(2.32,2.,0.2));
#1248=CARTESIAN_POINT('',(2.57,2.,0.));
#1249=CARTESIAN_POINT('',(2.57,2.,0.2));
#1250=CARTESIAN_POINT('',(2.32,2.,0.));
#1251=CARTESIAN_POINT('',(0.672331297023904,2.,0.));
#1252=CARTESIAN_POINT('',(2.32,2.,0.2));
#1253=CARTESIAN_POINT('Origin',(2.,2.,0.2));
#1254=CARTESIAN_POINT('Origin',(2.,2.,0.));
#1255=CARTESIAN_POINT('Origin',(3.81999999985409,3.82,0.05));
#1256=CARTESIAN_POINT('',(3.93999999985409,3.82,0.05));
#1257=CARTESIAN_POINT('Origin',(3.81999999985409,3.82,0.05));
#1258=CARTESIAN_POINT('',(3.88699999985409,3.82,0.05));
#1259=CARTESIAN_POINT('Origin',(3.81999999985409,3.82,0.05));
#1260=CARTESIAN_POINT('Origin',(2.59633435148805,3.03288139507594,0.05));
#1261=CARTESIAN_POINT('',(2.73133435148805,3.03288139507594,0.05));
#1262=CARTESIAN_POINT('Origin',(2.59633435148805,3.03288139507594,0.05));
#1263=CARTESIAN_POINT('',(2.69583435148805,3.03288139507594,0.05));
#1264=CARTESIAN_POINT('Origin',(2.65833435148805,3.03288139507594,0.05));
#1265=CARTESIAN_POINT('',(2.57183435148805,3.03288139507594,0.05));
#1266=CARTESIAN_POINT('Origin',(2.53433435148805,3.03288139507594,0.05));
#1267=CARTESIAN_POINT('Origin',(0.18,3.82,0.05));
#1268=CARTESIAN_POINT('',(0.3,3.82,0.05));
#1269=CARTESIAN_POINT('Origin',(0.18,3.82,0.05));
#1270=CARTESIAN_POINT('',(0.247,3.82,0.05));
#1271=CARTESIAN_POINT('Origin',(0.18,3.82,0.05));
#1272=CARTESIAN_POINT('Origin',(3.1926687029761,2.,0.05));
#1273=CARTESIAN_POINT('',(3.3276687029761,2.,0.05));
#1274=CARTESIAN_POINT('Origin',(3.1926687029761,2.,0.05));
#1275=CARTESIAN_POINT('',(3.2921687029761,2.,0.05));
#1276=CARTESIAN_POINT('Origin',(3.2546687029761,2.,0.05));
#1277=CARTESIAN_POINT('',(3.1681687029761,2.,0.05));
#1278=CARTESIAN_POINT('Origin',(3.1306687029761,2.,0.05));
#1279=CARTESIAN_POINT('Origin',(1.40366564851195,0.967118604924064,0.05));
#1280=CARTESIAN_POINT('',(1.53866564851195,0.967118604924064,0.05));
#1281=CARTESIAN_POINT('Origin',(1.40366564851195,0.967118604924064,0.05));
#1282=CARTESIAN_POINT('',(1.50316564851195,0.967118604924064,0.05));
#1283=CARTESIAN_POINT('Origin',(1.46566564851195,0.967118604924064,0.05));
#1284=CARTESIAN_POINT('',(1.37916564851195,0.967118604924064,0.05));
#1285=CARTESIAN_POINT('Origin',(1.34166564851195,0.967118604924064,0.05));
#1286=CARTESIAN_POINT('Origin',(0.807331297023904,2.,0.05));
#1287=CARTESIAN_POINT('',(0.942331297023904,2.,0.05));
#1288=CARTESIAN_POINT('Origin',(0.807331297023904,2.,0.05));
#1289=CARTESIAN_POINT('',(0.909831296976096,2.,0.05));
#1290=CARTESIAN_POINT('Origin',(0.872331296976096,2.,0.05));
#1291=CARTESIAN_POINT('',(0.785831297023904,2.,0.05));
#1292=CARTESIAN_POINT('Origin',(0.748331297023904,2.,0.05));
#1293=CARTESIAN_POINT('Origin',(1.40366564851195,3.03288139507594,0.05));
#1294=CARTESIAN_POINT('',(1.53866564851195,3.03288139507594,0.05));
#1295=CARTESIAN_POINT('Origin',(1.40366564851195,3.03288139507594,0.05));
#1296=CARTESIAN_POINT('',(1.37916564851195,3.03288139507594,0.05));
#1297=CARTESIAN_POINT('Origin',(1.34166564851195,3.03288139507594,0.05));
#1298=CARTESIAN_POINT('',(1.50316564851195,3.03288139507594,0.05));
#1299=CARTESIAN_POINT('Origin',(1.46566564851195,3.03288139507594,0.05));
#1300=CARTESIAN_POINT('Origin',(0.18,0.18,0.05));
#1301=CARTESIAN_POINT('',(0.3,0.18,0.05));
#1302=CARTESIAN_POINT('Origin',(0.18,0.18,0.05));
#1303=CARTESIAN_POINT('',(0.247,0.18,0.05));
#1304=CARTESIAN_POINT('Origin',(0.18,0.18,0.05));
#1305=CARTESIAN_POINT('Origin',(3.82,0.18,0.05));
#1306=CARTESIAN_POINT('',(3.94,0.18,0.05));
#1307=CARTESIAN_POINT('Origin',(3.82,0.18,0.05));
#1308=CARTESIAN_POINT('',(3.887,0.18,0.05));
#1309=CARTESIAN_POINT('Origin',(3.82,0.18,0.05));
#1310=CARTESIAN_POINT('Origin',(2.59633435148805,0.967118604924064,0.05));
#1311=CARTESIAN_POINT('',(2.73133435148805,0.967118604924064,0.05));
#1312=CARTESIAN_POINT('Origin',(2.59633435148805,0.967118604924064,0.05));
#1313=CARTESIAN_POINT('',(2.57183435148805,0.967118604924064,0.05));
#1314=CARTESIAN_POINT('Origin',(2.53433435148805,0.967118604924064,0.05));
#1315=CARTESIAN_POINT('',(2.69583435148805,0.967118604924064,0.05));
#1316=CARTESIAN_POINT('Origin',(2.65833435148805,0.967118604924064,0.05));
#1317=CARTESIAN_POINT('Origin',(1.34166564851195,3.03288139507594,0.15));
#1318=CARTESIAN_POINT('',(1.37916564851195,3.03288139507594,0.));
#1319=CARTESIAN_POINT('',(1.37916564851195,3.03288139507594,0.15));
#1320=CARTESIAN_POINT('Origin',(1.34166564851195,3.03288139507594,0.));
#1321=CARTESIAN_POINT('Origin',(1.46566564851195,3.03288139507594,0.15));
#1322=CARTESIAN_POINT('',(1.50316564851195,3.03288139507594,0.));
#1323=CARTESIAN_POINT('',(1.50316564851195,3.03288139507594,0.15));
#1324=CARTESIAN_POINT('Origin',(1.46566564851195,3.03288139507594,0.));
#1325=CARTESIAN_POINT('Origin',(2.59633435148805,3.03288139507594,0.2));
#1326=CARTESIAN_POINT('',(2.73133435148805,3.03288139507594,0.15));
#1327=CARTESIAN_POINT('Origin',(2.59633435148805,3.03288139507594,0.15));
#1328=CARTESIAN_POINT('',(2.73133435148805,3.03288139507594,0.2));
#1329=CARTESIAN_POINT('Origin',(0.18,0.18,0.2));
#1330=CARTESIAN_POINT('',(0.3,0.18,0.15));
#1331=CARTESIAN_POINT('Origin',(0.18,0.18,0.15));
#1332=CARTESIAN_POINT('',(0.3,0.18,0.2));
#1333=CARTESIAN_POINT('Origin',(0.18,3.82,0.2));
#1334=CARTESIAN_POINT('',(0.3,3.82,0.15));
#1335=CARTESIAN_POINT('Origin',(0.18,3.82,0.15));
#1336=CARTESIAN_POINT('',(0.3,3.82,0.2));
#1337=CARTESIAN_POINT('Origin',(1.40366564851195,0.967118604924064,0.2));
#1338=CARTESIAN_POINT('',(1.53866564851195,0.967118604924064,0.15));
#1339=CARTESIAN_POINT('Origin',(1.40366564851195,0.967118604924064,0.15));
#1340=CARTESIAN_POINT('',(1.53866564851195,0.967118604924064,0.2));
#1341=CARTESIAN_POINT('Origin',(1.40366564851195,3.03288139507594,0.2));
#1342=CARTESIAN_POINT('',(1.53866564851195,3.03288139507594,0.15));
#1343=CARTESIAN_POINT('Origin',(1.40366564851195,3.03288139507594,0.15));
#1344=CARTESIAN_POINT('',(1.53866564851195,3.03288139507594,0.2));
#1345=CARTESIAN_POINT('Origin',(3.1926687029761,2.,0.2));
#1346=CARTESIAN_POINT('',(3.3276687029761,2.,0.15));
#1347=CARTESIAN_POINT('Origin',(3.1926687029761,2.,0.15));
#1348=CARTESIAN_POINT('',(3.3276687029761,2.,0.2));
#1349=CARTESIAN_POINT('Origin',(3.82,0.18,0.2));
#1350=CARTESIAN_POINT('',(3.94,0.18,0.15));
#1351=CARTESIAN_POINT('Origin',(3.82,0.18,0.15));
#1352=CARTESIAN_POINT('',(3.94,0.18,0.2));
#1353=CARTESIAN_POINT('Origin',(3.81999999985409,3.82,0.2));
#1354=CARTESIAN_POINT('',(3.93999999985409,3.82,0.15));
#1355=CARTESIAN_POINT('Origin',(3.81999999985409,3.82,0.15));
#1356=CARTESIAN_POINT('',(3.93999999985409,3.82,0.2));
#1357=CARTESIAN_POINT('Origin',(2.59633435148805,0.967118604924064,0.2));
#1358=CARTESIAN_POINT('',(2.73133435148805,0.967118604924064,0.15));
#1359=CARTESIAN_POINT('Origin',(2.59633435148805,0.967118604924064,0.15));
#1360=CARTESIAN_POINT('',(2.73133435148805,0.967118604924064,0.2));
#1361=CARTESIAN_POINT('Origin',(0.807331297023904,2.,0.2));
#1362=CARTESIAN_POINT('',(0.942331297023904,2.,0.15));
#1363=CARTESIAN_POINT('Origin',(0.807331297023904,2.,0.15));
#1364=CARTESIAN_POINT('',(0.942331297023904,2.,0.2));
#1365=CARTESIAN_POINT('Origin',(2.,2.,0.15));
#1366=CARTESIAN_POINT('',(0.,4.,0.15));
#1367=CARTESIAN_POINT('',(0.,0.,0.15));
#1368=CARTESIAN_POINT('',(0.,4.,0.15));
#1369=CARTESIAN_POINT('',(4.,0.,0.15));
#1370=CARTESIAN_POINT('',(0.,0.,0.15));
#1371=CARTESIAN_POINT('',(4.,4.,0.15));
#1372=CARTESIAN_POINT('',(4.,0.,0.15));
#1373=CARTESIAN_POINT('',(4.,4.,0.15));
#1374=CARTESIAN_POINT('',(2.57,2.,0.15));
#1375=CARTESIAN_POINT('Origin',(2.,2.,0.15));
#1376=CARTESIAN_POINT('',(3.525,0.8,0.15));
#1377=CARTESIAN_POINT('Origin',(3.2,0.8,0.15));
#1378=CARTESIAN_POINT('Origin',(3.1306687029761,2.,0.2));
#1379=CARTESIAN_POINT('',(3.1681687029761,2.,0.));
#1380=CARTESIAN_POINT('',(3.1681687029761,2.,0.2));
#1381=CARTESIAN_POINT('Origin',(3.1306687029761,2.,0.));
#1382=CARTESIAN_POINT('Origin',(1.34166564851195,0.967118604924064,0.2));
#1383=CARTESIAN_POINT('',(1.37916564851195,0.967118604924064,0.));
#1384=CARTESIAN_POINT('',(1.37916564851195,0.967118604924064,0.2));
#1385=CARTESIAN_POINT('Origin',(1.34166564851195,0.967118604924064,0.));
#1386=CARTESIAN_POINT('Origin',(2.,2.,0.2));
#1387=CARTESIAN_POINT('',(2.57,2.,0.2));
#1388=CARTESIAN_POINT('Origin',(2.,2.,0.));
#1389=CARTESIAN_POINT('Origin',(3.2,0.8,0.2));
#1390=CARTESIAN_POINT('',(3.525,0.8,0.));
#1391=CARTESIAN_POINT('',(3.525,0.8,0.2));
#1392=CARTESIAN_POINT('Origin',(3.2,0.8,0.));
#1393=CARTESIAN_POINT('Origin',(0.18,0.18,0.2));
#1394=CARTESIAN_POINT('',(0.247,0.18,0.));
#1395=CARTESIAN_POINT('',(0.247,0.18,0.2));
#1396=CARTESIAN_POINT('Origin',(0.18,0.18,0.));
#1397=CARTESIAN_POINT('Origin',(0.872331296976096,2.,0.2));
#1398=CARTESIAN_POINT('',(0.909831296976096,2.,0.));
#1399=CARTESIAN_POINT('',(0.909831296976096,2.,0.2));
#1400=CARTESIAN_POINT('Origin',(0.872331296976096,2.,0.));
#1401=CARTESIAN_POINT('Origin',(2.65833435148805,0.967118604924064,0.2));
#1402=CARTESIAN_POINT('',(2.69583435148805,0.967118604924064,0.));
#1403=CARTESIAN_POINT('',(2.69583435148805,0.967118604924064,0.2));
#1404=CARTESIAN_POINT('Origin',(2.65833435148805,0.967118604924064,0.));
#1405=CARTESIAN_POINT('Origin',(2.65833435148805,3.03288139507594,0.2));
#1406=CARTESIAN_POINT('',(2.69583435148805,3.03288139507594,0.));
#1407=CARTESIAN_POINT('',(2.69583435148805,3.03288139507594,0.2));
#1408=CARTESIAN_POINT('Origin',(2.65833435148805,3.03288139507594,0.));
#1409=CARTESIAN_POINT('Origin',(3.2546687029761,2.,0.2));
#1410=CARTESIAN_POINT('',(3.2921687029761,2.,0.));
#1411=CARTESIAN_POINT('',(3.2921687029761,2.,0.2));
#1412=CARTESIAN_POINT('Origin',(3.2546687029761,2.,0.));
#1413=CARTESIAN_POINT('Origin',(1.46566564851195,0.967118604924064,0.2));
#1414=CARTESIAN_POINT('',(1.50316564851195,0.967118604924064,0.));
#1415=CARTESIAN_POINT('',(1.50316564851195,0.967118604924064,0.2));
#1416=CARTESIAN_POINT('Origin',(1.46566564851195,0.967118604924064,0.));
#1417=CARTESIAN_POINT('Origin',(3.81999999985409,3.82,0.2));
#1418=CARTESIAN_POINT('',(3.88699999985409,3.82,0.));
#1419=CARTESIAN_POINT('',(3.88699999985409,3.82,0.2));
#1420=CARTESIAN_POINT('Origin',(3.81999999985409,3.82,0.));
#1421=CARTESIAN_POINT('Origin',(3.82,0.18,0.2));
#1422=CARTESIAN_POINT('',(3.887,0.18,0.));
#1423=CARTESIAN_POINT('',(3.887,0.18,0.2));
#1424=CARTESIAN_POINT('Origin',(3.82,0.18,0.));
#1425=CARTESIAN_POINT('Origin',(0.18,3.82,0.2));
#1426=CARTESIAN_POINT('',(0.247,3.82,0.));
#1427=CARTESIAN_POINT('',(0.247,3.82,0.2));
#1428=CARTESIAN_POINT('Origin',(0.18,3.82,0.));
#1429=CARTESIAN_POINT('Origin',(0.748331297023904,2.,0.2));
#1430=CARTESIAN_POINT('',(0.785831297023904,2.,0.));
#1431=CARTESIAN_POINT('',(0.785831297023904,2.,0.2));
#1432=CARTESIAN_POINT('Origin',(0.748331297023904,2.,0.));
#1433=CARTESIAN_POINT('Origin',(2.53433435148805,0.967118604924064,0.2));
#1434=CARTESIAN_POINT('',(2.57183435148805,0.967118604924064,0.));
#1435=CARTESIAN_POINT('',(2.57183435148805,0.967118604924064,0.2));
#1436=CARTESIAN_POINT('Origin',(2.53433435148805,0.967118604924064,0.));
#1437=CARTESIAN_POINT('Origin',(2.53433435148805,3.03288139507594,0.2));
#1438=CARTESIAN_POINT('',(2.57183435148805,3.03288139507594,0.));
#1439=CARTESIAN_POINT('',(2.57183435148805,3.03288139507594,0.2));
#1440=CARTESIAN_POINT('Origin',(2.53433435148805,3.03288139507594,0.));
#1441=CARTESIAN_POINT('Origin',(4.,4.,0.));
#1442=CARTESIAN_POINT('',(4.,4.,0.));
#1443=CARTESIAN_POINT('',(0.,4.,0.));
#1444=CARTESIAN_POINT('',(4.,4.,0.));
#1445=CARTESIAN_POINT('',(0.,4.,0.));
#1446=CARTESIAN_POINT('',(4.,4.,0.));
#1447=CARTESIAN_POINT('Origin',(4.,0.,0.));
#1448=CARTESIAN_POINT('',(4.,0.,0.));
#1449=CARTESIAN_POINT('',(4.,0.,0.));
#1450=CARTESIAN_POINT('',(4.,0.,0.));
#1451=CARTESIAN_POINT('Origin',(0.,0.,0.));
#1452=CARTESIAN_POINT('',(0.,0.,0.));
#1453=CARTESIAN_POINT('',(0.,0.,0.));
#1454=CARTESIAN_POINT('',(0.,0.,0.));
#1455=CARTESIAN_POINT('Origin',(0.,4.,0.));
#1456=CARTESIAN_POINT('',(0.,4.,0.));
#1457=CARTESIAN_POINT('Origin',(2.,2.,0.));
#1458=UNCERTAINTY_MEASURE_WITH_UNIT(LENGTH_MEASURE(0.000393700787401575),
#1463,'DISTANCE_ACCURACY_VALUE',
'Maximum model space distance between geometric entities at asserted c
onnectivities');
#1459=UNCERTAINTY_MEASURE_WITH_UNIT(LENGTH_MEASURE(0.000393700787401575),
#1463,'DISTANCE_ACCURACY_VALUE',
'Maximum model space distance between geometric entities at asserted c
onnectivities');
#1460=(
GEOMETRIC_REPRESENTATION_CONTEXT(3)
GLOBAL_UNCERTAINTY_ASSIGNED_CONTEXT((#1458))
GLOBAL_UNIT_ASSIGNED_CONTEXT((#1463,#1467,#1468))
REPRESENTATION_CONTEXT('','3D')
);
#1461=(
GEOMETRIC_REPRESENTATION_CONTEXT(3)
GLOBAL_UNCERTAINTY_ASSIGNED_CONTEXT((#1459))
GLOBAL_UNIT_ASSIGNED_CONTEXT((#1463,#1467,#1468))
REPRESENTATION_CONTEXT('','3D')
);
#1462=DIMENSIONAL_EXPONENTS(1.,0.,0.,0.,0.,0.,0.);
#1463=(
CONVERSION_BASED_UNIT('inch',#1466)
LENGTH_UNIT()
NAMED_UNIT(#1462)
);
#1464=(
LENGTH_UNIT()
NAMED_UNIT(*)
SI_UNIT(.MILLI.,.METRE.)
);
#1465=(
LENGTH_UNIT()
NAMED_UNIT(*)
SI_UNIT($,.METRE.)
);
#1466=LENGTH_MEASURE_WITH_UNIT(LENGTH_MEASURE(25.4),#1464);
#1467=(
NAMED_UNIT(*)
PLANE_ANGLE_UNIT()
SI_UNIT($,.RADIAN.)
);
#1468=(
NAMED_UNIT(*)
SI_UNIT($,.STERADIAN.)
SOLID_ANGLE_UNIT()
);
#1469=SHAPE_DEFINITION_REPRESENTATION(#1470,#1471);
#1470=PRODUCT_DEFINITION_SHAPE('',$,#1473);
#1471=SHAPE_REPRESENTATION('',(#859),#1460);
#1472=PRODUCT_DEFINITION_CONTEXT('part definition',#1477,'design');
#1473=PRODUCT_DEFINITION('2026-04-04-16-01-33-408','Enclosure_Top',#1474,
#1472);
#1474=PRODUCT_DEFINITION_FORMATION('',$,#1479);
#1475=PRODUCT_RELATED_PRODUCT_CATEGORY('Enclosure_Top','Enclosure_Top',
(#1479));
#1476=APPLICATION_PROTOCOL_DEFINITION('international standard',
'automotive_design',2009,#1477);
#1477=APPLICATION_CONTEXT(
'Core Data for Automotive Mechanical Design Process');
#1478=PRODUCT_CONTEXT('part definition',#1477,'mechanical');
#1479=PRODUCT('2026-04-04-16-01-33-408','Enclosure_Top',$,(#1478));
#1480=PRESENTATION_STYLE_ASSIGNMENT((#1481));
#1481=SURFACE_STYLE_USAGE(.BOTH.,#1482);
#1482=SURFACE_SIDE_STYLE('',(#1483));
#1483=SURFACE_STYLE_FILL_AREA(#1484);
#1484=FILL_AREA_STYLE('Steel - Satin',(#1485));
#1485=FILL_AREA_STYLE_COLOUR('Steel - Satin',#1486);
#1486=COLOUR_RGB('Steel - Satin',0.627450980392157,0.627450980392157,0.627450980392157);
ENDSEC;
END-ISO-10303-21;
