ISO-10303-21;
HEADER;
/* Generated by software containing ST-Developer
 * from STEP Tools, Inc. (www.steptools.com) 
 */

FILE_DESCRIPTION(
/* description */ (''),
/* implementation_level */ '2;1');

FILE_NAME(
/* name */ 'Enclosure_Top_v#.step',
/* time_stamp */ '2026-04-10T14:36:00-04:00',
/* author */ (''),
/* organization */ (''),
/* preprocessor_version */ 'ST-DEVELOPER v20.1',
/* originating_system */ 'Autodesk Translation Framework v14.24.0.0',
/* authorisation */ '');

FILE_SCHEMA (('AUTOMOTIVE_DESIGN { 1 0 10303 214 3 1 1 }'));
ENDSEC;

DATA;
#10=MECHANICAL_DESIGN_GEOMETRIC_PRESENTATION_REPRESENTATION('',(#13),#1475);
#11=SHAPE_REPRESENTATION_RELATIONSHIP('SRR','None',#1485,#12);
#12=ADVANCED_BREP_SHAPE_REPRESENTATION('',(#14),#1474);
#13=STYLED_ITEM('',(#1494),#14);
#14=MANIFOLD_SOLID_BREP('Body9',#847);
#15=FACE_BOUND('',#232,.T.);
#16=FACE_BOUND('',#233,.T.);
#17=FACE_BOUND('',#234,.T.);
#18=FACE_BOUND('',#235,.T.);
#19=FACE_BOUND('',#236,.T.);
#20=FACE_BOUND('',#237,.T.);
#21=FACE_BOUND('',#238,.T.);
#22=FACE_BOUND('',#239,.T.);
#23=FACE_BOUND('',#240,.T.);
#24=FACE_BOUND('',#241,.T.);
#25=FACE_BOUND('',#242,.T.);
#26=FACE_BOUND('',#243,.T.);
#27=FACE_BOUND('',#244,.T.);
#28=FACE_BOUND('',#245,.T.);
#29=FACE_BOUND('',#246,.T.);
#30=FACE_BOUND('',#247,.T.);
#31=FACE_BOUND('',#248,.T.);
#32=FACE_BOUND('',#249,.T.);
#33=FACE_BOUND('',#255,.T.);
#34=FACE_BOUND('',#256,.T.);
#35=FACE_BOUND('',#259,.T.);
#36=FACE_BOUND('',#260,.T.);
#37=FACE_BOUND('',#263,.T.);
#38=FACE_BOUND('',#266,.T.);
#39=FACE_BOUND('',#269,.T.);
#40=FACE_BOUND('',#270,.T.);
#41=FACE_BOUND('',#273,.T.);
#42=FACE_BOUND('',#274,.T.);
#43=FACE_BOUND('',#277,.T.);
#44=FACE_BOUND('',#278,.T.);
#45=FACE_BOUND('',#281,.T.);
#46=FACE_BOUND('',#284,.T.);
#47=FACE_BOUND('',#287,.T.);
#48=FACE_BOUND('',#288,.T.);
#49=FACE_BOUND('',#290,.T.);
#50=FACE_BOUND('',#291,.T.);
#51=FACE_BOUND('',#292,.T.);
#52=FACE_BOUND('',#293,.T.);
#53=FACE_BOUND('',#294,.T.);
#54=FACE_BOUND('',#295,.T.);
#55=FACE_BOUND('',#296,.T.);
#56=FACE_BOUND('',#297,.T.);
#57=FACE_BOUND('',#298,.T.);
#58=FACE_BOUND('',#299,.T.);
#59=FACE_BOUND('',#300,.T.);
#60=FACE_BOUND('',#301,.T.);
#61=LINE('',#1257,#105);
#62=LINE('',#1260,#106);
#63=LINE('',#1263,#107);
#64=LINE('',#1268,#108);
#65=LINE('',#1270,#109);
#66=LINE('',#1272,#110);
#67=LINE('',#1273,#111);
#68=LINE('',#1312,#112);
#69=LINE('',#1316,#113);
#70=LINE('',#1320,#114);
#71=LINE('',#1325,#115);
#72=LINE('',#1332,#116);
#73=LINE('',#1343,#117);
#74=LINE('',#1352,#118);
#75=LINE('',#1361,#119);
#76=LINE('',#1372,#120);
#77=LINE('',#1383,#121);
#78=LINE('',#1394,#122);
#79=LINE('',#1403,#123);
#80=LINE('',#1412,#124);
#81=LINE('',#1422,#125);
#82=LINE('',#1424,#126);
#83=LINE('',#1426,#127);
#84=LINE('',#1427,#128);
#85=LINE('',#1433,#129);
#86=LINE('',#1435,#130);
#87=LINE('',#1437,#131);
#88=LINE('',#1439,#132);
#89=LINE('',#1441,#133);
#90=LINE('',#1443,#134);
#91=LINE('',#1445,#135);
#92=LINE('',#1447,#136);
#93=LINE('',#1449,#137);
#94=LINE('',#1451,#138);
#95=LINE('',#1453,#139);
#96=LINE('',#1455,#140);
#97=LINE('',#1457,#141);
#98=LINE('',#1459,#142);
#99=LINE('',#1461,#143);
#100=LINE('',#1463,#144);
#101=LINE('',#1465,#145);
#102=LINE('',#1466,#146);
#103=LINE('',#1468,#147);
#104=LINE('',#1470,#148);
#105=VECTOR('',#989,0.393700787401575);
#106=VECTOR('',#992,0.393700787401575);
#107=VECTOR('',#995,0.393700787401575);
#108=VECTOR('',#1000,0.393700787401575);
#109=VECTOR('',#1001,0.393700787401575);
#110=VECTOR('',#1002,0.393700787401575);
#111=VECTOR('',#1003,0.393700787401575);
#112=VECTOR('',#1044,0.393700787401575);
#113=VECTOR('',#1049,0.0375);
#114=VECTOR('',#1054,0.0375);
#115=VECTOR('',#1059,0.135);
#116=VECTOR('',#1068,0.135);
#117=VECTOR('',#1081,0.12);
#118=VECTOR('',#1092,0.12);
#119=VECTOR('',#1103,0.135);
#120=VECTOR('',#1116,0.135);
#121=VECTOR('',#1129,0.135);
#122=VECTOR('',#1142,0.12);
#123=VECTOR('',#1153,0.12);
#124=VECTOR('',#1164,0.135);
#125=VECTOR('',#1175,0.393700787401575);
#126=VECTOR('',#1176,0.393700787401575);
#127=VECTOR('',#1177,0.393700787401575);
#128=VECTOR('',#1178,0.393700787401575);
#129=VECTOR('',#1185,0.0375);
#130=VECTOR('',#1188,0.0375);
#131=VECTOR('',#1191,0.57);
#132=VECTOR('',#1194,0.325);
#133=VECTOR('',#1197,0.067);
#134=VECTOR('',#1200,0.0375);
#135=VECTOR('',#1203,0.0375);
#136=VECTOR('',#1206,0.0375);
#137=VECTOR('',#1209,0.0375);
#138=VECTOR('',#1212,0.0375);
#139=VECTOR('',#1215,0.0670000000000001);
#140=VECTOR('',#1218,0.0670000000000001);
#141=VECTOR('',#1221,0.067);
#142=VECTOR('',#1224,0.0375);
#143=VECTOR('',#1227,0.0375);
#144=VECTOR('',#1230,0.0375);
#145=VECTOR('',#1233,0.393700787401575);
#146=VECTOR('',#1234,0.393700787401575);
#147=VECTOR('',#1237,0.393700787401575);
#148=VECTOR('',#1240,0.393700787401575);
#149=CYLINDRICAL_SURFACE('',#867,0.314032330285617);
#150=CYLINDRICAL_SURFACE('',#869,0.32);
#151=CYLINDRICAL_SURFACE('',#891,0.314032330285617);
#152=CYLINDRICAL_SURFACE('',#892,0.0375);
#153=CYLINDRICAL_SURFACE('',#894,0.0375);
#154=CYLINDRICAL_SURFACE('',#896,0.135);
#155=CYLINDRICAL_SURFACE('',#900,0.135);
#156=CYLINDRICAL_SURFACE('',#906,0.12);
#157=CYLINDRICAL_SURFACE('',#911,0.12);
#158=CYLINDRICAL_SURFACE('',#916,0.135);
#159=CYLINDRICAL_SURFACE('',#922,0.135);
#160=CYLINDRICAL_SURFACE('',#928,0.135);
#161=CYLINDRICAL_SURFACE('',#934,0.12);
#162=CYLINDRICAL_SURFACE('',#939,0.12);
#163=CYLINDRICAL_SURFACE('',#944,0.135);
#164=CYLINDRICAL_SURFACE('',#953,0.0375);
#165=CYLINDRICAL_SURFACE('',#954,0.0375);
#166=CYLINDRICAL_SURFACE('',#955,0.57);
#167=CYLINDRICAL_SURFACE('',#956,0.325);
#168=CYLINDRICAL_SURFACE('',#957,0.067);
#169=CYLINDRICAL_SURFACE('',#958,0.0375);
#170=CYLINDRICAL_SURFACE('',#959,0.0375);
#171=CYLINDRICAL_SURFACE('',#960,0.0375);
#172=CYLINDRICAL_SURFACE('',#961,0.0375);
#173=CYLINDRICAL_SURFACE('',#962,0.0375);
#174=CYLINDRICAL_SURFACE('',#963,0.0670000000000001);
#175=CYLINDRICAL_SURFACE('',#964,0.0670000000000001);
#176=CYLINDRICAL_SURFACE('',#965,0.067);
#177=CYLINDRICAL_SURFACE('',#966,0.0375);
#178=CYLINDRICAL_SURFACE('',#967,0.0375);
#179=CYLINDRICAL_SURFACE('',#968,0.0375);
#180=FACE_OUTER_BOUND('',#228,.T.);
#181=FACE_OUTER_BOUND('',#229,.T.);
#182=FACE_OUTER_BOUND('',#230,.T.);
#183=FACE_OUTER_BOUND('',#231,.T.);
#184=FACE_OUTER_BOUND('',#250,.T.);
#185=FACE_OUTER_BOUND('',#251,.T.);
#186=FACE_OUTER_BOUND('',#252,.T.);
#187=FACE_OUTER_BOUND('',#253,.T.);
#188=FACE_OUTER_BOUND('',#254,.T.);
#189=FACE_OUTER_BOUND('',#257,.T.);
#190=FACE_OUTER_BOUND('',#258,.T.);
#191=FACE_OUTER_BOUND('',#261,.T.);
#192=FACE_OUTER_BOUND('',#262,.T.);
#193=FACE_OUTER_BOUND('',#264,.T.);
#194=FACE_OUTER_BOUND('',#265,.T.);
#195=FACE_OUTER_BOUND('',#267,.T.);
#196=FACE_OUTER_BOUND('',#268,.T.);
#197=FACE_OUTER_BOUND('',#271,.T.);
#198=FACE_OUTER_BOUND('',#272,.T.);
#199=FACE_OUTER_BOUND('',#275,.T.);
#200=FACE_OUTER_BOUND('',#276,.T.);
#201=FACE_OUTER_BOUND('',#279,.T.);
#202=FACE_OUTER_BOUND('',#280,.T.);
#203=FACE_OUTER_BOUND('',#282,.T.);
#204=FACE_OUTER_BOUND('',#283,.T.);
#205=FACE_OUTER_BOUND('',#285,.T.);
#206=FACE_OUTER_BOUND('',#286,.T.);
#207=FACE_OUTER_BOUND('',#289,.T.);
#208=FACE_OUTER_BOUND('',#302,.T.);
#209=FACE_OUTER_BOUND('',#303,.T.);
#210=FACE_OUTER_BOUND('',#304,.T.);
#211=FACE_OUTER_BOUND('',#305,.T.);
#212=FACE_OUTER_BOUND('',#306,.T.);
#213=FACE_OUTER_BOUND('',#307,.T.);
#214=FACE_OUTER_BOUND('',#308,.T.);
#215=FACE_OUTER_BOUND('',#309,.T.);
#216=FACE_OUTER_BOUND('',#310,.T.);
#217=FACE_OUTER_BOUND('',#311,.T.);
#218=FACE_OUTER_BOUND('',#312,.T.);
#219=FACE_OUTER_BOUND('',#313,.T.);
#220=FACE_OUTER_BOUND('',#314,.T.);
#221=FACE_OUTER_BOUND('',#315,.T.);
#222=FACE_OUTER_BOUND('',#316,.T.);
#223=FACE_OUTER_BOUND('',#317,.T.);
#224=FACE_OUTER_BOUND('',#318,.T.);
#225=FACE_OUTER_BOUND('',#319,.T.);
#226=FACE_OUTER_BOUND('',#320,.T.);
#227=FACE_OUTER_BOUND('',#321,.T.);
#228=EDGE_LOOP('',(#566,#567,#568,#569,#570));
#229=EDGE_LOOP('',(#571,#572,#573,#574));
#230=EDGE_LOOP('',(#575,#576,#577,#578));
#231=EDGE_LOOP('',(#579,#580,#581,#582));
#232=EDGE_LOOP('',(#583));
#233=EDGE_LOOP('',(#584));
#234=EDGE_LOOP('',(#585));
#235=EDGE_LOOP('',(#586));
#236=EDGE_LOOP('',(#587));
#237=EDGE_LOOP('',(#588));
#238=EDGE_LOOP('',(#589));
#239=EDGE_LOOP('',(#590));
#240=EDGE_LOOP('',(#591));
#241=EDGE_LOOP('',(#592));
#242=EDGE_LOOP('',(#593));
#243=EDGE_LOOP('',(#594));
#244=EDGE_LOOP('',(#595));
#245=EDGE_LOOP('',(#596,#597,#598,#599));
#246=EDGE_LOOP('',(#600));
#247=EDGE_LOOP('',(#601));
#248=EDGE_LOOP('',(#602));
#249=EDGE_LOOP('',(#603));
#250=EDGE_LOOP('',(#604,#605,#606,#607));
#251=EDGE_LOOP('',(#608,#609,#610,#611));
#252=EDGE_LOOP('',(#612,#613,#614,#615));
#253=EDGE_LOOP('',(#616,#617,#618,#619));
#254=EDGE_LOOP('',(#620));
#255=EDGE_LOOP('',(#621));
#256=EDGE_LOOP('',(#622));
#257=EDGE_LOOP('',(#623,#624,#625,#626));
#258=EDGE_LOOP('',(#627));
#259=EDGE_LOOP('',(#628));
#260=EDGE_LOOP('',(#629));
#261=EDGE_LOOP('',(#630,#631,#632,#633));
#262=EDGE_LOOP('',(#634));
#263=EDGE_LOOP('',(#635));
#264=EDGE_LOOP('',(#636,#637,#638,#639));
#265=EDGE_LOOP('',(#640));
#266=EDGE_LOOP('',(#641));
#267=EDGE_LOOP('',(#642,#643,#644,#645));
#268=EDGE_LOOP('',(#646));
#269=EDGE_LOOP('',(#647));
#270=EDGE_LOOP('',(#648));
#271=EDGE_LOOP('',(#649,#650,#651,#652));
#272=EDGE_LOOP('',(#653));
#273=EDGE_LOOP('',(#654));
#274=EDGE_LOOP('',(#655));
#275=EDGE_LOOP('',(#656,#657,#658,#659));
#276=EDGE_LOOP('',(#660));
#277=EDGE_LOOP('',(#661));
#278=EDGE_LOOP('',(#662));
#279=EDGE_LOOP('',(#663,#664,#665,#666));
#280=EDGE_LOOP('',(#667));
#281=EDGE_LOOP('',(#668));
#282=EDGE_LOOP('',(#669,#670,#671,#672));
#283=EDGE_LOOP('',(#673));
#284=EDGE_LOOP('',(#674));
#285=EDGE_LOOP('',(#675,#676,#677,#678));
#286=EDGE_LOOP('',(#679));
#287=EDGE_LOOP('',(#680));
#288=EDGE_LOOP('',(#681));
#289=EDGE_LOOP('',(#682,#683,#684,#685));
#290=EDGE_LOOP('',(#686));
#291=EDGE_LOOP('',(#687));
#292=EDGE_LOOP('',(#688));
#293=EDGE_LOOP('',(#689));
#294=EDGE_LOOP('',(#690));
#295=EDGE_LOOP('',(#691));
#296=EDGE_LOOP('',(#692));
#297=EDGE_LOOP('',(#693));
#298=EDGE_LOOP('',(#694));
#299=EDGE_LOOP('',(#695));
#300=EDGE_LOOP('',(#696));
#301=EDGE_LOOP('',(#697));
#302=EDGE_LOOP('',(#698,#699,#700,#701));
#303=EDGE_LOOP('',(#702,#703,#704,#705));
#304=EDGE_LOOP('',(#706,#707,#708,#709,#710,#711,#712,#713));
#305=EDGE_LOOP('',(#714,#715,#716,#717));
#306=EDGE_LOOP('',(#718,#719,#720,#721));
#307=EDGE_LOOP('',(#722,#723,#724,#725));
#308=EDGE_LOOP('',(#726,#727,#728,#729));
#309=EDGE_LOOP('',(#730,#731,#732,#733));
#310=EDGE_LOOP('',(#734,#735,#736,#737));
#311=EDGE_LOOP('',(#738,#739,#740,#741));
#312=EDGE_LOOP('',(#742,#743,#744,#745));
#313=EDGE_LOOP('',(#746,#747,#748,#749));
#314=EDGE_LOOP('',(#750,#751,#752,#753));
#315=EDGE_LOOP('',(#754,#755,#756,#757));
#316=EDGE_LOOP('',(#758,#759,#760,#761));
#317=EDGE_LOOP('',(#762,#763,#764,#765));
#318=EDGE_LOOP('',(#766,#767,#768,#769));
#319=EDGE_LOOP('',(#770,#771,#772,#773));
#320=EDGE_LOOP('',(#774,#775,#776,#777));
#321=EDGE_LOOP('',(#778,#779,#780,#781));
#322=CIRCLE('',#862,0.32);
#323=CIRCLE('',#863,0.314032330285617);
#324=CIRCLE('',#864,0.57);
#325=CIRCLE('',#865,0.57);
#326=CIRCLE('',#866,0.314032330285617);
#327=CIRCLE('',#868,0.314032330285617);
#328=CIRCLE('',#870,0.32);
#329=CIRCLE('',#872,0.0375);
#330=CIRCLE('',#873,0.0375);
#331=CIRCLE('',#874,0.0375);
#332=CIRCLE('',#875,0.067);
#333=CIRCLE('',#876,0.0670000000000001);
#334=CIRCLE('',#877,0.0670000000000001);
#335=CIRCLE('',#878,0.0375);
#336=CIRCLE('',#879,0.0375);
#337=CIRCLE('',#880,0.0375);
#338=CIRCLE('',#881,0.0375);
#339=CIRCLE('',#882,0.0375);
#340=CIRCLE('',#883,0.067);
#341=CIRCLE('',#884,0.325);
#342=CIRCLE('',#885,0.314032330285617);
#343=CIRCLE('',#886,0.57);
#344=CIRCLE('',#887,0.0375);
#345=CIRCLE('',#888,0.0375);
#346=CIRCLE('',#889,0.0375);
#347=CIRCLE('',#890,0.0375);
#348=CIRCLE('',#893,0.0375);
#349=CIRCLE('',#895,0.0375);
#350=CIRCLE('',#897,0.135);
#351=CIRCLE('',#898,0.135);
#352=CIRCLE('',#901,0.135);
#353=CIRCLE('',#902,0.135);
#354=CIRCLE('',#904,0.0375);
#355=CIRCLE('',#905,0.0375);
#356=CIRCLE('',#907,0.12);
#357=CIRCLE('',#908,0.12);
#358=CIRCLE('',#910,0.067);
#359=CIRCLE('',#912,0.12);
#360=CIRCLE('',#913,0.12);
#361=CIRCLE('',#915,0.067);
#362=CIRCLE('',#917,0.135);
#363=CIRCLE('',#918,0.135);
#364=CIRCLE('',#920,0.0375);
#365=CIRCLE('',#921,0.0375);
#366=CIRCLE('',#923,0.135);
#367=CIRCLE('',#924,0.135);
#368=CIRCLE('',#926,0.0375);
#369=CIRCLE('',#927,0.0375);
#370=CIRCLE('',#929,0.135);
#371=CIRCLE('',#930,0.135);
#372=CIRCLE('',#932,0.0375);
#373=CIRCLE('',#933,0.0375);
#374=CIRCLE('',#935,0.12);
#375=CIRCLE('',#936,0.12);
#376=CIRCLE('',#938,0.0670000000000001);
#377=CIRCLE('',#940,0.12);
#378=CIRCLE('',#941,0.12);
#379=CIRCLE('',#943,0.0670000000000001);
#380=CIRCLE('',#945,0.135);
#381=CIRCLE('',#946,0.135);
#382=CIRCLE('',#948,0.0375);
#383=CIRCLE('',#949,0.0375);
#384=CIRCLE('',#951,0.325);
#385=CIRCLE('',#952,0.57);
#386=VERTEX_POINT('',#1245);
#387=VERTEX_POINT('',#1246);
#388=VERTEX_POINT('',#1248);
#389=VERTEX_POINT('',#1250);
#390=VERTEX_POINT('',#1252);
#391=VERTEX_POINT('',#1256);
#392=VERTEX_POINT('',#1258);
#393=VERTEX_POINT('',#1262);
#394=VERTEX_POINT('',#1266);
#395=VERTEX_POINT('',#1267);
#396=VERTEX_POINT('',#1269);
#397=VERTEX_POINT('',#1271);
#398=VERTEX_POINT('',#1274);
#399=VERTEX_POINT('',#1276);
#400=VERTEX_POINT('',#1278);
#401=VERTEX_POINT('',#1280);
#402=VERTEX_POINT('',#1282);
#403=VERTEX_POINT('',#1284);
#404=VERTEX_POINT('',#1286);
#405=VERTEX_POINT('',#1288);
#406=VERTEX_POINT('',#1290);
#407=VERTEX_POINT('',#1292);
#408=VERTEX_POINT('',#1294);
#409=VERTEX_POINT('',#1296);
#410=VERTEX_POINT('',#1298);
#411=VERTEX_POINT('',#1300);
#412=VERTEX_POINT('',#1303);
#413=VERTEX_POINT('',#1305);
#414=VERTEX_POINT('',#1307);
#415=VERTEX_POINT('',#1309);
#416=VERTEX_POINT('',#1314);
#417=VERTEX_POINT('',#1318);
#418=VERTEX_POINT('',#1322);
#419=VERTEX_POINT('',#1324);
#420=VERTEX_POINT('',#1329);
#421=VERTEX_POINT('',#1331);
#422=VERTEX_POINT('',#1335);
#423=VERTEX_POINT('',#1337);
#424=VERTEX_POINT('',#1340);
#425=VERTEX_POINT('',#1342);
#426=VERTEX_POINT('',#1346);
#427=VERTEX_POINT('',#1349);
#428=VERTEX_POINT('',#1351);
#429=VERTEX_POINT('',#1355);
#430=VERTEX_POINT('',#1358);
#431=VERTEX_POINT('',#1360);
#432=VERTEX_POINT('',#1364);
#433=VERTEX_POINT('',#1366);
#434=VERTEX_POINT('',#1369);
#435=VERTEX_POINT('',#1371);
#436=VERTEX_POINT('',#1375);
#437=VERTEX_POINT('',#1377);
#438=VERTEX_POINT('',#1380);
#439=VERTEX_POINT('',#1382);
#440=VERTEX_POINT('',#1386);
#441=VERTEX_POINT('',#1388);
#442=VERTEX_POINT('',#1391);
#443=VERTEX_POINT('',#1393);
#444=VERTEX_POINT('',#1397);
#445=VERTEX_POINT('',#1400);
#446=VERTEX_POINT('',#1402);
#447=VERTEX_POINT('',#1406);
#448=VERTEX_POINT('',#1409);
#449=VERTEX_POINT('',#1411);
#450=VERTEX_POINT('',#1415);
#451=VERTEX_POINT('',#1417);
#452=VERTEX_POINT('',#1420);
#453=VERTEX_POINT('',#1421);
#454=VERTEX_POINT('',#1423);
#455=VERTEX_POINT('',#1425);
#456=VERTEX_POINT('',#1428);
#457=VERTEX_POINT('',#1430);
#458=EDGE_CURVE('',#386,#387,#322,.T.);
#459=EDGE_CURVE('',#388,#386,#323,.T.);
#460=EDGE_CURVE('',#389,#388,#324,.T.);
#461=EDGE_CURVE('',#390,#389,#325,.T.);
#462=EDGE_CURVE('',#387,#390,#326,.T.);
#463=EDGE_CURVE('',#386,#391,#61,.T.);
#464=EDGE_CURVE('',#392,#391,#327,.T.);
#465=EDGE_CURVE('',#388,#392,#62,.T.);
#466=EDGE_CURVE('',#393,#387,#63,.T.);
#467=EDGE_CURVE('',#391,#393,#328,.T.);
#468=EDGE_CURVE('',#394,#395,#64,.T.);
#469=EDGE_CURVE('',#396,#394,#65,.T.);
#470=EDGE_CURVE('',#397,#396,#66,.T.);
#471=EDGE_CURVE('',#395,#397,#67,.T.);
#472=EDGE_CURVE('',#398,#398,#329,.T.);
#473=EDGE_CURVE('',#399,#399,#330,.T.);
#474=EDGE_CURVE('',#400,#400,#331,.T.);
#475=EDGE_CURVE('',#401,#401,#332,.T.);
#476=EDGE_CURVE('',#402,#402,#333,.T.);
#477=EDGE_CURVE('',#403,#403,#334,.T.);
#478=EDGE_CURVE('',#404,#404,#335,.T.);
#479=EDGE_CURVE('',#405,#405,#336,.T.);
#480=EDGE_CURVE('',#406,#406,#337,.T.);
#481=EDGE_CURVE('',#407,#407,#338,.T.);
#482=EDGE_CURVE('',#408,#408,#339,.T.);
#483=EDGE_CURVE('',#409,#409,#340,.T.);
#484=EDGE_CURVE('',#410,#410,#341,.T.);
#485=EDGE_CURVE('',#393,#411,#342,.T.);
#486=EDGE_CURVE('',#411,#392,#343,.T.);
#487=EDGE_CURVE('',#412,#412,#344,.T.);
#488=EDGE_CURVE('',#413,#413,#345,.T.);
#489=EDGE_CURVE('',#414,#414,#346,.T.);
#490=EDGE_CURVE('',#415,#415,#347,.T.);
#491=EDGE_CURVE('',#390,#411,#68,.T.);
#492=EDGE_CURVE('',#416,#416,#348,.T.);
#493=EDGE_CURVE('',#416,#415,#69,.T.);
#494=EDGE_CURVE('',#417,#417,#349,.T.);
#495=EDGE_CURVE('',#417,#414,#70,.T.);
#496=EDGE_CURVE('',#418,#418,#350,.T.);
#497=EDGE_CURVE('',#418,#419,#71,.T.);
#498=EDGE_CURVE('',#419,#419,#351,.T.);
#499=EDGE_CURVE('',#420,#420,#352,.T.);
#500=EDGE_CURVE('',#420,#421,#72,.T.);
#501=EDGE_CURVE('',#421,#421,#353,.T.);
#502=EDGE_CURVE('',#422,#422,#354,.T.);
#503=EDGE_CURVE('',#423,#423,#355,.T.);
#504=EDGE_CURVE('',#424,#424,#356,.T.);
#505=EDGE_CURVE('',#424,#425,#73,.T.);
#506=EDGE_CURVE('',#425,#425,#357,.T.);
#507=EDGE_CURVE('',#426,#426,#358,.T.);
#508=EDGE_CURVE('',#427,#427,#359,.T.);
#509=EDGE_CURVE('',#427,#428,#74,.T.);
#510=EDGE_CURVE('',#428,#428,#360,.T.);
#511=EDGE_CURVE('',#429,#429,#361,.T.);
#512=EDGE_CURVE('',#430,#430,#362,.T.);
#513=EDGE_CURVE('',#430,#431,#75,.T.);
#514=EDGE_CURVE('',#431,#431,#363,.T.);
#515=EDGE_CURVE('',#432,#432,#364,.T.);
#516=EDGE_CURVE('',#433,#433,#365,.T.);
#517=EDGE_CURVE('',#434,#434,#366,.T.);
#518=EDGE_CURVE('',#434,#435,#76,.T.);
#519=EDGE_CURVE('',#435,#435,#367,.T.);
#520=EDGE_CURVE('',#436,#436,#368,.T.);
#521=EDGE_CURVE('',#437,#437,#369,.T.);
#522=EDGE_CURVE('',#438,#438,#370,.T.);
#523=EDGE_CURVE('',#438,#439,#77,.T.);
#524=EDGE_CURVE('',#439,#439,#371,.T.);
#525=EDGE_CURVE('',#440,#440,#372,.T.);
#526=EDGE_CURVE('',#441,#441,#373,.T.);
#527=EDGE_CURVE('',#442,#442,#374,.T.);
#528=EDGE_CURVE('',#442,#443,#78,.T.);
#529=EDGE_CURVE('',#443,#443,#375,.T.);
#530=EDGE_CURVE('',#444,#444,#376,.T.);
#531=EDGE_CURVE('',#445,#445,#377,.T.);
#532=EDGE_CURVE('',#445,#446,#79,.T.);
#533=EDGE_CURVE('',#446,#446,#378,.T.);
#534=EDGE_CURVE('',#447,#447,#379,.T.);
#535=EDGE_CURVE('',#448,#448,#380,.T.);
#536=EDGE_CURVE('',#448,#449,#80,.T.);
#537=EDGE_CURVE('',#449,#449,#381,.T.);
#538=EDGE_CURVE('',#450,#450,#382,.T.);
#539=EDGE_CURVE('',#451,#451,#383,.T.);
#540=EDGE_CURVE('',#452,#453,#81,.T.);
#541=EDGE_CURVE('',#453,#454,#82,.T.);
#542=EDGE_CURVE('',#454,#455,#83,.T.);
#543=EDGE_CURVE('',#455,#452,#84,.T.);
#544=EDGE_CURVE('',#456,#456,#384,.T.);
#545=EDGE_CURVE('',#457,#457,#385,.T.);
#546=EDGE_CURVE('',#451,#413,#85,.T.);
#547=EDGE_CURVE('',#423,#412,#86,.T.);
#548=EDGE_CURVE('',#457,#389,#87,.T.);
#549=EDGE_CURVE('',#456,#410,#88,.T.);
#550=EDGE_CURVE('',#429,#409,#89,.T.);
#551=EDGE_CURVE('',#436,#408,#90,.T.);
#552=EDGE_CURVE('',#441,#407,#91,.T.);
#553=EDGE_CURVE('',#433,#406,#92,.T.);
#554=EDGE_CURVE('',#450,#405,#93,.T.);
#555=EDGE_CURVE('',#422,#404,#94,.T.);
#556=EDGE_CURVE('',#444,#403,#95,.T.);
#557=EDGE_CURVE('',#447,#402,#96,.T.);
#558=EDGE_CURVE('',#426,#401,#97,.T.);
#559=EDGE_CURVE('',#437,#400,#98,.T.);
#560=EDGE_CURVE('',#440,#399,#99,.T.);
#561=EDGE_CURVE('',#432,#398,#100,.T.);
#562=EDGE_CURVE('',#394,#452,#101,.T.);
#563=EDGE_CURVE('',#396,#455,#102,.T.);
#564=EDGE_CURVE('',#397,#454,#103,.T.);
#565=EDGE_CURVE('',#395,#453,#104,.T.);
#566=ORIENTED_EDGE('',*,*,#458,.F.);
#567=ORIENTED_EDGE('',*,*,#459,.F.);
#568=ORIENTED_EDGE('',*,*,#460,.F.);
#569=ORIENTED_EDGE('',*,*,#461,.F.);
#570=ORIENTED_EDGE('',*,*,#462,.F.);
#571=ORIENTED_EDGE('',*,*,#459,.T.);
#572=ORIENTED_EDGE('',*,*,#463,.T.);
#573=ORIENTED_EDGE('',*,*,#464,.F.);
#574=ORIENTED_EDGE('',*,*,#465,.F.);
#575=ORIENTED_EDGE('',*,*,#458,.T.);
#576=ORIENTED_EDGE('',*,*,#466,.F.);
#577=ORIENTED_EDGE('',*,*,#467,.F.);
#578=ORIENTED_EDGE('',*,*,#463,.F.);
#579=ORIENTED_EDGE('',*,*,#468,.F.);
#580=ORIENTED_EDGE('',*,*,#469,.F.);
#581=ORIENTED_EDGE('',*,*,#470,.F.);
#582=ORIENTED_EDGE('',*,*,#471,.F.);
#583=ORIENTED_EDGE('',*,*,#472,.T.);
#584=ORIENTED_EDGE('',*,*,#473,.T.);
#585=ORIENTED_EDGE('',*,*,#474,.T.);
#586=ORIENTED_EDGE('',*,*,#475,.T.);
#587=ORIENTED_EDGE('',*,*,#476,.T.);
#588=ORIENTED_EDGE('',*,*,#477,.T.);
#589=ORIENTED_EDGE('',*,*,#478,.T.);
#590=ORIENTED_EDGE('',*,*,#479,.T.);
#591=ORIENTED_EDGE('',*,*,#480,.T.);
#592=ORIENTED_EDGE('',*,*,#481,.T.);
#593=ORIENTED_EDGE('',*,*,#482,.T.);
#594=ORIENTED_EDGE('',*,*,#483,.T.);
#595=ORIENTED_EDGE('',*,*,#484,.T.);
#596=ORIENTED_EDGE('',*,*,#467,.T.);
#597=ORIENTED_EDGE('',*,*,#485,.T.);
#598=ORIENTED_EDGE('',*,*,#486,.T.);
#599=ORIENTED_EDGE('',*,*,#464,.T.);
#600=ORIENTED_EDGE('',*,*,#487,.T.);
#601=ORIENTED_EDGE('',*,*,#488,.T.);
#602=ORIENTED_EDGE('',*,*,#489,.T.);
#603=ORIENTED_EDGE('',*,*,#490,.T.);
#604=ORIENTED_EDGE('',*,*,#462,.T.);
#605=ORIENTED_EDGE('',*,*,#491,.T.);
#606=ORIENTED_EDGE('',*,*,#485,.F.);
#607=ORIENTED_EDGE('',*,*,#466,.T.);
#608=ORIENTED_EDGE('',*,*,#492,.T.);
#609=ORIENTED_EDGE('',*,*,#493,.T.);
#610=ORIENTED_EDGE('',*,*,#490,.F.);
#611=ORIENTED_EDGE('',*,*,#493,.F.);
#612=ORIENTED_EDGE('',*,*,#494,.T.);
#613=ORIENTED_EDGE('',*,*,#495,.T.);
#614=ORIENTED_EDGE('',*,*,#489,.F.);
#615=ORIENTED_EDGE('',*,*,#495,.F.);
#616=ORIENTED_EDGE('',*,*,#496,.F.);
#617=ORIENTED_EDGE('',*,*,#497,.T.);
#618=ORIENTED_EDGE('',*,*,#498,.T.);
#619=ORIENTED_EDGE('',*,*,#497,.F.);
#620=ORIENTED_EDGE('',*,*,#498,.F.);
#621=ORIENTED_EDGE('',*,*,#494,.F.);
#622=ORIENTED_EDGE('',*,*,#492,.F.);
#623=ORIENTED_EDGE('',*,*,#499,.F.);
#624=ORIENTED_EDGE('',*,*,#500,.T.);
#625=ORIENTED_EDGE('',*,*,#501,.T.);
#626=ORIENTED_EDGE('',*,*,#500,.F.);
#627=ORIENTED_EDGE('',*,*,#501,.F.);
#628=ORIENTED_EDGE('',*,*,#502,.F.);
#629=ORIENTED_EDGE('',*,*,#503,.F.);
#630=ORIENTED_EDGE('',*,*,#504,.F.);
#631=ORIENTED_EDGE('',*,*,#505,.T.);
#632=ORIENTED_EDGE('',*,*,#506,.T.);
#633=ORIENTED_EDGE('',*,*,#505,.F.);
#634=ORIENTED_EDGE('',*,*,#506,.F.);
#635=ORIENTED_EDGE('',*,*,#507,.F.);
#636=ORIENTED_EDGE('',*,*,#508,.F.);
#637=ORIENTED_EDGE('',*,*,#509,.T.);
#638=ORIENTED_EDGE('',*,*,#510,.T.);
#639=ORIENTED_EDGE('',*,*,#509,.F.);
#640=ORIENTED_EDGE('',*,*,#510,.F.);
#641=ORIENTED_EDGE('',*,*,#511,.F.);
#642=ORIENTED_EDGE('',*,*,#512,.F.);
#643=ORIENTED_EDGE('',*,*,#513,.T.);
#644=ORIENTED_EDGE('',*,*,#514,.T.);
#645=ORIENTED_EDGE('',*,*,#513,.F.);
#646=ORIENTED_EDGE('',*,*,#514,.F.);
#647=ORIENTED_EDGE('',*,*,#515,.F.);
#648=ORIENTED_EDGE('',*,*,#516,.F.);
#649=ORIENTED_EDGE('',*,*,#517,.F.);
#650=ORIENTED_EDGE('',*,*,#518,.T.);
#651=ORIENTED_EDGE('',*,*,#519,.T.);
#652=ORIENTED_EDGE('',*,*,#518,.F.);
#653=ORIENTED_EDGE('',*,*,#519,.F.);
#654=ORIENTED_EDGE('',*,*,#520,.F.);
#655=ORIENTED_EDGE('',*,*,#521,.F.);
#656=ORIENTED_EDGE('',*,*,#522,.F.);
#657=ORIENTED_EDGE('',*,*,#523,.T.);
#658=ORIENTED_EDGE('',*,*,#524,.T.);
#659=ORIENTED_EDGE('',*,*,#523,.F.);
#660=ORIENTED_EDGE('',*,*,#524,.F.);
#661=ORIENTED_EDGE('',*,*,#525,.F.);
#662=ORIENTED_EDGE('',*,*,#526,.F.);
#663=ORIENTED_EDGE('',*,*,#527,.F.);
#664=ORIENTED_EDGE('',*,*,#528,.T.);
#665=ORIENTED_EDGE('',*,*,#529,.T.);
#666=ORIENTED_EDGE('',*,*,#528,.F.);
#667=ORIENTED_EDGE('',*,*,#529,.F.);
#668=ORIENTED_EDGE('',*,*,#530,.F.);
#669=ORIENTED_EDGE('',*,*,#531,.F.);
#670=ORIENTED_EDGE('',*,*,#532,.T.);
#671=ORIENTED_EDGE('',*,*,#533,.T.);
#672=ORIENTED_EDGE('',*,*,#532,.F.);
#673=ORIENTED_EDGE('',*,*,#533,.F.);
#674=ORIENTED_EDGE('',*,*,#534,.F.);
#675=ORIENTED_EDGE('',*,*,#535,.F.);
#676=ORIENTED_EDGE('',*,*,#536,.T.);
#677=ORIENTED_EDGE('',*,*,#537,.T.);
#678=ORIENTED_EDGE('',*,*,#536,.F.);
#679=ORIENTED_EDGE('',*,*,#537,.F.);
#680=ORIENTED_EDGE('',*,*,#538,.F.);
#681=ORIENTED_EDGE('',*,*,#539,.F.);
#682=ORIENTED_EDGE('',*,*,#540,.T.);
#683=ORIENTED_EDGE('',*,*,#541,.T.);
#684=ORIENTED_EDGE('',*,*,#542,.T.);
#685=ORIENTED_EDGE('',*,*,#543,.T.);
#686=ORIENTED_EDGE('',*,*,#544,.T.);
#687=ORIENTED_EDGE('',*,*,#545,.T.);
#688=ORIENTED_EDGE('',*,*,#535,.T.);
#689=ORIENTED_EDGE('',*,*,#531,.T.);
#690=ORIENTED_EDGE('',*,*,#527,.T.);
#691=ORIENTED_EDGE('',*,*,#522,.T.);
#692=ORIENTED_EDGE('',*,*,#517,.T.);
#693=ORIENTED_EDGE('',*,*,#512,.T.);
#694=ORIENTED_EDGE('',*,*,#508,.T.);
#695=ORIENTED_EDGE('',*,*,#504,.T.);
#696=ORIENTED_EDGE('',*,*,#499,.T.);
#697=ORIENTED_EDGE('',*,*,#496,.T.);
#698=ORIENTED_EDGE('',*,*,#539,.T.);
#699=ORIENTED_EDGE('',*,*,#546,.T.);
#700=ORIENTED_EDGE('',*,*,#488,.F.);
#701=ORIENTED_EDGE('',*,*,#546,.F.);
#702=ORIENTED_EDGE('',*,*,#503,.T.);
#703=ORIENTED_EDGE('',*,*,#547,.T.);
#704=ORIENTED_EDGE('',*,*,#487,.F.);
#705=ORIENTED_EDGE('',*,*,#547,.F.);
#706=ORIENTED_EDGE('',*,*,#545,.F.);
#707=ORIENTED_EDGE('',*,*,#548,.T.);
#708=ORIENTED_EDGE('',*,*,#460,.T.);
#709=ORIENTED_EDGE('',*,*,#465,.T.);
#710=ORIENTED_EDGE('',*,*,#486,.F.);
#711=ORIENTED_EDGE('',*,*,#491,.F.);
#712=ORIENTED_EDGE('',*,*,#461,.T.);
#713=ORIENTED_EDGE('',*,*,#548,.F.);
#714=ORIENTED_EDGE('',*,*,#544,.F.);
#715=ORIENTED_EDGE('',*,*,#549,.T.);
#716=ORIENTED_EDGE('',*,*,#484,.F.);
#717=ORIENTED_EDGE('',*,*,#549,.F.);
#718=ORIENTED_EDGE('',*,*,#511,.T.);
#719=ORIENTED_EDGE('',*,*,#550,.T.);
#720=ORIENTED_EDGE('',*,*,#483,.F.);
#721=ORIENTED_EDGE('',*,*,#550,.F.);
#722=ORIENTED_EDGE('',*,*,#520,.T.);
#723=ORIENTED_EDGE('',*,*,#551,.T.);
#724=ORIENTED_EDGE('',*,*,#482,.F.);
#725=ORIENTED_EDGE('',*,*,#551,.F.);
#726=ORIENTED_EDGE('',*,*,#526,.T.);
#727=ORIENTED_EDGE('',*,*,#552,.T.);
#728=ORIENTED_EDGE('',*,*,#481,.F.);
#729=ORIENTED_EDGE('',*,*,#552,.F.);
#730=ORIENTED_EDGE('',*,*,#516,.T.);
#731=ORIENTED_EDGE('',*,*,#553,.T.);
#732=ORIENTED_EDGE('',*,*,#480,.F.);
#733=ORIENTED_EDGE('',*,*,#553,.F.);
#734=ORIENTED_EDGE('',*,*,#538,.T.);
#735=ORIENTED_EDGE('',*,*,#554,.T.);
#736=ORIENTED_EDGE('',*,*,#479,.F.);
#737=ORIENTED_EDGE('',*,*,#554,.F.);
#738=ORIENTED_EDGE('',*,*,#502,.T.);
#739=ORIENTED_EDGE('',*,*,#555,.T.);
#740=ORIENTED_EDGE('',*,*,#478,.F.);
#741=ORIENTED_EDGE('',*,*,#555,.F.);
#742=ORIENTED_EDGE('',*,*,#530,.T.);
#743=ORIENTED_EDGE('',*,*,#556,.T.);
#744=ORIENTED_EDGE('',*,*,#477,.F.);
#745=ORIENTED_EDGE('',*,*,#556,.F.);
#746=ORIENTED_EDGE('',*,*,#534,.T.);
#747=ORIENTED_EDGE('',*,*,#557,.T.);
#748=ORIENTED_EDGE('',*,*,#476,.F.);
#749=ORIENTED_EDGE('',*,*,#557,.F.);
#750=ORIENTED_EDGE('',*,*,#507,.T.);
#751=ORIENTED_EDGE('',*,*,#558,.T.);
#752=ORIENTED_EDGE('',*,*,#475,.F.);
#753=ORIENTED_EDGE('',*,*,#558,.F.);
#754=ORIENTED_EDGE('',*,*,#521,.T.);
#755=ORIENTED_EDGE('',*,*,#559,.T.);
#756=ORIENTED_EDGE('',*,*,#474,.F.);
#757=ORIENTED_EDGE('',*,*,#559,.F.);
#758=ORIENTED_EDGE('',*,*,#525,.T.);
#759=ORIENTED_EDGE('',*,*,#560,.T.);
#760=ORIENTED_EDGE('',*,*,#473,.F.);
#761=ORIENTED_EDGE('',*,*,#560,.F.);
#762=ORIENTED_EDGE('',*,*,#515,.T.);
#763=ORIENTED_EDGE('',*,*,#561,.T.);
#764=ORIENTED_EDGE('',*,*,#472,.F.);
#765=ORIENTED_EDGE('',*,*,#561,.F.);
#766=ORIENTED_EDGE('',*,*,#469,.T.);
#767=ORIENTED_EDGE('',*,*,#562,.T.);
#768=ORIENTED_EDGE('',*,*,#543,.F.);
#769=ORIENTED_EDGE('',*,*,#563,.F.);
#770=ORIENTED_EDGE('',*,*,#470,.T.);
#771=ORIENTED_EDGE('',*,*,#563,.T.);
#772=ORIENTED_EDGE('',*,*,#542,.F.);
#773=ORIENTED_EDGE('',*,*,#564,.F.);
#774=ORIENTED_EDGE('',*,*,#471,.T.);
#775=ORIENTED_EDGE('',*,*,#564,.T.);
#776=ORIENTED_EDGE('',*,*,#541,.F.);
#777=ORIENTED_EDGE('',*,*,#565,.F.);
#778=ORIENTED_EDGE('',*,*,#468,.T.);
#779=ORIENTED_EDGE('',*,*,#565,.T.);
#780=ORIENTED_EDGE('',*,*,#540,.F.);
#781=ORIENTED_EDGE('',*,*,#562,.F.);
#782=PLANE('',#861);
#783=PLANE('',#871);
#784=PLANE('',#899);
#785=PLANE('',#903);
#786=PLANE('',#909);
#787=PLANE('',#914);
#788=PLANE('',#919);
#789=PLANE('',#925);
#790=PLANE('',#931);
#791=PLANE('',#937);
#792=PLANE('',#942);
#793=PLANE('',#947);
#794=PLANE('',#950);
#795=PLANE('',#969);
#796=PLANE('',#970);
#797=PLANE('',#971);
#798=PLANE('',#972);
#799=ADVANCED_FACE('',(#180),#782,.T.);
#800=ADVANCED_FACE('',(#181),#149,.F.);
#801=ADVANCED_FACE('',(#182),#150,.F.);
#802=ADVANCED_FACE('',(#183,#15,#16,#17,#18,#19,#20,#21,#22,#23,#24,#25,
#26,#27,#28,#29,#30,#31,#32),#783,.F.);
#803=ADVANCED_FACE('',(#184),#151,.F.);
#804=ADVANCED_FACE('',(#185),#152,.F.);
#805=ADVANCED_FACE('',(#186),#153,.F.);
#806=ADVANCED_FACE('',(#187),#154,.F.);
#807=ADVANCED_FACE('',(#188,#33,#34),#784,.T.);
#808=ADVANCED_FACE('',(#189),#155,.F.);
#809=ADVANCED_FACE('',(#190,#35,#36),#785,.T.);
#810=ADVANCED_FACE('',(#191),#156,.F.);
#811=ADVANCED_FACE('',(#192,#37),#786,.T.);
#812=ADVANCED_FACE('',(#193),#157,.F.);
#813=ADVANCED_FACE('',(#194,#38),#787,.T.);
#814=ADVANCED_FACE('',(#195),#158,.F.);
#815=ADVANCED_FACE('',(#196,#39,#40),#788,.T.);
#816=ADVANCED_FACE('',(#197),#159,.F.);
#817=ADVANCED_FACE('',(#198,#41,#42),#789,.T.);
#818=ADVANCED_FACE('',(#199),#160,.F.);
#819=ADVANCED_FACE('',(#200,#43,#44),#790,.T.);
#820=ADVANCED_FACE('',(#201),#161,.F.);
#821=ADVANCED_FACE('',(#202,#45),#791,.T.);
#822=ADVANCED_FACE('',(#203),#162,.F.);
#823=ADVANCED_FACE('',(#204,#46),#792,.T.);
#824=ADVANCED_FACE('',(#205),#163,.F.);
#825=ADVANCED_FACE('',(#206,#47,#48),#793,.T.);
#826=ADVANCED_FACE('',(#207,#49,#50,#51,#52,#53,#54,#55,#56,#57,#58,#59,
#60),#794,.T.);
#827=ADVANCED_FACE('',(#208),#164,.F.);
#828=ADVANCED_FACE('',(#209),#165,.F.);
#829=ADVANCED_FACE('',(#210),#166,.F.);
#830=ADVANCED_FACE('',(#211),#167,.F.);
#831=ADVANCED_FACE('',(#212),#168,.F.);
#832=ADVANCED_FACE('',(#213),#169,.F.);
#833=ADVANCED_FACE('',(#214),#170,.F.);
#834=ADVANCED_FACE('',(#215),#171,.F.);
#835=ADVANCED_FACE('',(#216),#172,.F.);
#836=ADVANCED_FACE('',(#217),#173,.F.);
#837=ADVANCED_FACE('',(#218),#174,.F.);
#838=ADVANCED_FACE('',(#219),#175,.F.);
#839=ADVANCED_FACE('',(#220),#176,.F.);
#840=ADVANCED_FACE('',(#221),#177,.F.);
#841=ADVANCED_FACE('',(#222),#178,.F.);
#842=ADVANCED_FACE('',(#223),#179,.F.);
#843=ADVANCED_FACE('',(#224),#795,.T.);
#844=ADVANCED_FACE('',(#225),#796,.T.);
#845=ADVANCED_FACE('',(#226),#797,.T.);
#846=ADVANCED_FACE('',(#227),#798,.T.);
#847=CLOSED_SHELL('',(#799,#800,#801,#802,#803,#804,#805,#806,#807,#808,
#809,#810,#811,#812,#813,#814,#815,#816,#817,#818,#819,#820,#821,#822,#823,
#824,#825,#826,#827,#828,#829,#830,#831,#832,#833,#834,#835,#836,#837,#838,
#839,#840,#841,#842,#843,#844,#845,#846));
#848=DERIVED_UNIT_ELEMENT(#850,1.);
#849=DERIVED_UNIT_ELEMENT(#1479,-3.);
#850=(
MASS_UNIT()
NAMED_UNIT(*)
SI_UNIT(.KILO.,.GRAM.)
);
#851=DERIVED_UNIT((#848,#849));
#852=MEASURE_REPRESENTATION_ITEM('density measure',
POSITIVE_RATIO_MEASURE(7850.),#851);
#853=PROPERTY_DEFINITION_REPRESENTATION(#858,#855);
#854=PROPERTY_DEFINITION_REPRESENTATION(#859,#856);
#855=REPRESENTATION('material name',(#857),#1474);
#856=REPRESENTATION('density',(#852),#1474);
#857=DESCRIPTIVE_REPRESENTATION_ITEM('Steel','Steel');
#858=PROPERTY_DEFINITION('material property','material name',#1487);
#859=PROPERTY_DEFINITION('material property','density of part',#1487);
#860=AXIS2_PLACEMENT_3D('',#1243,#973,#974);
#861=AXIS2_PLACEMENT_3D('',#1244,#975,#976);
#862=AXIS2_PLACEMENT_3D('',#1247,#977,#978);
#863=AXIS2_PLACEMENT_3D('',#1249,#979,#980);
#864=AXIS2_PLACEMENT_3D('',#1251,#981,#982);
#865=AXIS2_PLACEMENT_3D('',#1253,#983,#984);
#866=AXIS2_PLACEMENT_3D('',#1254,#985,#986);
#867=AXIS2_PLACEMENT_3D('',#1255,#987,#988);
#868=AXIS2_PLACEMENT_3D('',#1259,#990,#991);
#869=AXIS2_PLACEMENT_3D('',#1261,#993,#994);
#870=AXIS2_PLACEMENT_3D('',#1264,#996,#997);
#871=AXIS2_PLACEMENT_3D('',#1265,#998,#999);
#872=AXIS2_PLACEMENT_3D('',#1275,#1004,#1005);
#873=AXIS2_PLACEMENT_3D('',#1277,#1006,#1007);
#874=AXIS2_PLACEMENT_3D('',#1279,#1008,#1009);
#875=AXIS2_PLACEMENT_3D('',#1281,#1010,#1011);
#876=AXIS2_PLACEMENT_3D('',#1283,#1012,#1013);
#877=AXIS2_PLACEMENT_3D('',#1285,#1014,#1015);
#878=AXIS2_PLACEMENT_3D('',#1287,#1016,#1017);
#879=AXIS2_PLACEMENT_3D('',#1289,#1018,#1019);
#880=AXIS2_PLACEMENT_3D('',#1291,#1020,#1021);
#881=AXIS2_PLACEMENT_3D('',#1293,#1022,#1023);
#882=AXIS2_PLACEMENT_3D('',#1295,#1024,#1025);
#883=AXIS2_PLACEMENT_3D('',#1297,#1026,#1027);
#884=AXIS2_PLACEMENT_3D('',#1299,#1028,#1029);
#885=AXIS2_PLACEMENT_3D('',#1301,#1030,#1031);
#886=AXIS2_PLACEMENT_3D('',#1302,#1032,#1033);
#887=AXIS2_PLACEMENT_3D('',#1304,#1034,#1035);
#888=AXIS2_PLACEMENT_3D('',#1306,#1036,#1037);
#889=AXIS2_PLACEMENT_3D('',#1308,#1038,#1039);
#890=AXIS2_PLACEMENT_3D('',#1310,#1040,#1041);
#891=AXIS2_PLACEMENT_3D('',#1311,#1042,#1043);
#892=AXIS2_PLACEMENT_3D('',#1313,#1045,#1046);
#893=AXIS2_PLACEMENT_3D('',#1315,#1047,#1048);
#894=AXIS2_PLACEMENT_3D('',#1317,#1050,#1051);
#895=AXIS2_PLACEMENT_3D('',#1319,#1052,#1053);
#896=AXIS2_PLACEMENT_3D('',#1321,#1055,#1056);
#897=AXIS2_PLACEMENT_3D('',#1323,#1057,#1058);
#898=AXIS2_PLACEMENT_3D('',#1326,#1060,#1061);
#899=AXIS2_PLACEMENT_3D('',#1327,#1062,#1063);
#900=AXIS2_PLACEMENT_3D('',#1328,#1064,#1065);
#901=AXIS2_PLACEMENT_3D('',#1330,#1066,#1067);
#902=AXIS2_PLACEMENT_3D('',#1333,#1069,#1070);
#903=AXIS2_PLACEMENT_3D('',#1334,#1071,#1072);
#904=AXIS2_PLACEMENT_3D('',#1336,#1073,#1074);
#905=AXIS2_PLACEMENT_3D('',#1338,#1075,#1076);
#906=AXIS2_PLACEMENT_3D('',#1339,#1077,#1078);
#907=AXIS2_PLACEMENT_3D('',#1341,#1079,#1080);
#908=AXIS2_PLACEMENT_3D('',#1344,#1082,#1083);
#909=AXIS2_PLACEMENT_3D('',#1345,#1084,#1085);
#910=AXIS2_PLACEMENT_3D('',#1347,#1086,#1087);
#911=AXIS2_PLACEMENT_3D('',#1348,#1088,#1089);
#912=AXIS2_PLACEMENT_3D('',#1350,#1090,#1091);
#913=AXIS2_PLACEMENT_3D('',#1353,#1093,#1094);
#914=AXIS2_PLACEMENT_3D('',#1354,#1095,#1096);
#915=AXIS2_PLACEMENT_3D('',#1356,#1097,#1098);
#916=AXIS2_PLACEMENT_3D('',#1357,#1099,#1100);
#917=AXIS2_PLACEMENT_3D('',#1359,#1101,#1102);
#918=AXIS2_PLACEMENT_3D('',#1362,#1104,#1105);
#919=AXIS2_PLACEMENT_3D('',#1363,#1106,#1107);
#920=AXIS2_PLACEMENT_3D('',#1365,#1108,#1109);
#921=AXIS2_PLACEMENT_3D('',#1367,#1110,#1111);
#922=AXIS2_PLACEMENT_3D('',#1368,#1112,#1113);
#923=AXIS2_PLACEMENT_3D('',#1370,#1114,#1115);
#924=AXIS2_PLACEMENT_3D('',#1373,#1117,#1118);
#925=AXIS2_PLACEMENT_3D('',#1374,#1119,#1120);
#926=AXIS2_PLACEMENT_3D('',#1376,#1121,#1122);
#927=AXIS2_PLACEMENT_3D('',#1378,#1123,#1124);
#928=AXIS2_PLACEMENT_3D('',#1379,#1125,#1126);
#929=AXIS2_PLACEMENT_3D('',#1381,#1127,#1128);
#930=AXIS2_PLACEMENT_3D('',#1384,#1130,#1131);
#931=AXIS2_PLACEMENT_3D('',#1385,#1132,#1133);
#932=AXIS2_PLACEMENT_3D('',#1387,#1134,#1135);
#933=AXIS2_PLACEMENT_3D('',#1389,#1136,#1137);
#934=AXIS2_PLACEMENT_3D('',#1390,#1138,#1139);
#935=AXIS2_PLACEMENT_3D('',#1392,#1140,#1141);
#936=AXIS2_PLACEMENT_3D('',#1395,#1143,#1144);
#937=AXIS2_PLACEMENT_3D('',#1396,#1145,#1146);
#938=AXIS2_PLACEMENT_3D('',#1398,#1147,#1148);
#939=AXIS2_PLACEMENT_3D('',#1399,#1149,#1150);
#940=AXIS2_PLACEMENT_3D('',#1401,#1151,#1152);
#941=AXIS2_PLACEMENT_3D('',#1404,#1154,#1155);
#942=AXIS2_PLACEMENT_3D('',#1405,#1156,#1157);
#943=AXIS2_PLACEMENT_3D('',#1407,#1158,#1159);
#944=AXIS2_PLACEMENT_3D('',#1408,#1160,#1161);
#945=AXIS2_PLACEMENT_3D('',#1410,#1162,#1163);
#946=AXIS2_PLACEMENT_3D('',#1413,#1165,#1166);
#947=AXIS2_PLACEMENT_3D('',#1414,#1167,#1168);
#948=AXIS2_PLACEMENT_3D('',#1416,#1169,#1170);
#949=AXIS2_PLACEMENT_3D('',#1418,#1171,#1172);
#950=AXIS2_PLACEMENT_3D('',#1419,#1173,#1174);
#951=AXIS2_PLACEMENT_3D('',#1429,#1179,#1180);
#952=AXIS2_PLACEMENT_3D('',#1431,#1181,#1182);
#953=AXIS2_PLACEMENT_3D('',#1432,#1183,#1184);
#954=AXIS2_PLACEMENT_3D('',#1434,#1186,#1187);
#955=AXIS2_PLACEMENT_3D('',#1436,#1189,#1190);
#956=AXIS2_PLACEMENT_3D('',#1438,#1192,#1193);
#957=AXIS2_PLACEMENT_3D('',#1440,#1195,#1196);
#958=AXIS2_PLACEMENT_3D('',#1442,#1198,#1199);
#959=AXIS2_PLACEMENT_3D('',#1444,#1201,#1202);
#960=AXIS2_PLACEMENT_3D('',#1446,#1204,#1205);
#961=AXIS2_PLACEMENT_3D('',#1448,#1207,#1208);
#962=AXIS2_PLACEMENT_3D('',#1450,#1210,#1211);
#963=AXIS2_PLACEMENT_3D('',#1452,#1213,#1214);
#964=AXIS2_PLACEMENT_3D('',#1454,#1216,#1217);
#965=AXIS2_PLACEMENT_3D('',#1456,#1219,#1220);
#966=AXIS2_PLACEMENT_3D('',#1458,#1222,#1223);
#967=AXIS2_PLACEMENT_3D('',#1460,#1225,#1226);
#968=AXIS2_PLACEMENT_3D('',#1462,#1228,#1229);
#969=AXIS2_PLACEMENT_3D('',#1464,#1231,#1232);
#970=AXIS2_PLACEMENT_3D('',#1467,#1235,#1236);
#971=AXIS2_PLACEMENT_3D('',#1469,#1238,#1239);
#972=AXIS2_PLACEMENT_3D('',#1471,#1241,#1242);
#973=DIRECTION('axis',(0.,0.,1.));
#974=DIRECTION('refdir',(1.,0.,0.));
#975=DIRECTION('center_axis',(0.,0.,1.));
#976=DIRECTION('ref_axis',(-1.,0.,0.));
#977=DIRECTION('center_axis',(0.,0.,1.));
#978=DIRECTION('ref_axis',(-1.,0.,0.));
#979=DIRECTION('center_axis',(0.,0.,1.));
#980=DIRECTION('ref_axis',(-1.,0.,0.));
#981=DIRECTION('center_axis',(0.,0.,-1.));
#982=DIRECTION('ref_axis',(-1.,0.,0.));
#983=DIRECTION('center_axis',(0.,0.,-1.));
#984=DIRECTION('ref_axis',(-1.,0.,0.));
#985=DIRECTION('center_axis',(0.,0.,1.));
#986=DIRECTION('ref_axis',(-1.,0.,0.));
#987=DIRECTION('center_axis',(0.,0.,-1.));
#988=DIRECTION('ref_axis',(-1.,0.,0.));
#989=DIRECTION('',(0.,0.,-1.));
#990=DIRECTION('center_axis',(0.,0.,1.));
#991=DIRECTION('ref_axis',(-1.,0.,0.));
#992=DIRECTION('',(0.,0.,-1.));
#993=DIRECTION('center_axis',(0.,0.,-1.));
#994=DIRECTION('ref_axis',(0.820420434783231,-0.57176071060374,0.));
#995=DIRECTION('',(0.,0.,1.));
#996=DIRECTION('center_axis',(0.,0.,1.));
#997=DIRECTION('ref_axis',(-1.,0.,0.));
#998=DIRECTION('center_axis',(0.,0.,1.));
#999=DIRECTION('ref_axis',(1.,0.,0.));
#1000=DIRECTION('',(0.,-1.,0.));
#1001=DIRECTION('',(-1.,0.,0.));
#1002=DIRECTION('',(0.,1.,0.));
#1003=DIRECTION('',(1.,0.,0.));
#1004=DIRECTION('center_axis',(0.,0.,1.));
#1005=DIRECTION('ref_axis',(-1.,0.,0.));
#1006=DIRECTION('center_axis',(0.,0.,1.));
#1007=DIRECTION('ref_axis',(-1.,0.,0.));
#1008=DIRECTION('center_axis',(0.,0.,1.));
#1009=DIRECTION('ref_axis',(-1.,0.,0.));
#1010=DIRECTION('center_axis',(0.,0.,1.));
#1011=DIRECTION('ref_axis',(-1.,0.,0.));
#1012=DIRECTION('center_axis',(0.,0.,1.));
#1013=DIRECTION('ref_axis',(-1.,0.,0.));
#1014=DIRECTION('center_axis',(0.,0.,1.));
#1015=DIRECTION('ref_axis',(-1.,0.,0.));
#1016=DIRECTION('center_axis',(0.,0.,1.));
#1017=DIRECTION('ref_axis',(-1.,0.,0.));
#1018=DIRECTION('center_axis',(0.,0.,1.));
#1019=DIRECTION('ref_axis',(-1.,0.,0.));
#1020=DIRECTION('center_axis',(0.,0.,1.));
#1021=DIRECTION('ref_axis',(-1.,0.,0.));
#1022=DIRECTION('center_axis',(0.,0.,1.));
#1023=DIRECTION('ref_axis',(-1.,0.,0.));
#1024=DIRECTION('center_axis',(0.,0.,1.));
#1025=DIRECTION('ref_axis',(-1.,0.,0.));
#1026=DIRECTION('center_axis',(0.,0.,1.));
#1027=DIRECTION('ref_axis',(-1.,0.,0.));
#1028=DIRECTION('center_axis',(0.,0.,1.));
#1029=DIRECTION('ref_axis',(-1.,0.,0.));
#1030=DIRECTION('center_axis',(0.,0.,1.));
#1031=DIRECTION('ref_axis',(-1.,0.,0.));
#1032=DIRECTION('center_axis',(0.,0.,1.));
#1033=DIRECTION('ref_axis',(-1.,0.,0.));
#1034=DIRECTION('center_axis',(0.,0.,1.));
#1035=DIRECTION('ref_axis',(-1.,0.,0.));
#1036=DIRECTION('center_axis',(0.,0.,1.));
#1037=DIRECTION('ref_axis',(-1.,0.,0.));
#1038=DIRECTION('center_axis',(0.,0.,1.));
#1039=DIRECTION('ref_axis',(-1.,0.,0.));
#1040=DIRECTION('center_axis',(0.,0.,1.));
#1041=DIRECTION('ref_axis',(-1.,0.,0.));
#1042=DIRECTION('center_axis',(0.,0.,-1.));
#1043=DIRECTION('ref_axis',(0.964787412140369,0.263030890534723,0.));
#1044=DIRECTION('',(0.,0.,-1.));
#1045=DIRECTION('center_axis',(0.,0.,-1.));
#1046=DIRECTION('ref_axis',(-1.,0.,0.));
#1047=DIRECTION('center_axis',(0.,0.,1.));
#1048=DIRECTION('ref_axis',(-1.,0.,0.));
#1049=DIRECTION('',(0.,0.,-1.));
#1050=DIRECTION('center_axis',(0.,0.,-1.));
#1051=DIRECTION('ref_axis',(-1.,0.,0.));
#1052=DIRECTION('center_axis',(0.,0.,1.));
#1053=DIRECTION('ref_axis',(-1.,0.,0.));
#1054=DIRECTION('',(0.,0.,-1.));
#1055=DIRECTION('center_axis',(0.,0.,-1.));
#1056=DIRECTION('ref_axis',(-1.,0.,0.));
#1057=DIRECTION('center_axis',(0.,0.,-1.));
#1058=DIRECTION('ref_axis',(-1.,0.,0.));
#1059=DIRECTION('',(0.,0.,-1.));
#1060=DIRECTION('center_axis',(0.,0.,-1.));
#1061=DIRECTION('ref_axis',(-1.,0.,0.));
#1062=DIRECTION('center_axis',(0.,0.,1.));
#1063=DIRECTION('ref_axis',(-1.,0.,0.));
#1064=DIRECTION('center_axis',(0.,0.,-1.));
#1065=DIRECTION('ref_axis',(-1.,0.,0.));
#1066=DIRECTION('center_axis',(0.,0.,-1.));
#1067=DIRECTION('ref_axis',(-1.,0.,0.));
#1068=DIRECTION('',(0.,0.,-1.));
#1069=DIRECTION('center_axis',(0.,0.,-1.));
#1070=DIRECTION('ref_axis',(-1.,0.,0.));
#1071=DIRECTION('center_axis',(0.,0.,1.));
#1072=DIRECTION('ref_axis',(-1.,0.,0.));
#1073=DIRECTION('center_axis',(0.,0.,1.));
#1074=DIRECTION('ref_axis',(-1.,0.,0.));
#1075=DIRECTION('center_axis',(0.,0.,1.));
#1076=DIRECTION('ref_axis',(-1.,0.,0.));
#1077=DIRECTION('center_axis',(0.,0.,-1.));
#1078=DIRECTION('ref_axis',(-1.,0.,0.));
#1079=DIRECTION('center_axis',(0.,0.,-1.));
#1080=DIRECTION('ref_axis',(-1.,0.,0.));
#1081=DIRECTION('',(0.,0.,-1.));
#1082=DIRECTION('center_axis',(0.,0.,-1.));
#1083=DIRECTION('ref_axis',(-1.,0.,0.));
#1084=DIRECTION('center_axis',(0.,0.,1.));
#1085=DIRECTION('ref_axis',(-1.,0.,0.));
#1086=DIRECTION('center_axis',(0.,0.,1.));
#1087=DIRECTION('ref_axis',(-1.,0.,0.));
#1088=DIRECTION('center_axis',(0.,0.,-1.));
#1089=DIRECTION('ref_axis',(-1.,0.,0.));
#1090=DIRECTION('center_axis',(0.,0.,-1.));
#1091=DIRECTION('ref_axis',(-1.,0.,0.));
#1092=DIRECTION('',(0.,0.,-1.));
#1093=DIRECTION('center_axis',(0.,0.,-1.));
#1094=DIRECTION('ref_axis',(-1.,0.,0.));
#1095=DIRECTION('center_axis',(0.,0.,1.));
#1096=DIRECTION('ref_axis',(-1.,0.,0.));
#1097=DIRECTION('center_axis',(0.,0.,1.));
#1098=DIRECTION('ref_axis',(-1.,0.,0.));
#1099=DIRECTION('center_axis',(0.,0.,-1.));
#1100=DIRECTION('ref_axis',(-1.,0.,0.));
#1101=DIRECTION('center_axis',(0.,0.,-1.));
#1102=DIRECTION('ref_axis',(-1.,0.,0.));
#1103=DIRECTION('',(0.,0.,-1.));
#1104=DIRECTION('center_axis',(0.,0.,-1.));
#1105=DIRECTION('ref_axis',(-1.,0.,0.));
#1106=DIRECTION('center_axis',(0.,0.,1.));
#1107=DIRECTION('ref_axis',(-1.,0.,0.));
#1108=DIRECTION('center_axis',(0.,0.,1.));
#1109=DIRECTION('ref_axis',(-1.,0.,0.));
#1110=DIRECTION('center_axis',(0.,0.,1.));
#1111=DIRECTION('ref_axis',(-1.,0.,0.));
#1112=DIRECTION('center_axis',(0.,0.,-1.));
#1113=DIRECTION('ref_axis',(-1.,0.,0.));
#1114=DIRECTION('center_axis',(0.,0.,-1.));
#1115=DIRECTION('ref_axis',(-1.,0.,0.));
#1116=DIRECTION('',(0.,0.,-1.));
#1117=DIRECTION('center_axis',(0.,0.,-1.));
#1118=DIRECTION('ref_axis',(-1.,0.,0.));
#1119=DIRECTION('center_axis',(0.,0.,1.));
#1120=DIRECTION('ref_axis',(-1.,0.,0.));
#1121=DIRECTION('center_axis',(0.,0.,1.));
#1122=DIRECTION('ref_axis',(-1.,0.,0.));
#1123=DIRECTION('center_axis',(0.,0.,1.));
#1124=DIRECTION('ref_axis',(-1.,0.,0.));
#1125=DIRECTION('center_axis',(0.,0.,-1.));
#1126=DIRECTION('ref_axis',(-1.,0.,0.));
#1127=DIRECTION('center_axis',(0.,0.,-1.));
#1128=DIRECTION('ref_axis',(-1.,0.,0.));
#1129=DIRECTION('',(0.,0.,-1.));
#1130=DIRECTION('center_axis',(0.,0.,-1.));
#1131=DIRECTION('ref_axis',(-1.,0.,0.));
#1132=DIRECTION('center_axis',(0.,0.,1.));
#1133=DIRECTION('ref_axis',(-1.,0.,0.));
#1134=DIRECTION('center_axis',(0.,0.,1.));
#1135=DIRECTION('ref_axis',(-1.,0.,0.));
#1136=DIRECTION('center_axis',(0.,0.,1.));
#1137=DIRECTION('ref_axis',(-1.,0.,0.));
#1138=DIRECTION('center_axis',(0.,0.,-1.));
#1139=DIRECTION('ref_axis',(-1.,0.,0.));
#1140=DIRECTION('center_axis',(0.,0.,-1.));
#1141=DIRECTION('ref_axis',(-1.,0.,0.));
#1142=DIRECTION('',(0.,0.,-1.));
#1143=DIRECTION('center_axis',(0.,0.,-1.));
#1144=DIRECTION('ref_axis',(-1.,0.,0.));
#1145=DIRECTION('center_axis',(0.,0.,1.));
#1146=DIRECTION('ref_axis',(-1.,0.,0.));
#1147=DIRECTION('center_axis',(0.,0.,1.));
#1148=DIRECTION('ref_axis',(-1.,0.,0.));
#1149=DIRECTION('center_axis',(0.,0.,-1.));
#1150=DIRECTION('ref_axis',(-1.,0.,0.));
#1151=DIRECTION('center_axis',(0.,0.,-1.));
#1152=DIRECTION('ref_axis',(-1.,0.,0.));
#1153=DIRECTION('',(0.,0.,-1.));
#1154=DIRECTION('center_axis',(0.,0.,-1.));
#1155=DIRECTION('ref_axis',(-1.,0.,0.));
#1156=DIRECTION('center_axis',(0.,0.,1.));
#1157=DIRECTION('ref_axis',(-1.,0.,0.));
#1158=DIRECTION('center_axis',(0.,0.,1.));
#1159=DIRECTION('ref_axis',(-1.,0.,0.));
#1160=DIRECTION('center_axis',(0.,0.,-1.));
#1161=DIRECTION('ref_axis',(-1.,0.,0.));
#1162=DIRECTION('center_axis',(0.,0.,-1.));
#1163=DIRECTION('ref_axis',(-1.,0.,0.));
#1164=DIRECTION('',(0.,0.,-1.));
#1165=DIRECTION('center_axis',(0.,0.,-1.));
#1166=DIRECTION('ref_axis',(-1.,0.,0.));
#1167=DIRECTION('center_axis',(0.,0.,1.));
#1168=DIRECTION('ref_axis',(-1.,0.,0.));
#1169=DIRECTION('center_axis',(0.,0.,1.));
#1170=DIRECTION('ref_axis',(-1.,0.,0.));
#1171=DIRECTION('center_axis',(0.,0.,1.));
#1172=DIRECTION('ref_axis',(-1.,0.,0.));
#1173=DIRECTION('center_axis',(0.,0.,1.));
#1174=DIRECTION('ref_axis',(1.,0.,0.));
#1175=DIRECTION('',(0.,-1.,0.));
#1176=DIRECTION('',(1.,0.,0.));
#1177=DIRECTION('',(0.,1.,0.));
#1178=DIRECTION('',(-1.,0.,0.));
#1179=DIRECTION('center_axis',(0.,0.,-1.));
#1180=DIRECTION('ref_axis',(-1.,0.,0.));
#1181=DIRECTION('center_axis',(0.,0.,-1.));
#1182=DIRECTION('ref_axis',(-1.,0.,0.));
#1183=DIRECTION('center_axis',(0.,0.,-1.));
#1184=DIRECTION('ref_axis',(-1.,0.,0.));
#1185=DIRECTION('',(0.,0.,-1.));
#1186=DIRECTION('center_axis',(0.,0.,-1.));
#1187=DIRECTION('ref_axis',(-1.,0.,0.));
#1188=DIRECTION('',(0.,0.,-1.));
#1189=DIRECTION('center_axis',(0.,0.,-1.));
#1190=DIRECTION('ref_axis',(-1.,0.,0.));
#1191=DIRECTION('',(0.,0.,-1.));
#1192=DIRECTION('center_axis',(0.,0.,-1.));
#1193=DIRECTION('ref_axis',(-1.,0.,0.));
#1194=DIRECTION('',(0.,0.,-1.));
#1195=DIRECTION('center_axis',(0.,0.,-1.));
#1196=DIRECTION('ref_axis',(-1.,0.,0.));
#1197=DIRECTION('',(0.,0.,-1.));
#1198=DIRECTION('center_axis',(0.,0.,-1.));
#1199=DIRECTION('ref_axis',(-1.,0.,0.));
#1200=DIRECTION('',(0.,0.,-1.));
#1201=DIRECTION('center_axis',(0.,0.,-1.));
#1202=DIRECTION('ref_axis',(-1.,0.,0.));
#1203=DIRECTION('',(0.,0.,-1.));
#1204=DIRECTION('center_axis',(0.,0.,-1.));
#1205=DIRECTION('ref_axis',(-1.,0.,0.));
#1206=DIRECTION('',(0.,0.,-1.));
#1207=DIRECTION('center_axis',(0.,0.,-1.));
#1208=DIRECTION('ref_axis',(-1.,0.,0.));
#1209=DIRECTION('',(0.,0.,-1.));
#1210=DIRECTION('center_axis',(0.,0.,-1.));
#1211=DIRECTION('ref_axis',(-1.,0.,0.));
#1212=DIRECTION('',(0.,0.,-1.));
#1213=DIRECTION('center_axis',(0.,0.,-1.));
#1214=DIRECTION('ref_axis',(-1.,0.,0.));
#1215=DIRECTION('',(0.,0.,-1.));
#1216=DIRECTION('center_axis',(0.,0.,-1.));
#1217=DIRECTION('ref_axis',(-1.,0.,0.));
#1218=DIRECTION('',(0.,0.,-1.));
#1219=DIRECTION('center_axis',(0.,0.,-1.));
#1220=DIRECTION('ref_axis',(-1.,0.,0.));
#1221=DIRECTION('',(0.,0.,-1.));
#1222=DIRECTION('center_axis',(0.,0.,-1.));
#1223=DIRECTION('ref_axis',(-1.,0.,0.));
#1224=DIRECTION('',(0.,0.,-1.));
#1225=DIRECTION('center_axis',(0.,0.,-1.));
#1226=DIRECTION('ref_axis',(-1.,0.,0.));
#1227=DIRECTION('',(0.,0.,-1.));
#1228=DIRECTION('center_axis',(0.,0.,-1.));
#1229=DIRECTION('ref_axis',(-1.,0.,0.));
#1230=DIRECTION('',(0.,0.,-1.));
#1231=DIRECTION('center_axis',(0.,1.,0.));
#1232=DIRECTION('ref_axis',(-1.,0.,0.));
#1233=DIRECTION('',(0.,0.,1.));
#1234=DIRECTION('',(0.,0.,1.));
#1235=DIRECTION('center_axis',(1.,0.,0.));
#1236=DIRECTION('ref_axis',(0.,1.,0.));
#1237=DIRECTION('',(0.,0.,1.));
#1238=DIRECTION('center_axis',(0.,-1.,0.));
#1239=DIRECTION('ref_axis',(1.,0.,0.));
#1240=DIRECTION('',(0.,0.,1.));
#1241=DIRECTION('center_axis',(-1.,0.,0.));
#1242=DIRECTION('ref_axis',(0.,-1.,0.));
#1243=CARTESIAN_POINT('',(0.,0.,0.));
#1244=CARTESIAN_POINT('Origin',(2.,2.,0.05));
#1245=CARTESIAN_POINT('',(1.68408299765046,2.05095534934116,0.05));
#1246=CARTESIAN_POINT('',(1.84283135252972,2.27874363894511,0.05));
#1247=CARTESIAN_POINT('Origin',(2.,2.,0.05));
#1248=CARTESIAN_POINT('',(1.43072665313829,2.02877249646574,0.05));
#1249=CARTESIAN_POINT('Origin',(1.53236035217356,2.32590360504413,0.05));
#1250=CARTESIAN_POINT('',(2.57,2.,0.05));
#1251=CARTESIAN_POINT('Origin',(2.,2.,0.05));
#1252=CARTESIAN_POINT('',(1.7759358606572,2.52411378674919,0.05));
#1253=CARTESIAN_POINT('Origin',(2.,2.,0.05));
#1254=CARTESIAN_POINT('Origin',(1.53236035217356,2.32590360504413,0.05));
#1255=CARTESIAN_POINT('Origin',(1.53236035217356,2.32590360504413,0.2));
#1256=CARTESIAN_POINT('',(1.68408299765046,2.05095534934116,0.));
#1257=CARTESIAN_POINT('',(1.68408299765046,2.05095534934116,0.2));
#1258=CARTESIAN_POINT('',(1.43072665313829,2.02877249646574,0.));
#1259=CARTESIAN_POINT('Origin',(1.53236035217356,2.32590360504413,0.));
#1260=CARTESIAN_POINT('',(1.43072665313829,2.02877249646574,0.2));
#1261=CARTESIAN_POINT('Origin',(2.,2.,0.2));
#1262=CARTESIAN_POINT('',(1.84283135252972,2.27874363894511,0.));
#1263=CARTESIAN_POINT('',(1.84283135252972,2.27874363894511,0.2));
#1264=CARTESIAN_POINT('Origin',(2.,2.,0.));
#1265=CARTESIAN_POINT('Origin',(2.,2.,0.));
#1266=CARTESIAN_POINT('',(0.,4.,0.));
#1267=CARTESIAN_POINT('',(0.,0.,0.));
#1268=CARTESIAN_POINT('',(0.,4.,0.));
#1269=CARTESIAN_POINT('',(4.,4.,0.));
#1270=CARTESIAN_POINT('',(4.,4.,0.));
#1271=CARTESIAN_POINT('',(4.,0.,0.));
#1272=CARTESIAN_POINT('',(4.,0.,0.));
#1273=CARTESIAN_POINT('',(0.,0.,0.));
#1274=CARTESIAN_POINT('',(2.57183435148805,3.03288139507594,0.));
#1275=CARTESIAN_POINT('Origin',(2.53433435148805,3.03288139507594,0.));
#1276=CARTESIAN_POINT('',(2.57183435148805,0.967118604924064,0.));
#1277=CARTESIAN_POINT('Origin',(2.53433435148805,0.967118604924064,0.));
#1278=CARTESIAN_POINT('',(0.785831297023904,2.,0.));
#1279=CARTESIAN_POINT('Origin',(0.748331297023904,2.,0.));
#1280=CARTESIAN_POINT('',(0.247,3.82,0.));
#1281=CARTESIAN_POINT('Origin',(0.18,3.82,0.));
#1282=CARTESIAN_POINT('',(3.887,0.18,0.));
#1283=CARTESIAN_POINT('Origin',(3.82,0.18,0.));
#1284=CARTESIAN_POINT('',(3.88699999985409,3.82,0.));
#1285=CARTESIAN_POINT('Origin',(3.81999999985409,3.82,0.));
#1286=CARTESIAN_POINT('',(1.50316564851195,0.967118604924064,0.));
#1287=CARTESIAN_POINT('Origin',(1.46566564851195,0.967118604924064,0.));
#1288=CARTESIAN_POINT('',(3.2921687029761,2.,0.));
#1289=CARTESIAN_POINT('Origin',(3.2546687029761,2.,0.));
#1290=CARTESIAN_POINT('',(2.69583435148805,3.03288139507594,0.));
#1291=CARTESIAN_POINT('Origin',(2.65833435148805,3.03288139507594,0.));
#1292=CARTESIAN_POINT('',(2.69583435148805,0.967118604924064,0.));
#1293=CARTESIAN_POINT('Origin',(2.65833435148805,0.967118604924064,0.));
#1294=CARTESIAN_POINT('',(0.909831296976096,2.,0.));
#1295=CARTESIAN_POINT('Origin',(0.872331296976096,2.,0.));
#1296=CARTESIAN_POINT('',(0.247,0.18,0.));
#1297=CARTESIAN_POINT('Origin',(0.18,0.18,0.));
#1298=CARTESIAN_POINT('',(3.525,0.8,0.));
#1299=CARTESIAN_POINT('Origin',(3.2,0.8,0.));
#1300=CARTESIAN_POINT('',(1.7759358606572,2.52411378674919,0.));
#1301=CARTESIAN_POINT('Origin',(1.53236035217356,2.32590360504413,0.));
#1302=CARTESIAN_POINT('Origin',(2.,2.,0.));
#1303=CARTESIAN_POINT('',(1.37916564851195,0.967118604924064,0.));
#1304=CARTESIAN_POINT('Origin',(1.34166564851195,0.967118604924064,0.));
#1305=CARTESIAN_POINT('',(3.1681687029761,2.,0.));
#1306=CARTESIAN_POINT('Origin',(3.1306687029761,2.,0.));
#1307=CARTESIAN_POINT('',(1.50316564851195,3.03288139507594,0.));
#1308=CARTESIAN_POINT('Origin',(1.46566564851195,3.03288139507594,0.));
#1309=CARTESIAN_POINT('',(1.37916564851195,3.03288139507594,0.));
#1310=CARTESIAN_POINT('Origin',(1.34166564851195,3.03288139507594,0.));
#1311=CARTESIAN_POINT('Origin',(1.53236035217356,2.32590360504413,0.2));
#1312=CARTESIAN_POINT('',(1.7759358606572,2.52411378674919,0.2));
#1313=CARTESIAN_POINT('Origin',(1.34166564851195,3.03288139507594,0.15));
#1314=CARTESIAN_POINT('',(1.37916564851195,3.03288139507594,0.1));
#1315=CARTESIAN_POINT('Origin',(1.34166564851195,3.03288139507594,0.1));
#1316=CARTESIAN_POINT('',(1.37916564851195,3.03288139507594,0.15));
#1317=CARTESIAN_POINT('Origin',(1.46566564851195,3.03288139507594,0.15));
#1318=CARTESIAN_POINT('',(1.50316564851195,3.03288139507594,0.1));
#1319=CARTESIAN_POINT('Origin',(1.46566564851195,3.03288139507594,0.1));
#1320=CARTESIAN_POINT('',(1.50316564851195,3.03288139507594,0.15));
#1321=CARTESIAN_POINT('Origin',(1.40366564851195,3.03288139507594,0.2));
#1322=CARTESIAN_POINT('',(1.53866564851195,3.03288139507594,0.15));
#1323=CARTESIAN_POINT('Origin',(1.40366564851195,3.03288139507594,0.15));
#1324=CARTESIAN_POINT('',(1.53866564851195,3.03288139507594,0.1));
#1325=CARTESIAN_POINT('',(1.53866564851195,3.03288139507594,0.2));
#1326=CARTESIAN_POINT('Origin',(1.40366564851195,3.03288139507594,0.1));
#1327=CARTESIAN_POINT('Origin',(1.40366564851195,3.03288139507594,0.1));
#1328=CARTESIAN_POINT('Origin',(1.40366564851195,0.967118604924064,0.2));
#1329=CARTESIAN_POINT('',(1.53866564851195,0.967118604924064,0.15));
#1330=CARTESIAN_POINT('Origin',(1.40366564851195,0.967118604924064,0.15));
#1331=CARTESIAN_POINT('',(1.53866564851195,0.967118604924064,0.1));
#1332=CARTESIAN_POINT('',(1.53866564851195,0.967118604924064,0.2));
#1333=CARTESIAN_POINT('Origin',(1.40366564851195,0.967118604924064,0.1));
#1334=CARTESIAN_POINT('Origin',(1.40366564851195,0.967118604924064,0.1));
#1335=CARTESIAN_POINT('',(1.50316564851195,0.967118604924064,0.1));
#1336=CARTESIAN_POINT('Origin',(1.46566564851195,0.967118604924064,0.1));
#1337=CARTESIAN_POINT('',(1.37916564851195,0.967118604924064,0.1));
#1338=CARTESIAN_POINT('Origin',(1.34166564851195,0.967118604924064,0.1));
#1339=CARTESIAN_POINT('Origin',(0.18,3.82,0.2));
#1340=CARTESIAN_POINT('',(0.3,3.82,0.15));
#1341=CARTESIAN_POINT('Origin',(0.18,3.82,0.15));
#1342=CARTESIAN_POINT('',(0.3,3.82,0.1));
#1343=CARTESIAN_POINT('',(0.3,3.82,0.2));
#1344=CARTESIAN_POINT('Origin',(0.18,3.82,0.1));
#1345=CARTESIAN_POINT('Origin',(0.18,3.82,0.1));
#1346=CARTESIAN_POINT('',(0.247,3.82,0.1));
#1347=CARTESIAN_POINT('Origin',(0.18,3.82,0.1));
#1348=CARTESIAN_POINT('Origin',(0.18,0.18,0.2));
#1349=CARTESIAN_POINT('',(0.3,0.18,0.15));
#1350=CARTESIAN_POINT('Origin',(0.18,0.18,0.15));
#1351=CARTESIAN_POINT('',(0.3,0.18,0.1));
#1352=CARTESIAN_POINT('',(0.3,0.18,0.2));
#1353=CARTESIAN_POINT('Origin',(0.18,0.18,0.1));
#1354=CARTESIAN_POINT('Origin',(0.18,0.18,0.1));
#1355=CARTESIAN_POINT('',(0.247,0.18,0.1));
#1356=CARTESIAN_POINT('Origin',(0.18,0.18,0.1));
#1357=CARTESIAN_POINT('Origin',(2.59633435148805,3.03288139507594,0.2));
#1358=CARTESIAN_POINT('',(2.73133435148805,3.03288139507594,0.15));
#1359=CARTESIAN_POINT('Origin',(2.59633435148805,3.03288139507594,0.15));
#1360=CARTESIAN_POINT('',(2.73133435148805,3.03288139507594,0.1));
#1361=CARTESIAN_POINT('',(2.73133435148805,3.03288139507594,0.2));
#1362=CARTESIAN_POINT('Origin',(2.59633435148805,3.03288139507594,0.1));
#1363=CARTESIAN_POINT('Origin',(2.59633435148805,3.03288139507594,0.1));
#1364=CARTESIAN_POINT('',(2.57183435148805,3.03288139507594,0.1));
#1365=CARTESIAN_POINT('Origin',(2.53433435148805,3.03288139507594,0.1));
#1366=CARTESIAN_POINT('',(2.69583435148805,3.03288139507594,0.1));
#1367=CARTESIAN_POINT('Origin',(2.65833435148805,3.03288139507594,0.1));
#1368=CARTESIAN_POINT('Origin',(0.807331297023904,2.,0.2));
#1369=CARTESIAN_POINT('',(0.942331297023904,2.,0.15));
#1370=CARTESIAN_POINT('Origin',(0.807331297023904,2.,0.15));
#1371=CARTESIAN_POINT('',(0.942331297023904,2.,0.1));
#1372=CARTESIAN_POINT('',(0.942331297023904,2.,0.2));
#1373=CARTESIAN_POINT('Origin',(0.807331297023904,2.,0.1));
#1374=CARTESIAN_POINT('Origin',(0.807331297023904,2.,0.1));
#1375=CARTESIAN_POINT('',(0.909831296976096,2.,0.1));
#1376=CARTESIAN_POINT('Origin',(0.872331296976096,2.,0.1));
#1377=CARTESIAN_POINT('',(0.785831297023904,2.,0.1));
#1378=CARTESIAN_POINT('Origin',(0.748331297023904,2.,0.1));
#1379=CARTESIAN_POINT('Origin',(2.59633435148805,0.967118604924064,0.2));
#1380=CARTESIAN_POINT('',(2.73133435148805,0.967118604924064,0.15));
#1381=CARTESIAN_POINT('Origin',(2.59633435148805,0.967118604924064,0.15));
#1382=CARTESIAN_POINT('',(2.73133435148805,0.967118604924064,0.1));
#1383=CARTESIAN_POINT('',(2.73133435148805,0.967118604924064,0.2));
#1384=CARTESIAN_POINT('Origin',(2.59633435148805,0.967118604924064,0.1));
#1385=CARTESIAN_POINT('Origin',(2.59633435148805,0.967118604924064,0.1));
#1386=CARTESIAN_POINT('',(2.57183435148805,0.967118604924064,0.1));
#1387=CARTESIAN_POINT('Origin',(2.53433435148805,0.967118604924064,0.1));
#1388=CARTESIAN_POINT('',(2.69583435148805,0.967118604924064,0.1));
#1389=CARTESIAN_POINT('Origin',(2.65833435148805,0.967118604924064,0.1));
#1390=CARTESIAN_POINT('Origin',(3.81999999985409,3.82,0.2));
#1391=CARTESIAN_POINT('',(3.93999999985409,3.82,0.15));
#1392=CARTESIAN_POINT('Origin',(3.81999999985409,3.82,0.15));
#1393=CARTESIAN_POINT('',(3.93999999985409,3.82,0.1));
#1394=CARTESIAN_POINT('',(3.93999999985409,3.82,0.2));
#1395=CARTESIAN_POINT('Origin',(3.81999999985409,3.82,0.1));
#1396=CARTESIAN_POINT('Origin',(3.81999999985409,3.82,0.1));
#1397=CARTESIAN_POINT('',(3.88699999985409,3.82,0.1));
#1398=CARTESIAN_POINT('Origin',(3.81999999985409,3.82,0.1));
#1399=CARTESIAN_POINT('Origin',(3.82,0.18,0.2));
#1400=CARTESIAN_POINT('',(3.94,0.18,0.15));
#1401=CARTESIAN_POINT('Origin',(3.82,0.18,0.15));
#1402=CARTESIAN_POINT('',(3.94,0.18,0.1));
#1403=CARTESIAN_POINT('',(3.94,0.18,0.2));
#1404=CARTESIAN_POINT('Origin',(3.82,0.18,0.1));
#1405=CARTESIAN_POINT('Origin',(3.82,0.18,0.1));
#1406=CARTESIAN_POINT('',(3.887,0.18,0.1));
#1407=CARTESIAN_POINT('Origin',(3.82,0.18,0.1));
#1408=CARTESIAN_POINT('Origin',(3.1926687029761,2.,0.2));
#1409=CARTESIAN_POINT('',(3.3276687029761,2.,0.15));
#1410=CARTESIAN_POINT('Origin',(3.1926687029761,2.,0.15));
#1411=CARTESIAN_POINT('',(3.3276687029761,2.,0.1));
#1412=CARTESIAN_POINT('',(3.3276687029761,2.,0.2));
#1413=CARTESIAN_POINT('Origin',(3.1926687029761,2.,0.1));
#1414=CARTESIAN_POINT('Origin',(3.1926687029761,2.,0.1));
#1415=CARTESIAN_POINT('',(3.2921687029761,2.,0.1));
#1416=CARTESIAN_POINT('Origin',(3.2546687029761,2.,0.1));
#1417=CARTESIAN_POINT('',(3.1681687029761,2.,0.1));
#1418=CARTESIAN_POINT('Origin',(3.1306687029761,2.,0.1));
#1419=CARTESIAN_POINT('Origin',(2.,2.,0.15));
#1420=CARTESIAN_POINT('',(0.,4.,0.15));
#1421=CARTESIAN_POINT('',(0.,0.,0.15));
#1422=CARTESIAN_POINT('',(0.,4.,0.15));
#1423=CARTESIAN_POINT('',(4.,0.,0.15));
#1424=CARTESIAN_POINT('',(0.,0.,0.15));
#1425=CARTESIAN_POINT('',(4.,4.,0.15));
#1426=CARTESIAN_POINT('',(4.,0.,0.15));
#1427=CARTESIAN_POINT('',(4.,4.,0.15));
#1428=CARTESIAN_POINT('',(3.525,0.8,0.15));
#1429=CARTESIAN_POINT('Origin',(3.2,0.8,0.15));
#1430=CARTESIAN_POINT('',(2.57,2.,0.15));
#1431=CARTESIAN_POINT('Origin',(2.,2.,0.15));
#1432=CARTESIAN_POINT('Origin',(3.1306687029761,2.,0.2));
#1433=CARTESIAN_POINT('',(3.1681687029761,2.,0.2));
#1434=CARTESIAN_POINT('Origin',(1.34166564851195,0.967118604924064,0.2));
#1435=CARTESIAN_POINT('',(1.37916564851195,0.967118604924064,0.2));
#1436=CARTESIAN_POINT('Origin',(2.,2.,0.2));
#1437=CARTESIAN_POINT('',(2.57,2.,0.2));
#1438=CARTESIAN_POINT('Origin',(3.2,0.8,0.2));
#1439=CARTESIAN_POINT('',(3.525,0.8,0.2));
#1440=CARTESIAN_POINT('Origin',(0.18,0.18,0.2));
#1441=CARTESIAN_POINT('',(0.247,0.18,0.2));
#1442=CARTESIAN_POINT('Origin',(0.872331296976096,2.,0.2));
#1443=CARTESIAN_POINT('',(0.909831296976096,2.,0.2));
#1444=CARTESIAN_POINT('Origin',(2.65833435148805,0.967118604924064,0.2));
#1445=CARTESIAN_POINT('',(2.69583435148805,0.967118604924064,0.2));
#1446=CARTESIAN_POINT('Origin',(2.65833435148805,3.03288139507594,0.2));
#1447=CARTESIAN_POINT('',(2.69583435148805,3.03288139507594,0.2));
#1448=CARTESIAN_POINT('Origin',(3.2546687029761,2.,0.2));
#1449=CARTESIAN_POINT('',(3.2921687029761,2.,0.2));
#1450=CARTESIAN_POINT('Origin',(1.46566564851195,0.967118604924064,0.2));
#1451=CARTESIAN_POINT('',(1.50316564851195,0.967118604924064,0.2));
#1452=CARTESIAN_POINT('Origin',(3.81999999985409,3.82,0.2));
#1453=CARTESIAN_POINT('',(3.88699999985409,3.82,0.2));
#1454=CARTESIAN_POINT('Origin',(3.82,0.18,0.2));
#1455=CARTESIAN_POINT('',(3.887,0.18,0.2));
#1456=CARTESIAN_POINT('Origin',(0.18,3.82,0.2));
#1457=CARTESIAN_POINT('',(0.247,3.82,0.2));
#1458=CARTESIAN_POINT('Origin',(0.748331297023904,2.,0.2));
#1459=CARTESIAN_POINT('',(0.785831297023904,2.,0.2));
#1460=CARTESIAN_POINT('Origin',(2.53433435148805,0.967118604924064,0.2));
#1461=CARTESIAN_POINT('',(2.57183435148805,0.967118604924064,0.2));
#1462=CARTESIAN_POINT('Origin',(2.53433435148805,3.03288139507594,0.2));
#1463=CARTESIAN_POINT('',(2.57183435148805,3.03288139507594,0.2));
#1464=CARTESIAN_POINT('Origin',(4.,4.,0.));
#1465=CARTESIAN_POINT('',(0.,4.,0.));
#1466=CARTESIAN_POINT('',(4.,4.,0.));
#1467=CARTESIAN_POINT('Origin',(4.,0.,0.));
#1468=CARTESIAN_POINT('',(4.,0.,0.));
#1469=CARTESIAN_POINT('Origin',(0.,0.,0.));
#1470=CARTESIAN_POINT('',(0.,0.,0.));
#1471=CARTESIAN_POINT('Origin',(0.,4.,0.));
#1472=UNCERTAINTY_MEASURE_WITH_UNIT(LENGTH_MEASURE(0.000393700787401575),
#1477,'DISTANCE_ACCURACY_VALUE',
'Maximum model space distance between geometric entities at asserted c
onnectivities');
#1473=UNCERTAINTY_MEASURE_WITH_UNIT(LENGTH_MEASURE(0.000393700787401575),
#1477,'DISTANCE_ACCURACY_VALUE',
'Maximum model space distance between geometric entities at asserted c
onnectivities');
#1474=(
GEOMETRIC_REPRESENTATION_CONTEXT(3)
GLOBAL_UNCERTAINTY_ASSIGNED_CONTEXT((#1472))
GLOBAL_UNIT_ASSIGNED_CONTEXT((#1477,#1481,#1482))
REPRESENTATION_CONTEXT('','3D')
);
#1475=(
GEOMETRIC_REPRESENTATION_CONTEXT(3)
GLOBAL_UNCERTAINTY_ASSIGNED_CONTEXT((#1473))
GLOBAL_UNIT_ASSIGNED_CONTEXT((#1477,#1481,#1482))
REPRESENTATION_CONTEXT('','3D')
);
#1476=DIMENSIONAL_EXPONENTS(1.,0.,0.,0.,0.,0.,0.);
#1477=(
CONVERSION_BASED_UNIT('inch',#1480)
LENGTH_UNIT()
NAMED_UNIT(#1476)
);
#1478=(
LENGTH_UNIT()
NAMED_UNIT(*)
SI_UNIT(.MILLI.,.METRE.)
);
#1479=(
LENGTH_UNIT()
NAMED_UNIT(*)
SI_UNIT($,.METRE.)
);
#1480=LENGTH_MEASURE_WITH_UNIT(LENGTH_MEASURE(25.4),#1478);
#1481=(
NAMED_UNIT(*)
PLANE_ANGLE_UNIT()
SI_UNIT($,.RADIAN.)
);
#1482=(
NAMED_UNIT(*)
SI_UNIT($,.STERADIAN.)
SOLID_ANGLE_UNIT()
);
#1483=SHAPE_DEFINITION_REPRESENTATION(#1484,#1485);
#1484=PRODUCT_DEFINITION_SHAPE('',$,#1487);
#1485=SHAPE_REPRESENTATION('',(#860),#1474);
#1486=PRODUCT_DEFINITION_CONTEXT('part definition',#1491,'design');
#1487=PRODUCT_DEFINITION('2026-04-04-16-01-33-408','Enclosure_Top',#1488,
#1486);
#1488=PRODUCT_DEFINITION_FORMATION('',$,#1493);
#1489=PRODUCT_RELATED_PRODUCT_CATEGORY('Enclosure_Top','Enclosure_Top',
(#1493));
#1490=APPLICATION_PROTOCOL_DEFINITION('international standard',
'automotive_design',2009,#1491);
#1491=APPLICATION_CONTEXT(
'Core Data for Automotive Mechanical Design Process');
#1492=PRODUCT_CONTEXT('part definition',#1491,'mechanical');
#1493=PRODUCT('2026-04-04-16-01-33-408','Enclosure_Top',$,(#1492));
#1494=PRESENTATION_STYLE_ASSIGNMENT((#1495));
#1495=SURFACE_STYLE_USAGE(.BOTH.,#1496);
#1496=SURFACE_SIDE_STYLE('',(#1497));
#1497=SURFACE_STYLE_FILL_AREA(#1498);
#1498=FILL_AREA_STYLE('Steel - Satin',(#1499));
#1499=FILL_AREA_STYLE_COLOUR('Steel - Satin',#1500);
#1500=COLOUR_RGB('Steel - Satin',0.627450980392157,0.627450980392157,0.627450980392157);
ENDSEC;
END-ISO-10303-21;
