G04 EAGLE Gerber RS-274X export*
G75*
%MOMM*%
%FSLAX34Y34*%
%LPD*%
%INBottom Copper*%
%IPPOS*%
%AMOC8*
5,1,8,0,0,1.08239X$1,22.5*%
G01*
G04 Define Apertures*
%ADD10R,1.800000X1.800000*%
%ADD11C,1.800000*%
%ADD12C,1.158000*%
%ADD13C,1.108000*%
%ADD14C,1.308000*%
%ADD15R,1.308000X1.308000*%
%ADD16C,0.756400*%
%ADD17C,0.152400*%
G36*
X653840Y10982D02*
X653543Y10922D01*
X44306Y10922D01*
X44068Y10960D01*
X43804Y11110D01*
X43620Y11351D01*
X43545Y11645D01*
X43590Y11945D01*
X44922Y15606D01*
X44922Y24394D01*
X41916Y32653D01*
X36267Y39386D01*
X28655Y43780D01*
X20000Y45306D01*
X11816Y43863D01*
X11409Y43903D01*
X11154Y44067D01*
X10982Y44317D01*
X10922Y44614D01*
X10922Y451242D01*
X11032Y451636D01*
X11237Y451859D01*
X11513Y451984D01*
X11816Y451992D01*
X20000Y450549D01*
X28705Y452084D01*
X36359Y456504D01*
X42041Y463275D01*
X45064Y471580D01*
X45064Y480420D01*
X42285Y488055D01*
X42239Y488292D01*
X42290Y488591D01*
X42454Y488846D01*
X42704Y489018D01*
X43001Y489078D01*
X650999Y489078D01*
X651237Y489040D01*
X651500Y488890D01*
X651684Y488649D01*
X651760Y488355D01*
X651715Y488055D01*
X648936Y480420D01*
X648936Y471580D01*
X651959Y463275D01*
X657641Y456504D01*
X665295Y452084D01*
X674000Y450549D01*
X682705Y452084D01*
X685935Y453949D01*
X686292Y454051D01*
X686591Y454000D01*
X686846Y453837D01*
X687018Y453586D01*
X687078Y453289D01*
X687078Y44758D01*
X686968Y44364D01*
X686763Y44141D01*
X686487Y44016D01*
X686184Y44008D01*
X678000Y45451D01*
X669295Y43916D01*
X661641Y39496D01*
X655959Y32725D01*
X652936Y24420D01*
X652936Y15580D01*
X654259Y11945D01*
X654305Y11708D01*
X654254Y11409D01*
X654091Y11154D01*
X653840Y10982D01*
G37*
%LPC*%
G36*
X109660Y460162D02*
X120438Y460162D01*
X120438Y470940D01*
X118905Y470940D01*
X114663Y469183D01*
X111417Y465937D01*
X109660Y461695D01*
X109660Y460162D01*
G37*
G36*
X121962Y460162D02*
X132740Y460162D01*
X132740Y461695D01*
X130983Y465937D01*
X127737Y469183D01*
X123495Y470940D01*
X121962Y470940D01*
X121962Y460162D01*
G37*
G36*
X449307Y448876D02*
X453493Y448876D01*
X457361Y450478D01*
X460322Y453439D01*
X461924Y457307D01*
X461924Y461493D01*
X460322Y465361D01*
X457361Y468322D01*
X453493Y469924D01*
X449307Y469924D01*
X445439Y468322D01*
X442478Y465361D01*
X440876Y461493D01*
X440876Y457307D01*
X442478Y453439D01*
X445439Y450478D01*
X449307Y448876D01*
G37*
G36*
X423907Y448876D02*
X428093Y448876D01*
X431961Y450478D01*
X434922Y453439D01*
X436524Y457307D01*
X436524Y461493D01*
X434922Y465361D01*
X431961Y468322D01*
X428093Y469924D01*
X423907Y469924D01*
X420039Y468322D01*
X417078Y465361D01*
X415476Y461493D01*
X415476Y457307D01*
X417078Y453439D01*
X420039Y450478D01*
X423907Y448876D01*
G37*
G36*
X271507Y448876D02*
X275693Y448876D01*
X279561Y450478D01*
X282522Y453439D01*
X284124Y457307D01*
X284124Y461493D01*
X282522Y465361D01*
X279561Y468322D01*
X275693Y469924D01*
X271507Y469924D01*
X267639Y468322D01*
X264678Y465361D01*
X263076Y461493D01*
X263076Y457307D01*
X264678Y453439D01*
X267639Y450478D01*
X271507Y448876D01*
G37*
G36*
X640166Y237636D02*
X643374Y237636D01*
X646338Y238864D01*
X648606Y241132D01*
X649834Y244096D01*
X649834Y247304D01*
X648606Y250268D01*
X646338Y252536D01*
X643374Y253764D01*
X640166Y253764D01*
X637202Y252536D01*
X634934Y250268D01*
X634183Y248456D01*
X634027Y248218D01*
X633777Y248046D01*
X633479Y247986D01*
X590163Y247986D01*
X589877Y248042D01*
X589624Y248209D01*
X384562Y453271D01*
X384401Y453507D01*
X384339Y453804D01*
X384396Y454102D01*
X385724Y457307D01*
X385724Y461493D01*
X384122Y465361D01*
X381161Y468322D01*
X377293Y469924D01*
X373107Y469924D01*
X369239Y468322D01*
X366278Y465361D01*
X364676Y461493D01*
X364676Y457307D01*
X366278Y453439D01*
X369239Y450478D01*
X373107Y448876D01*
X377293Y448876D01*
X380498Y450204D01*
X380778Y450261D01*
X381076Y450206D01*
X381329Y450038D01*
X432760Y398607D01*
X432913Y398387D01*
X432983Y398092D01*
X432932Y397793D01*
X432769Y397538D01*
X432519Y397366D01*
X432221Y397306D01*
X429802Y397306D01*
X426694Y394198D01*
X426694Y390243D01*
X426638Y389957D01*
X426471Y389704D01*
X417714Y380947D01*
X417714Y327663D01*
X417658Y327377D01*
X417491Y327124D01*
X406729Y316362D01*
X406493Y316201D01*
X406196Y316139D01*
X405898Y316196D01*
X402693Y317524D01*
X398507Y317524D01*
X394639Y315922D01*
X391678Y312961D01*
X390076Y309093D01*
X390076Y304907D01*
X391678Y301039D01*
X394639Y298078D01*
X398507Y296476D01*
X402693Y296476D01*
X406561Y298078D01*
X409522Y301039D01*
X411124Y304907D01*
X411124Y309093D01*
X409796Y312298D01*
X409739Y312578D01*
X409794Y312876D01*
X409962Y313129D01*
X422286Y325453D01*
X422286Y378737D01*
X422342Y379023D01*
X422509Y379276D01*
X429704Y386471D01*
X429945Y386634D01*
X430243Y386694D01*
X434198Y386694D01*
X437306Y389802D01*
X437306Y392221D01*
X437353Y392485D01*
X437512Y392743D01*
X437760Y392918D01*
X438056Y392983D01*
X438354Y392928D01*
X438607Y392760D01*
X587953Y243414D01*
X633479Y243414D01*
X633760Y243361D01*
X634014Y243195D01*
X634183Y242944D01*
X634934Y241132D01*
X637202Y238864D01*
X640166Y237636D01*
G37*
G36*
X296907Y448876D02*
X301093Y448876D01*
X304961Y450478D01*
X307922Y453439D01*
X309524Y457307D01*
X309524Y461493D01*
X307922Y465361D01*
X304961Y468322D01*
X301093Y469924D01*
X296907Y469924D01*
X293039Y468322D01*
X290078Y465361D01*
X288476Y461493D01*
X288476Y457307D01*
X290078Y453439D01*
X293039Y450478D01*
X296907Y448876D01*
G37*
G36*
X217745Y68686D02*
X220655Y68686D01*
X223343Y69800D01*
X225401Y71857D01*
X226514Y74545D01*
X226514Y77455D01*
X225401Y80143D01*
X223343Y82201D01*
X220655Y83314D01*
X217745Y83314D01*
X216359Y82740D01*
X216079Y82682D01*
X215781Y82737D01*
X215528Y82905D01*
X87023Y211410D01*
X86860Y211651D01*
X86800Y211949D01*
X86800Y295714D01*
X86851Y295989D01*
X87015Y296244D01*
X87265Y296416D01*
X87562Y296476D01*
X105431Y296476D01*
X106324Y297369D01*
X106324Y316631D01*
X105431Y317524D01*
X87562Y317524D01*
X87287Y317575D01*
X87032Y317739D01*
X86860Y317989D01*
X86800Y318286D01*
X86800Y359251D01*
X86856Y359537D01*
X87023Y359790D01*
X98086Y370853D01*
X98086Y448447D01*
X98139Y448727D01*
X98305Y448981D01*
X98556Y449151D01*
X101761Y450478D01*
X104722Y453439D01*
X106324Y457307D01*
X106324Y461493D01*
X104722Y465361D01*
X101761Y468322D01*
X97893Y469924D01*
X93707Y469924D01*
X89839Y468322D01*
X86878Y465361D01*
X85276Y461493D01*
X85276Y457307D01*
X86878Y453439D01*
X89839Y450478D01*
X93044Y449151D01*
X93282Y448994D01*
X93454Y448744D01*
X93514Y448447D01*
X93514Y373063D01*
X93458Y372777D01*
X93291Y372524D01*
X82228Y361461D01*
X82228Y209739D01*
X212295Y79672D01*
X212456Y79436D01*
X212518Y79139D01*
X212460Y78842D01*
X211886Y77455D01*
X211886Y74545D01*
X213000Y71857D01*
X215057Y69800D01*
X217745Y68686D01*
G37*
G36*
X169907Y448876D02*
X174093Y448876D01*
X177961Y450478D01*
X180922Y453439D01*
X182524Y457307D01*
X182524Y461493D01*
X180922Y465361D01*
X177961Y468322D01*
X174093Y469924D01*
X169907Y469924D01*
X166039Y468322D01*
X163078Y465361D01*
X161476Y461493D01*
X161476Y457307D01*
X163078Y453439D01*
X166039Y450478D01*
X169907Y448876D01*
G37*
G36*
X195307Y448876D02*
X199493Y448876D01*
X203361Y450478D01*
X206322Y453439D01*
X207924Y457307D01*
X207924Y461493D01*
X206322Y465361D01*
X203361Y468322D01*
X199493Y469924D01*
X195307Y469924D01*
X191439Y468322D01*
X188478Y465361D01*
X186876Y461493D01*
X186876Y457307D01*
X188478Y453439D01*
X191439Y450478D01*
X195307Y448876D01*
G37*
G36*
X246107Y448876D02*
X250293Y448876D01*
X254161Y450478D01*
X257122Y453439D01*
X258724Y457307D01*
X258724Y461493D01*
X257122Y465361D01*
X254161Y468322D01*
X250293Y469924D01*
X246107Y469924D01*
X242239Y468322D01*
X239278Y465361D01*
X237676Y461493D01*
X237676Y457307D01*
X239278Y453439D01*
X242239Y450478D01*
X246107Y448876D01*
G37*
G36*
X220707Y448876D02*
X224893Y448876D01*
X228761Y450478D01*
X231722Y453439D01*
X233324Y457307D01*
X233324Y461493D01*
X231722Y465361D01*
X228761Y468322D01*
X224893Y469924D01*
X220707Y469924D01*
X216839Y468322D01*
X213878Y465361D01*
X212276Y461493D01*
X212276Y457307D01*
X213878Y453439D01*
X216839Y450478D01*
X220707Y448876D01*
G37*
G36*
X347707Y448876D02*
X351893Y448876D01*
X355761Y450478D01*
X358722Y453439D01*
X360324Y457307D01*
X360324Y461493D01*
X358722Y465361D01*
X355761Y468322D01*
X351893Y469924D01*
X347707Y469924D01*
X343839Y468322D01*
X340878Y465361D01*
X339276Y461493D01*
X339276Y457307D01*
X340878Y453439D01*
X343839Y450478D01*
X347707Y448876D01*
G37*
G36*
X322307Y448876D02*
X326493Y448876D01*
X330361Y450478D01*
X333322Y453439D01*
X334924Y457307D01*
X334924Y461493D01*
X333322Y465361D01*
X330361Y468322D01*
X326493Y469924D01*
X322307Y469924D01*
X318439Y468322D01*
X315478Y465361D01*
X313876Y461493D01*
X313876Y457307D01*
X315478Y453439D01*
X318439Y450478D01*
X322307Y448876D01*
G37*
G36*
X398507Y448876D02*
X402693Y448876D01*
X406561Y450478D01*
X409522Y453439D01*
X411124Y457307D01*
X411124Y461493D01*
X409522Y465361D01*
X406561Y468322D01*
X402693Y469924D01*
X398507Y469924D01*
X394639Y468322D01*
X391678Y465361D01*
X390076Y461493D01*
X390076Y457307D01*
X391678Y453439D01*
X394639Y450478D01*
X398507Y448876D01*
G37*
G36*
X144507Y448876D02*
X148693Y448876D01*
X152561Y450478D01*
X155522Y453439D01*
X157124Y457307D01*
X157124Y461493D01*
X155522Y465361D01*
X152561Y468322D01*
X148693Y469924D01*
X144507Y469924D01*
X140639Y468322D01*
X137678Y465361D01*
X136076Y461493D01*
X136076Y457307D01*
X137678Y453439D01*
X140639Y450478D01*
X144507Y448876D01*
G37*
G36*
X121962Y447860D02*
X123495Y447860D01*
X127737Y449617D01*
X130983Y452863D01*
X132740Y457105D01*
X132740Y458638D01*
X121962Y458638D01*
X121962Y447860D01*
G37*
G36*
X118905Y447860D02*
X120438Y447860D01*
X120438Y458638D01*
X109660Y458638D01*
X109660Y457105D01*
X111417Y452863D01*
X114663Y449617D01*
X118905Y447860D01*
G37*
G36*
X624120Y411262D02*
X640280Y411262D01*
X640280Y412107D01*
X639050Y415077D01*
X636777Y417350D01*
X636602Y417422D01*
X636373Y417571D01*
X636197Y417818D01*
X636132Y418114D01*
X636188Y418412D01*
X636355Y418665D01*
X638189Y420499D01*
X639264Y423095D01*
X639264Y425905D01*
X638189Y428501D01*
X636201Y430489D01*
X633605Y431564D01*
X630795Y431564D01*
X628199Y430489D01*
X626211Y428501D01*
X625136Y425905D01*
X625136Y423095D01*
X626211Y420499D01*
X628045Y418665D01*
X628200Y418440D01*
X628268Y418145D01*
X628215Y417846D01*
X628049Y417592D01*
X627798Y417422D01*
X627623Y417350D01*
X625350Y415077D01*
X624120Y412107D01*
X624120Y411262D01*
G37*
G36*
X630795Y375436D02*
X633605Y375436D01*
X636201Y376511D01*
X638189Y378499D01*
X639264Y381095D01*
X639264Y383905D01*
X638189Y386501D01*
X636201Y388489D01*
X635459Y388796D01*
X635234Y388940D01*
X635056Y389186D01*
X634989Y389482D01*
X635042Y389780D01*
X635208Y390035D01*
X635459Y390204D01*
X636201Y390511D01*
X638189Y392499D01*
X639264Y395095D01*
X639264Y397905D01*
X638189Y400501D01*
X636355Y402335D01*
X636200Y402560D01*
X636132Y402856D01*
X636185Y403154D01*
X636351Y403408D01*
X636602Y403578D01*
X636777Y403650D01*
X639050Y405923D01*
X640280Y408893D01*
X640280Y409738D01*
X624120Y409738D01*
X624120Y408893D01*
X625350Y405923D01*
X627623Y403650D01*
X627798Y403578D01*
X628028Y403429D01*
X628203Y403182D01*
X628268Y402886D01*
X628212Y402588D01*
X628045Y402335D01*
X626211Y400501D01*
X625136Y397905D01*
X625136Y395095D01*
X626211Y392499D01*
X628199Y390511D01*
X628941Y390204D01*
X629166Y390060D01*
X629344Y389814D01*
X629411Y389518D01*
X629358Y389220D01*
X629192Y388966D01*
X628941Y388796D01*
X628199Y388489D01*
X626211Y386501D01*
X625136Y383905D01*
X625136Y381095D01*
X626211Y378499D01*
X628199Y376511D01*
X630795Y375436D01*
G37*
G36*
X627520Y320462D02*
X634838Y320462D01*
X634838Y327780D01*
X633993Y327780D01*
X631023Y326550D01*
X628750Y324277D01*
X627520Y321307D01*
X627520Y320462D01*
G37*
G36*
X636362Y320462D02*
X643680Y320462D01*
X643680Y321307D01*
X642450Y324277D01*
X640177Y326550D01*
X637207Y327780D01*
X636362Y327780D01*
X636362Y320462D01*
G37*
G36*
X634195Y298636D02*
X637005Y298636D01*
X639601Y299711D01*
X641589Y301699D01*
X642664Y304295D01*
X642664Y307105D01*
X641589Y309701D01*
X639755Y311535D01*
X639600Y311760D01*
X639532Y312056D01*
X639585Y312354D01*
X639751Y312608D01*
X640002Y312778D01*
X640177Y312850D01*
X642450Y315123D01*
X643680Y318093D01*
X643680Y318938D01*
X627520Y318938D01*
X627520Y318093D01*
X628750Y315123D01*
X631023Y312850D01*
X631198Y312778D01*
X631428Y312629D01*
X631603Y312382D01*
X631668Y312086D01*
X631612Y311788D01*
X631445Y311535D01*
X629611Y309701D01*
X628536Y307105D01*
X628536Y304295D01*
X629611Y301699D01*
X631599Y299711D01*
X634195Y298636D01*
G37*
G36*
X322307Y296476D02*
X326493Y296476D01*
X330361Y298078D01*
X333322Y301039D01*
X334924Y304907D01*
X334924Y309093D01*
X333322Y312961D01*
X330361Y315922D01*
X326493Y317524D01*
X322307Y317524D01*
X318439Y315922D01*
X315478Y312961D01*
X313876Y309093D01*
X313876Y304907D01*
X315478Y301039D01*
X318439Y298078D01*
X322307Y296476D01*
G37*
G36*
X296907Y296476D02*
X301093Y296476D01*
X304961Y298078D01*
X307922Y301039D01*
X309524Y304907D01*
X309524Y309093D01*
X307922Y312961D01*
X304961Y315922D01*
X301093Y317524D01*
X296907Y317524D01*
X293039Y315922D01*
X290078Y312961D01*
X288476Y309093D01*
X288476Y304907D01*
X290078Y301039D01*
X293039Y298078D01*
X296907Y296476D01*
G37*
G36*
X271507Y296476D02*
X275693Y296476D01*
X279561Y298078D01*
X282522Y301039D01*
X284124Y304907D01*
X284124Y309093D01*
X282522Y312961D01*
X279561Y315922D01*
X275693Y317524D01*
X271507Y317524D01*
X267639Y315922D01*
X264678Y312961D01*
X263076Y309093D01*
X263076Y304907D01*
X264678Y301039D01*
X267639Y298078D01*
X271507Y296476D01*
G37*
G36*
X246107Y296476D02*
X250293Y296476D01*
X254161Y298078D01*
X257122Y301039D01*
X258724Y304907D01*
X258724Y309093D01*
X257122Y312961D01*
X254161Y315922D01*
X250293Y317524D01*
X246107Y317524D01*
X242239Y315922D01*
X239278Y312961D01*
X237676Y309093D01*
X237676Y304907D01*
X239278Y301039D01*
X242239Y298078D01*
X246107Y296476D01*
G37*
G36*
X220707Y296476D02*
X224893Y296476D01*
X228761Y298078D01*
X231722Y301039D01*
X233324Y304907D01*
X233324Y309093D01*
X231722Y312961D01*
X228761Y315922D01*
X224893Y317524D01*
X220707Y317524D01*
X216839Y315922D01*
X213878Y312961D01*
X212276Y309093D01*
X212276Y304907D01*
X213878Y301039D01*
X216839Y298078D01*
X220707Y296476D01*
G37*
G36*
X195307Y296476D02*
X199493Y296476D01*
X203361Y298078D01*
X206322Y301039D01*
X207924Y304907D01*
X207924Y309093D01*
X206322Y312961D01*
X203361Y315922D01*
X199493Y317524D01*
X195307Y317524D01*
X191439Y315922D01*
X188478Y312961D01*
X186876Y309093D01*
X186876Y304907D01*
X188478Y301039D01*
X191439Y298078D01*
X195307Y296476D01*
G37*
G36*
X169907Y296476D02*
X174093Y296476D01*
X177961Y298078D01*
X180922Y301039D01*
X182524Y304907D01*
X182524Y309093D01*
X180922Y312961D01*
X177961Y315922D01*
X174093Y317524D01*
X169907Y317524D01*
X166039Y315922D01*
X163078Y312961D01*
X161476Y309093D01*
X161476Y304907D01*
X163078Y301039D01*
X166039Y298078D01*
X169907Y296476D01*
G37*
G36*
X144507Y296476D02*
X148693Y296476D01*
X152561Y298078D01*
X155522Y301039D01*
X157124Y304907D01*
X157124Y309093D01*
X155522Y312961D01*
X152561Y315922D01*
X148693Y317524D01*
X144507Y317524D01*
X140639Y315922D01*
X137678Y312961D01*
X136076Y309093D01*
X136076Y304907D01*
X137678Y301039D01*
X140639Y298078D01*
X144507Y296476D01*
G37*
G36*
X119107Y296476D02*
X123293Y296476D01*
X127161Y298078D01*
X130122Y301039D01*
X131724Y304907D01*
X131724Y309093D01*
X130122Y312961D01*
X127161Y315922D01*
X123293Y317524D01*
X119107Y317524D01*
X115239Y315922D01*
X112278Y312961D01*
X110676Y309093D01*
X110676Y304907D01*
X112278Y301039D01*
X115239Y298078D01*
X119107Y296476D01*
G37*
G36*
X406495Y181736D02*
X409305Y181736D01*
X411901Y182811D01*
X413889Y184799D01*
X414964Y187395D01*
X414964Y190205D01*
X413889Y192801D01*
X411901Y194789D01*
X410656Y195304D01*
X410418Y195461D01*
X410246Y195711D01*
X410186Y196008D01*
X410186Y256637D01*
X410242Y256923D01*
X410409Y257176D01*
X449486Y296253D01*
X449727Y296416D01*
X450025Y296476D01*
X453493Y296476D01*
X457361Y298078D01*
X460322Y301039D01*
X461924Y304907D01*
X461924Y309093D01*
X460322Y312961D01*
X457361Y315922D01*
X453493Y317524D01*
X449307Y317524D01*
X445439Y315922D01*
X442478Y312961D01*
X440876Y309093D01*
X440876Y304907D01*
X442478Y301039D01*
X444603Y298914D01*
X444761Y298683D01*
X444826Y298387D01*
X444771Y298089D01*
X444603Y297836D01*
X405614Y258847D01*
X405614Y196008D01*
X405561Y195728D01*
X405395Y195474D01*
X405144Y195304D01*
X403899Y194789D01*
X401911Y192801D01*
X400836Y190205D01*
X400836Y187395D01*
X401911Y184799D01*
X403899Y182811D01*
X406495Y181736D01*
G37*
G36*
X423907Y296476D02*
X428093Y296476D01*
X431961Y298078D01*
X434922Y301039D01*
X436524Y304907D01*
X436524Y309093D01*
X434922Y312961D01*
X431961Y315922D01*
X428093Y317524D01*
X423907Y317524D01*
X420039Y315922D01*
X417078Y312961D01*
X415476Y309093D01*
X415476Y304907D01*
X417078Y301039D01*
X420039Y298078D01*
X423907Y296476D01*
G37*
G36*
X373107Y296476D02*
X377293Y296476D01*
X381161Y298078D01*
X384122Y301039D01*
X385724Y304907D01*
X385724Y309093D01*
X384122Y312961D01*
X381161Y315922D01*
X377293Y317524D01*
X373107Y317524D01*
X369239Y315922D01*
X366278Y312961D01*
X364676Y309093D01*
X364676Y304907D01*
X366278Y301039D01*
X369239Y298078D01*
X373107Y296476D01*
G37*
G36*
X347707Y296476D02*
X351893Y296476D01*
X355761Y298078D01*
X358722Y301039D01*
X360324Y304907D01*
X360324Y309093D01*
X358722Y312961D01*
X355761Y315922D01*
X351893Y317524D01*
X347707Y317524D01*
X343839Y315922D01*
X340878Y312961D01*
X339276Y309093D01*
X339276Y304907D01*
X340878Y301039D01*
X343839Y298078D01*
X347707Y296476D01*
G37*
G36*
X311295Y228336D02*
X314105Y228336D01*
X316701Y229411D01*
X318689Y231399D01*
X319764Y233995D01*
X319764Y236805D01*
X318689Y239401D01*
X316701Y241389D01*
X315959Y241696D01*
X315734Y241840D01*
X315556Y242086D01*
X315489Y242382D01*
X315542Y242680D01*
X315708Y242935D01*
X315959Y243104D01*
X316701Y243411D01*
X318689Y245399D01*
X319764Y247995D01*
X319764Y250805D01*
X318689Y253401D01*
X316701Y255389D01*
X314105Y256464D01*
X311295Y256464D01*
X308699Y255389D01*
X306711Y253401D01*
X305636Y250805D01*
X305636Y247995D01*
X306711Y245399D01*
X308699Y243411D01*
X309441Y243104D01*
X309666Y242960D01*
X309844Y242714D01*
X309911Y242418D01*
X309858Y242120D01*
X309692Y241866D01*
X309441Y241696D01*
X308699Y241389D01*
X306711Y239401D01*
X305636Y236805D01*
X305636Y233995D01*
X306711Y231399D01*
X308699Y229411D01*
X311295Y228336D01*
G37*
G36*
X261395Y228336D02*
X264205Y228336D01*
X266801Y229411D01*
X268789Y231399D01*
X269864Y233995D01*
X269864Y236805D01*
X268789Y239401D01*
X266801Y241389D01*
X266059Y241696D01*
X265834Y241840D01*
X265656Y242086D01*
X265589Y242382D01*
X265642Y242680D01*
X265808Y242935D01*
X266059Y243104D01*
X266801Y243411D01*
X268789Y245399D01*
X269864Y247995D01*
X269864Y250805D01*
X268789Y253401D01*
X266801Y255389D01*
X264205Y256464D01*
X261395Y256464D01*
X258799Y255389D01*
X256811Y253401D01*
X255736Y250805D01*
X255736Y247995D01*
X256811Y245399D01*
X258799Y243411D01*
X259541Y243104D01*
X259766Y242960D01*
X259944Y242714D01*
X260011Y242418D01*
X259958Y242120D01*
X259792Y241866D01*
X259541Y241696D01*
X258799Y241389D01*
X256811Y239401D01*
X255736Y236805D01*
X255736Y233995D01*
X256811Y231399D01*
X258799Y229411D01*
X261395Y228336D01*
G37*
G36*
X211495Y228336D02*
X214305Y228336D01*
X216901Y229411D01*
X218889Y231399D01*
X219964Y233995D01*
X219964Y236805D01*
X218889Y239401D01*
X216901Y241389D01*
X216159Y241696D01*
X215934Y241840D01*
X215756Y242086D01*
X215689Y242382D01*
X215742Y242680D01*
X215908Y242935D01*
X216159Y243104D01*
X216901Y243411D01*
X218889Y245399D01*
X219964Y247995D01*
X219964Y250805D01*
X218889Y253401D01*
X216901Y255389D01*
X214305Y256464D01*
X211495Y256464D01*
X208899Y255389D01*
X206911Y253401D01*
X205836Y250805D01*
X205836Y247995D01*
X206911Y245399D01*
X208899Y243411D01*
X209641Y243104D01*
X209866Y242960D01*
X210044Y242714D01*
X210111Y242418D01*
X210058Y242120D01*
X209892Y241866D01*
X209641Y241696D01*
X208899Y241389D01*
X206911Y239401D01*
X205836Y236805D01*
X205836Y233995D01*
X206911Y231399D01*
X208899Y229411D01*
X211495Y228336D01*
G37*
G36*
X161595Y228336D02*
X164405Y228336D01*
X167001Y229411D01*
X168989Y231399D01*
X170064Y233995D01*
X170064Y236805D01*
X168989Y239401D01*
X167001Y241389D01*
X166259Y241696D01*
X166034Y241840D01*
X165856Y242086D01*
X165789Y242382D01*
X165842Y242680D01*
X166008Y242935D01*
X166259Y243104D01*
X167001Y243411D01*
X168989Y245399D01*
X170064Y247995D01*
X170064Y250805D01*
X168989Y253401D01*
X167001Y255389D01*
X164405Y256464D01*
X161595Y256464D01*
X158999Y255389D01*
X157011Y253401D01*
X155936Y250805D01*
X155936Y247995D01*
X157011Y245399D01*
X158999Y243411D01*
X159741Y243104D01*
X159966Y242960D01*
X160144Y242714D01*
X160211Y242418D01*
X160158Y242120D01*
X159992Y241866D01*
X159741Y241696D01*
X158999Y241389D01*
X157011Y239401D01*
X155936Y236805D01*
X155936Y233995D01*
X157011Y231399D01*
X158999Y229411D01*
X161595Y228336D01*
G37*
G36*
X115695Y228336D02*
X118505Y228336D01*
X121101Y229411D01*
X123089Y231399D01*
X124164Y233995D01*
X124164Y236805D01*
X123089Y239401D01*
X121101Y241389D01*
X120359Y241696D01*
X120134Y241840D01*
X119956Y242086D01*
X119889Y242382D01*
X119942Y242680D01*
X120108Y242935D01*
X120359Y243104D01*
X121101Y243411D01*
X123089Y245399D01*
X124164Y247995D01*
X124164Y250805D01*
X123089Y253401D01*
X121101Y255389D01*
X118505Y256464D01*
X115695Y256464D01*
X113099Y255389D01*
X111111Y253401D01*
X110036Y250805D01*
X110036Y247995D01*
X111111Y245399D01*
X113099Y243411D01*
X113841Y243104D01*
X114066Y242960D01*
X114244Y242714D01*
X114311Y242418D01*
X114258Y242120D01*
X114092Y241866D01*
X113841Y241696D01*
X113099Y241389D01*
X111111Y239401D01*
X110036Y236805D01*
X110036Y233995D01*
X111111Y231399D01*
X113099Y229411D01*
X115695Y228336D01*
G37*
G36*
X363195Y228336D02*
X366005Y228336D01*
X368601Y229411D01*
X370589Y231399D01*
X371664Y233995D01*
X371664Y236805D01*
X370589Y239401D01*
X368601Y241389D01*
X367859Y241696D01*
X367634Y241840D01*
X367456Y242086D01*
X367389Y242382D01*
X367442Y242680D01*
X367608Y242935D01*
X367859Y243104D01*
X368601Y243411D01*
X370589Y245399D01*
X371664Y247995D01*
X371664Y250805D01*
X370589Y253401D01*
X368601Y255389D01*
X366005Y256464D01*
X363195Y256464D01*
X360599Y255389D01*
X358611Y253401D01*
X357536Y250805D01*
X357536Y247995D01*
X358611Y245399D01*
X360599Y243411D01*
X361341Y243104D01*
X361566Y242960D01*
X361744Y242714D01*
X361811Y242418D01*
X361758Y242120D01*
X361592Y241866D01*
X361341Y241696D01*
X360599Y241389D01*
X358611Y239401D01*
X357536Y236805D01*
X357536Y233995D01*
X358611Y231399D01*
X360599Y229411D01*
X363195Y228336D01*
G37*
G36*
X454259Y237636D02*
X468601Y237636D01*
X469494Y238529D01*
X469494Y252871D01*
X468601Y253764D01*
X454259Y253764D01*
X453366Y252871D01*
X453366Y238529D01*
X454259Y237636D01*
G37*
G36*
X640166Y212236D02*
X643374Y212236D01*
X646338Y213464D01*
X648606Y215732D01*
X649834Y218696D01*
X649834Y221904D01*
X648606Y224868D01*
X646338Y227136D01*
X643374Y228364D01*
X640166Y228364D01*
X637202Y227136D01*
X634934Y224868D01*
X633706Y221904D01*
X633706Y218696D01*
X634934Y215732D01*
X637202Y213464D01*
X640166Y212236D01*
G37*
G36*
X459826Y212236D02*
X463034Y212236D01*
X465998Y213464D01*
X468266Y215732D01*
X469494Y218696D01*
X469494Y221904D01*
X468266Y224868D01*
X465998Y227136D01*
X463034Y228364D01*
X459826Y228364D01*
X456862Y227136D01*
X454594Y224868D01*
X453366Y221904D01*
X453366Y218696D01*
X454594Y215732D01*
X456862Y213464D01*
X459826Y212236D01*
G37*
G36*
X459826Y186836D02*
X463034Y186836D01*
X465998Y188064D01*
X468266Y190332D01*
X469494Y193296D01*
X469494Y196504D01*
X468266Y199468D01*
X465998Y201736D01*
X463034Y202964D01*
X459826Y202964D01*
X456862Y201736D01*
X454594Y199468D01*
X453366Y196504D01*
X453366Y193296D01*
X454594Y190332D01*
X456862Y188064D01*
X459826Y186836D01*
G37*
G36*
X640166Y186836D02*
X643374Y186836D01*
X646338Y188064D01*
X648606Y190332D01*
X649834Y193296D01*
X649834Y196504D01*
X648606Y199468D01*
X646338Y201736D01*
X643374Y202964D01*
X640166Y202964D01*
X637202Y201736D01*
X634934Y199468D01*
X633706Y196504D01*
X633706Y193296D01*
X634934Y190332D01*
X637202Y188064D01*
X640166Y186836D01*
G37*
G36*
X287646Y181806D02*
X290456Y181806D01*
X293053Y182881D01*
X295040Y184869D01*
X296115Y187465D01*
X296115Y190275D01*
X295040Y192871D01*
X293053Y194859D01*
X290456Y195934D01*
X287646Y195934D01*
X285050Y194859D01*
X283063Y192871D01*
X281987Y190275D01*
X281987Y187465D01*
X283063Y184869D01*
X285050Y182881D01*
X287646Y181806D01*
G37*
G36*
X52870Y179762D02*
X60438Y179762D01*
X60438Y187330D01*
X59543Y187330D01*
X56481Y186062D01*
X54138Y183719D01*
X52870Y180657D01*
X52870Y179762D01*
G37*
G36*
X61962Y179762D02*
X69530Y179762D01*
X69530Y180657D01*
X68262Y183719D01*
X65919Y186062D01*
X62857Y187330D01*
X61962Y187330D01*
X61962Y179762D01*
G37*
G36*
X210870Y178762D02*
X218438Y178762D01*
X218438Y186330D01*
X217543Y186330D01*
X214481Y185062D01*
X212138Y182719D01*
X210870Y179657D01*
X210870Y178762D01*
G37*
G36*
X219962Y178762D02*
X227530Y178762D01*
X227530Y179657D01*
X226262Y182719D01*
X223919Y185062D01*
X220857Y186330D01*
X219962Y186330D01*
X219962Y178762D01*
G37*
G36*
X61962Y170670D02*
X62857Y170670D01*
X65919Y171938D01*
X68262Y174281D01*
X69530Y177343D01*
X69530Y178238D01*
X61962Y178238D01*
X61962Y170670D01*
G37*
G36*
X59543Y170670D02*
X60438Y170670D01*
X60438Y178238D01*
X52870Y178238D01*
X52870Y177343D01*
X54138Y174281D01*
X56481Y171938D01*
X59543Y170670D01*
G37*
G36*
X640166Y161436D02*
X643374Y161436D01*
X646338Y162664D01*
X648606Y164932D01*
X649834Y167896D01*
X649834Y171104D01*
X648606Y174068D01*
X646338Y176336D01*
X643374Y177564D01*
X640166Y177564D01*
X637202Y176336D01*
X634934Y174068D01*
X633706Y171104D01*
X633706Y167896D01*
X634934Y164932D01*
X637202Y162664D01*
X640166Y161436D01*
G37*
G36*
X459826Y161436D02*
X463034Y161436D01*
X465998Y162664D01*
X468266Y164932D01*
X469494Y167896D01*
X469494Y171104D01*
X468266Y174068D01*
X465998Y176336D01*
X463034Y177564D01*
X459826Y177564D01*
X456862Y176336D01*
X454594Y174068D01*
X453366Y171104D01*
X453366Y167896D01*
X454594Y164932D01*
X456862Y162664D01*
X459826Y161436D01*
G37*
G36*
X217543Y169670D02*
X218438Y169670D01*
X218438Y177238D01*
X210870Y177238D01*
X210870Y176343D01*
X212138Y173281D01*
X214481Y170938D01*
X217543Y169670D01*
G37*
G36*
X219962Y169670D02*
X220857Y169670D01*
X223919Y170938D01*
X226262Y173281D01*
X227530Y176343D01*
X227530Y177238D01*
X219962Y177238D01*
X219962Y169670D01*
G37*
G36*
X640166Y136036D02*
X643374Y136036D01*
X646338Y137264D01*
X648606Y139532D01*
X649834Y142496D01*
X649834Y145704D01*
X648606Y148668D01*
X646338Y150936D01*
X643374Y152164D01*
X640166Y152164D01*
X637202Y150936D01*
X634934Y148668D01*
X633706Y145704D01*
X633706Y142496D01*
X634934Y139532D01*
X637202Y137264D01*
X640166Y136036D01*
G37*
G36*
X459826Y136036D02*
X463034Y136036D01*
X465998Y137264D01*
X468266Y139532D01*
X469494Y142496D01*
X469494Y145704D01*
X468266Y148668D01*
X465998Y150936D01*
X463034Y152164D01*
X459826Y152164D01*
X456862Y150936D01*
X454594Y148668D01*
X453366Y145704D01*
X453366Y142496D01*
X454594Y139532D01*
X456862Y137264D01*
X459826Y136036D01*
G37*
G36*
X459826Y110636D02*
X463034Y110636D01*
X465998Y111864D01*
X468266Y114132D01*
X469494Y117096D01*
X469494Y120304D01*
X468266Y123268D01*
X465998Y125536D01*
X463034Y126764D01*
X459826Y126764D01*
X456862Y125536D01*
X454594Y123268D01*
X453366Y120304D01*
X453366Y117096D01*
X454594Y114132D01*
X456862Y111864D01*
X459826Y110636D01*
G37*
G36*
X640166Y110636D02*
X643374Y110636D01*
X646338Y111864D01*
X648606Y114132D01*
X649834Y117096D01*
X649834Y120304D01*
X648606Y123268D01*
X646338Y125536D01*
X643374Y126764D01*
X640166Y126764D01*
X637202Y125536D01*
X634934Y123268D01*
X633706Y120304D01*
X633706Y117096D01*
X634934Y114132D01*
X637202Y111864D01*
X640166Y110636D01*
G37*
G36*
X299802Y56694D02*
X304198Y56694D01*
X307306Y59802D01*
X307306Y63757D01*
X307362Y64043D01*
X307529Y64296D01*
X352326Y109093D01*
X352556Y109251D01*
X352852Y109316D01*
X353151Y109260D01*
X353403Y109093D01*
X353802Y108694D01*
X358198Y108694D01*
X361306Y111802D01*
X361306Y116198D01*
X358198Y119306D01*
X353802Y119306D01*
X350694Y116198D01*
X350694Y114243D01*
X350638Y113957D01*
X350471Y113704D01*
X304296Y67529D01*
X304055Y67366D01*
X303757Y67306D01*
X299802Y67306D01*
X296694Y64198D01*
X296694Y59802D01*
X299802Y56694D01*
G37*
G36*
X632690Y94062D02*
X641008Y94062D01*
X641008Y102380D01*
X639964Y102380D01*
X636627Y100998D01*
X634072Y98443D01*
X632690Y95106D01*
X632690Y94062D01*
G37*
G36*
X452350Y94062D02*
X460668Y94062D01*
X460668Y102380D01*
X459624Y102380D01*
X456287Y100998D01*
X453732Y98443D01*
X452350Y95106D01*
X452350Y94062D01*
G37*
G36*
X462192Y94062D02*
X470510Y94062D01*
X470510Y95106D01*
X469128Y98443D01*
X466573Y100998D01*
X463236Y102380D01*
X462192Y102380D01*
X462192Y94062D01*
G37*
G36*
X642532Y94062D02*
X650850Y94062D01*
X650850Y95106D01*
X649468Y98443D01*
X646913Y100998D01*
X643576Y102380D01*
X642532Y102380D01*
X642532Y94062D01*
G37*
G36*
X280245Y85691D02*
X287569Y85640D01*
X287620Y92953D01*
X286718Y92953D01*
X283748Y91722D01*
X281475Y89449D01*
X280245Y86480D01*
X280245Y85691D01*
G37*
G36*
X289093Y85629D02*
X296405Y85578D01*
X296405Y86480D01*
X295175Y89449D01*
X292902Y91722D01*
X289933Y92953D01*
X289144Y92953D01*
X289093Y85629D01*
G37*
G36*
X642532Y84220D02*
X643576Y84220D01*
X646913Y85602D01*
X649468Y88157D01*
X650850Y91494D01*
X650850Y92538D01*
X642532Y92538D01*
X642532Y84220D01*
G37*
G36*
X639964Y84220D02*
X641008Y84220D01*
X641008Y92538D01*
X632690Y92538D01*
X632690Y91494D01*
X634072Y88157D01*
X636627Y85602D01*
X639964Y84220D01*
G37*
G36*
X462192Y84220D02*
X463236Y84220D01*
X466573Y85602D01*
X469128Y88157D01*
X470510Y91494D01*
X470510Y92538D01*
X462192Y92538D01*
X462192Y84220D01*
G37*
G36*
X459624Y84220D02*
X460668Y84220D01*
X460668Y92538D01*
X452350Y92538D01*
X452350Y91494D01*
X453732Y88157D01*
X456287Y85602D01*
X459624Y84220D01*
G37*
G36*
X406495Y77736D02*
X409305Y77736D01*
X411901Y78811D01*
X413889Y80799D01*
X414964Y83395D01*
X414964Y86205D01*
X413889Y88801D01*
X411901Y90789D01*
X409305Y91864D01*
X406495Y91864D01*
X403899Y90789D01*
X401911Y88801D01*
X400836Y86205D01*
X400836Y83395D01*
X401911Y80799D01*
X403899Y78811D01*
X406495Y77736D01*
G37*
G36*
X286718Y76793D02*
X287507Y76793D01*
X287558Y84116D01*
X280245Y84167D01*
X280245Y83265D01*
X281475Y80296D01*
X283748Y78023D01*
X286718Y76793D01*
G37*
G36*
X289031Y76793D02*
X289933Y76793D01*
X292902Y78023D01*
X295175Y80296D01*
X296405Y83265D01*
X296405Y84054D01*
X289082Y84105D01*
X289031Y76793D01*
G37*
G36*
X59745Y68686D02*
X62655Y68686D01*
X65343Y69800D01*
X67401Y71857D01*
X68514Y74545D01*
X68514Y77455D01*
X67401Y80143D01*
X65343Y82201D01*
X62655Y83314D01*
X59745Y83314D01*
X57057Y82201D01*
X55000Y80143D01*
X53886Y77455D01*
X53886Y74545D01*
X55000Y71857D01*
X57057Y69800D01*
X59745Y68686D01*
G37*
G36*
X640166Y59836D02*
X643374Y59836D01*
X646338Y61064D01*
X648606Y63332D01*
X649834Y66296D01*
X649834Y69504D01*
X648606Y72468D01*
X646338Y74736D01*
X643374Y75964D01*
X640166Y75964D01*
X637202Y74736D01*
X634934Y72468D01*
X633706Y69504D01*
X633706Y66296D01*
X634934Y63332D01*
X637202Y61064D01*
X640166Y59836D01*
G37*
G36*
X459826Y59836D02*
X463034Y59836D01*
X465998Y61064D01*
X468266Y63332D01*
X469494Y66296D01*
X469494Y69504D01*
X468266Y72468D01*
X465998Y74736D01*
X463034Y75964D01*
X459826Y75964D01*
X456862Y74736D01*
X454594Y72468D01*
X453366Y69504D01*
X453366Y66296D01*
X454594Y63332D01*
X456862Y61064D01*
X459826Y59836D01*
G37*
G36*
X351895Y54398D02*
X354705Y54398D01*
X357301Y55473D01*
X359289Y57461D01*
X360364Y60057D01*
X360364Y62867D01*
X359289Y65463D01*
X357301Y67451D01*
X354705Y68526D01*
X351895Y68526D01*
X349299Y67451D01*
X347311Y65463D01*
X346236Y62867D01*
X346236Y60057D01*
X347311Y57461D01*
X349299Y55473D01*
X351895Y54398D01*
G37*
G36*
X351895Y29398D02*
X354705Y29398D01*
X357301Y30473D01*
X359289Y32461D01*
X360364Y35057D01*
X360364Y37867D01*
X359289Y40463D01*
X357301Y42451D01*
X354705Y43526D01*
X351895Y43526D01*
X349299Y42451D01*
X347311Y40463D01*
X346236Y37867D01*
X346236Y35057D01*
X347311Y32461D01*
X349299Y30473D01*
X351895Y29398D01*
G37*
%LPD*%
D10*
X95800Y307000D03*
D11*
X121200Y307000D03*
X146600Y307000D03*
X172000Y307000D03*
X197400Y307000D03*
X222800Y307000D03*
X248200Y307000D03*
X273600Y307000D03*
X299000Y307000D03*
X324400Y307000D03*
X349800Y307000D03*
X375200Y307000D03*
X400600Y307000D03*
X426000Y307000D03*
X451400Y307000D03*
X451400Y459400D03*
X426000Y459400D03*
X400600Y459400D03*
X375200Y459400D03*
X349800Y459400D03*
X324400Y459400D03*
X299000Y459400D03*
X273600Y459400D03*
X248200Y459400D03*
X222800Y459400D03*
X197400Y459400D03*
X172000Y459400D03*
X146600Y459400D03*
X121200Y459400D03*
X95800Y459400D03*
D12*
X61200Y76000D03*
X61200Y179000D03*
X219200Y178000D03*
X219200Y76000D03*
D13*
X632200Y382500D03*
X632200Y396500D03*
X632200Y410500D03*
X632200Y424500D03*
X635600Y305700D03*
X635600Y319700D03*
X117100Y249400D03*
X117100Y235400D03*
X163000Y249400D03*
X163000Y235400D03*
X212900Y249400D03*
X212900Y235400D03*
X262800Y249400D03*
X262800Y235400D03*
X312700Y249400D03*
X312700Y235400D03*
X364600Y249400D03*
X364600Y235400D03*
X353300Y61462D03*
X353300Y36462D03*
D14*
X461430Y169500D03*
X461430Y144100D03*
X641770Y169500D03*
X641770Y144100D03*
X461430Y118700D03*
X461430Y194900D03*
X641770Y194900D03*
X641770Y118700D03*
X461430Y220300D03*
X641770Y220300D03*
X461430Y93300D03*
X641770Y93300D03*
D15*
X461430Y245700D03*
D14*
X641770Y245700D03*
X461430Y67900D03*
X641770Y67900D03*
D13*
X407900Y84800D03*
X407900Y188800D03*
X289051Y188870D03*
X288325Y84873D03*
D16*
X358000Y94000D03*
D17*
X460730Y94000D01*
X461430Y93300D01*
X461772Y92964D01*
D16*
X432000Y392000D03*
D17*
X420000Y380000D01*
X420000Y326400D01*
X400600Y307000D01*
X407900Y257900D02*
X407900Y188800D01*
X407900Y257900D02*
X451400Y301400D01*
X451400Y307000D01*
X588900Y245700D02*
X375200Y459400D01*
X588900Y245700D02*
X641770Y245700D01*
D16*
X302000Y62000D03*
D17*
X354000Y114000D01*
X356000Y114000D01*
D16*
X356000Y114000D03*
D17*
X95800Y371800D02*
X95800Y459400D01*
X95800Y371800D02*
X84514Y360514D01*
X84514Y210686D01*
X219200Y76000D01*
M02*
