G04 EAGLE Gerber RS-274X export*
G75*
%MOMM*%
%FSLAX34Y34*%
%LPD*%
%INSilkscreen Top*%
%IPPOS*%
%AMOC8*
5,1,8,0,0,1.08239X$1,22.5*%
G01*
G04 Define Apertures*
%ADD10C,0.127000*%
%ADD11C,0.200000*%
G36*
X40616Y292084D02*
X32759Y292084D01*
X32759Y293757D01*
X40476Y293757D01*
X40885Y293770D01*
X41270Y293810D01*
X41629Y293877D01*
X41962Y293971D01*
X42270Y294092D01*
X42553Y294240D01*
X42810Y294414D01*
X43042Y294615D01*
X43247Y294842D01*
X43425Y295092D01*
X43575Y295366D01*
X43699Y295664D01*
X43794Y295986D01*
X43863Y296331D01*
X43904Y296701D01*
X43918Y297094D01*
X43903Y297498D01*
X43861Y297880D01*
X43790Y298238D01*
X43691Y298573D01*
X43564Y298885D01*
X43408Y299174D01*
X43224Y299439D01*
X43011Y299682D01*
X42771Y299898D01*
X42506Y300086D01*
X42214Y300245D01*
X41895Y300375D01*
X41551Y300476D01*
X41181Y300548D01*
X40784Y300591D01*
X40362Y300606D01*
X32759Y300606D01*
X32759Y302270D01*
X40458Y302270D01*
X40826Y302260D01*
X41181Y302230D01*
X41523Y302181D01*
X41853Y302111D01*
X42169Y302022D01*
X42473Y301913D01*
X42764Y301784D01*
X43042Y301635D01*
X43305Y301468D01*
X43553Y301285D01*
X43784Y301085D01*
X44000Y300869D01*
X44199Y300636D01*
X44383Y300387D01*
X44550Y300121D01*
X44702Y299840D01*
X44836Y299543D01*
X44953Y299233D01*
X45051Y298911D01*
X45132Y298575D01*
X45194Y298226D01*
X45239Y297865D01*
X45266Y297490D01*
X45275Y297102D01*
X45267Y296730D01*
X45241Y296369D01*
X45198Y296020D01*
X45137Y295684D01*
X45060Y295359D01*
X44965Y295046D01*
X44853Y294746D01*
X44723Y294457D01*
X44578Y294183D01*
X44416Y293924D01*
X44239Y293681D01*
X44047Y293455D01*
X43839Y293244D01*
X43615Y293048D01*
X43376Y292869D01*
X43121Y292706D01*
X42852Y292560D01*
X42570Y292434D01*
X42276Y292327D01*
X41969Y292239D01*
X41649Y292171D01*
X41317Y292123D01*
X40973Y292094D01*
X40616Y292084D01*
G37*
G36*
X45100Y305004D02*
X43760Y305004D01*
X43760Y308148D01*
X34266Y308148D01*
X36254Y305363D01*
X34765Y305363D01*
X32759Y308280D01*
X32759Y309733D01*
X43760Y309733D01*
X43760Y312738D01*
X45100Y312738D01*
X45100Y305004D01*
G37*
G36*
X107988Y39600D02*
X102978Y39600D01*
X102978Y51941D01*
X107462Y51941D01*
X107988Y51929D01*
X108480Y51894D01*
X108938Y51835D01*
X109363Y51754D01*
X109753Y51648D01*
X110109Y51520D01*
X110432Y51367D01*
X110720Y51192D01*
X110975Y50993D01*
X111195Y50771D01*
X111382Y50525D01*
X111535Y50256D01*
X111654Y49963D01*
X111738Y49647D01*
X111789Y49308D01*
X111806Y48945D01*
X111797Y48677D01*
X111768Y48420D01*
X111720Y48174D01*
X111653Y47938D01*
X111567Y47714D01*
X111461Y47500D01*
X111337Y47298D01*
X111193Y47106D01*
X111032Y46928D01*
X110933Y46836D01*
X110855Y46764D01*
X110662Y46617D01*
X110453Y46484D01*
X110228Y46367D01*
X109988Y46265D01*
X109731Y46179D01*
X109459Y46108D01*
X109816Y46054D01*
X110153Y45980D01*
X110468Y45887D01*
X110762Y45774D01*
X111035Y45641D01*
X111287Y45488D01*
X111518Y45315D01*
X111614Y45226D01*
X111727Y45122D01*
X111914Y44913D01*
X112076Y44691D01*
X112213Y44455D01*
X112325Y44206D01*
X112412Y43944D01*
X112475Y43668D01*
X112512Y43379D01*
X112524Y43077D01*
X112506Y42677D01*
X112450Y42300D01*
X112356Y41945D01*
X112225Y41613D01*
X112056Y41305D01*
X111850Y41019D01*
X111606Y40756D01*
X111325Y40515D01*
X111010Y40301D01*
X110666Y40115D01*
X110293Y39958D01*
X109890Y39829D01*
X109459Y39729D01*
X108998Y39657D01*
X108507Y39614D01*
X107988Y39600D01*
G37*
%LPC*%
G36*
X107900Y40940D02*
X108270Y40949D01*
X108614Y40976D01*
X108933Y41020D01*
X109225Y41082D01*
X109491Y41162D01*
X109731Y41260D01*
X109945Y41376D01*
X110133Y41509D01*
X110298Y41660D01*
X110440Y41829D01*
X110560Y42015D01*
X110659Y42219D01*
X110736Y42440D01*
X110790Y42679D01*
X110823Y42935D01*
X110834Y43209D01*
X110822Y43473D01*
X110786Y43720D01*
X110726Y43950D01*
X110643Y44163D01*
X110535Y44359D01*
X110403Y44537D01*
X110247Y44699D01*
X110068Y44844D01*
X109864Y44972D01*
X109637Y45083D01*
X109385Y45176D01*
X109110Y45253D01*
X108810Y45313D01*
X108487Y45355D01*
X108140Y45381D01*
X107769Y45389D01*
X104651Y45389D01*
X104651Y40940D01*
X107900Y40940D01*
G37*
G36*
X107462Y46694D02*
X107786Y46702D01*
X108090Y46726D01*
X108372Y46765D01*
X108632Y46820D01*
X108872Y46891D01*
X109090Y46978D01*
X109287Y47080D01*
X109463Y47198D01*
X109618Y47332D01*
X109753Y47484D01*
X109866Y47651D01*
X109959Y47836D01*
X110032Y48038D01*
X110083Y48256D01*
X110114Y48492D01*
X110125Y48744D01*
X110114Y48985D01*
X110082Y49208D01*
X110029Y49413D01*
X109954Y49600D01*
X109858Y49770D01*
X109740Y49921D01*
X109602Y50055D01*
X109441Y50172D01*
X109261Y50272D01*
X109062Y50359D01*
X108843Y50433D01*
X108605Y50493D01*
X108348Y50540D01*
X108072Y50574D01*
X107777Y50594D01*
X107462Y50601D01*
X104651Y50601D01*
X104651Y46694D01*
X107462Y46694D01*
G37*
%LPD*%
G36*
X164267Y39425D02*
X163764Y39445D01*
X163293Y39504D01*
X162853Y39603D01*
X162446Y39741D01*
X162069Y39919D01*
X161725Y40137D01*
X161413Y40394D01*
X161132Y40690D01*
X160883Y41024D01*
X160668Y41394D01*
X160486Y41798D01*
X160337Y42237D01*
X160221Y42712D01*
X160138Y43222D01*
X160089Y43767D01*
X160072Y44347D01*
X160089Y44941D01*
X160138Y45497D01*
X160221Y46014D01*
X160337Y46493D01*
X160487Y46934D01*
X160669Y47336D01*
X160885Y47700D01*
X161134Y48026D01*
X161416Y48313D01*
X161731Y48562D01*
X162080Y48773D01*
X162461Y48945D01*
X162876Y49079D01*
X163324Y49175D01*
X163805Y49233D01*
X164320Y49252D01*
X164845Y49233D01*
X165334Y49177D01*
X165788Y49084D01*
X166205Y48953D01*
X166587Y48785D01*
X166933Y48579D01*
X167243Y48337D01*
X167517Y48056D01*
X167757Y47737D01*
X167965Y47376D01*
X168141Y46974D01*
X168285Y46531D01*
X168397Y46047D01*
X168477Y45522D01*
X168525Y44955D01*
X168541Y44347D01*
X168524Y43745D01*
X168473Y43183D01*
X168388Y42660D01*
X168268Y42177D01*
X168114Y41734D01*
X167926Y41330D01*
X167703Y40966D01*
X167447Y40642D01*
X167158Y40357D01*
X166837Y40110D01*
X166486Y39900D01*
X166104Y39729D01*
X165692Y39596D01*
X165248Y39501D01*
X164773Y39444D01*
X164267Y39425D01*
G37*
%LPC*%
G36*
X164250Y40590D02*
X164592Y40604D01*
X164909Y40647D01*
X165200Y40718D01*
X165466Y40817D01*
X165707Y40946D01*
X165922Y41102D01*
X166113Y41287D01*
X166277Y41501D01*
X166420Y41744D01*
X166544Y42020D01*
X166648Y42328D01*
X166734Y42668D01*
X166801Y43040D01*
X166848Y43443D01*
X166877Y43879D01*
X166886Y44347D01*
X166877Y44821D01*
X166850Y45261D01*
X166804Y45668D01*
X166741Y46041D01*
X166659Y46380D01*
X166559Y46686D01*
X166440Y46959D01*
X166304Y47198D01*
X166146Y47406D01*
X165963Y47587D01*
X165755Y47740D01*
X165523Y47865D01*
X165266Y47962D01*
X164984Y48031D01*
X164678Y48073D01*
X164346Y48087D01*
X164012Y48073D01*
X163702Y48030D01*
X163416Y47960D01*
X163154Y47860D01*
X162916Y47733D01*
X162701Y47577D01*
X162511Y47393D01*
X162345Y47181D01*
X162200Y46938D01*
X162075Y46663D01*
X161969Y46357D01*
X161882Y46019D01*
X161814Y45649D01*
X161766Y45247D01*
X161737Y44813D01*
X161727Y44347D01*
X161737Y43893D01*
X161765Y43468D01*
X161813Y43073D01*
X161880Y42706D01*
X161965Y42369D01*
X162070Y42060D01*
X162193Y41781D01*
X162336Y41531D01*
X162499Y41311D01*
X162684Y41119D01*
X162891Y40958D01*
X163119Y40825D01*
X163369Y40722D01*
X163641Y40649D01*
X163934Y40604D01*
X164250Y40590D01*
G37*
%LPD*%
G36*
X193319Y39425D02*
X192809Y39444D01*
X192330Y39503D01*
X191883Y39601D01*
X191467Y39738D01*
X191083Y39914D01*
X190730Y40129D01*
X190408Y40384D01*
X190117Y40677D01*
X189860Y41009D01*
X189637Y41380D01*
X189448Y41788D01*
X189293Y42234D01*
X189173Y42718D01*
X189087Y43241D01*
X189035Y43801D01*
X189018Y44400D01*
X189035Y44969D01*
X189087Y45505D01*
X189173Y46006D01*
X189293Y46473D01*
X189448Y46906D01*
X189637Y47305D01*
X189860Y47669D01*
X190117Y47999D01*
X190407Y48293D01*
X190726Y48547D01*
X191074Y48763D01*
X191452Y48939D01*
X191859Y49076D01*
X192296Y49174D01*
X192762Y49232D01*
X193257Y49252D01*
X193763Y49232D01*
X194237Y49173D01*
X194677Y49075D01*
X195085Y48937D01*
X195461Y48760D01*
X195803Y48544D01*
X196113Y48288D01*
X196391Y47993D01*
X196636Y47658D01*
X196848Y47285D01*
X197027Y46872D01*
X197174Y46419D01*
X197288Y45927D01*
X197370Y45396D01*
X197419Y44826D01*
X197435Y44216D01*
X197435Y44006D01*
X190674Y44006D01*
X190684Y43610D01*
X190716Y43238D01*
X190768Y42888D01*
X190842Y42563D01*
X190937Y42260D01*
X191053Y41981D01*
X191190Y41725D01*
X191348Y41492D01*
X191526Y41285D01*
X191724Y41105D01*
X191941Y40953D01*
X192178Y40828D01*
X192434Y40732D01*
X192709Y40663D01*
X193004Y40621D01*
X193319Y40607D01*
X193569Y40614D01*
X193806Y40633D01*
X194030Y40665D01*
X194242Y40710D01*
X194441Y40768D01*
X194627Y40839D01*
X194800Y40922D01*
X194961Y41019D01*
X195245Y41238D01*
X195479Y41485D01*
X195663Y41760D01*
X195797Y42061D01*
X197181Y41667D01*
X197067Y41396D01*
X196935Y41142D01*
X196787Y40905D01*
X196621Y40686D01*
X196439Y40485D01*
X196240Y40301D01*
X196024Y40134D01*
X195791Y39985D01*
X195541Y39854D01*
X195274Y39740D01*
X194991Y39644D01*
X194690Y39565D01*
X194372Y39504D01*
X194038Y39460D01*
X193687Y39434D01*
X193319Y39425D01*
G37*
%LPC*%
G36*
X195806Y45214D02*
X195765Y45576D01*
X195709Y45912D01*
X195637Y46224D01*
X195550Y46509D01*
X195447Y46770D01*
X195328Y47005D01*
X195194Y47215D01*
X195044Y47399D01*
X194878Y47561D01*
X194694Y47700D01*
X194494Y47818D01*
X194276Y47915D01*
X194040Y47990D01*
X193788Y48044D01*
X193518Y48076D01*
X193231Y48087D01*
X192952Y48075D01*
X192687Y48039D01*
X192438Y47979D01*
X192203Y47895D01*
X191983Y47788D01*
X191779Y47656D01*
X191589Y47500D01*
X191414Y47321D01*
X191256Y47120D01*
X191117Y46902D01*
X190998Y46665D01*
X190898Y46411D01*
X190817Y46139D01*
X190756Y45848D01*
X190714Y45540D01*
X190691Y45214D01*
X195806Y45214D01*
G37*
%LPD*%
G36*
X214225Y39425D02*
X213715Y39444D01*
X213237Y39503D01*
X212789Y39601D01*
X212374Y39738D01*
X211989Y39914D01*
X211636Y40129D01*
X211314Y40384D01*
X211024Y40677D01*
X210766Y41009D01*
X210543Y41380D01*
X210354Y41788D01*
X210199Y42234D01*
X210079Y42718D01*
X209993Y43241D01*
X209942Y43801D01*
X209924Y44400D01*
X209942Y44969D01*
X209993Y45505D01*
X210079Y46006D01*
X210199Y46473D01*
X210354Y46906D01*
X210543Y47305D01*
X210766Y47669D01*
X211024Y47999D01*
X211313Y48293D01*
X211632Y48547D01*
X211980Y48763D01*
X212358Y48939D01*
X212765Y49076D01*
X213202Y49174D01*
X213668Y49232D01*
X214164Y49252D01*
X214670Y49232D01*
X215143Y49173D01*
X215583Y49075D01*
X215991Y48937D01*
X216367Y48760D01*
X216709Y48544D01*
X217020Y48288D01*
X217297Y47993D01*
X217542Y47658D01*
X217754Y47285D01*
X217933Y46872D01*
X218080Y46419D01*
X218195Y45927D01*
X218276Y45396D01*
X218325Y44826D01*
X218341Y44216D01*
X218341Y44006D01*
X211580Y44006D01*
X211590Y43610D01*
X211622Y43238D01*
X211675Y42888D01*
X211748Y42563D01*
X211843Y42260D01*
X211959Y41981D01*
X212096Y41725D01*
X212254Y41492D01*
X212433Y41285D01*
X212630Y41105D01*
X212848Y40953D01*
X213084Y40828D01*
X213340Y40732D01*
X213616Y40663D01*
X213911Y40621D01*
X214225Y40607D01*
X214475Y40614D01*
X214712Y40633D01*
X214936Y40665D01*
X215148Y40710D01*
X215347Y40768D01*
X215533Y40839D01*
X215706Y40922D01*
X215867Y41019D01*
X216151Y41238D01*
X216385Y41485D01*
X216569Y41760D01*
X216704Y42061D01*
X218087Y41667D01*
X217973Y41396D01*
X217841Y41142D01*
X217693Y40905D01*
X217527Y40686D01*
X217345Y40485D01*
X217146Y40301D01*
X216930Y40134D01*
X216697Y39985D01*
X216447Y39854D01*
X216180Y39740D01*
X215897Y39644D01*
X215596Y39565D01*
X215279Y39504D01*
X214944Y39460D01*
X214593Y39434D01*
X214225Y39425D01*
G37*
%LPC*%
G36*
X216712Y45214D02*
X216672Y45576D01*
X216615Y45912D01*
X216544Y46224D01*
X216456Y46509D01*
X216353Y46770D01*
X216234Y47005D01*
X216100Y47215D01*
X215950Y47399D01*
X215784Y47561D01*
X215601Y47700D01*
X215400Y47818D01*
X215182Y47915D01*
X214947Y47990D01*
X214694Y48044D01*
X214424Y48076D01*
X214137Y48087D01*
X213858Y48075D01*
X213594Y48039D01*
X213344Y47979D01*
X213109Y47895D01*
X212890Y47788D01*
X212685Y47656D01*
X212495Y47500D01*
X212320Y47321D01*
X212162Y47120D01*
X212024Y46902D01*
X211904Y46665D01*
X211804Y46411D01*
X211724Y46139D01*
X211662Y45848D01*
X211620Y45540D01*
X211597Y45214D01*
X216712Y45214D01*
G37*
%LPD*%
G36*
X153309Y39425D02*
X152851Y39437D01*
X152408Y39473D01*
X151981Y39534D01*
X151570Y39619D01*
X151174Y39728D01*
X150794Y39861D01*
X150430Y40018D01*
X150082Y40200D01*
X149751Y40404D01*
X149441Y40629D01*
X149151Y40875D01*
X148882Y41142D01*
X148632Y41429D01*
X148403Y41737D01*
X148195Y42066D01*
X148006Y42416D01*
X147839Y42784D01*
X147694Y43169D01*
X147571Y43571D01*
X147471Y43989D01*
X147393Y44424D01*
X147337Y44875D01*
X147303Y45343D01*
X147292Y45827D01*
X147298Y46191D01*
X147317Y46545D01*
X147348Y46889D01*
X147392Y47223D01*
X147448Y47547D01*
X147516Y47861D01*
X147597Y48165D01*
X147691Y48459D01*
X147797Y48743D01*
X147915Y49017D01*
X148189Y49535D01*
X148513Y50014D01*
X148886Y50452D01*
X149304Y50844D01*
X149760Y51184D01*
X150002Y51334D01*
X150254Y51471D01*
X150516Y51595D01*
X150787Y51706D01*
X151067Y51805D01*
X151358Y51889D01*
X151658Y51961D01*
X151967Y52020D01*
X152286Y52066D01*
X152615Y52099D01*
X152953Y52118D01*
X153301Y52125D01*
X153783Y52113D01*
X154245Y52077D01*
X154687Y52016D01*
X155109Y51932D01*
X155511Y51824D01*
X155892Y51691D01*
X156253Y51535D01*
X156594Y51354D01*
X156913Y51150D01*
X157211Y50922D01*
X157487Y50671D01*
X157741Y50397D01*
X157973Y50100D01*
X158183Y49779D01*
X158372Y49435D01*
X158538Y49068D01*
X156953Y48542D01*
X156837Y48804D01*
X156706Y49049D01*
X156558Y49279D01*
X156393Y49493D01*
X156213Y49691D01*
X156016Y49873D01*
X155803Y50039D01*
X155573Y50189D01*
X155330Y50323D01*
X155076Y50438D01*
X154811Y50536D01*
X154534Y50616D01*
X154247Y50678D01*
X153948Y50723D01*
X153639Y50749D01*
X153318Y50758D01*
X152820Y50738D01*
X152350Y50676D01*
X151909Y50573D01*
X151496Y50429D01*
X151112Y50243D01*
X150756Y50017D01*
X150429Y49749D01*
X150130Y49440D01*
X149863Y49095D01*
X149632Y48720D01*
X149436Y48314D01*
X149276Y47878D01*
X149151Y47411D01*
X149062Y46914D01*
X149009Y46386D01*
X148991Y45827D01*
X149010Y45274D01*
X149065Y44749D01*
X149158Y44251D01*
X149288Y43781D01*
X149455Y43339D01*
X149659Y42925D01*
X149900Y42538D01*
X150178Y42179D01*
X150488Y41856D01*
X150824Y41576D01*
X151186Y41339D01*
X151574Y41145D01*
X151988Y40994D01*
X152429Y40886D01*
X152895Y40821D01*
X153388Y40800D01*
X153707Y40810D01*
X154016Y40840D01*
X154315Y40890D01*
X154604Y40960D01*
X154883Y41051D01*
X155151Y41161D01*
X155410Y41291D01*
X155659Y41441D01*
X155897Y41612D01*
X156126Y41802D01*
X156344Y42013D01*
X156553Y42243D01*
X156751Y42494D01*
X156939Y42765D01*
X157117Y43055D01*
X157286Y43366D01*
X158652Y42683D01*
X158452Y42296D01*
X158232Y41934D01*
X157994Y41595D01*
X157736Y41279D01*
X157458Y40988D01*
X157162Y40721D01*
X156846Y40477D01*
X156511Y40257D01*
X156159Y40062D01*
X155793Y39893D01*
X155414Y39750D01*
X155020Y39633D01*
X154613Y39542D01*
X154193Y39477D01*
X153758Y39438D01*
X153309Y39425D01*
G37*
G36*
X79443Y39425D02*
X79023Y39437D01*
X78622Y39472D01*
X78243Y39531D01*
X77884Y39613D01*
X77547Y39719D01*
X77230Y39849D01*
X76934Y40002D01*
X76658Y40178D01*
X76405Y40377D01*
X76177Y40597D01*
X75973Y40838D01*
X75793Y41100D01*
X75638Y41383D01*
X75507Y41687D01*
X75400Y42013D01*
X75318Y42359D01*
X76912Y42543D01*
X76981Y42321D01*
X77062Y42114D01*
X77155Y41921D01*
X77260Y41742D01*
X77377Y41578D01*
X77507Y41427D01*
X77649Y41292D01*
X77803Y41170D01*
X77970Y41063D01*
X78149Y40970D01*
X78340Y40891D01*
X78543Y40827D01*
X78758Y40777D01*
X78986Y40741D01*
X79226Y40719D01*
X79479Y40712D01*
X79787Y40724D01*
X80079Y40760D01*
X80353Y40820D01*
X80611Y40904D01*
X80850Y41012D01*
X81073Y41143D01*
X81279Y41299D01*
X81467Y41479D01*
X81635Y41679D01*
X81781Y41898D01*
X81904Y42134D01*
X82005Y42389D01*
X82084Y42661D01*
X82140Y42951D01*
X82174Y43259D01*
X82185Y43585D01*
X82174Y43869D01*
X82140Y44140D01*
X82083Y44396D01*
X82004Y44638D01*
X81903Y44867D01*
X81778Y45081D01*
X81632Y45282D01*
X81462Y45468D01*
X81274Y45637D01*
X81070Y45782D01*
X80850Y45906D01*
X80614Y46007D01*
X80362Y46085D01*
X80095Y46142D01*
X79812Y46175D01*
X79514Y46186D01*
X79199Y46174D01*
X78896Y46136D01*
X78604Y46073D01*
X78322Y45985D01*
X78046Y45867D01*
X77771Y45713D01*
X77495Y45525D01*
X77219Y45302D01*
X75677Y45302D01*
X76089Y51941D01*
X83105Y51941D01*
X83105Y50601D01*
X77525Y50601D01*
X77289Y46686D01*
X77553Y46870D01*
X77832Y47031D01*
X78128Y47166D01*
X78438Y47277D01*
X78765Y47363D01*
X79107Y47425D01*
X79464Y47462D01*
X79838Y47474D01*
X80281Y47457D01*
X80702Y47407D01*
X81100Y47324D01*
X81474Y47207D01*
X81826Y47057D01*
X82154Y46873D01*
X82459Y46656D01*
X82741Y46405D01*
X82995Y46128D01*
X83214Y45831D01*
X83400Y45513D01*
X83552Y45175D01*
X83671Y44817D01*
X83755Y44438D01*
X83806Y44039D01*
X83823Y43620D01*
X83805Y43145D01*
X83750Y42696D01*
X83660Y42272D01*
X83533Y41875D01*
X83369Y41504D01*
X83170Y41158D01*
X82934Y40839D01*
X82662Y40546D01*
X82358Y40283D01*
X82026Y40055D01*
X81666Y39863D01*
X81277Y39705D01*
X80861Y39583D01*
X80416Y39495D01*
X79944Y39442D01*
X79443Y39425D01*
G37*
G36*
X91418Y39600D02*
X89684Y39600D01*
X84648Y51941D01*
X86408Y51941D01*
X89824Y43252D01*
X90560Y41071D01*
X91295Y43252D01*
X94694Y51941D01*
X96454Y51941D01*
X91418Y39600D01*
G37*
G36*
X135198Y39600D02*
X133621Y39600D01*
X133621Y52598D01*
X135198Y52598D01*
X135198Y44479D01*
X139358Y49077D01*
X141206Y49077D01*
X137361Y45004D01*
X141408Y39600D01*
X139559Y39600D01*
X136354Y43927D01*
X135198Y42972D01*
X135198Y39600D01*
G37*
G36*
X172108Y39600D02*
X170531Y39600D01*
X170531Y47054D01*
X170518Y48387D01*
X170502Y48812D01*
X170479Y49077D01*
X171968Y49077D01*
X171985Y48840D01*
X172007Y48398D01*
X172038Y47456D01*
X172064Y47456D01*
X172346Y47911D01*
X172650Y48294D01*
X172809Y48459D01*
X172975Y48605D01*
X173145Y48734D01*
X173321Y48845D01*
X173505Y48940D01*
X173699Y49023D01*
X173905Y49093D01*
X174121Y49150D01*
X174348Y49195D01*
X174586Y49226D01*
X174835Y49246D01*
X175094Y49252D01*
X175471Y49240D01*
X175822Y49203D01*
X176146Y49143D01*
X176444Y49058D01*
X176716Y48949D01*
X176962Y48816D01*
X177182Y48658D01*
X177376Y48477D01*
X177545Y48267D01*
X177692Y48026D01*
X177816Y47753D01*
X177918Y47449D01*
X177997Y47113D01*
X178053Y46745D01*
X178087Y46346D01*
X178099Y45915D01*
X178099Y39600D01*
X176513Y39600D01*
X176513Y45608D01*
X176502Y46051D01*
X176467Y46440D01*
X176410Y46778D01*
X176329Y47062D01*
X176224Y47303D01*
X176091Y47507D01*
X175930Y47675D01*
X175743Y47807D01*
X175518Y47906D01*
X175245Y47978D01*
X174926Y48020D01*
X174560Y48034D01*
X174283Y48022D01*
X174021Y47986D01*
X173774Y47925D01*
X173542Y47840D01*
X173325Y47730D01*
X173123Y47596D01*
X172936Y47438D01*
X172765Y47255D01*
X172611Y47051D01*
X172477Y46827D01*
X172364Y46585D01*
X172272Y46324D01*
X172200Y46045D01*
X172149Y45746D01*
X172118Y45428D01*
X172108Y45092D01*
X172108Y39600D01*
G37*
G36*
X117644Y39425D02*
X117267Y39437D01*
X116917Y39473D01*
X116592Y39534D01*
X116294Y39619D01*
X116022Y39728D01*
X115776Y39861D01*
X115556Y40018D01*
X115362Y40200D01*
X115193Y40410D01*
X115046Y40651D01*
X114922Y40924D01*
X114821Y41228D01*
X114741Y41564D01*
X114685Y41932D01*
X114651Y42331D01*
X114640Y42762D01*
X114640Y49077D01*
X116225Y49077D01*
X116225Y43068D01*
X116237Y42626D01*
X116271Y42236D01*
X116329Y41899D01*
X116409Y41614D01*
X116515Y41374D01*
X116648Y41170D01*
X116808Y41002D01*
X116996Y40870D01*
X117221Y40770D01*
X117493Y40699D01*
X117812Y40656D01*
X118178Y40642D01*
X118455Y40654D01*
X118718Y40691D01*
X118965Y40752D01*
X119197Y40837D01*
X119413Y40947D01*
X119615Y41081D01*
X119802Y41239D01*
X119974Y41422D01*
X120128Y41626D01*
X120261Y41849D01*
X120374Y42091D01*
X120467Y42352D01*
X120538Y42632D01*
X120590Y42931D01*
X120620Y43249D01*
X120631Y43585D01*
X120631Y49077D01*
X122207Y49077D01*
X122207Y41623D01*
X122220Y40290D01*
X122237Y39864D01*
X122260Y39600D01*
X120771Y39600D01*
X120753Y39836D01*
X120731Y40279D01*
X120701Y41220D01*
X120675Y41220D01*
X120392Y40766D01*
X120089Y40383D01*
X119929Y40218D01*
X119764Y40072D01*
X119593Y39943D01*
X119418Y39832D01*
X119234Y39737D01*
X119039Y39654D01*
X118834Y39584D01*
X118617Y39527D01*
X118390Y39482D01*
X118152Y39450D01*
X117904Y39431D01*
X117644Y39425D01*
G37*
G36*
X128287Y39425D02*
X127805Y39444D01*
X127352Y39503D01*
X126928Y39602D01*
X126534Y39739D01*
X126170Y39916D01*
X125835Y40132D01*
X125529Y40387D01*
X125252Y40682D01*
X125007Y41014D01*
X124794Y41382D01*
X124615Y41786D01*
X124467Y42226D01*
X124353Y42703D01*
X124271Y43215D01*
X124222Y43763D01*
X124206Y44347D01*
X124222Y44927D01*
X124271Y45472D01*
X124354Y45981D01*
X124468Y46455D01*
X124616Y46893D01*
X124797Y47296D01*
X125010Y47663D01*
X125257Y47995D01*
X125534Y48290D01*
X125839Y48545D01*
X126173Y48761D01*
X126536Y48938D01*
X126926Y49075D01*
X127346Y49173D01*
X127793Y49232D01*
X128270Y49252D01*
X128625Y49240D01*
X128966Y49205D01*
X129291Y49146D01*
X129600Y49064D01*
X129894Y48958D01*
X130172Y48828D01*
X130435Y48675D01*
X130683Y48499D01*
X130911Y48301D01*
X131118Y48086D01*
X131302Y47854D01*
X131463Y47603D01*
X131603Y47335D01*
X131720Y47049D01*
X131815Y46745D01*
X131887Y46423D01*
X130267Y46300D01*
X130182Y46674D01*
X130050Y47008D01*
X129871Y47300D01*
X129645Y47553D01*
X129513Y47662D01*
X129369Y47756D01*
X129211Y47836D01*
X129040Y47901D01*
X128857Y47952D01*
X128659Y47988D01*
X128449Y48010D01*
X128226Y48017D01*
X127924Y48004D01*
X127643Y47965D01*
X127384Y47900D01*
X127146Y47809D01*
X126931Y47692D01*
X126736Y47549D01*
X126564Y47380D01*
X126413Y47185D01*
X126282Y46959D01*
X126168Y46698D01*
X126071Y46401D01*
X125992Y46068D01*
X125931Y45700D01*
X125887Y45296D01*
X125861Y44857D01*
X125852Y44382D01*
X125862Y43925D01*
X125890Y43498D01*
X125936Y43101D01*
X126001Y42736D01*
X126085Y42401D01*
X126187Y42096D01*
X126308Y41822D01*
X126448Y41579D01*
X126606Y41366D01*
X126783Y41181D01*
X126980Y41024D01*
X127195Y40896D01*
X127428Y40797D01*
X127681Y40725D01*
X127953Y40683D01*
X128243Y40669D01*
X128449Y40676D01*
X128647Y40697D01*
X128835Y40733D01*
X129015Y40782D01*
X129187Y40846D01*
X129349Y40925D01*
X129504Y41017D01*
X129649Y41124D01*
X129784Y41246D01*
X129905Y41382D01*
X130012Y41535D01*
X130106Y41702D01*
X130186Y41885D01*
X130253Y42083D01*
X130306Y42297D01*
X130345Y42525D01*
X131940Y42420D01*
X131881Y42087D01*
X131798Y41772D01*
X131690Y41473D01*
X131556Y41192D01*
X131398Y40928D01*
X131215Y40681D01*
X131007Y40452D01*
X130775Y40239D01*
X130521Y40048D01*
X130251Y39883D01*
X129965Y39743D01*
X129662Y39628D01*
X129343Y39539D01*
X129008Y39476D01*
X128656Y39438D01*
X128287Y39425D01*
G37*
G36*
X184656Y39600D02*
X182791Y39600D01*
X179349Y49077D01*
X181030Y49077D01*
X183115Y42911D01*
X183719Y40835D01*
X184026Y41860D01*
X184367Y42893D01*
X186522Y49077D01*
X188195Y49077D01*
X184656Y39600D01*
G37*
G36*
X207452Y39460D02*
X207223Y39468D01*
X207009Y39493D01*
X206809Y39535D01*
X206624Y39594D01*
X206454Y39669D01*
X206299Y39762D01*
X206159Y39871D01*
X206033Y39996D01*
X205922Y40139D01*
X205826Y40298D01*
X205745Y40474D01*
X205678Y40667D01*
X205627Y40876D01*
X205590Y41103D01*
X205567Y41346D01*
X205560Y41606D01*
X205560Y47929D01*
X204465Y47929D01*
X204465Y49077D01*
X205621Y49077D01*
X206086Y51196D01*
X207137Y51196D01*
X207137Y49077D01*
X208888Y49077D01*
X208888Y47929D01*
X207137Y47929D01*
X207137Y41947D01*
X207151Y41631D01*
X207192Y41366D01*
X207262Y41152D01*
X207360Y40988D01*
X207492Y40868D01*
X207665Y40781D01*
X207880Y40730D01*
X208135Y40712D01*
X208520Y40743D01*
X209046Y40835D01*
X209046Y39670D01*
X208654Y39578D01*
X208258Y39512D01*
X207857Y39473D01*
X207452Y39460D01*
G37*
G36*
X201045Y39600D02*
X199469Y39600D01*
X199469Y46870D01*
X199456Y47921D01*
X199416Y49077D01*
X200905Y49077D01*
X200975Y47141D01*
X201010Y47141D01*
X201206Y47702D01*
X201415Y48166D01*
X201639Y48534D01*
X201756Y48682D01*
X201877Y48805D01*
X202006Y48910D01*
X202148Y49001D01*
X202302Y49077D01*
X202469Y49140D01*
X202648Y49189D01*
X202840Y49224D01*
X203044Y49245D01*
X203261Y49252D01*
X203579Y49230D01*
X203901Y49164D01*
X203901Y47719D01*
X203730Y47757D01*
X203533Y47785D01*
X203060Y47807D01*
X202822Y47794D01*
X202598Y47754D01*
X202389Y47688D01*
X202195Y47595D01*
X202015Y47477D01*
X201849Y47331D01*
X201698Y47160D01*
X201562Y46962D01*
X201441Y46739D01*
X201336Y46493D01*
X201247Y46225D01*
X201174Y45934D01*
X201118Y45619D01*
X201078Y45282D01*
X201053Y44923D01*
X201045Y44540D01*
X201045Y39600D01*
G37*
G36*
X221983Y39600D02*
X220406Y39600D01*
X220406Y46870D01*
X220393Y47921D01*
X220354Y49077D01*
X221843Y49077D01*
X221913Y47141D01*
X221948Y47141D01*
X222143Y47702D01*
X222353Y48166D01*
X222577Y48534D01*
X222694Y48682D01*
X222815Y48805D01*
X222944Y48910D01*
X223085Y49001D01*
X223239Y49077D01*
X223406Y49140D01*
X223585Y49189D01*
X223777Y49224D01*
X223982Y49245D01*
X224199Y49252D01*
X224516Y49230D01*
X224838Y49164D01*
X224838Y47719D01*
X224667Y47757D01*
X224470Y47785D01*
X223997Y47807D01*
X223759Y47794D01*
X223536Y47754D01*
X223327Y47688D01*
X223132Y47595D01*
X222952Y47477D01*
X222787Y47331D01*
X222636Y47160D01*
X222500Y46962D01*
X222378Y46739D01*
X222273Y46493D01*
X222185Y46225D01*
X222112Y45934D01*
X222055Y45619D01*
X222015Y45282D01*
X221991Y44923D01*
X221983Y44540D01*
X221983Y39600D01*
G37*
G36*
X82529Y77700D02*
X81040Y77700D01*
X81040Y90041D01*
X82985Y90041D01*
X89659Y79460D01*
X89580Y80941D01*
X89553Y81948D01*
X89553Y90041D01*
X91060Y90041D01*
X91060Y77700D01*
X89045Y77700D01*
X82442Y88210D01*
X82485Y87361D01*
X82529Y85898D01*
X82529Y77700D01*
G37*
G36*
X98383Y79277D02*
X97096Y79277D01*
X97096Y83025D01*
X93382Y83025D01*
X93382Y84304D01*
X97096Y84304D01*
X97096Y88053D01*
X98383Y88053D01*
X98383Y84304D01*
X102097Y84304D01*
X102097Y83025D01*
X98383Y83025D01*
X98383Y79277D01*
G37*
G36*
X77928Y77700D02*
X76255Y77700D01*
X76255Y90041D01*
X77928Y90041D01*
X77928Y77700D01*
G37*
G36*
X82529Y166600D02*
X81040Y166600D01*
X81040Y178941D01*
X82985Y178941D01*
X89659Y168360D01*
X89580Y169841D01*
X89553Y170848D01*
X89553Y178941D01*
X91060Y178941D01*
X91060Y166600D01*
X89045Y166600D01*
X82442Y177110D01*
X82485Y176261D01*
X82529Y174798D01*
X82529Y166600D01*
G37*
G36*
X77928Y166600D02*
X76255Y166600D01*
X76255Y178941D01*
X77928Y178941D01*
X77928Y166600D01*
G37*
G36*
X97683Y170664D02*
X93303Y170664D01*
X93303Y172065D01*
X97683Y172065D01*
X97683Y170664D01*
G37*
G36*
X170463Y166425D02*
X169996Y166437D01*
X169545Y166473D01*
X169111Y166533D01*
X168693Y166618D01*
X168291Y166726D01*
X167905Y166858D01*
X167536Y167015D01*
X167183Y167196D01*
X166848Y167399D01*
X166534Y167624D01*
X166240Y167870D01*
X165967Y168138D01*
X165714Y168428D01*
X165481Y168738D01*
X165268Y169071D01*
X165077Y169425D01*
X164906Y169797D01*
X164758Y170184D01*
X164634Y170587D01*
X164531Y171004D01*
X164452Y171437D01*
X164395Y171886D01*
X164361Y172349D01*
X164350Y172827D01*
X164356Y173192D01*
X164375Y173547D01*
X164407Y173892D01*
X164451Y174227D01*
X164508Y174551D01*
X164577Y174866D01*
X164660Y175170D01*
X164755Y175465D01*
X164862Y175749D01*
X164983Y176023D01*
X165115Y176287D01*
X165261Y176541D01*
X165590Y177019D01*
X165970Y177456D01*
X166395Y177847D01*
X166622Y178023D01*
X166859Y178186D01*
X167107Y178336D01*
X167364Y178473D01*
X167631Y178597D01*
X167908Y178708D01*
X168195Y178805D01*
X168491Y178890D01*
X168798Y178962D01*
X169115Y179020D01*
X169441Y179066D01*
X169778Y179099D01*
X170124Y179118D01*
X170481Y179125D01*
X170944Y179113D01*
X171391Y179078D01*
X171823Y179019D01*
X172239Y178938D01*
X172639Y178832D01*
X173024Y178703D01*
X173394Y178551D01*
X173747Y178376D01*
X174083Y178178D01*
X174399Y177959D01*
X174694Y177719D01*
X174968Y177457D01*
X175222Y177175D01*
X175456Y176871D01*
X175670Y176546D01*
X175863Y176199D01*
X176034Y175834D01*
X176183Y175453D01*
X176308Y175056D01*
X176411Y174643D01*
X176491Y174213D01*
X176548Y173767D01*
X176583Y173305D01*
X176594Y172827D01*
X176582Y172351D01*
X176548Y171890D01*
X176490Y171443D01*
X176409Y171012D01*
X176305Y170596D01*
X176178Y170195D01*
X176027Y169809D01*
X175854Y169438D01*
X175659Y169085D01*
X175444Y168753D01*
X175208Y168442D01*
X174953Y168152D01*
X174677Y167884D01*
X174382Y167636D01*
X174066Y167410D01*
X173730Y167204D01*
X173376Y167022D01*
X173007Y166863D01*
X172622Y166729D01*
X172221Y166620D01*
X171805Y166534D01*
X171373Y166474D01*
X170926Y166437D01*
X170463Y166425D01*
G37*
%LPC*%
G36*
X170463Y167782D02*
X170982Y167803D01*
X171469Y167865D01*
X171926Y167968D01*
X172352Y168112D01*
X172746Y168297D01*
X173109Y168524D01*
X173442Y168792D01*
X173743Y169101D01*
X174011Y169447D01*
X174243Y169828D01*
X174440Y170243D01*
X174600Y170691D01*
X174725Y171174D01*
X174815Y171691D01*
X174868Y172242D01*
X174886Y172827D01*
X174868Y173388D01*
X174814Y173917D01*
X174724Y174416D01*
X174598Y174883D01*
X174436Y175320D01*
X174238Y175726D01*
X174004Y176101D01*
X173734Y176445D01*
X173432Y176753D01*
X173099Y177019D01*
X172737Y177245D01*
X172345Y177430D01*
X171923Y177574D01*
X171472Y177676D01*
X170991Y177738D01*
X170481Y177758D01*
X169966Y177738D01*
X169481Y177677D01*
X169026Y177576D01*
X168602Y177434D01*
X168207Y177252D01*
X167843Y177029D01*
X167509Y176766D01*
X167205Y176462D01*
X166934Y176122D01*
X166699Y175749D01*
X166500Y175343D01*
X166338Y174905D01*
X166211Y174435D01*
X166121Y173931D01*
X166067Y173396D01*
X166049Y172827D01*
X166067Y172262D01*
X166122Y171727D01*
X166213Y171221D01*
X166341Y170746D01*
X166505Y170301D01*
X166706Y169885D01*
X166944Y169500D01*
X167218Y169144D01*
X167524Y168825D01*
X167859Y168549D01*
X168222Y168314D01*
X168614Y168123D01*
X169034Y167974D01*
X169482Y167868D01*
X169958Y167804D01*
X170463Y167782D01*
G37*
%LPD*%
G36*
X183840Y166425D02*
X183467Y166433D01*
X183106Y166459D01*
X182758Y166502D01*
X182421Y166563D01*
X182096Y166640D01*
X181784Y166735D01*
X181483Y166847D01*
X181195Y166977D01*
X180920Y167122D01*
X180662Y167284D01*
X180419Y167461D01*
X180192Y167653D01*
X179981Y167861D01*
X179786Y168085D01*
X179607Y168324D01*
X179443Y168579D01*
X179297Y168848D01*
X179171Y169130D01*
X179064Y169424D01*
X178977Y169731D01*
X178909Y170051D01*
X178860Y170383D01*
X178831Y170727D01*
X178821Y171084D01*
X178821Y178941D01*
X180494Y178941D01*
X180494Y171225D01*
X180508Y170815D01*
X180548Y170430D01*
X180615Y170071D01*
X180709Y169738D01*
X180830Y169430D01*
X180977Y169147D01*
X181151Y168890D01*
X181353Y168658D01*
X181579Y168453D01*
X181829Y168275D01*
X182103Y168125D01*
X182401Y168001D01*
X182723Y167906D01*
X183069Y167837D01*
X183438Y167796D01*
X183831Y167782D01*
X184236Y167797D01*
X184617Y167839D01*
X184975Y167910D01*
X185310Y168009D01*
X185622Y168137D01*
X185911Y168292D01*
X186177Y168476D01*
X186419Y168689D01*
X186636Y168929D01*
X186824Y169194D01*
X186982Y169486D01*
X187112Y169805D01*
X187213Y170149D01*
X187286Y170519D01*
X187329Y170916D01*
X187343Y171338D01*
X187343Y178941D01*
X189008Y178941D01*
X189008Y171242D01*
X188998Y170874D01*
X188968Y170519D01*
X188918Y170177D01*
X188849Y169847D01*
X188759Y169531D01*
X188650Y169227D01*
X188521Y168936D01*
X188373Y168658D01*
X188206Y168395D01*
X188022Y168147D01*
X187822Y167916D01*
X187606Y167700D01*
X187374Y167501D01*
X187124Y167317D01*
X186859Y167150D01*
X186577Y166999D01*
X186280Y166864D01*
X185971Y166748D01*
X185648Y166649D01*
X185313Y166568D01*
X184964Y166506D01*
X184602Y166461D01*
X184228Y166434D01*
X183840Y166425D01*
G37*
G36*
X196681Y166600D02*
X195017Y166600D01*
X195017Y177574D01*
X190778Y177574D01*
X190778Y178941D01*
X200920Y178941D01*
X200920Y177574D01*
X196681Y177574D01*
X196681Y166600D01*
G37*
G36*
X205520Y170664D02*
X201141Y170664D01*
X201141Y172065D01*
X205520Y172065D01*
X205520Y170664D01*
G37*
G36*
X170463Y77525D02*
X169996Y77537D01*
X169545Y77573D01*
X169111Y77633D01*
X168693Y77718D01*
X168291Y77826D01*
X167905Y77958D01*
X167536Y78115D01*
X167183Y78296D01*
X166848Y78499D01*
X166534Y78724D01*
X166240Y78970D01*
X165967Y79238D01*
X165714Y79528D01*
X165481Y79838D01*
X165268Y80171D01*
X165077Y80525D01*
X164906Y80897D01*
X164758Y81284D01*
X164634Y81687D01*
X164531Y82104D01*
X164452Y82537D01*
X164395Y82986D01*
X164361Y83449D01*
X164350Y83927D01*
X164356Y84292D01*
X164375Y84647D01*
X164407Y84992D01*
X164451Y85327D01*
X164508Y85651D01*
X164577Y85966D01*
X164660Y86270D01*
X164755Y86565D01*
X164862Y86849D01*
X164983Y87123D01*
X165115Y87387D01*
X165261Y87641D01*
X165590Y88119D01*
X165970Y88556D01*
X166395Y88947D01*
X166622Y89123D01*
X166859Y89286D01*
X167107Y89436D01*
X167364Y89573D01*
X167631Y89697D01*
X167908Y89808D01*
X168195Y89905D01*
X168491Y89990D01*
X168798Y90062D01*
X169115Y90120D01*
X169441Y90166D01*
X169778Y90199D01*
X170124Y90218D01*
X170481Y90225D01*
X170944Y90213D01*
X171391Y90178D01*
X171823Y90119D01*
X172239Y90038D01*
X172639Y89932D01*
X173024Y89803D01*
X173394Y89651D01*
X173747Y89476D01*
X174083Y89278D01*
X174399Y89059D01*
X174694Y88819D01*
X174968Y88557D01*
X175222Y88275D01*
X175456Y87971D01*
X175670Y87646D01*
X175863Y87299D01*
X176034Y86934D01*
X176183Y86553D01*
X176308Y86156D01*
X176411Y85743D01*
X176491Y85313D01*
X176548Y84867D01*
X176583Y84405D01*
X176594Y83927D01*
X176582Y83451D01*
X176548Y82990D01*
X176490Y82543D01*
X176409Y82112D01*
X176305Y81696D01*
X176178Y81295D01*
X176027Y80909D01*
X175854Y80538D01*
X175659Y80185D01*
X175444Y79853D01*
X175208Y79542D01*
X174953Y79252D01*
X174677Y78984D01*
X174382Y78736D01*
X174066Y78510D01*
X173730Y78304D01*
X173376Y78122D01*
X173007Y77963D01*
X172622Y77829D01*
X172221Y77720D01*
X171805Y77634D01*
X171373Y77574D01*
X170926Y77537D01*
X170463Y77525D01*
G37*
%LPC*%
G36*
X170463Y78882D02*
X170982Y78903D01*
X171469Y78965D01*
X171926Y79068D01*
X172352Y79212D01*
X172746Y79397D01*
X173109Y79624D01*
X173442Y79892D01*
X173743Y80201D01*
X174011Y80547D01*
X174243Y80928D01*
X174440Y81343D01*
X174600Y81791D01*
X174725Y82274D01*
X174815Y82791D01*
X174868Y83342D01*
X174886Y83927D01*
X174868Y84488D01*
X174814Y85017D01*
X174724Y85516D01*
X174598Y85983D01*
X174436Y86420D01*
X174238Y86826D01*
X174004Y87201D01*
X173734Y87545D01*
X173432Y87853D01*
X173099Y88119D01*
X172737Y88345D01*
X172345Y88530D01*
X171923Y88674D01*
X171472Y88776D01*
X170991Y88838D01*
X170481Y88858D01*
X169966Y88838D01*
X169481Y88777D01*
X169026Y88676D01*
X168602Y88534D01*
X168207Y88352D01*
X167843Y88129D01*
X167509Y87866D01*
X167205Y87562D01*
X166934Y87222D01*
X166699Y86849D01*
X166500Y86443D01*
X166338Y86005D01*
X166211Y85535D01*
X166121Y85031D01*
X166067Y84496D01*
X166049Y83927D01*
X166067Y83362D01*
X166122Y82827D01*
X166213Y82321D01*
X166341Y81846D01*
X166505Y81401D01*
X166706Y80985D01*
X166944Y80600D01*
X167218Y80244D01*
X167524Y79925D01*
X167859Y79649D01*
X168222Y79414D01*
X168614Y79223D01*
X169034Y79074D01*
X169482Y78968D01*
X169958Y78904D01*
X170463Y78882D01*
G37*
%LPD*%
G36*
X183840Y77525D02*
X183467Y77533D01*
X183106Y77559D01*
X182758Y77602D01*
X182421Y77663D01*
X182096Y77740D01*
X181784Y77835D01*
X181483Y77947D01*
X181195Y78077D01*
X180920Y78222D01*
X180662Y78384D01*
X180419Y78561D01*
X180192Y78753D01*
X179981Y78961D01*
X179786Y79185D01*
X179607Y79424D01*
X179443Y79679D01*
X179297Y79948D01*
X179171Y80230D01*
X179064Y80524D01*
X178977Y80831D01*
X178909Y81151D01*
X178860Y81483D01*
X178831Y81827D01*
X178821Y82184D01*
X178821Y90041D01*
X180494Y90041D01*
X180494Y82325D01*
X180508Y81915D01*
X180548Y81530D01*
X180615Y81171D01*
X180709Y80838D01*
X180830Y80530D01*
X180977Y80247D01*
X181151Y79990D01*
X181353Y79758D01*
X181579Y79553D01*
X181829Y79375D01*
X182103Y79225D01*
X182401Y79101D01*
X182723Y79006D01*
X183069Y78937D01*
X183438Y78896D01*
X183831Y78882D01*
X184236Y78897D01*
X184617Y78939D01*
X184975Y79010D01*
X185310Y79109D01*
X185622Y79237D01*
X185911Y79392D01*
X186177Y79576D01*
X186419Y79789D01*
X186636Y80029D01*
X186824Y80294D01*
X186982Y80586D01*
X187112Y80905D01*
X187213Y81249D01*
X187286Y81619D01*
X187329Y82016D01*
X187343Y82438D01*
X187343Y90041D01*
X189008Y90041D01*
X189008Y82342D01*
X188998Y81974D01*
X188968Y81619D01*
X188918Y81277D01*
X188849Y80947D01*
X188759Y80631D01*
X188650Y80327D01*
X188521Y80036D01*
X188373Y79758D01*
X188206Y79495D01*
X188022Y79247D01*
X187822Y79016D01*
X187606Y78800D01*
X187374Y78601D01*
X187124Y78417D01*
X186859Y78250D01*
X186577Y78099D01*
X186280Y77964D01*
X185971Y77848D01*
X185648Y77749D01*
X185313Y77668D01*
X184964Y77606D01*
X184602Y77561D01*
X184228Y77534D01*
X183840Y77525D01*
G37*
G36*
X196681Y77700D02*
X195017Y77700D01*
X195017Y88674D01*
X190778Y88674D01*
X190778Y90041D01*
X200920Y90041D01*
X200920Y88674D01*
X196681Y88674D01*
X196681Y77700D01*
G37*
G36*
X207221Y79277D02*
X205933Y79277D01*
X205933Y83025D01*
X202220Y83025D01*
X202220Y84304D01*
X205933Y84304D01*
X205933Y88053D01*
X207221Y88053D01*
X207221Y84304D01*
X210934Y84304D01*
X210934Y83025D01*
X207221Y83025D01*
X207221Y79277D01*
G37*
G36*
X647200Y386830D02*
X641288Y386830D01*
X641288Y388785D01*
X641299Y389150D01*
X641335Y389494D01*
X641394Y389816D01*
X641476Y390116D01*
X641582Y390395D01*
X641711Y390653D01*
X641864Y390889D01*
X642041Y391104D01*
X642239Y391295D01*
X642457Y391461D01*
X642695Y391601D01*
X642953Y391716D01*
X643231Y391805D01*
X643528Y391869D01*
X643846Y391907D01*
X644183Y391920D01*
X644626Y391898D01*
X645041Y391831D01*
X645426Y391719D01*
X645784Y391563D01*
X646107Y391366D01*
X646390Y391132D01*
X646632Y390861D01*
X646835Y390552D01*
X646995Y390212D01*
X647109Y389847D01*
X647177Y389457D01*
X647200Y389041D01*
X647200Y386830D01*
G37*
%LPC*%
G36*
X646558Y387631D02*
X646558Y388949D01*
X646540Y389264D01*
X646487Y389560D01*
X646398Y389836D01*
X646273Y390092D01*
X646114Y390325D01*
X645924Y390528D01*
X645703Y390703D01*
X645450Y390850D01*
X645170Y390966D01*
X644865Y391048D01*
X644536Y391098D01*
X644183Y391114D01*
X643916Y391105D01*
X643666Y391077D01*
X643432Y391030D01*
X643214Y390964D01*
X643013Y390879D01*
X642828Y390776D01*
X642659Y390653D01*
X642507Y390512D01*
X642371Y390353D01*
X642254Y390177D01*
X642155Y389985D01*
X642074Y389775D01*
X642011Y389549D01*
X641966Y389306D01*
X641939Y389045D01*
X641930Y388769D01*
X641930Y387631D01*
X646558Y387631D01*
G37*
%LPD*%
G36*
X647200Y422486D02*
X641288Y422486D01*
X641288Y424442D01*
X641299Y424806D01*
X641335Y425150D01*
X641394Y425472D01*
X641476Y425772D01*
X641582Y426051D01*
X641711Y426309D01*
X641864Y426545D01*
X642041Y426760D01*
X642239Y426951D01*
X642457Y427117D01*
X642695Y427257D01*
X642953Y427372D01*
X643231Y427461D01*
X643528Y427525D01*
X643846Y427563D01*
X644183Y427576D01*
X644626Y427554D01*
X645041Y427487D01*
X645426Y427376D01*
X645784Y427219D01*
X646107Y427023D01*
X646390Y426788D01*
X646632Y426517D01*
X646835Y426208D01*
X646995Y425868D01*
X647109Y425503D01*
X647177Y425113D01*
X647200Y424698D01*
X647200Y422486D01*
G37*
%LPC*%
G36*
X646558Y423288D02*
X646558Y424605D01*
X646540Y424921D01*
X646487Y425216D01*
X646398Y425492D01*
X646273Y425749D01*
X646114Y425981D01*
X645924Y426185D01*
X645703Y426360D01*
X645450Y426506D01*
X645170Y426622D01*
X644865Y426704D01*
X644536Y426754D01*
X644183Y426770D01*
X643916Y426761D01*
X643666Y426733D01*
X643432Y426686D01*
X643214Y426620D01*
X643013Y426535D01*
X642828Y426432D01*
X642659Y426309D01*
X642507Y426168D01*
X642371Y426009D01*
X642254Y425834D01*
X642155Y425641D01*
X642074Y425431D01*
X642011Y425205D01*
X641966Y424962D01*
X641939Y424702D01*
X641930Y424425D01*
X641930Y423288D01*
X646558Y423288D01*
G37*
%LPD*%
G36*
X644217Y395151D02*
X643867Y395163D01*
X643538Y395199D01*
X643229Y395260D01*
X642940Y395344D01*
X642672Y395453D01*
X642423Y395585D01*
X642196Y395742D01*
X641988Y395923D01*
X641803Y396126D01*
X641643Y396348D01*
X641508Y396590D01*
X641397Y396851D01*
X641310Y397132D01*
X641249Y397433D01*
X641212Y397753D01*
X641200Y398092D01*
X641220Y398560D01*
X641282Y398982D01*
X641386Y399358D01*
X641531Y399687D01*
X641722Y399976D01*
X641962Y400229D01*
X642252Y400448D01*
X642593Y400631D01*
X642819Y399867D01*
X642585Y399730D01*
X642384Y399568D01*
X642217Y399382D01*
X642085Y399173D01*
X641984Y398938D01*
X641912Y398676D01*
X641869Y398387D01*
X641854Y398071D01*
X641864Y397823D01*
X641893Y397590D01*
X641941Y397371D01*
X642009Y397168D01*
X642096Y396980D01*
X642202Y396807D01*
X642328Y396649D01*
X642473Y396506D01*
X642636Y396379D01*
X642814Y396269D01*
X643008Y396176D01*
X643218Y396100D01*
X643444Y396041D01*
X643686Y395999D01*
X643943Y395973D01*
X644217Y395965D01*
X644489Y395974D01*
X644747Y396001D01*
X644990Y396046D01*
X645219Y396109D01*
X645433Y396190D01*
X645632Y396288D01*
X645816Y396405D01*
X645985Y396540D01*
X646137Y396690D01*
X646269Y396855D01*
X646380Y397033D01*
X646471Y397225D01*
X646542Y397431D01*
X646593Y397650D01*
X646623Y397883D01*
X646634Y398130D01*
X646623Y398415D01*
X646589Y398690D01*
X646534Y398955D01*
X646457Y399211D01*
X646361Y399450D01*
X646250Y399664D01*
X646122Y399856D01*
X645979Y400023D01*
X644913Y400023D01*
X644913Y398256D01*
X644242Y398256D01*
X644242Y400761D01*
X646281Y400761D01*
X646507Y400513D01*
X646705Y400238D01*
X646877Y399937D01*
X647022Y399609D01*
X647136Y399261D01*
X647218Y398899D01*
X647268Y398522D01*
X647284Y398130D01*
X647261Y397683D01*
X647192Y397267D01*
X647076Y396883D01*
X646915Y396531D01*
X646710Y396216D01*
X646464Y395939D01*
X646178Y395703D01*
X645851Y395506D01*
X645488Y395350D01*
X645095Y395240D01*
X644671Y395173D01*
X644217Y395151D01*
G37*
G36*
X645861Y378697D02*
X645274Y378697D01*
X641288Y381404D01*
X641288Y382197D01*
X645266Y382197D01*
X645266Y383028D01*
X645861Y383028D01*
X645861Y382197D01*
X647200Y382197D01*
X647200Y381483D01*
X645861Y381483D01*
X645861Y378697D01*
G37*
%LPC*%
G36*
X645266Y379394D02*
X645266Y381483D01*
X642139Y381483D01*
X642362Y381366D01*
X642639Y381202D01*
X644871Y379688D01*
X645182Y379461D01*
X645266Y379394D01*
G37*
%LPD*%
G36*
X647200Y416767D02*
X641288Y416767D01*
X641288Y421253D01*
X641942Y421253D01*
X641942Y417569D01*
X643839Y417569D01*
X643839Y421001D01*
X644485Y421001D01*
X644485Y417569D01*
X646545Y417569D01*
X646545Y421425D01*
X647200Y421425D01*
X647200Y416767D01*
G37*
G36*
X641942Y403974D02*
X641288Y403974D01*
X641288Y408833D01*
X641942Y408833D01*
X641942Y406802D01*
X647200Y406802D01*
X647200Y406005D01*
X641942Y406005D01*
X641942Y403974D01*
G37*
G36*
X647200Y411986D02*
X641288Y411986D01*
X641288Y412788D01*
X646545Y412788D01*
X646545Y415775D01*
X647200Y415775D01*
X647200Y411986D01*
G37*
G36*
X647200Y393137D02*
X641288Y393137D01*
X641288Y393938D01*
X647200Y393938D01*
X647200Y393137D01*
G37*
G36*
X647200Y402199D02*
X641288Y402199D01*
X641288Y403001D01*
X647200Y403001D01*
X647200Y402199D01*
G37*
G36*
X645253Y383632D02*
X644582Y383632D01*
X644582Y385730D01*
X645253Y385730D01*
X645253Y383632D01*
G37*
G36*
X623200Y384320D02*
X620255Y384320D01*
X620255Y384719D01*
X621730Y384719D01*
X620255Y386139D01*
X620255Y386609D01*
X621534Y385355D01*
X623200Y386776D01*
X623200Y386281D01*
X621779Y385104D01*
X622071Y384719D01*
X623200Y384719D01*
X623200Y384320D01*
G37*
G36*
X621714Y378717D02*
X621542Y378723D01*
X621381Y378741D01*
X621086Y378813D01*
X620829Y378931D01*
X620610Y379098D01*
X620435Y379306D01*
X620311Y379551D01*
X620267Y379688D01*
X620236Y379833D01*
X620217Y379988D01*
X620211Y380151D01*
X620222Y380377D01*
X620257Y380583D01*
X620314Y380770D01*
X620395Y380937D01*
X620498Y381085D01*
X620623Y381211D01*
X620771Y381317D01*
X620940Y381402D01*
X621066Y381023D01*
X620945Y380964D01*
X620839Y380890D01*
X620748Y380800D01*
X620673Y380694D01*
X620613Y380575D01*
X620571Y380446D01*
X620545Y380306D01*
X620537Y380156D01*
X620556Y379925D01*
X620615Y379721D01*
X620714Y379544D01*
X620851Y379395D01*
X621023Y379276D01*
X621224Y379191D01*
X621454Y379140D01*
X621714Y379123D01*
X621971Y379141D01*
X622202Y379194D01*
X622407Y379282D01*
X622584Y379406D01*
X622728Y379560D01*
X622831Y379739D01*
X622893Y379943D01*
X622914Y380172D01*
X622904Y380322D01*
X622875Y380463D01*
X622828Y380593D01*
X622761Y380714D01*
X622674Y380826D01*
X622569Y380928D01*
X622445Y381020D01*
X622301Y381103D01*
X622464Y381429D01*
X622643Y381329D01*
X622799Y381210D01*
X622933Y381073D01*
X623043Y380918D01*
X623130Y380746D01*
X623192Y380562D01*
X623229Y380364D01*
X623242Y380154D01*
X623230Y379938D01*
X623196Y379738D01*
X623138Y379553D01*
X623057Y379383D01*
X622954Y379230D01*
X622832Y379097D01*
X622690Y378983D01*
X622528Y378888D01*
X622348Y378813D01*
X622152Y378760D01*
X621941Y378728D01*
X621714Y378717D01*
G37*
G36*
X623200Y381914D02*
X620255Y381914D01*
X620255Y382313D01*
X622874Y382313D01*
X622874Y383801D01*
X623200Y383801D01*
X623200Y381914D01*
G37*
G36*
X621714Y396953D02*
X621542Y396959D01*
X621380Y396977D01*
X621084Y397049D01*
X620827Y397170D01*
X620609Y397340D01*
X620435Y397552D01*
X620310Y397802D01*
X620267Y397941D01*
X620236Y398090D01*
X620217Y398248D01*
X620211Y398416D01*
X620222Y398633D01*
X620255Y398836D01*
X620311Y399023D01*
X620389Y399196D01*
X620489Y399351D01*
X620609Y399487D01*
X620749Y399604D01*
X620909Y399701D01*
X621087Y399777D01*
X621280Y399832D01*
X621489Y399864D01*
X621714Y399875D01*
X621938Y399864D01*
X622147Y399831D01*
X622342Y399776D01*
X622523Y399699D01*
X622686Y399601D01*
X622829Y399484D01*
X622953Y399347D01*
X623056Y399192D01*
X623137Y399019D01*
X623195Y398832D01*
X623230Y398629D01*
X623242Y398412D01*
X623230Y398193D01*
X623196Y397989D01*
X623138Y397801D01*
X623058Y397629D01*
X622956Y397474D01*
X622833Y397339D01*
X622690Y397223D01*
X622526Y397126D01*
X622345Y397050D01*
X622149Y396996D01*
X621939Y396964D01*
X621714Y396953D01*
G37*
%LPC*%
G36*
X621714Y397358D02*
X621976Y397376D01*
X622210Y397428D01*
X622416Y397515D01*
X622593Y397637D01*
X622735Y397790D01*
X622837Y397971D01*
X622898Y398178D01*
X622918Y398412D01*
X622898Y398652D01*
X622839Y398863D01*
X622741Y399044D01*
X622603Y399195D01*
X622430Y399314D01*
X622224Y399399D01*
X621985Y399451D01*
X621714Y399468D01*
X621454Y399450D01*
X621223Y399399D01*
X621022Y399313D01*
X620850Y399193D01*
X620713Y399041D01*
X620615Y398861D01*
X620556Y398653D01*
X620537Y398416D01*
X620556Y398178D01*
X620614Y397968D01*
X620711Y397787D01*
X620846Y397634D01*
X621016Y397514D01*
X621218Y397427D01*
X621450Y397376D01*
X621714Y397358D01*
G37*
%LPD*%
G36*
X623200Y392851D02*
X620255Y392851D01*
X620255Y393825D01*
X620278Y394178D01*
X620348Y394488D01*
X620466Y394756D01*
X620630Y394980D01*
X620837Y395158D01*
X620956Y395228D01*
X621084Y395285D01*
X621223Y395330D01*
X621371Y395362D01*
X621529Y395381D01*
X621697Y395387D01*
X621918Y395376D01*
X622124Y395342D01*
X622316Y395287D01*
X622495Y395209D01*
X622655Y395111D01*
X622796Y394994D01*
X622917Y394859D01*
X623018Y394705D01*
X623098Y394536D01*
X623155Y394354D01*
X623189Y394160D01*
X623200Y393953D01*
X623200Y392851D01*
G37*
%LPC*%
G36*
X622880Y393250D02*
X622880Y393907D01*
X622871Y394064D01*
X622845Y394211D01*
X622800Y394349D01*
X622738Y394477D01*
X622659Y394592D01*
X622565Y394694D01*
X622454Y394781D01*
X622328Y394854D01*
X622189Y394911D01*
X622037Y394953D01*
X621873Y394977D01*
X621697Y394986D01*
X621439Y394967D01*
X621214Y394911D01*
X621022Y394817D01*
X620862Y394686D01*
X620736Y394519D01*
X620646Y394318D01*
X620592Y394084D01*
X620574Y393817D01*
X620574Y393250D01*
X622880Y393250D01*
G37*
%LPD*%
G36*
X623200Y395958D02*
X620255Y395958D01*
X620255Y396357D01*
X623200Y396357D01*
X623200Y395958D01*
G37*
G36*
X623628Y412257D02*
X620683Y412257D01*
X620683Y413232D01*
X620706Y413584D01*
X620776Y413895D01*
X620894Y414162D01*
X621058Y414387D01*
X621265Y414564D01*
X621384Y414634D01*
X621512Y414692D01*
X621651Y414736D01*
X621799Y414768D01*
X621957Y414787D01*
X622125Y414793D01*
X622346Y414782D01*
X622552Y414749D01*
X622744Y414693D01*
X622923Y414615D01*
X623083Y414517D01*
X623224Y414401D01*
X623345Y414265D01*
X623446Y414112D01*
X623526Y413942D01*
X623583Y413760D01*
X623617Y413566D01*
X623628Y413359D01*
X623628Y412257D01*
G37*
%LPC*%
G36*
X623308Y412657D02*
X623308Y413313D01*
X623299Y413470D01*
X623273Y413618D01*
X623228Y413755D01*
X623166Y413883D01*
X623087Y413998D01*
X622993Y414100D01*
X622882Y414187D01*
X622756Y414260D01*
X622617Y414318D01*
X622465Y414359D01*
X622301Y414384D01*
X622125Y414392D01*
X621867Y414373D01*
X621642Y414317D01*
X621450Y414223D01*
X621290Y414092D01*
X621164Y413925D01*
X621074Y413725D01*
X621020Y413491D01*
X621002Y413223D01*
X621002Y412657D01*
X623308Y412657D01*
G37*
%LPD*%
G36*
X623628Y409164D02*
X620683Y409164D01*
X620683Y409628D01*
X623208Y411221D01*
X622614Y411196D01*
X620683Y411196D01*
X620683Y411555D01*
X623628Y411555D01*
X623628Y411074D01*
X621119Y409498D01*
X621322Y409509D01*
X621671Y409519D01*
X623628Y409519D01*
X623628Y409164D01*
G37*
G36*
X622142Y405715D02*
X621968Y405721D01*
X621803Y405739D01*
X621506Y405811D01*
X621248Y405932D01*
X621032Y406100D01*
X620860Y406312D01*
X620737Y406562D01*
X620694Y406702D01*
X620663Y406852D01*
X620645Y407012D01*
X620639Y407181D01*
X620649Y407414D01*
X620680Y407624D01*
X620732Y407811D01*
X620804Y407975D01*
X620899Y408119D01*
X621019Y408245D01*
X621163Y408354D01*
X621333Y408445D01*
X621446Y408065D01*
X621329Y407996D01*
X621229Y407916D01*
X621146Y407823D01*
X621080Y407719D01*
X621029Y407602D01*
X620994Y407472D01*
X620972Y407328D01*
X620965Y407170D01*
X620984Y406930D01*
X621042Y406720D01*
X621138Y406540D01*
X621273Y406391D01*
X621443Y406273D01*
X621644Y406188D01*
X621877Y406138D01*
X622142Y406121D01*
X622406Y406139D01*
X622641Y406192D01*
X622847Y406282D01*
X623023Y406407D01*
X623164Y406564D01*
X623265Y406749D01*
X623326Y406960D01*
X623346Y407200D01*
X623324Y407478D01*
X623258Y407738D01*
X623155Y407964D01*
X623020Y408142D01*
X622489Y408142D01*
X622489Y407262D01*
X622154Y407262D01*
X622154Y408510D01*
X623170Y408510D01*
X623283Y408387D01*
X623382Y408250D01*
X623467Y408100D01*
X623539Y407936D01*
X623596Y407763D01*
X623637Y407582D01*
X623662Y407395D01*
X623670Y407200D01*
X623658Y406977D01*
X623624Y406769D01*
X623566Y406578D01*
X623486Y406403D01*
X623384Y406246D01*
X623261Y406108D01*
X623119Y405990D01*
X622956Y405892D01*
X622775Y405815D01*
X622579Y405759D01*
X622368Y405726D01*
X622142Y405715D01*
G37*
G36*
X623398Y421671D02*
X623354Y422052D01*
X623456Y422088D01*
X623545Y422135D01*
X623620Y422194D01*
X623681Y422265D01*
X623729Y422347D01*
X623763Y422441D01*
X623784Y422547D01*
X623791Y422664D01*
X623779Y422808D01*
X623745Y422935D01*
X623688Y423045D01*
X623608Y423139D01*
X623508Y423214D01*
X623390Y423267D01*
X623256Y423300D01*
X623105Y423310D01*
X622973Y423300D01*
X622853Y423267D01*
X622748Y423213D01*
X622655Y423138D01*
X622580Y423044D01*
X622527Y422935D01*
X622495Y422812D01*
X622484Y422673D01*
X622496Y422525D01*
X622532Y422388D01*
X622597Y422257D01*
X622695Y422125D01*
X622695Y421757D01*
X621111Y421855D01*
X621111Y423530D01*
X621430Y423530D01*
X621430Y422198D01*
X622365Y422142D01*
X622283Y422272D01*
X622224Y422416D01*
X622188Y422576D01*
X622177Y422750D01*
X622193Y422956D01*
X622240Y423141D01*
X622320Y423303D01*
X622432Y423443D01*
X622569Y423556D01*
X622725Y423637D01*
X622901Y423685D01*
X623097Y423701D01*
X623317Y423684D01*
X623513Y423632D01*
X623684Y423545D01*
X623830Y423424D01*
X623947Y423272D01*
X624031Y423094D01*
X624081Y422888D01*
X624098Y422656D01*
X624087Y422460D01*
X624053Y422284D01*
X623997Y422128D01*
X623918Y421991D01*
X623818Y421876D01*
X623698Y421785D01*
X623558Y421716D01*
X623398Y421671D01*
G37*
G36*
X621111Y423894D02*
X621111Y424314D01*
X623184Y425129D01*
X623705Y425305D01*
X623184Y425480D01*
X621111Y426292D01*
X621111Y426712D01*
X624056Y425510D01*
X624056Y425096D01*
X621111Y423894D01*
G37*
G36*
X621393Y301700D02*
X620680Y301700D01*
X620680Y307612D01*
X621612Y307612D01*
X624809Y302543D01*
X624771Y303253D01*
X624759Y303735D01*
X624759Y307612D01*
X625480Y307612D01*
X625480Y301700D01*
X624515Y301700D01*
X621351Y306735D01*
X621372Y306328D01*
X621393Y305628D01*
X621393Y301700D01*
G37*
G36*
X619195Y301700D02*
X618393Y301700D01*
X618393Y307612D01*
X619195Y307612D01*
X619195Y301700D01*
G37*
G36*
X611936Y315616D02*
X611496Y315639D01*
X611088Y315708D01*
X610711Y315824D01*
X610364Y315985D01*
X610054Y316191D01*
X609782Y316437D01*
X609549Y316725D01*
X609355Y317053D01*
X609203Y317417D01*
X609094Y317810D01*
X609029Y318232D01*
X609007Y318683D01*
X609019Y319028D01*
X609056Y319354D01*
X609116Y319660D01*
X609201Y319947D01*
X609310Y320215D01*
X609444Y320463D01*
X609601Y320692D01*
X609783Y320901D01*
X609987Y321089D01*
X610209Y321251D01*
X610451Y321388D01*
X610712Y321501D01*
X610991Y321588D01*
X611290Y321651D01*
X611608Y321688D01*
X611944Y321701D01*
X612380Y321678D01*
X612787Y321611D01*
X613163Y321499D01*
X613510Y321342D01*
X613821Y321142D01*
X614094Y320902D01*
X614328Y320621D01*
X614523Y320299D01*
X614676Y319942D01*
X614786Y319553D01*
X614851Y319134D01*
X614873Y318683D01*
X614851Y318234D01*
X614785Y317814D01*
X614674Y317422D01*
X614519Y317060D01*
X614322Y316731D01*
X614087Y316444D01*
X613813Y316196D01*
X613501Y315990D01*
X613155Y315826D01*
X612778Y315709D01*
X612372Y315639D01*
X611936Y315616D01*
G37*
%LPC*%
G36*
X611936Y316266D02*
X612184Y316276D01*
X612418Y316306D01*
X612637Y316355D01*
X612841Y316424D01*
X613030Y316513D01*
X613204Y316622D01*
X613363Y316750D01*
X613507Y316898D01*
X613636Y317064D01*
X613747Y317246D01*
X613841Y317445D01*
X613918Y317660D01*
X613978Y317891D01*
X614021Y318139D01*
X614046Y318403D01*
X614055Y318683D01*
X614046Y318952D01*
X614021Y319206D01*
X613977Y319444D01*
X613917Y319669D01*
X613839Y319878D01*
X613745Y320072D01*
X613633Y320252D01*
X613503Y320416D01*
X613358Y320564D01*
X613199Y320692D01*
X613025Y320800D01*
X612838Y320889D01*
X612636Y320957D01*
X612419Y321007D01*
X612189Y321036D01*
X611944Y321046D01*
X611698Y321036D01*
X611465Y321007D01*
X611248Y320959D01*
X611044Y320891D01*
X610855Y320803D01*
X610681Y320697D01*
X610521Y320570D01*
X610375Y320425D01*
X610245Y320262D01*
X610133Y320083D01*
X610037Y319889D01*
X609960Y319679D01*
X609899Y319454D01*
X609856Y319212D01*
X609830Y318956D01*
X609821Y318683D01*
X609830Y318413D01*
X609856Y318156D01*
X609900Y317914D01*
X609961Y317686D01*
X610040Y317473D01*
X610136Y317274D01*
X610250Y317089D01*
X610381Y316919D01*
X610528Y316766D01*
X610689Y316634D01*
X610862Y316521D01*
X611050Y316430D01*
X611251Y316358D01*
X611466Y316307D01*
X611694Y316277D01*
X611936Y316266D01*
G37*
%LPD*%
G36*
X618324Y315616D02*
X617972Y315633D01*
X617644Y315682D01*
X617339Y315765D01*
X617056Y315880D01*
X616801Y316028D01*
X616576Y316205D01*
X616381Y316412D01*
X616217Y316648D01*
X616087Y316912D01*
X615994Y317200D01*
X615938Y317512D01*
X615919Y317848D01*
X615919Y321612D01*
X616721Y321612D01*
X616721Y317916D01*
X616727Y317719D01*
X616746Y317535D01*
X616779Y317363D01*
X616824Y317203D01*
X616881Y317056D01*
X616952Y316920D01*
X617036Y316797D01*
X617132Y316686D01*
X617240Y316588D01*
X617360Y316503D01*
X617492Y316430D01*
X617634Y316371D01*
X617789Y316325D01*
X617954Y316293D01*
X618131Y316273D01*
X618319Y316266D01*
X618513Y316273D01*
X618696Y316294D01*
X618868Y316328D01*
X619028Y316375D01*
X619178Y316436D01*
X619316Y316511D01*
X619443Y316599D01*
X619559Y316701D01*
X619663Y316816D01*
X619753Y316943D01*
X619829Y317083D01*
X619891Y317235D01*
X619940Y317400D01*
X619974Y317578D01*
X619995Y317768D01*
X620002Y317970D01*
X620002Y321612D01*
X620799Y321612D01*
X620799Y317924D01*
X620780Y317578D01*
X620723Y317256D01*
X620628Y316959D01*
X620495Y316686D01*
X620327Y316441D01*
X620128Y316227D01*
X619897Y316044D01*
X619635Y315891D01*
X619344Y315771D01*
X619029Y315685D01*
X618689Y315633D01*
X618324Y315616D01*
G37*
G36*
X624496Y315700D02*
X623699Y315700D01*
X623699Y320958D01*
X621668Y320958D01*
X621668Y321612D01*
X626527Y321612D01*
X626527Y320958D01*
X624496Y320958D01*
X624496Y315700D01*
G37*
G36*
X122516Y219400D02*
X120305Y219400D01*
X120305Y225312D01*
X122260Y225312D01*
X122625Y225301D01*
X122969Y225265D01*
X123291Y225206D01*
X123591Y225124D01*
X123870Y225018D01*
X124128Y224889D01*
X124364Y224736D01*
X124579Y224559D01*
X124770Y224361D01*
X124936Y224143D01*
X125076Y223905D01*
X125191Y223647D01*
X125280Y223369D01*
X125344Y223072D01*
X125382Y222754D01*
X125395Y222417D01*
X125373Y221974D01*
X125306Y221559D01*
X125194Y221174D01*
X125038Y220816D01*
X124841Y220493D01*
X124607Y220210D01*
X124336Y219968D01*
X124027Y219765D01*
X123687Y219605D01*
X123322Y219491D01*
X122932Y219423D01*
X122516Y219400D01*
G37*
%LPC*%
G36*
X122424Y220042D02*
X122739Y220060D01*
X123035Y220113D01*
X123311Y220203D01*
X123567Y220327D01*
X123800Y220486D01*
X124003Y220676D01*
X124178Y220897D01*
X124325Y221150D01*
X124441Y221430D01*
X124523Y221735D01*
X124573Y222064D01*
X124589Y222417D01*
X124580Y222684D01*
X124552Y222934D01*
X124505Y223168D01*
X124439Y223386D01*
X124354Y223587D01*
X124251Y223772D01*
X124128Y223941D01*
X123987Y224093D01*
X123828Y224229D01*
X123652Y224346D01*
X123460Y224445D01*
X123250Y224526D01*
X123024Y224589D01*
X122781Y224634D01*
X122520Y224661D01*
X122244Y224670D01*
X121106Y224670D01*
X121106Y220042D01*
X122424Y220042D01*
G37*
%LPD*%
G36*
X119213Y219400D02*
X114555Y219400D01*
X114555Y225312D01*
X119041Y225312D01*
X119041Y224658D01*
X115356Y224658D01*
X115356Y222761D01*
X118789Y222761D01*
X118789Y222115D01*
X115356Y222115D01*
X115356Y220055D01*
X119213Y220055D01*
X119213Y219400D01*
G37*
G36*
X113594Y219400D02*
X109805Y219400D01*
X109805Y225312D01*
X110606Y225312D01*
X110606Y220055D01*
X113594Y220055D01*
X113594Y219400D01*
G37*
G36*
X103580Y233347D02*
X101482Y233347D01*
X101482Y234018D01*
X103580Y234018D01*
X103580Y233347D01*
G37*
G36*
X103916Y248155D02*
X103299Y248155D01*
X103299Y249951D01*
X101520Y249951D01*
X101520Y250564D01*
X103299Y250564D01*
X103299Y252360D01*
X103916Y252360D01*
X103916Y250564D01*
X105695Y250564D01*
X105695Y249951D01*
X103916Y249951D01*
X103916Y248155D01*
G37*
G36*
X168416Y219400D02*
X166205Y219400D01*
X166205Y225312D01*
X168160Y225312D01*
X168525Y225301D01*
X168869Y225265D01*
X169191Y225206D01*
X169491Y225124D01*
X169770Y225018D01*
X170028Y224889D01*
X170264Y224736D01*
X170479Y224559D01*
X170670Y224361D01*
X170836Y224143D01*
X170976Y223905D01*
X171091Y223647D01*
X171180Y223369D01*
X171244Y223072D01*
X171282Y222754D01*
X171295Y222417D01*
X171273Y221974D01*
X171206Y221559D01*
X171094Y221174D01*
X170938Y220816D01*
X170741Y220493D01*
X170507Y220210D01*
X170236Y219968D01*
X169927Y219765D01*
X169587Y219605D01*
X169222Y219491D01*
X168832Y219423D01*
X168416Y219400D01*
G37*
%LPC*%
G36*
X168324Y220042D02*
X168639Y220060D01*
X168935Y220113D01*
X169211Y220203D01*
X169467Y220327D01*
X169700Y220486D01*
X169903Y220676D01*
X170078Y220897D01*
X170225Y221150D01*
X170341Y221430D01*
X170423Y221735D01*
X170473Y222064D01*
X170489Y222417D01*
X170480Y222684D01*
X170452Y222934D01*
X170405Y223168D01*
X170339Y223386D01*
X170254Y223587D01*
X170151Y223772D01*
X170028Y223941D01*
X169887Y224093D01*
X169728Y224229D01*
X169552Y224346D01*
X169360Y224445D01*
X169150Y224526D01*
X168924Y224589D01*
X168681Y224634D01*
X168420Y224661D01*
X168144Y224670D01*
X167006Y224670D01*
X167006Y220042D01*
X168324Y220042D01*
G37*
%LPD*%
G36*
X165113Y219400D02*
X160455Y219400D01*
X160455Y225312D01*
X164941Y225312D01*
X164941Y224658D01*
X161256Y224658D01*
X161256Y222761D01*
X164689Y222761D01*
X164689Y222115D01*
X161256Y222115D01*
X161256Y220055D01*
X165113Y220055D01*
X165113Y219400D01*
G37*
G36*
X159494Y219400D02*
X155705Y219400D01*
X155705Y225312D01*
X156506Y225312D01*
X156506Y220055D01*
X159494Y220055D01*
X159494Y219400D01*
G37*
G36*
X149480Y233347D02*
X147382Y233347D01*
X147382Y234018D01*
X149480Y234018D01*
X149480Y233347D01*
G37*
G36*
X149816Y248155D02*
X149199Y248155D01*
X149199Y249951D01*
X147420Y249951D01*
X147420Y250564D01*
X149199Y250564D01*
X149199Y252360D01*
X149816Y252360D01*
X149816Y250564D01*
X151595Y250564D01*
X151595Y249951D01*
X149816Y249951D01*
X149816Y248155D01*
G37*
G36*
X218316Y219400D02*
X216105Y219400D01*
X216105Y225312D01*
X218060Y225312D01*
X218425Y225301D01*
X218769Y225265D01*
X219091Y225206D01*
X219391Y225124D01*
X219670Y225018D01*
X219928Y224889D01*
X220164Y224736D01*
X220379Y224559D01*
X220570Y224361D01*
X220736Y224143D01*
X220876Y223905D01*
X220991Y223647D01*
X221080Y223369D01*
X221144Y223072D01*
X221182Y222754D01*
X221195Y222417D01*
X221173Y221974D01*
X221106Y221559D01*
X220994Y221174D01*
X220838Y220816D01*
X220641Y220493D01*
X220407Y220210D01*
X220136Y219968D01*
X219827Y219765D01*
X219487Y219605D01*
X219122Y219491D01*
X218732Y219423D01*
X218316Y219400D01*
G37*
%LPC*%
G36*
X218224Y220042D02*
X218539Y220060D01*
X218835Y220113D01*
X219111Y220203D01*
X219367Y220327D01*
X219600Y220486D01*
X219803Y220676D01*
X219978Y220897D01*
X220125Y221150D01*
X220241Y221430D01*
X220323Y221735D01*
X220373Y222064D01*
X220389Y222417D01*
X220380Y222684D01*
X220352Y222934D01*
X220305Y223168D01*
X220239Y223386D01*
X220154Y223587D01*
X220051Y223772D01*
X219928Y223941D01*
X219787Y224093D01*
X219628Y224229D01*
X219452Y224346D01*
X219260Y224445D01*
X219050Y224526D01*
X218824Y224589D01*
X218581Y224634D01*
X218320Y224661D01*
X218044Y224670D01*
X216906Y224670D01*
X216906Y220042D01*
X218224Y220042D01*
G37*
%LPD*%
G36*
X215013Y219400D02*
X210355Y219400D01*
X210355Y225312D01*
X214841Y225312D01*
X214841Y224658D01*
X211156Y224658D01*
X211156Y222761D01*
X214589Y222761D01*
X214589Y222115D01*
X211156Y222115D01*
X211156Y220055D01*
X215013Y220055D01*
X215013Y219400D01*
G37*
G36*
X209394Y219400D02*
X205605Y219400D01*
X205605Y225312D01*
X206406Y225312D01*
X206406Y220055D01*
X209394Y220055D01*
X209394Y219400D01*
G37*
G36*
X199380Y233347D02*
X197282Y233347D01*
X197282Y234018D01*
X199380Y234018D01*
X199380Y233347D01*
G37*
G36*
X199716Y248155D02*
X199099Y248155D01*
X199099Y249951D01*
X197320Y249951D01*
X197320Y250564D01*
X199099Y250564D01*
X199099Y252360D01*
X199716Y252360D01*
X199716Y250564D01*
X201495Y250564D01*
X201495Y249951D01*
X199716Y249951D01*
X199716Y248155D01*
G37*
G36*
X268216Y219400D02*
X266005Y219400D01*
X266005Y225312D01*
X267960Y225312D01*
X268325Y225301D01*
X268669Y225265D01*
X268991Y225206D01*
X269291Y225124D01*
X269570Y225018D01*
X269828Y224889D01*
X270064Y224736D01*
X270279Y224559D01*
X270470Y224361D01*
X270636Y224143D01*
X270776Y223905D01*
X270891Y223647D01*
X270980Y223369D01*
X271044Y223072D01*
X271082Y222754D01*
X271095Y222417D01*
X271073Y221974D01*
X271006Y221559D01*
X270894Y221174D01*
X270738Y220816D01*
X270541Y220493D01*
X270307Y220210D01*
X270036Y219968D01*
X269727Y219765D01*
X269387Y219605D01*
X269022Y219491D01*
X268632Y219423D01*
X268216Y219400D01*
G37*
%LPC*%
G36*
X268124Y220042D02*
X268439Y220060D01*
X268735Y220113D01*
X269011Y220203D01*
X269267Y220327D01*
X269500Y220486D01*
X269703Y220676D01*
X269878Y220897D01*
X270025Y221150D01*
X270141Y221430D01*
X270223Y221735D01*
X270273Y222064D01*
X270289Y222417D01*
X270280Y222684D01*
X270252Y222934D01*
X270205Y223168D01*
X270139Y223386D01*
X270054Y223587D01*
X269951Y223772D01*
X269828Y223941D01*
X269687Y224093D01*
X269528Y224229D01*
X269352Y224346D01*
X269160Y224445D01*
X268950Y224526D01*
X268724Y224589D01*
X268481Y224634D01*
X268220Y224661D01*
X267944Y224670D01*
X266806Y224670D01*
X266806Y220042D01*
X268124Y220042D01*
G37*
%LPD*%
G36*
X264913Y219400D02*
X260255Y219400D01*
X260255Y225312D01*
X264741Y225312D01*
X264741Y224658D01*
X261056Y224658D01*
X261056Y222761D01*
X264489Y222761D01*
X264489Y222115D01*
X261056Y222115D01*
X261056Y220055D01*
X264913Y220055D01*
X264913Y219400D01*
G37*
G36*
X259294Y219400D02*
X255505Y219400D01*
X255505Y225312D01*
X256306Y225312D01*
X256306Y220055D01*
X259294Y220055D01*
X259294Y219400D01*
G37*
G36*
X249280Y233347D02*
X247182Y233347D01*
X247182Y234018D01*
X249280Y234018D01*
X249280Y233347D01*
G37*
G36*
X249616Y248155D02*
X248999Y248155D01*
X248999Y249951D01*
X247220Y249951D01*
X247220Y250564D01*
X248999Y250564D01*
X248999Y252360D01*
X249616Y252360D01*
X249616Y250564D01*
X251395Y250564D01*
X251395Y249951D01*
X249616Y249951D01*
X249616Y248155D01*
G37*
G36*
X318116Y219400D02*
X315905Y219400D01*
X315905Y225312D01*
X317860Y225312D01*
X318225Y225301D01*
X318569Y225265D01*
X318891Y225206D01*
X319191Y225124D01*
X319470Y225018D01*
X319728Y224889D01*
X319964Y224736D01*
X320179Y224559D01*
X320370Y224361D01*
X320536Y224143D01*
X320676Y223905D01*
X320791Y223647D01*
X320880Y223369D01*
X320944Y223072D01*
X320982Y222754D01*
X320995Y222417D01*
X320973Y221974D01*
X320906Y221559D01*
X320794Y221174D01*
X320638Y220816D01*
X320441Y220493D01*
X320207Y220210D01*
X319936Y219968D01*
X319627Y219765D01*
X319287Y219605D01*
X318922Y219491D01*
X318532Y219423D01*
X318116Y219400D01*
G37*
%LPC*%
G36*
X318024Y220042D02*
X318339Y220060D01*
X318635Y220113D01*
X318911Y220203D01*
X319167Y220327D01*
X319400Y220486D01*
X319603Y220676D01*
X319778Y220897D01*
X319925Y221150D01*
X320041Y221430D01*
X320123Y221735D01*
X320173Y222064D01*
X320189Y222417D01*
X320180Y222684D01*
X320152Y222934D01*
X320105Y223168D01*
X320039Y223386D01*
X319954Y223587D01*
X319851Y223772D01*
X319728Y223941D01*
X319587Y224093D01*
X319428Y224229D01*
X319252Y224346D01*
X319060Y224445D01*
X318850Y224526D01*
X318624Y224589D01*
X318381Y224634D01*
X318120Y224661D01*
X317844Y224670D01*
X316706Y224670D01*
X316706Y220042D01*
X318024Y220042D01*
G37*
%LPD*%
G36*
X314813Y219400D02*
X310155Y219400D01*
X310155Y225312D01*
X314641Y225312D01*
X314641Y224658D01*
X310956Y224658D01*
X310956Y222761D01*
X314389Y222761D01*
X314389Y222115D01*
X310956Y222115D01*
X310956Y220055D01*
X314813Y220055D01*
X314813Y219400D01*
G37*
G36*
X309194Y219400D02*
X305405Y219400D01*
X305405Y225312D01*
X306206Y225312D01*
X306206Y220055D01*
X309194Y220055D01*
X309194Y219400D01*
G37*
G36*
X299180Y233347D02*
X297082Y233347D01*
X297082Y234018D01*
X299180Y234018D01*
X299180Y233347D01*
G37*
G36*
X299516Y248155D02*
X298899Y248155D01*
X298899Y249951D01*
X297120Y249951D01*
X297120Y250564D01*
X298899Y250564D01*
X298899Y252360D01*
X299516Y252360D01*
X299516Y250564D01*
X301295Y250564D01*
X301295Y249951D01*
X299516Y249951D01*
X299516Y248155D01*
G37*
G36*
X370016Y219400D02*
X367805Y219400D01*
X367805Y225312D01*
X369760Y225312D01*
X370125Y225301D01*
X370469Y225265D01*
X370791Y225206D01*
X371091Y225124D01*
X371370Y225018D01*
X371628Y224889D01*
X371864Y224736D01*
X372079Y224559D01*
X372270Y224361D01*
X372436Y224143D01*
X372576Y223905D01*
X372691Y223647D01*
X372780Y223369D01*
X372844Y223072D01*
X372882Y222754D01*
X372895Y222417D01*
X372873Y221974D01*
X372806Y221559D01*
X372694Y221174D01*
X372538Y220816D01*
X372341Y220493D01*
X372107Y220210D01*
X371836Y219968D01*
X371527Y219765D01*
X371187Y219605D01*
X370822Y219491D01*
X370432Y219423D01*
X370016Y219400D01*
G37*
%LPC*%
G36*
X369924Y220042D02*
X370239Y220060D01*
X370535Y220113D01*
X370811Y220203D01*
X371067Y220327D01*
X371300Y220486D01*
X371503Y220676D01*
X371678Y220897D01*
X371825Y221150D01*
X371941Y221430D01*
X372023Y221735D01*
X372073Y222064D01*
X372089Y222417D01*
X372080Y222684D01*
X372052Y222934D01*
X372005Y223168D01*
X371939Y223386D01*
X371854Y223587D01*
X371751Y223772D01*
X371628Y223941D01*
X371487Y224093D01*
X371328Y224229D01*
X371152Y224346D01*
X370960Y224445D01*
X370750Y224526D01*
X370524Y224589D01*
X370281Y224634D01*
X370020Y224661D01*
X369744Y224670D01*
X368606Y224670D01*
X368606Y220042D01*
X369924Y220042D01*
G37*
%LPD*%
G36*
X366713Y219400D02*
X362055Y219400D01*
X362055Y225312D01*
X366541Y225312D01*
X366541Y224658D01*
X362856Y224658D01*
X362856Y222761D01*
X366289Y222761D01*
X366289Y222115D01*
X362856Y222115D01*
X362856Y220055D01*
X366713Y220055D01*
X366713Y219400D01*
G37*
G36*
X361094Y219400D02*
X357305Y219400D01*
X357305Y225312D01*
X358106Y225312D01*
X358106Y220055D01*
X361094Y220055D01*
X361094Y219400D01*
G37*
G36*
X351080Y233347D02*
X348982Y233347D01*
X348982Y234018D01*
X351080Y234018D01*
X351080Y233347D01*
G37*
G36*
X351416Y248155D02*
X350799Y248155D01*
X350799Y249951D01*
X349020Y249951D01*
X349020Y250564D01*
X350799Y250564D01*
X350799Y252360D01*
X351416Y252360D01*
X351416Y250564D01*
X353195Y250564D01*
X353195Y249951D01*
X351416Y249951D01*
X351416Y248155D01*
G37*
G36*
X321000Y43979D02*
X308659Y43979D01*
X308659Y49173D01*
X308674Y49677D01*
X308720Y50152D01*
X308796Y50598D01*
X308902Y51015D01*
X309039Y51402D01*
X309206Y51760D01*
X309404Y52088D01*
X309631Y52388D01*
X309887Y52654D01*
X310167Y52886D01*
X310473Y53081D01*
X310803Y53242D01*
X311158Y53366D01*
X311538Y53455D01*
X311943Y53508D01*
X312373Y53526D01*
X312800Y53508D01*
X313204Y53455D01*
X313586Y53365D01*
X313945Y53240D01*
X314282Y53080D01*
X314596Y52883D01*
X314888Y52651D01*
X315158Y52383D01*
X315400Y52085D01*
X315610Y51760D01*
X315788Y51411D01*
X315933Y51035D01*
X316046Y50635D01*
X316127Y50208D01*
X316175Y49756D01*
X316192Y49278D01*
X316192Y45652D01*
X321000Y45652D01*
X321000Y43979D01*
G37*
%LPC*%
G36*
X314869Y45652D02*
X314869Y49042D01*
X314859Y49381D01*
X314830Y49699D01*
X314782Y49994D01*
X314714Y50268D01*
X314627Y50520D01*
X314520Y50750D01*
X314395Y50958D01*
X314249Y51144D01*
X314085Y51308D01*
X313901Y51450D01*
X313697Y51571D01*
X313475Y51669D01*
X313233Y51746D01*
X312971Y51801D01*
X312691Y51834D01*
X312390Y51845D01*
X312101Y51833D01*
X311830Y51800D01*
X311578Y51744D01*
X311344Y51665D01*
X311129Y51564D01*
X310933Y51441D01*
X310756Y51295D01*
X310597Y51126D01*
X310457Y50936D01*
X310336Y50722D01*
X310233Y50487D01*
X310149Y50229D01*
X310083Y49948D01*
X310037Y49645D01*
X310009Y49320D01*
X309999Y48972D01*
X309999Y45652D01*
X314869Y45652D01*
G37*
%LPD*%
G36*
X318040Y31385D02*
X317716Y33005D01*
X317984Y33085D01*
X318235Y33185D01*
X318467Y33304D01*
X318680Y33443D01*
X318875Y33602D01*
X319052Y33780D01*
X319210Y33979D01*
X319349Y34196D01*
X319471Y34434D01*
X319577Y34693D01*
X319667Y34972D01*
X319740Y35272D01*
X319797Y35592D01*
X319838Y35932D01*
X319862Y36293D01*
X319870Y36675D01*
X319861Y37069D01*
X319835Y37439D01*
X319792Y37786D01*
X319731Y38110D01*
X319653Y38411D01*
X319557Y38689D01*
X319444Y38944D01*
X319314Y39176D01*
X319167Y39382D01*
X319003Y39561D01*
X318824Y39712D01*
X318628Y39836D01*
X318415Y39932D01*
X318187Y40001D01*
X317942Y40042D01*
X317681Y40056D01*
X317393Y40039D01*
X317133Y39987D01*
X316902Y39901D01*
X316700Y39780D01*
X316519Y39628D01*
X316356Y39448D01*
X316209Y39241D01*
X316078Y39005D01*
X315960Y38743D01*
X315852Y38457D01*
X315754Y38148D01*
X315666Y37814D01*
X315307Y36281D01*
X315145Y35594D01*
X314983Y34995D01*
X314821Y34484D01*
X314659Y34061D01*
X314492Y33702D01*
X314316Y33383D01*
X314131Y33104D01*
X313936Y32865D01*
X313729Y32659D01*
X313504Y32479D01*
X313262Y32324D01*
X313003Y32195D01*
X312726Y32094D01*
X312430Y32021D01*
X312113Y31978D01*
X311777Y31963D01*
X311392Y31982D01*
X311030Y32039D01*
X310691Y32134D01*
X310374Y32266D01*
X310080Y32437D01*
X309808Y32645D01*
X309560Y32892D01*
X309334Y33176D01*
X309132Y33496D01*
X308958Y33848D01*
X308811Y34233D01*
X308690Y34651D01*
X308596Y35101D01*
X308529Y35584D01*
X308489Y36100D01*
X308475Y36649D01*
X308485Y37159D01*
X308516Y37638D01*
X308566Y38086D01*
X308636Y38503D01*
X308727Y38890D01*
X308837Y39245D01*
X308968Y39570D01*
X309119Y39863D01*
X309294Y40131D01*
X309498Y40378D01*
X309729Y40604D01*
X309989Y40809D01*
X310278Y40994D01*
X310595Y41157D01*
X310940Y41300D01*
X311313Y41422D01*
X311602Y39776D01*
X311365Y39700D01*
X311145Y39609D01*
X310942Y39503D01*
X310756Y39382D01*
X310586Y39245D01*
X310434Y39092D01*
X310298Y38925D01*
X310179Y38742D01*
X310075Y38542D01*
X309985Y38324D01*
X309909Y38088D01*
X309847Y37833D01*
X309799Y37560D01*
X309764Y37269D01*
X309743Y36959D01*
X309737Y36631D01*
X309744Y36272D01*
X309767Y35935D01*
X309806Y35620D01*
X309859Y35326D01*
X309928Y35055D01*
X310012Y34805D01*
X310112Y34577D01*
X310227Y34372D01*
X310357Y34189D01*
X310502Y34031D01*
X310663Y33897D01*
X310838Y33787D01*
X311028Y33702D01*
X311234Y33641D01*
X311454Y33604D01*
X311690Y33592D01*
X311962Y33611D01*
X312210Y33668D01*
X312433Y33762D01*
X312631Y33894D01*
X312810Y34062D01*
X312975Y34263D01*
X313126Y34498D01*
X313262Y34766D01*
X313398Y35121D01*
X313550Y35618D01*
X313716Y36255D01*
X313897Y37034D01*
X314164Y38168D01*
X314313Y38721D01*
X314488Y39250D01*
X314693Y39750D01*
X314930Y40218D01*
X315064Y40436D01*
X315213Y40639D01*
X315375Y40828D01*
X315552Y41002D01*
X315744Y41159D01*
X315953Y41299D01*
X316178Y41420D01*
X316419Y41523D01*
X316680Y41605D01*
X316962Y41664D01*
X317267Y41700D01*
X317593Y41711D01*
X318008Y41690D01*
X318399Y41628D01*
X318766Y41523D01*
X319108Y41377D01*
X319427Y41190D01*
X319721Y40960D01*
X319992Y40689D01*
X320238Y40376D01*
X320458Y40025D01*
X320648Y39640D01*
X320809Y39220D01*
X320941Y38767D01*
X321043Y38280D01*
X321117Y37759D01*
X321161Y37203D01*
X321175Y36614D01*
X321163Y36065D01*
X321126Y35545D01*
X321065Y35056D01*
X320979Y34596D01*
X320869Y34165D01*
X320734Y33764D01*
X320575Y33393D01*
X320391Y33051D01*
X320183Y32739D01*
X319950Y32457D01*
X319693Y32204D01*
X319411Y31981D01*
X319105Y31788D01*
X318775Y31624D01*
X318419Y31490D01*
X318040Y31385D01*
G37*
G36*
X321000Y55948D02*
X308659Y55948D01*
X308659Y57621D01*
X314843Y57621D01*
X308659Y63568D01*
X308659Y65539D01*
X314019Y60284D01*
X321000Y66239D01*
X321000Y64164D01*
X315044Y59233D01*
X316270Y57621D01*
X321000Y57621D01*
X321000Y55948D01*
G37*
G36*
X454002Y262625D02*
X453630Y262633D01*
X453269Y262659D01*
X452920Y262702D01*
X452584Y262763D01*
X452259Y262840D01*
X451946Y262935D01*
X451646Y263047D01*
X451357Y263177D01*
X451083Y263322D01*
X450824Y263484D01*
X450581Y263661D01*
X450355Y263853D01*
X450144Y264061D01*
X449948Y264285D01*
X449769Y264524D01*
X449606Y264779D01*
X449460Y265048D01*
X449334Y265330D01*
X449227Y265624D01*
X449139Y265931D01*
X449071Y266251D01*
X449023Y266583D01*
X448994Y266927D01*
X448984Y267284D01*
X448984Y275141D01*
X450657Y275141D01*
X450657Y267425D01*
X450670Y267015D01*
X450710Y266630D01*
X450777Y266271D01*
X450871Y265938D01*
X450992Y265630D01*
X451140Y265347D01*
X451314Y265090D01*
X451515Y264858D01*
X451742Y264653D01*
X451992Y264475D01*
X452266Y264325D01*
X452564Y264201D01*
X452886Y264106D01*
X453231Y264037D01*
X453601Y263996D01*
X453994Y263982D01*
X454398Y263997D01*
X454780Y264039D01*
X455138Y264110D01*
X455473Y264209D01*
X455785Y264337D01*
X456074Y264492D01*
X456339Y264676D01*
X456582Y264889D01*
X456798Y265129D01*
X456986Y265394D01*
X457145Y265686D01*
X457275Y266005D01*
X457376Y266349D01*
X457448Y266719D01*
X457491Y267116D01*
X457506Y267538D01*
X457506Y275141D01*
X459170Y275141D01*
X459170Y267442D01*
X459160Y267074D01*
X459130Y266719D01*
X459081Y266377D01*
X459011Y266047D01*
X458922Y265731D01*
X458813Y265427D01*
X458684Y265136D01*
X458535Y264858D01*
X458368Y264595D01*
X458185Y264347D01*
X457985Y264116D01*
X457769Y263900D01*
X457536Y263701D01*
X457287Y263517D01*
X457021Y263350D01*
X456740Y263199D01*
X456443Y263064D01*
X456133Y262948D01*
X455811Y262849D01*
X455475Y262768D01*
X455126Y262706D01*
X454765Y262661D01*
X454390Y262634D01*
X454002Y262625D01*
G37*
G36*
X469611Y262800D02*
X461440Y262800D01*
X461440Y263912D01*
X461675Y264410D01*
X461936Y264877D01*
X462221Y265314D01*
X462530Y265721D01*
X462856Y266104D01*
X463190Y266468D01*
X463533Y266813D01*
X463883Y267140D01*
X464589Y267752D01*
X465289Y268318D01*
X465951Y268861D01*
X466546Y269404D01*
X466813Y269679D01*
X467053Y269960D01*
X467266Y270248D01*
X467452Y270543D01*
X467604Y270850D01*
X467712Y271178D01*
X467777Y271525D01*
X467798Y271891D01*
X467789Y272138D01*
X467761Y272371D01*
X467715Y272589D01*
X467649Y272793D01*
X467566Y272983D01*
X467463Y273159D01*
X467342Y273321D01*
X467203Y273468D01*
X467047Y273599D01*
X466876Y273713D01*
X466691Y273809D01*
X466491Y273888D01*
X466277Y273950D01*
X466048Y273993D01*
X465805Y274020D01*
X465547Y274028D01*
X465301Y274020D01*
X465066Y273994D01*
X464842Y273951D01*
X464629Y273892D01*
X464427Y273815D01*
X464236Y273721D01*
X464056Y273609D01*
X463888Y273481D01*
X463733Y273337D01*
X463595Y273180D01*
X463474Y273008D01*
X463370Y272823D01*
X463282Y272624D01*
X463212Y272411D01*
X463158Y272184D01*
X463121Y271944D01*
X461510Y272093D01*
X461568Y272453D01*
X461654Y272795D01*
X461769Y273118D01*
X461911Y273422D01*
X462083Y273707D01*
X462282Y273973D01*
X462510Y274220D01*
X462767Y274449D01*
X463047Y274654D01*
X463346Y274832D01*
X463665Y274983D01*
X464003Y275106D01*
X464360Y275202D01*
X464736Y275270D01*
X465132Y275311D01*
X465547Y275325D01*
X466000Y275311D01*
X466426Y275270D01*
X466825Y275201D01*
X467197Y275105D01*
X467542Y274981D01*
X467860Y274830D01*
X468152Y274651D01*
X468416Y274444D01*
X468651Y274213D01*
X468855Y273958D01*
X469027Y273680D01*
X469168Y273379D01*
X469278Y273055D01*
X469356Y272708D01*
X469403Y272337D01*
X469419Y271944D01*
X469398Y271585D01*
X469337Y271228D01*
X469234Y270872D01*
X469090Y270516D01*
X468906Y270162D01*
X468682Y269807D01*
X468418Y269452D01*
X468114Y269097D01*
X467716Y268694D01*
X467170Y268193D01*
X466476Y267595D01*
X465635Y266899D01*
X465157Y266497D01*
X464731Y266116D01*
X464356Y265755D01*
X464032Y265414D01*
X463755Y265087D01*
X463520Y264765D01*
X463326Y264450D01*
X463174Y264140D01*
X469611Y264140D01*
X469611Y262800D01*
G37*
G36*
X392900Y127271D02*
X380559Y127271D01*
X380559Y133078D01*
X380574Y133585D01*
X380618Y134061D01*
X380690Y134508D01*
X380792Y134925D01*
X380924Y135313D01*
X381084Y135671D01*
X381273Y135999D01*
X381492Y136297D01*
X381737Y136563D01*
X382004Y136793D01*
X382294Y136988D01*
X382608Y137148D01*
X382944Y137272D01*
X383303Y137360D01*
X383684Y137414D01*
X384089Y137431D01*
X384426Y137419D01*
X384749Y137381D01*
X385059Y137319D01*
X385355Y137231D01*
X385637Y137118D01*
X385905Y136981D01*
X386160Y136818D01*
X386401Y136630D01*
X386625Y136420D01*
X386827Y136191D01*
X387007Y135943D01*
X387073Y135832D01*
X387165Y135676D01*
X387302Y135390D01*
X387418Y135085D01*
X387511Y134761D01*
X387584Y134418D01*
X389847Y135910D01*
X392900Y137922D01*
X392900Y135995D01*
X387776Y132789D01*
X387776Y128944D01*
X392900Y128944D01*
X392900Y127271D01*
G37*
%LPC*%
G36*
X386454Y128944D02*
X386454Y132982D01*
X386444Y133303D01*
X386415Y133606D01*
X386367Y133890D01*
X386299Y134155D01*
X386213Y134401D01*
X386106Y134628D01*
X385981Y134837D01*
X385836Y135027D01*
X385674Y135196D01*
X385497Y135343D01*
X385304Y135467D01*
X385095Y135569D01*
X384871Y135648D01*
X384632Y135705D01*
X384377Y135738D01*
X384106Y135750D01*
X383845Y135738D01*
X383600Y135704D01*
X383371Y135647D01*
X383157Y135567D01*
X382960Y135464D01*
X382779Y135338D01*
X382613Y135190D01*
X382464Y135018D01*
X382332Y134825D01*
X382217Y134612D01*
X382120Y134379D01*
X382041Y134126D01*
X381979Y133853D01*
X381935Y133559D01*
X381908Y133246D01*
X381899Y132912D01*
X381899Y128944D01*
X386454Y128944D01*
G37*
%LPD*%
G36*
X392900Y140209D02*
X380559Y140209D01*
X380559Y149572D01*
X381926Y149572D01*
X381926Y141882D01*
X385884Y141882D01*
X385884Y149046D01*
X387233Y149046D01*
X387233Y141882D01*
X391534Y141882D01*
X391534Y149931D01*
X392900Y149931D01*
X392900Y140209D01*
G37*
G36*
X389940Y151521D02*
X389616Y153141D01*
X389884Y153221D01*
X390135Y153321D01*
X390367Y153440D01*
X390580Y153579D01*
X390775Y153738D01*
X390952Y153916D01*
X391110Y154114D01*
X391249Y154332D01*
X391371Y154570D01*
X391477Y154829D01*
X391567Y155108D01*
X391640Y155407D01*
X391697Y155727D01*
X391738Y156068D01*
X391762Y156429D01*
X391770Y156811D01*
X391761Y157204D01*
X391735Y157575D01*
X391692Y157922D01*
X391631Y158246D01*
X391553Y158547D01*
X391457Y158825D01*
X391344Y159080D01*
X391214Y159312D01*
X391067Y159518D01*
X390903Y159697D01*
X390724Y159848D01*
X390528Y159972D01*
X390315Y160068D01*
X390087Y160137D01*
X389842Y160178D01*
X389581Y160192D01*
X389293Y160175D01*
X389033Y160123D01*
X388802Y160037D01*
X388600Y159916D01*
X388419Y159764D01*
X388256Y159584D01*
X388109Y159376D01*
X387978Y159141D01*
X387860Y158879D01*
X387752Y158593D01*
X387654Y158283D01*
X387566Y157950D01*
X387207Y156417D01*
X387045Y155730D01*
X386883Y155130D01*
X386721Y154619D01*
X386559Y154197D01*
X386392Y153838D01*
X386216Y153519D01*
X386031Y153240D01*
X385836Y153001D01*
X385629Y152795D01*
X385404Y152615D01*
X385162Y152460D01*
X384903Y152331D01*
X384626Y152229D01*
X384330Y152157D01*
X384013Y152113D01*
X383677Y152099D01*
X383292Y152118D01*
X382930Y152175D01*
X382591Y152269D01*
X382274Y152402D01*
X381980Y152573D01*
X381708Y152781D01*
X381460Y153028D01*
X381234Y153312D01*
X381032Y153632D01*
X380858Y153984D01*
X380711Y154369D01*
X380590Y154787D01*
X380496Y155237D01*
X380429Y155720D01*
X380389Y156236D01*
X380375Y156785D01*
X380385Y157295D01*
X380416Y157774D01*
X380466Y158222D01*
X380536Y158639D01*
X380627Y159026D01*
X380737Y159381D01*
X380868Y159706D01*
X381019Y159999D01*
X381194Y160267D01*
X381398Y160514D01*
X381629Y160740D01*
X381889Y160945D01*
X382178Y161129D01*
X382495Y161293D01*
X382840Y161436D01*
X383213Y161558D01*
X383502Y159911D01*
X383265Y159836D01*
X383045Y159745D01*
X382842Y159639D01*
X382656Y159517D01*
X382486Y159380D01*
X382334Y159228D01*
X382198Y159061D01*
X382079Y158878D01*
X381975Y158678D01*
X381885Y158460D01*
X381809Y158224D01*
X381747Y157969D01*
X381699Y157696D01*
X381664Y157405D01*
X381643Y157095D01*
X381637Y156767D01*
X381644Y156408D01*
X381667Y156071D01*
X381706Y155756D01*
X381759Y155462D01*
X381828Y155191D01*
X381912Y154941D01*
X382012Y154713D01*
X382127Y154507D01*
X382257Y154325D01*
X382402Y154166D01*
X382563Y154032D01*
X382738Y153923D01*
X382928Y153838D01*
X383134Y153777D01*
X383354Y153740D01*
X383590Y153728D01*
X383862Y153747D01*
X384110Y153803D01*
X384333Y153898D01*
X384531Y154030D01*
X384710Y154198D01*
X384875Y154399D01*
X385026Y154634D01*
X385162Y154902D01*
X385298Y155257D01*
X385450Y155753D01*
X385616Y156391D01*
X385797Y157170D01*
X386064Y158304D01*
X386213Y158857D01*
X386388Y159386D01*
X386593Y159886D01*
X386830Y160354D01*
X386964Y160572D01*
X387113Y160775D01*
X387275Y160964D01*
X387452Y161138D01*
X387644Y161295D01*
X387853Y161434D01*
X388078Y161556D01*
X388319Y161659D01*
X388580Y161741D01*
X388862Y161800D01*
X389167Y161835D01*
X389493Y161847D01*
X389908Y161826D01*
X390299Y161764D01*
X390666Y161659D01*
X391008Y161513D01*
X391327Y161325D01*
X391621Y161096D01*
X391892Y160824D01*
X392138Y160511D01*
X392358Y160160D01*
X392548Y159775D01*
X392709Y159356D01*
X392841Y158903D01*
X392943Y158416D01*
X393017Y157895D01*
X393061Y157339D01*
X393075Y156750D01*
X393063Y156201D01*
X393026Y155681D01*
X392965Y155191D01*
X392879Y154731D01*
X392769Y154301D01*
X392634Y153900D01*
X392475Y153529D01*
X392291Y153187D01*
X392083Y152875D01*
X391850Y152593D01*
X391593Y152340D01*
X391311Y152117D01*
X391005Y151923D01*
X390675Y151760D01*
X390319Y151625D01*
X389940Y151521D01*
G37*
G36*
X316217Y112269D02*
X303877Y112355D01*
X303917Y118161D01*
X303935Y118668D01*
X303982Y119144D01*
X304058Y119590D01*
X304163Y120007D01*
X304297Y120393D01*
X304460Y120750D01*
X304652Y121077D01*
X304873Y121374D01*
X305119Y121638D01*
X305388Y121866D01*
X305680Y122059D01*
X305994Y122217D01*
X306331Y122338D01*
X306690Y122424D01*
X307073Y122475D01*
X307477Y122490D01*
X307814Y122475D01*
X308137Y122435D01*
X308446Y122370D01*
X308741Y122281D01*
X309023Y122166D01*
X309290Y122026D01*
X309544Y121862D01*
X309784Y121672D01*
X310006Y121461D01*
X310206Y121230D01*
X310385Y120981D01*
X310450Y120870D01*
X310541Y120713D01*
X310676Y120426D01*
X310790Y120121D01*
X310881Y119796D01*
X310951Y119452D01*
X313224Y120928D01*
X316292Y122919D01*
X316278Y120992D01*
X311132Y117822D01*
X311105Y113977D01*
X316229Y113941D01*
X316217Y112269D01*
G37*
%LPC*%
G36*
X309783Y113986D02*
X309811Y118024D01*
X309804Y118345D01*
X309777Y118648D01*
X309731Y118932D01*
X309665Y119198D01*
X309580Y119444D01*
X309475Y119673D01*
X309351Y119882D01*
X309208Y120073D01*
X309047Y120244D01*
X308870Y120392D01*
X308678Y120517D01*
X308470Y120620D01*
X308247Y120701D01*
X308008Y120759D01*
X307753Y120795D01*
X307483Y120808D01*
X307222Y120798D01*
X306976Y120766D01*
X306746Y120710D01*
X306533Y120632D01*
X306335Y120530D01*
X306152Y120406D01*
X305986Y120258D01*
X305836Y120088D01*
X305702Y119896D01*
X305586Y119684D01*
X305487Y119452D01*
X305406Y119199D01*
X305342Y118926D01*
X305296Y118633D01*
X305267Y118319D01*
X305256Y117986D01*
X305228Y114018D01*
X309783Y113986D01*
G37*
%LPD*%
G36*
X316308Y125206D02*
X303967Y125292D01*
X304032Y134655D01*
X305399Y134645D01*
X305345Y126955D01*
X309304Y126928D01*
X309354Y134092D01*
X310703Y134082D01*
X310653Y126918D01*
X314953Y126888D01*
X315009Y134937D01*
X316375Y134927D01*
X316308Y125206D01*
G37*
G36*
X313426Y136538D02*
X313113Y138161D01*
X313383Y138239D01*
X313634Y138336D01*
X313867Y138454D01*
X314081Y138592D01*
X314277Y138749D01*
X314455Y138926D01*
X314614Y139123D01*
X314755Y139340D01*
X314879Y139577D01*
X314987Y139835D01*
X315078Y140114D01*
X315154Y140413D01*
X315213Y140732D01*
X315256Y141073D01*
X315283Y141434D01*
X315294Y141815D01*
X315288Y142209D01*
X315264Y142579D01*
X315223Y142927D01*
X315165Y143251D01*
X315089Y143553D01*
X314995Y143832D01*
X314884Y144087D01*
X314755Y144320D01*
X314609Y144527D01*
X314447Y144707D01*
X314268Y144859D01*
X314073Y144985D01*
X313861Y145082D01*
X313633Y145153D01*
X313389Y145196D01*
X313128Y145211D01*
X312840Y145196D01*
X312580Y145146D01*
X312348Y145061D01*
X312145Y144942D01*
X311964Y144792D01*
X311799Y144613D01*
X311650Y144406D01*
X311518Y144171D01*
X311398Y143911D01*
X311288Y143626D01*
X311188Y143316D01*
X311098Y142983D01*
X310728Y141453D01*
X310561Y140767D01*
X310395Y140169D01*
X310229Y139659D01*
X310064Y139237D01*
X309895Y138880D01*
X309717Y138562D01*
X309530Y138284D01*
X309333Y138047D01*
X309124Y137842D01*
X308898Y137663D01*
X308655Y137510D01*
X308396Y137383D01*
X308118Y137284D01*
X307821Y137213D01*
X307504Y137172D01*
X307168Y137160D01*
X306783Y137181D01*
X306421Y137241D01*
X306083Y137338D01*
X305767Y137473D01*
X305474Y137645D01*
X305204Y137856D01*
X304957Y138104D01*
X304733Y138390D01*
X304534Y138711D01*
X304362Y139064D01*
X304217Y139450D01*
X304100Y139869D01*
X304009Y140320D01*
X303945Y140804D01*
X303908Y141320D01*
X303899Y141868D01*
X303912Y142378D01*
X303946Y142857D01*
X303999Y143305D01*
X304073Y143722D01*
X304166Y144108D01*
X304279Y144462D01*
X304412Y144786D01*
X304565Y145078D01*
X304742Y145345D01*
X304947Y145590D01*
X305181Y145815D01*
X305442Y146018D01*
X305732Y146201D01*
X306050Y146362D01*
X306396Y146503D01*
X306770Y146622D01*
X307047Y144973D01*
X306810Y144900D01*
X306589Y144810D01*
X306386Y144705D01*
X306198Y144585D01*
X306028Y144449D01*
X305874Y144298D01*
X305737Y144132D01*
X305617Y143950D01*
X305512Y143751D01*
X305421Y143534D01*
X305343Y143298D01*
X305279Y143043D01*
X305229Y142771D01*
X305192Y142480D01*
X305169Y142170D01*
X305160Y141842D01*
X305165Y141483D01*
X305186Y141146D01*
X305222Y140830D01*
X305273Y140536D01*
X305341Y140264D01*
X305423Y140014D01*
X305521Y139786D01*
X305635Y139579D01*
X305764Y139395D01*
X305908Y139236D01*
X306067Y139101D01*
X306241Y138990D01*
X306431Y138904D01*
X306636Y138841D01*
X306856Y138803D01*
X307092Y138789D01*
X307364Y138806D01*
X307612Y138861D01*
X307836Y138954D01*
X308035Y139085D01*
X308216Y139252D01*
X308382Y139452D01*
X308534Y139685D01*
X308672Y139952D01*
X308811Y140306D01*
X308966Y140802D01*
X309137Y141438D01*
X309323Y142216D01*
X309598Y143348D01*
X309751Y143900D01*
X309930Y144428D01*
X310138Y144927D01*
X310379Y145392D01*
X310514Y145610D01*
X310664Y145812D01*
X310828Y145999D01*
X311006Y146172D01*
X311199Y146328D01*
X311409Y146466D01*
X311635Y146586D01*
X311877Y146687D01*
X312138Y146768D01*
X312421Y146824D01*
X312725Y146858D01*
X313052Y146867D01*
X313466Y146843D01*
X313857Y146778D01*
X314223Y146671D01*
X314564Y146523D01*
X314882Y146333D01*
X315175Y146101D01*
X315443Y145828D01*
X315687Y145513D01*
X315905Y145161D01*
X316092Y144774D01*
X316250Y144354D01*
X316379Y143900D01*
X316478Y143412D01*
X316548Y142890D01*
X316588Y142334D01*
X316598Y141745D01*
X316582Y141196D01*
X316542Y140677D01*
X316477Y140187D01*
X316388Y139728D01*
X316275Y139298D01*
X316137Y138898D01*
X315976Y138528D01*
X315789Y138188D01*
X315579Y137877D01*
X315344Y137597D01*
X315085Y137346D01*
X314802Y137124D01*
X314495Y136933D01*
X314163Y136772D01*
X313807Y136640D01*
X313426Y136538D01*
G37*
D10*
X57600Y293200D02*
X57600Y473200D01*
X489600Y473200D01*
X489600Y293200D01*
X57600Y293200D01*
D11*
X94800Y285700D02*
X94802Y285763D01*
X94808Y285825D01*
X94818Y285887D01*
X94831Y285949D01*
X94849Y286009D01*
X94870Y286068D01*
X94895Y286126D01*
X94924Y286182D01*
X94956Y286236D01*
X94991Y286288D01*
X95029Y286337D01*
X95071Y286385D01*
X95115Y286429D01*
X95163Y286471D01*
X95212Y286509D01*
X95264Y286544D01*
X95318Y286576D01*
X95374Y286605D01*
X95432Y286630D01*
X95491Y286651D01*
X95551Y286669D01*
X95613Y286682D01*
X95675Y286692D01*
X95737Y286698D01*
X95800Y286700D01*
X95863Y286698D01*
X95925Y286692D01*
X95987Y286682D01*
X96049Y286669D01*
X96109Y286651D01*
X96168Y286630D01*
X96226Y286605D01*
X96282Y286576D01*
X96336Y286544D01*
X96388Y286509D01*
X96437Y286471D01*
X96485Y286429D01*
X96529Y286385D01*
X96571Y286337D01*
X96609Y286288D01*
X96644Y286236D01*
X96676Y286182D01*
X96705Y286126D01*
X96730Y286068D01*
X96751Y286009D01*
X96769Y285949D01*
X96782Y285887D01*
X96792Y285825D01*
X96798Y285763D01*
X96800Y285700D01*
X96798Y285637D01*
X96792Y285575D01*
X96782Y285513D01*
X96769Y285451D01*
X96751Y285391D01*
X96730Y285332D01*
X96705Y285274D01*
X96676Y285218D01*
X96644Y285164D01*
X96609Y285112D01*
X96571Y285063D01*
X96529Y285015D01*
X96485Y284971D01*
X96437Y284929D01*
X96388Y284891D01*
X96336Y284856D01*
X96282Y284824D01*
X96226Y284795D01*
X96168Y284770D01*
X96109Y284749D01*
X96049Y284731D01*
X95987Y284718D01*
X95925Y284708D01*
X95863Y284702D01*
X95800Y284700D01*
X95737Y284702D01*
X95675Y284708D01*
X95613Y284718D01*
X95551Y284731D01*
X95491Y284749D01*
X95432Y284770D01*
X95374Y284795D01*
X95318Y284824D01*
X95264Y284856D01*
X95212Y284891D01*
X95163Y284929D01*
X95115Y284971D01*
X95071Y285015D01*
X95029Y285063D01*
X94991Y285112D01*
X94956Y285164D01*
X94924Y285218D01*
X94895Y285274D01*
X94870Y285332D01*
X94849Y285391D01*
X94831Y285451D01*
X94818Y285513D01*
X94808Y285575D01*
X94802Y285637D01*
X94800Y285700D01*
D10*
X47200Y189000D02*
X47200Y65000D01*
X47200Y189000D02*
X234200Y189000D01*
X234200Y65000D01*
X47200Y65000D01*
X625200Y375500D02*
X639200Y375500D01*
X625200Y375500D02*
X625200Y431500D01*
X639200Y431500D01*
X639200Y375500D01*
X628600Y326700D02*
X628600Y298700D01*
X628600Y326700D02*
X642600Y326700D01*
X642600Y298700D01*
X628600Y298700D01*
X109100Y257400D02*
X109100Y227400D01*
X109100Y257400D02*
X125100Y257400D01*
X125100Y227400D01*
X109100Y227400D01*
X155000Y227400D02*
X155000Y257400D01*
X171000Y257400D01*
X171000Y227400D01*
X155000Y227400D01*
X204900Y227400D02*
X204900Y257400D01*
X220900Y257400D01*
X220900Y227400D01*
X204900Y227400D01*
X254800Y227400D02*
X254800Y257400D01*
X270800Y257400D01*
X270800Y227400D01*
X254800Y227400D01*
X304700Y227400D02*
X304700Y257400D01*
X320700Y257400D01*
X320700Y227400D01*
X304700Y227400D01*
X356600Y227400D02*
X356600Y257400D01*
X372600Y257400D01*
X372600Y227400D01*
X356600Y227400D01*
X343300Y71462D02*
X343300Y23962D01*
X363300Y23962D01*
X363300Y71462D01*
X343300Y71462D01*
X363300Y71462D02*
X375800Y83962D01*
X375800Y11462D01*
X363300Y23962D01*
X450000Y55200D02*
X450000Y258400D01*
X653200Y258400D01*
X653200Y55200D01*
X450000Y55200D01*
D11*
X442600Y245700D02*
X442602Y245763D01*
X442608Y245825D01*
X442618Y245887D01*
X442631Y245949D01*
X442649Y246009D01*
X442670Y246068D01*
X442695Y246126D01*
X442724Y246182D01*
X442756Y246236D01*
X442791Y246288D01*
X442829Y246337D01*
X442871Y246385D01*
X442915Y246429D01*
X442963Y246471D01*
X443012Y246509D01*
X443064Y246544D01*
X443118Y246576D01*
X443174Y246605D01*
X443232Y246630D01*
X443291Y246651D01*
X443351Y246669D01*
X443413Y246682D01*
X443475Y246692D01*
X443537Y246698D01*
X443600Y246700D01*
X443663Y246698D01*
X443725Y246692D01*
X443787Y246682D01*
X443849Y246669D01*
X443909Y246651D01*
X443968Y246630D01*
X444026Y246605D01*
X444082Y246576D01*
X444136Y246544D01*
X444188Y246509D01*
X444237Y246471D01*
X444285Y246429D01*
X444329Y246385D01*
X444371Y246337D01*
X444409Y246288D01*
X444444Y246236D01*
X444476Y246182D01*
X444505Y246126D01*
X444530Y246068D01*
X444551Y246009D01*
X444569Y245949D01*
X444582Y245887D01*
X444592Y245825D01*
X444598Y245763D01*
X444600Y245700D01*
X444598Y245637D01*
X444592Y245575D01*
X444582Y245513D01*
X444569Y245451D01*
X444551Y245391D01*
X444530Y245332D01*
X444505Y245274D01*
X444476Y245218D01*
X444444Y245164D01*
X444409Y245112D01*
X444371Y245063D01*
X444329Y245015D01*
X444285Y244971D01*
X444237Y244929D01*
X444188Y244891D01*
X444136Y244856D01*
X444082Y244824D01*
X444026Y244795D01*
X443968Y244770D01*
X443909Y244749D01*
X443849Y244731D01*
X443787Y244718D01*
X443725Y244708D01*
X443663Y244702D01*
X443600Y244700D01*
X443537Y244702D01*
X443475Y244708D01*
X443413Y244718D01*
X443351Y244731D01*
X443291Y244749D01*
X443232Y244770D01*
X443174Y244795D01*
X443118Y244824D01*
X443064Y244856D01*
X443012Y244891D01*
X442963Y244929D01*
X442915Y244971D01*
X442871Y245015D01*
X442829Y245063D01*
X442791Y245112D01*
X442756Y245164D01*
X442724Y245218D01*
X442695Y245274D01*
X442670Y245332D01*
X442649Y245391D01*
X442631Y245451D01*
X442618Y245513D01*
X442608Y245575D01*
X442602Y245637D01*
X442600Y245700D01*
D10*
X397900Y196800D02*
X397900Y77800D01*
X397900Y196800D02*
X416900Y196800D01*
X416900Y77800D01*
X397900Y77800D01*
X298269Y76803D02*
X299100Y195800D01*
X298269Y76803D02*
X279270Y76936D01*
X280100Y195933D01*
X299100Y195800D01*
M02*
