G04 EAGLE Gerber RS-274X export*
G75*
%MOMM*%
%FSLAX34Y34*%
%LPD*%
%INSoldermask Top*%
%IPPOS*%
%AMOC8*
5,1,8,0,0,1.08239X$1,22.5*%
G01*
G04 Define Apertures*
%ADD10R,2.003200X2.003200*%
%ADD11C,2.003200*%
%ADD12C,1.361200*%
%ADD13C,1.311200*%
%ADD14C,1.511200*%
%ADD15R,1.511200X1.511200*%
%ADD16C,0.959600*%
D10*
X95800Y307000D03*
D11*
X121200Y307000D03*
X146600Y307000D03*
X172000Y307000D03*
X197400Y307000D03*
X222800Y307000D03*
X248200Y307000D03*
X273600Y307000D03*
X299000Y307000D03*
X324400Y307000D03*
X349800Y307000D03*
X375200Y307000D03*
X400600Y307000D03*
X426000Y307000D03*
X451400Y307000D03*
X451400Y459400D03*
X426000Y459400D03*
X400600Y459400D03*
X375200Y459400D03*
X349800Y459400D03*
X324400Y459400D03*
X299000Y459400D03*
X273600Y459400D03*
X248200Y459400D03*
X222800Y459400D03*
X197400Y459400D03*
X172000Y459400D03*
X146600Y459400D03*
X121200Y459400D03*
X95800Y459400D03*
D12*
X61200Y76000D03*
X61200Y179000D03*
X219200Y178000D03*
X219200Y76000D03*
D13*
X632200Y382500D03*
X632200Y396500D03*
X632200Y410500D03*
X632200Y424500D03*
X635600Y305700D03*
X635600Y319700D03*
X117100Y249400D03*
X117100Y235400D03*
X163000Y249400D03*
X163000Y235400D03*
X212900Y249400D03*
X212900Y235400D03*
X262800Y249400D03*
X262800Y235400D03*
X312700Y249400D03*
X312700Y235400D03*
X364600Y249400D03*
X364600Y235400D03*
X353300Y61462D03*
X353300Y36462D03*
D14*
X461430Y169500D03*
X461430Y144100D03*
X641770Y169500D03*
X641770Y144100D03*
X461430Y118700D03*
X461430Y194900D03*
X641770Y194900D03*
X641770Y118700D03*
X461430Y220300D03*
X641770Y220300D03*
X461430Y93300D03*
X641770Y93300D03*
D15*
X461430Y245700D03*
D14*
X641770Y245700D03*
X461430Y67900D03*
X641770Y67900D03*
D13*
X407900Y84800D03*
X407900Y188800D03*
X289051Y188870D03*
X288325Y84873D03*
D16*
X358000Y94000D03*
X432000Y392000D03*
X302000Y62000D03*
X356000Y114000D03*
M02*
