M48
;GenerationSoftware,Autodesk,EAGLE,9.7.0*%
;CreationDate,2026-04-15T00:33:13Z*%
FMAT,2
ICI,OFF
METRIC,TZ,000.000
T5C0.350
T4C0.600
T3C0.650
T2C0.800
T1C0.900
%
G90
M71
T1
X22280Y30700
X17200Y45940
X14660Y45940
X12120Y45940
X9580Y30700
X12120Y30700
X14660Y30700
X17200Y30700
X19740Y30700
X45140Y30700
X24820Y30700
X27360Y30700
X29900Y30700
X32440Y30700
X34980Y30700
X37520Y30700
X40060Y30700
X42600Y30700
X9580Y45940
X45140Y45940
X42600Y45940
X40060Y45940
X37520Y45940
X34980Y45940
X32440Y45940
X29900Y45940
X27360Y45940
X24820Y45940
X22280Y45940
X19740Y45940
T2
X64177Y19490
X64177Y11870
X46143Y22030
X64177Y22030
X64177Y9330
X46143Y24570
X64177Y24570
X46143Y6790
X64177Y6790
X46143Y9330
X46143Y16950
X46143Y14410
X64177Y16950
X64177Y14410
X46143Y11870
X46143Y19490
T3
X6120Y7600
X6120Y17900
X21920Y17800
X21920Y7600
T4
X63220Y38250
X36460Y23540
X35330Y6146
X35330Y3646
X63220Y41050
X63220Y42450
X63560Y30570
X63560Y31970
X11710Y24940
X11710Y23540
X16300Y24940
X16300Y23540
X21290Y24940
X21290Y23540
X63220Y39650
X26280Y24940
X26280Y23540
X31270Y24940
X31270Y23540
X36460Y24940
X40790Y8480
X40790Y18880
X28905Y18887
X28833Y8487
T5
X43200Y39200
X30200Y6200
X35600Y11400
X35800Y9400
M30