ISO-10303-21;
HEADER;
/* Generated by software containing ST-Developer
 * from STEP Tools, Inc. (www.steptools.com) 
 */

FILE_DESCRIPTION(
/* description */ (''),
/* implementation_level */ '2;1');

FILE_NAME(
/* name */ 'Enclosure_Top.step',
/* time_stamp */ '2026-04-08T18:44:42-04:00',
/* author */ (''),
/* organization */ (''),
/* preprocessor_version */ 'ST-DEVELOPER v20.1',
/* originating_system */ 'Autodesk Translation Framework v14.24.0.0',
/* authorisation */ '');

FILE_SCHEMA (('AUTOMOTIVE_DESIGN { 1 0 10303 214 3 1 1 }'));
ENDSEC;

DATA;
#10=MECHANICAL_DESIGN_GEOMETRIC_PRESENTATION_REPRESENTATION('',(#13),#1405);
#11=SHAPE_REPRESENTATION_RELATIONSHIP('SRR','None',#1415,#12);
#12=ADVANCED_BREP_SHAPE_REPRESENTATION('',(#14),#1404);
#13=STYLED_ITEM('',(#1424),#14);
#14=MANIFOLD_SOLID_BREP('Body9',#809);
#15=FACE_BOUND('',#128,.T.);
#16=FACE_BOUND('',#129,.T.);
#17=FACE_BOUND('',#132,.T.);
#18=FACE_BOUND('',#133,.T.);
#19=FACE_BOUND('',#136,.T.);
#20=FACE_BOUND('',#139,.T.);
#21=FACE_BOUND('',#142,.T.);
#22=FACE_BOUND('',#143,.T.);
#23=FACE_BOUND('',#146,.T.);
#24=FACE_BOUND('',#147,.T.);
#25=FACE_BOUND('',#150,.T.);
#26=FACE_BOUND('',#151,.T.);
#27=FACE_BOUND('',#154,.T.);
#28=FACE_BOUND('',#157,.T.);
#29=FACE_BOUND('',#160,.T.);
#30=FACE_BOUND('',#161,.T.);
#31=FACE_BOUND('',#164,.T.);
#32=FACE_BOUND('',#165,.T.);
#33=FACE_BOUND('',#166,.T.);
#34=FACE_BOUND('',#167,.T.);
#35=FACE_BOUND('',#168,.T.);
#36=FACE_BOUND('',#169,.T.);
#37=FACE_BOUND('',#170,.T.);
#38=FACE_BOUND('',#171,.T.);
#39=FACE_BOUND('',#172,.T.);
#40=FACE_BOUND('',#173,.T.);
#41=FACE_BOUND('',#174,.T.);
#42=FACE_BOUND('',#175,.T.);
#43=FACE_BOUND('',#198,.T.);
#44=FACE_BOUND('',#199,.T.);
#45=FACE_BOUND('',#200,.T.);
#46=FACE_BOUND('',#201,.T.);
#47=FACE_BOUND('',#202,.T.);
#48=FACE_BOUND('',#203,.T.);
#49=FACE_BOUND('',#204,.T.);
#50=FACE_BOUND('',#205,.T.);
#51=FACE_BOUND('',#206,.T.);
#52=FACE_BOUND('',#207,.T.);
#53=FACE_BOUND('',#208,.T.);
#54=FACE_BOUND('',#209,.T.);
#55=FACE_BOUND('',#210,.T.);
#56=FACE_BOUND('',#211,.T.);
#57=FACE_BOUND('',#212,.T.);
#58=FACE_BOUND('',#213,.T.);
#59=FACE_BOUND('',#214,.T.);
#60=FACE_BOUND('',#215,.T.);
#61=PLANE('',#832);
#62=PLANE('',#836);
#63=PLANE('',#842);
#64=PLANE('',#847);
#65=PLANE('',#852);
#66=PLANE('',#858);
#67=PLANE('',#864);
#68=PLANE('',#870);
#69=PLANE('',#875);
#70=PLANE('',#880);
#71=PLANE('',#883);
#72=PLANE('',#887);
#73=PLANE('',#924);
#74=PLANE('',#925);
#75=PLANE('',#926);
#76=PLANE('',#927);
#77=PLANE('',#928);
#78=FACE_OUTER_BOUND('',#124,.T.);
#79=FACE_OUTER_BOUND('',#125,.T.);
#80=FACE_OUTER_BOUND('',#126,.T.);
#81=FACE_OUTER_BOUND('',#127,.T.);
#82=FACE_OUTER_BOUND('',#130,.T.);
#83=FACE_OUTER_BOUND('',#131,.T.);
#84=FACE_OUTER_BOUND('',#134,.T.);
#85=FACE_OUTER_BOUND('',#135,.T.);
#86=FACE_OUTER_BOUND('',#137,.T.);
#87=FACE_OUTER_BOUND('',#138,.T.);
#88=FACE_OUTER_BOUND('',#140,.T.);
#89=FACE_OUTER_BOUND('',#141,.T.);
#90=FACE_OUTER_BOUND('',#144,.T.);
#91=FACE_OUTER_BOUND('',#145,.T.);
#92=FACE_OUTER_BOUND('',#148,.T.);
#93=FACE_OUTER_BOUND('',#149,.T.);
#94=FACE_OUTER_BOUND('',#152,.T.);
#95=FACE_OUTER_BOUND('',#153,.T.);
#96=FACE_OUTER_BOUND('',#155,.T.);
#97=FACE_OUTER_BOUND('',#156,.T.);
#98=FACE_OUTER_BOUND('',#158,.T.);
#99=FACE_OUTER_BOUND('',#159,.T.);
#100=FACE_OUTER_BOUND('',#162,.T.);
#101=FACE_OUTER_BOUND('',#163,.T.);
#102=FACE_OUTER_BOUND('',#176,.T.);
#103=FACE_OUTER_BOUND('',#177,.T.);
#104=FACE_OUTER_BOUND('',#178,.T.);
#105=FACE_OUTER_BOUND('',#179,.T.);
#106=FACE_OUTER_BOUND('',#180,.T.);
#107=FACE_OUTER_BOUND('',#181,.T.);
#108=FACE_OUTER_BOUND('',#182,.T.);
#109=FACE_OUTER_BOUND('',#183,.T.);
#110=FACE_OUTER_BOUND('',#184,.T.);
#111=FACE_OUTER_BOUND('',#185,.T.);
#112=FACE_OUTER_BOUND('',#186,.T.);
#113=FACE_OUTER_BOUND('',#187,.T.);
#114=FACE_OUTER_BOUND('',#188,.T.);
#115=FACE_OUTER_BOUND('',#189,.T.);
#116=FACE_OUTER_BOUND('',#190,.T.);
#117=FACE_OUTER_BOUND('',#191,.T.);
#118=FACE_OUTER_BOUND('',#192,.T.);
#119=FACE_OUTER_BOUND('',#193,.T.);
#120=FACE_OUTER_BOUND('',#194,.T.);
#121=FACE_OUTER_BOUND('',#195,.T.);
#122=FACE_OUTER_BOUND('',#196,.T.);
#123=FACE_OUTER_BOUND('',#197,.T.);
#124=EDGE_LOOP('',(#530,#531,#532,#533));
#125=EDGE_LOOP('',(#534,#535,#536,#537));
#126=EDGE_LOOP('',(#538,#539,#540,#541));
#127=EDGE_LOOP('',(#542));
#128=EDGE_LOOP('',(#543));
#129=EDGE_LOOP('',(#544));
#130=EDGE_LOOP('',(#545,#546,#547,#548));
#131=EDGE_LOOP('',(#549));
#132=EDGE_LOOP('',(#550));
#133=EDGE_LOOP('',(#551));
#134=EDGE_LOOP('',(#552,#553,#554,#555));
#135=EDGE_LOOP('',(#556));
#136=EDGE_LOOP('',(#557));
#137=EDGE_LOOP('',(#558,#559,#560,#561));
#138=EDGE_LOOP('',(#562));
#139=EDGE_LOOP('',(#563));
#140=EDGE_LOOP('',(#564,#565,#566,#567));
#141=EDGE_LOOP('',(#568));
#142=EDGE_LOOP('',(#569));
#143=EDGE_LOOP('',(#570));
#144=EDGE_LOOP('',(#571,#572,#573,#574));
#145=EDGE_LOOP('',(#575));
#146=EDGE_LOOP('',(#576));
#147=EDGE_LOOP('',(#577));
#148=EDGE_LOOP('',(#578,#579,#580,#581));
#149=EDGE_LOOP('',(#582));
#150=EDGE_LOOP('',(#583));
#151=EDGE_LOOP('',(#584));
#152=EDGE_LOOP('',(#585,#586,#587,#588));
#153=EDGE_LOOP('',(#589));
#154=EDGE_LOOP('',(#590));
#155=EDGE_LOOP('',(#591,#592,#593,#594));
#156=EDGE_LOOP('',(#595));
#157=EDGE_LOOP('',(#596));
#158=EDGE_LOOP('',(#597,#598,#599,#600));
#159=EDGE_LOOP('',(#601));
#160=EDGE_LOOP('',(#602));
#161=EDGE_LOOP('',(#603));
#162=EDGE_LOOP('',(#604,#605,#606));
#163=EDGE_LOOP('',(#607,#608,#609,#610));
#164=EDGE_LOOP('',(#611));
#165=EDGE_LOOP('',(#612));
#166=EDGE_LOOP('',(#613));
#167=EDGE_LOOP('',(#614));
#168=EDGE_LOOP('',(#615));
#169=EDGE_LOOP('',(#616));
#170=EDGE_LOOP('',(#617));
#171=EDGE_LOOP('',(#618));
#172=EDGE_LOOP('',(#619));
#173=EDGE_LOOP('',(#620));
#174=EDGE_LOOP('',(#621));
#175=EDGE_LOOP('',(#622));
#176=EDGE_LOOP('',(#623,#624,#625,#626));
#177=EDGE_LOOP('',(#627,#628,#629,#630));
#178=EDGE_LOOP('',(#631,#632,#633,#634,#635,#636,#637,#638));
#179=EDGE_LOOP('',(#639,#640,#641,#642));
#180=EDGE_LOOP('',(#643,#644,#645,#646));
#181=EDGE_LOOP('',(#647,#648,#649,#650));
#182=EDGE_LOOP('',(#651,#652,#653,#654));
#183=EDGE_LOOP('',(#655,#656,#657,#658));
#184=EDGE_LOOP('',(#659,#660,#661,#662));
#185=EDGE_LOOP('',(#663,#664,#665,#666));
#186=EDGE_LOOP('',(#667,#668,#669,#670));
#187=EDGE_LOOP('',(#671,#672,#673,#674));
#188=EDGE_LOOP('',(#675,#676,#677,#678));
#189=EDGE_LOOP('',(#679,#680,#681,#682));
#190=EDGE_LOOP('',(#683,#684,#685,#686));
#191=EDGE_LOOP('',(#687,#688,#689,#690));
#192=EDGE_LOOP('',(#691,#692,#693,#694));
#193=EDGE_LOOP('',(#695,#696,#697,#698));
#194=EDGE_LOOP('',(#699,#700,#701,#702));
#195=EDGE_LOOP('',(#703,#704,#705,#706));
#196=EDGE_LOOP('',(#707,#708,#709,#710));
#197=EDGE_LOOP('',(#711,#712,#713,#714));
#198=EDGE_LOOP('',(#715));
#199=EDGE_LOOP('',(#716));
#200=EDGE_LOOP('',(#717));
#201=EDGE_LOOP('',(#718));
#202=EDGE_LOOP('',(#719,#720));
#203=EDGE_LOOP('',(#721));
#204=EDGE_LOOP('',(#722));
#205=EDGE_LOOP('',(#723));
#206=EDGE_LOOP('',(#724));
#207=EDGE_LOOP('',(#725));
#208=EDGE_LOOP('',(#726));
#209=EDGE_LOOP('',(#727));
#210=EDGE_LOOP('',(#728));
#211=EDGE_LOOP('',(#729));
#212=EDGE_LOOP('',(#730));
#213=EDGE_LOOP('',(#731));
#214=EDGE_LOOP('',(#732));
#215=EDGE_LOOP('',(#733));
#216=LINE('',#1190,#258);
#217=LINE('',#1196,#259);
#218=LINE('',#1202,#260);
#219=LINE('',#1209,#261);
#220=LINE('',#1220,#262);
#221=LINE('',#1229,#263);
#222=LINE('',#1238,#264);
#223=LINE('',#1249,#265);
#224=LINE('',#1260,#266);
#225=LINE('',#1271,#267);
#226=LINE('',#1280,#268);
#227=LINE('',#1289,#269);
#228=LINE('',#1306,#270);
#229=LINE('',#1308,#271);
#230=LINE('',#1310,#272);
#231=LINE('',#1311,#273);
#232=LINE('',#1318,#274);
#233=LINE('',#1322,#275);
#234=LINE('',#1325,#276);
#235=LINE('',#1327,#277);
#236=LINE('',#1330,#278);
#237=LINE('',#1335,#279);
#238=LINE('',#1339,#280);
#239=LINE('',#1343,#281);
#240=LINE('',#1347,#282);
#241=LINE('',#1351,#283);
#242=LINE('',#1355,#284);
#243=LINE('',#1359,#285);
#244=LINE('',#1363,#286);
#245=LINE('',#1367,#287);
#246=LINE('',#1371,#288);
#247=LINE('',#1375,#289);
#248=LINE('',#1379,#290);
#249=LINE('',#1383,#291);
#250=LINE('',#1388,#292);
#251=LINE('',#1389,#293);
#252=LINE('',#1390,#294);
#253=LINE('',#1393,#295);
#254=LINE('',#1394,#296);
#255=LINE('',#1397,#297);
#256=LINE('',#1398,#298);
#257=LINE('',#1400,#299);
#258=VECTOR('',#935,0.025);
#259=VECTOR('',#942,0.025);
#260=VECTOR('',#949,0.11);
#261=VECTOR('',#958,0.11);
#262=VECTOR('',#971,0.12);
#263=VECTOR('',#982,0.12);
#264=VECTOR('',#993,0.11);
#265=VECTOR('',#1006,0.11);
#266=VECTOR('',#1019,0.11);
#267=VECTOR('',#1032,0.12);
#268=VECTOR('',#1043,0.12);
#269=VECTOR('',#1054,0.11);
#270=VECTOR('',#1073,0.393700787401575);
#271=VECTOR('',#1074,0.393700787401575);
#272=VECTOR('',#1075,0.393700787401575);
#273=VECTOR('',#1076,0.393700787401575);
#274=VECTOR('',#1083,0.0250000000000001);
#275=VECTOR('',#1088,0.025);
#276=VECTOR('',#1093,0.57);
#277=VECTOR('',#1094,0.393700787401575);
#278=VECTOR('',#1097,0.393700787401575);
#279=VECTOR('',#1104,0.31);
#280=VECTOR('',#1109,0.067);
#281=VECTOR('',#1114,0.0250000000000001);
#282=VECTOR('',#1119,0.0250000000000001);
#283=VECTOR('',#1124,0.0249999999999998);
#284=VECTOR('',#1129,0.0250000000000005);
#285=VECTOR('',#1134,0.025);
#286=VECTOR('',#1139,0.0670000000000001);
#287=VECTOR('',#1144,0.0670000000000001);
#288=VECTOR('',#1149,0.067);
#289=VECTOR('',#1154,0.025);
#290=VECTOR('',#1159,0.0249999999999998);
#291=VECTOR('',#1164,0.0250000000000001);
#292=VECTOR('',#1169,0.393700787401575);
#293=VECTOR('',#1170,0.393700787401575);
#294=VECTOR('',#1171,0.393700787401575);
#295=VECTOR('',#1174,0.393700787401575);
#296=VECTOR('',#1175,0.393700787401575);
#297=VECTOR('',#1178,0.393700787401575);
#298=VECTOR('',#1179,0.393700787401575);
#299=VECTOR('',#1182,0.393700787401575);
#300=CIRCLE('',#824,0.025);
#301=CIRCLE('',#825,0.025);
#302=CIRCLE('',#827,0.025);
#303=CIRCLE('',#828,0.025);
#304=CIRCLE('',#830,0.11);
#305=CIRCLE('',#831,0.11);
#306=CIRCLE('',#834,0.11);
#307=CIRCLE('',#835,0.11);
#308=CIRCLE('',#837,0.025);
#309=CIRCLE('',#838,0.025);
#310=CIRCLE('',#840,0.12);
#311=CIRCLE('',#841,0.12);
#312=CIRCLE('',#843,0.067);
#313=CIRCLE('',#845,0.12);
#314=CIRCLE('',#846,0.12);
#315=CIRCLE('',#848,0.067);
#316=CIRCLE('',#850,0.11);
#317=CIRCLE('',#851,0.11);
#318=CIRCLE('',#853,0.0250000000000001);
#319=CIRCLE('',#854,0.0249999999999998);
#320=CIRCLE('',#856,0.11);
#321=CIRCLE('',#857,0.11);
#322=CIRCLE('',#859,0.025);
#323=CIRCLE('',#860,0.0250000000000001);
#324=CIRCLE('',#862,0.11);
#325=CIRCLE('',#863,0.11);
#326=CIRCLE('',#865,0.0249999999999998);
#327=CIRCLE('',#866,0.0250000000000001);
#328=CIRCLE('',#868,0.12);
#329=CIRCLE('',#869,0.12);
#330=CIRCLE('',#871,0.0670000000000001);
#331=CIRCLE('',#873,0.12);
#332=CIRCLE('',#874,0.12);
#333=CIRCLE('',#876,0.0670000000000001);
#334=CIRCLE('',#878,0.11);
#335=CIRCLE('',#879,0.11);
#336=CIRCLE('',#881,0.0250000000000001);
#337=CIRCLE('',#882,0.0250000000000005);
#338=CIRCLE('',#884,0.57);
#339=CIRCLE('',#885,0.188105456641317);
#340=CIRCLE('',#886,0.57);
#341=CIRCLE('',#888,0.31);
#342=CIRCLE('',#889,0.57);
#343=CIRCLE('',#891,0.0250000000000001);
#344=CIRCLE('',#893,0.025);
#345=CIRCLE('',#895,0.57);
#346=CIRCLE('',#897,0.188105456641317);
#347=CIRCLE('',#899,0.31);
#348=CIRCLE('',#901,0.067);
#349=CIRCLE('',#903,0.0250000000000001);
#350=CIRCLE('',#905,0.0250000000000001);
#351=CIRCLE('',#907,0.0249999999999998);
#352=CIRCLE('',#909,0.0250000000000005);
#353=CIRCLE('',#911,0.025);
#354=CIRCLE('',#913,0.0670000000000001);
#355=CIRCLE('',#915,0.0670000000000001);
#356=CIRCLE('',#917,0.067);
#357=CIRCLE('',#919,0.025);
#358=CIRCLE('',#921,0.0249999999999998);
#359=CIRCLE('',#923,0.0250000000000001);
#360=VERTEX_POINT('',#1187);
#361=VERTEX_POINT('',#1189);
#362=VERTEX_POINT('',#1193);
#363=VERTEX_POINT('',#1195);
#364=VERTEX_POINT('',#1199);
#365=VERTEX_POINT('',#1201);
#366=VERTEX_POINT('',#1206);
#367=VERTEX_POINT('',#1208);
#368=VERTEX_POINT('',#1212);
#369=VERTEX_POINT('',#1214);
#370=VERTEX_POINT('',#1217);
#371=VERTEX_POINT('',#1219);
#372=VERTEX_POINT('',#1223);
#373=VERTEX_POINT('',#1226);
#374=VERTEX_POINT('',#1228);
#375=VERTEX_POINT('',#1232);
#376=VERTEX_POINT('',#1235);
#377=VERTEX_POINT('',#1237);
#378=VERTEX_POINT('',#1241);
#379=VERTEX_POINT('',#1243);
#380=VERTEX_POINT('',#1246);
#381=VERTEX_POINT('',#1248);
#382=VERTEX_POINT('',#1252);
#383=VERTEX_POINT('',#1254);
#384=VERTEX_POINT('',#1257);
#385=VERTEX_POINT('',#1259);
#386=VERTEX_POINT('',#1263);
#387=VERTEX_POINT('',#1265);
#388=VERTEX_POINT('',#1268);
#389=VERTEX_POINT('',#1270);
#390=VERTEX_POINT('',#1274);
#391=VERTEX_POINT('',#1277);
#392=VERTEX_POINT('',#1279);
#393=VERTEX_POINT('',#1283);
#394=VERTEX_POINT('',#1286);
#395=VERTEX_POINT('',#1288);
#396=VERTEX_POINT('',#1292);
#397=VERTEX_POINT('',#1294);
#398=VERTEX_POINT('',#1297);
#399=VERTEX_POINT('',#1298);
#400=VERTEX_POINT('',#1300);
#401=VERTEX_POINT('',#1304);
#402=VERTEX_POINT('',#1305);
#403=VERTEX_POINT('',#1307);
#404=VERTEX_POINT('',#1309);
#405=VERTEX_POINT('',#1312);
#406=VERTEX_POINT('',#1314);
#407=VERTEX_POINT('',#1317);
#408=VERTEX_POINT('',#1321);
#409=VERTEX_POINT('',#1326);
#410=VERTEX_POINT('',#1328);
#411=VERTEX_POINT('',#1334);
#412=VERTEX_POINT('',#1338);
#413=VERTEX_POINT('',#1342);
#414=VERTEX_POINT('',#1346);
#415=VERTEX_POINT('',#1350);
#416=VERTEX_POINT('',#1354);
#417=VERTEX_POINT('',#1358);
#418=VERTEX_POINT('',#1362);
#419=VERTEX_POINT('',#1366);
#420=VERTEX_POINT('',#1370);
#421=VERTEX_POINT('',#1374);
#422=VERTEX_POINT('',#1378);
#423=VERTEX_POINT('',#1382);
#424=VERTEX_POINT('',#1386);
#425=VERTEX_POINT('',#1387);
#426=VERTEX_POINT('',#1392);
#427=VERTEX_POINT('',#1396);
#428=EDGE_CURVE('',#360,#360,#300,.T.);
#429=EDGE_CURVE('',#360,#361,#216,.T.);
#430=EDGE_CURVE('',#361,#361,#301,.T.);
#431=EDGE_CURVE('',#362,#362,#302,.T.);
#432=EDGE_CURVE('',#362,#363,#217,.T.);
#433=EDGE_CURVE('',#363,#363,#303,.T.);
#434=EDGE_CURVE('',#364,#364,#304,.T.);
#435=EDGE_CURVE('',#364,#365,#218,.T.);
#436=EDGE_CURVE('',#365,#365,#305,.T.);
#437=EDGE_CURVE('',#366,#366,#306,.T.);
#438=EDGE_CURVE('',#366,#367,#219,.T.);
#439=EDGE_CURVE('',#367,#367,#307,.T.);
#440=EDGE_CURVE('',#368,#368,#308,.T.);
#441=EDGE_CURVE('',#369,#369,#309,.T.);
#442=EDGE_CURVE('',#370,#370,#310,.T.);
#443=EDGE_CURVE('',#370,#371,#220,.T.);
#444=EDGE_CURVE('',#371,#371,#311,.T.);
#445=EDGE_CURVE('',#372,#372,#312,.T.);
#446=EDGE_CURVE('',#373,#373,#313,.T.);
#447=EDGE_CURVE('',#373,#374,#221,.T.);
#448=EDGE_CURVE('',#374,#374,#314,.T.);
#449=EDGE_CURVE('',#375,#375,#315,.T.);
#450=EDGE_CURVE('',#376,#376,#316,.T.);
#451=EDGE_CURVE('',#376,#377,#222,.T.);
#452=EDGE_CURVE('',#377,#377,#317,.T.);
#453=EDGE_CURVE('',#378,#378,#318,.T.);
#454=EDGE_CURVE('',#379,#379,#319,.T.);
#455=EDGE_CURVE('',#380,#380,#320,.T.);
#456=EDGE_CURVE('',#380,#381,#223,.T.);
#457=EDGE_CURVE('',#381,#381,#321,.T.);
#458=EDGE_CURVE('',#382,#382,#322,.T.);
#459=EDGE_CURVE('',#383,#383,#323,.T.);
#460=EDGE_CURVE('',#384,#384,#324,.T.);
#461=EDGE_CURVE('',#384,#385,#224,.T.);
#462=EDGE_CURVE('',#385,#385,#325,.T.);
#463=EDGE_CURVE('',#386,#386,#326,.T.);
#464=EDGE_CURVE('',#387,#387,#327,.T.);
#465=EDGE_CURVE('',#388,#388,#328,.T.);
#466=EDGE_CURVE('',#388,#389,#225,.T.);
#467=EDGE_CURVE('',#389,#389,#329,.T.);
#468=EDGE_CURVE('',#390,#390,#330,.T.);
#469=EDGE_CURVE('',#391,#391,#331,.T.);
#470=EDGE_CURVE('',#391,#392,#226,.T.);
#471=EDGE_CURVE('',#392,#392,#332,.T.);
#472=EDGE_CURVE('',#393,#393,#333,.T.);
#473=EDGE_CURVE('',#394,#394,#334,.T.);
#474=EDGE_CURVE('',#394,#395,#227,.T.);
#475=EDGE_CURVE('',#395,#395,#335,.T.);
#476=EDGE_CURVE('',#396,#396,#336,.T.);
#477=EDGE_CURVE('',#397,#397,#337,.T.);
#478=EDGE_CURVE('',#398,#399,#338,.T.);
#479=EDGE_CURVE('',#400,#398,#339,.T.);
#480=EDGE_CURVE('',#399,#400,#340,.T.);
#481=EDGE_CURVE('',#401,#402,#228,.T.);
#482=EDGE_CURVE('',#402,#403,#229,.T.);
#483=EDGE_CURVE('',#403,#404,#230,.T.);
#484=EDGE_CURVE('',#404,#401,#231,.T.);
#485=EDGE_CURVE('',#405,#405,#341,.T.);
#486=EDGE_CURVE('',#406,#406,#342,.T.);
#487=EDGE_CURVE('',#396,#407,#232,.T.);
#488=EDGE_CURVE('',#407,#407,#343,.T.);
#489=EDGE_CURVE('',#369,#408,#233,.T.);
#490=EDGE_CURVE('',#408,#408,#344,.T.);
#491=EDGE_CURVE('',#406,#399,#234,.T.);
#492=EDGE_CURVE('',#400,#409,#235,.T.);
#493=EDGE_CURVE('',#410,#409,#345,.T.);
#494=EDGE_CURVE('',#398,#410,#236,.T.);
#495=EDGE_CURVE('',#409,#410,#346,.T.);
#496=EDGE_CURVE('',#405,#411,#237,.T.);
#497=EDGE_CURVE('',#411,#411,#347,.T.);
#498=EDGE_CURVE('',#375,#412,#238,.T.);
#499=EDGE_CURVE('',#412,#412,#348,.T.);
#500=EDGE_CURVE('',#383,#413,#239,.T.);
#501=EDGE_CURVE('',#413,#413,#349,.T.);
#502=EDGE_CURVE('',#387,#414,#240,.T.);
#503=EDGE_CURVE('',#414,#414,#350,.T.);
#504=EDGE_CURVE('',#379,#415,#241,.T.);
#505=EDGE_CURVE('',#415,#415,#351,.T.);
#506=EDGE_CURVE('',#397,#416,#242,.T.);
#507=EDGE_CURVE('',#416,#416,#352,.T.);
#508=EDGE_CURVE('',#368,#417,#243,.T.);
#509=EDGE_CURVE('',#417,#417,#353,.T.);
#510=EDGE_CURVE('',#390,#418,#244,.T.);
#511=EDGE_CURVE('',#418,#418,#354,.T.);
#512=EDGE_CURVE('',#393,#419,#245,.T.);
#513=EDGE_CURVE('',#419,#419,#355,.T.);
#514=EDGE_CURVE('',#372,#420,#246,.T.);
#515=EDGE_CURVE('',#420,#420,#356,.T.);
#516=EDGE_CURVE('',#382,#421,#247,.T.);
#517=EDGE_CURVE('',#421,#421,#357,.T.);
#518=EDGE_CURVE('',#386,#422,#248,.T.);
#519=EDGE_CURVE('',#422,#422,#358,.T.);
#520=EDGE_CURVE('',#378,#423,#249,.T.);
#521=EDGE_CURVE('',#423,#423,#359,.T.);
#522=EDGE_CURVE('',#424,#425,#250,.T.);
#523=EDGE_CURVE('',#425,#401,#251,.T.);
#524=EDGE_CURVE('',#424,#404,#252,.T.);
#525=EDGE_CURVE('',#426,#424,#253,.T.);
#526=EDGE_CURVE('',#426,#403,#254,.T.);
#527=EDGE_CURVE('',#427,#426,#255,.T.);
#528=EDGE_CURVE('',#427,#402,#256,.T.);
#529=EDGE_CURVE('',#425,#427,#257,.T.);
#530=ORIENTED_EDGE('',*,*,#428,.T.);
#531=ORIENTED_EDGE('',*,*,#429,.T.);
#532=ORIENTED_EDGE('',*,*,#430,.F.);
#533=ORIENTED_EDGE('',*,*,#429,.F.);
#534=ORIENTED_EDGE('',*,*,#431,.T.);
#535=ORIENTED_EDGE('',*,*,#432,.T.);
#536=ORIENTED_EDGE('',*,*,#433,.F.);
#537=ORIENTED_EDGE('',*,*,#432,.F.);
#538=ORIENTED_EDGE('',*,*,#434,.F.);
#539=ORIENTED_EDGE('',*,*,#435,.T.);
#540=ORIENTED_EDGE('',*,*,#436,.T.);
#541=ORIENTED_EDGE('',*,*,#435,.F.);
#542=ORIENTED_EDGE('',*,*,#436,.F.);
#543=ORIENTED_EDGE('',*,*,#431,.F.);
#544=ORIENTED_EDGE('',*,*,#428,.F.);
#545=ORIENTED_EDGE('',*,*,#437,.F.);
#546=ORIENTED_EDGE('',*,*,#438,.T.);
#547=ORIENTED_EDGE('',*,*,#439,.T.);
#548=ORIENTED_EDGE('',*,*,#438,.F.);
#549=ORIENTED_EDGE('',*,*,#439,.F.);
#550=ORIENTED_EDGE('',*,*,#440,.F.);
#551=ORIENTED_EDGE('',*,*,#441,.F.);
#552=ORIENTED_EDGE('',*,*,#442,.F.);
#553=ORIENTED_EDGE('',*,*,#443,.T.);
#554=ORIENTED_EDGE('',*,*,#444,.T.);
#555=ORIENTED_EDGE('',*,*,#443,.F.);
#556=ORIENTED_EDGE('',*,*,#444,.F.);
#557=ORIENTED_EDGE('',*,*,#445,.F.);
#558=ORIENTED_EDGE('',*,*,#446,.F.);
#559=ORIENTED_EDGE('',*,*,#447,.T.);
#560=ORIENTED_EDGE('',*,*,#448,.T.);
#561=ORIENTED_EDGE('',*,*,#447,.F.);
#562=ORIENTED_EDGE('',*,*,#448,.F.);
#563=ORIENTED_EDGE('',*,*,#449,.F.);
#564=ORIENTED_EDGE('',*,*,#450,.F.);
#565=ORIENTED_EDGE('',*,*,#451,.T.);
#566=ORIENTED_EDGE('',*,*,#452,.T.);
#567=ORIENTED_EDGE('',*,*,#451,.F.);
#568=ORIENTED_EDGE('',*,*,#452,.F.);
#569=ORIENTED_EDGE('',*,*,#453,.F.);
#570=ORIENTED_EDGE('',*,*,#454,.F.);
#571=ORIENTED_EDGE('',*,*,#455,.F.);
#572=ORIENTED_EDGE('',*,*,#456,.T.);
#573=ORIENTED_EDGE('',*,*,#457,.T.);
#574=ORIENTED_EDGE('',*,*,#456,.F.);
#575=ORIENTED_EDGE('',*,*,#457,.F.);
#576=ORIENTED_EDGE('',*,*,#458,.F.);
#577=ORIENTED_EDGE('',*,*,#459,.F.);
#578=ORIENTED_EDGE('',*,*,#460,.F.);
#579=ORIENTED_EDGE('',*,*,#461,.T.);
#580=ORIENTED_EDGE('',*,*,#462,.T.);
#581=ORIENTED_EDGE('',*,*,#461,.F.);
#582=ORIENTED_EDGE('',*,*,#462,.F.);
#583=ORIENTED_EDGE('',*,*,#463,.F.);
#584=ORIENTED_EDGE('',*,*,#464,.F.);
#585=ORIENTED_EDGE('',*,*,#465,.F.);
#586=ORIENTED_EDGE('',*,*,#466,.T.);
#587=ORIENTED_EDGE('',*,*,#467,.T.);
#588=ORIENTED_EDGE('',*,*,#466,.F.);
#589=ORIENTED_EDGE('',*,*,#467,.F.);
#590=ORIENTED_EDGE('',*,*,#468,.F.);
#591=ORIENTED_EDGE('',*,*,#469,.F.);
#592=ORIENTED_EDGE('',*,*,#470,.T.);
#593=ORIENTED_EDGE('',*,*,#471,.T.);
#594=ORIENTED_EDGE('',*,*,#470,.F.);
#595=ORIENTED_EDGE('',*,*,#471,.F.);
#596=ORIENTED_EDGE('',*,*,#472,.F.);
#597=ORIENTED_EDGE('',*,*,#473,.F.);
#598=ORIENTED_EDGE('',*,*,#474,.T.);
#599=ORIENTED_EDGE('',*,*,#475,.T.);
#600=ORIENTED_EDGE('',*,*,#474,.F.);
#601=ORIENTED_EDGE('',*,*,#475,.F.);
#602=ORIENTED_EDGE('',*,*,#476,.F.);
#603=ORIENTED_EDGE('',*,*,#477,.F.);
#604=ORIENTED_EDGE('',*,*,#478,.F.);
#605=ORIENTED_EDGE('',*,*,#479,.F.);
#606=ORIENTED_EDGE('',*,*,#480,.F.);
#607=ORIENTED_EDGE('',*,*,#481,.T.);
#608=ORIENTED_EDGE('',*,*,#482,.T.);
#609=ORIENTED_EDGE('',*,*,#483,.T.);
#610=ORIENTED_EDGE('',*,*,#484,.T.);
#611=ORIENTED_EDGE('',*,*,#485,.T.);
#612=ORIENTED_EDGE('',*,*,#486,.T.);
#613=ORIENTED_EDGE('',*,*,#473,.T.);
#614=ORIENTED_EDGE('',*,*,#469,.T.);
#615=ORIENTED_EDGE('',*,*,#465,.T.);
#616=ORIENTED_EDGE('',*,*,#460,.T.);
#617=ORIENTED_EDGE('',*,*,#455,.T.);
#618=ORIENTED_EDGE('',*,*,#450,.T.);
#619=ORIENTED_EDGE('',*,*,#446,.T.);
#620=ORIENTED_EDGE('',*,*,#442,.T.);
#621=ORIENTED_EDGE('',*,*,#437,.T.);
#622=ORIENTED_EDGE('',*,*,#434,.T.);
#623=ORIENTED_EDGE('',*,*,#476,.T.);
#624=ORIENTED_EDGE('',*,*,#487,.T.);
#625=ORIENTED_EDGE('',*,*,#488,.F.);
#626=ORIENTED_EDGE('',*,*,#487,.F.);
#627=ORIENTED_EDGE('',*,*,#441,.T.);
#628=ORIENTED_EDGE('',*,*,#489,.T.);
#629=ORIENTED_EDGE('',*,*,#490,.F.);
#630=ORIENTED_EDGE('',*,*,#489,.F.);
#631=ORIENTED_EDGE('',*,*,#486,.F.);
#632=ORIENTED_EDGE('',*,*,#491,.T.);
#633=ORIENTED_EDGE('',*,*,#480,.T.);
#634=ORIENTED_EDGE('',*,*,#492,.T.);
#635=ORIENTED_EDGE('',*,*,#493,.F.);
#636=ORIENTED_EDGE('',*,*,#494,.F.);
#637=ORIENTED_EDGE('',*,*,#478,.T.);
#638=ORIENTED_EDGE('',*,*,#491,.F.);
#639=ORIENTED_EDGE('',*,*,#479,.T.);
#640=ORIENTED_EDGE('',*,*,#494,.T.);
#641=ORIENTED_EDGE('',*,*,#495,.F.);
#642=ORIENTED_EDGE('',*,*,#492,.F.);
#643=ORIENTED_EDGE('',*,*,#485,.F.);
#644=ORIENTED_EDGE('',*,*,#496,.T.);
#645=ORIENTED_EDGE('',*,*,#497,.F.);
#646=ORIENTED_EDGE('',*,*,#496,.F.);
#647=ORIENTED_EDGE('',*,*,#449,.T.);
#648=ORIENTED_EDGE('',*,*,#498,.T.);
#649=ORIENTED_EDGE('',*,*,#499,.F.);
#650=ORIENTED_EDGE('',*,*,#498,.F.);
#651=ORIENTED_EDGE('',*,*,#459,.T.);
#652=ORIENTED_EDGE('',*,*,#500,.T.);
#653=ORIENTED_EDGE('',*,*,#501,.F.);
#654=ORIENTED_EDGE('',*,*,#500,.F.);
#655=ORIENTED_EDGE('',*,*,#464,.T.);
#656=ORIENTED_EDGE('',*,*,#502,.T.);
#657=ORIENTED_EDGE('',*,*,#503,.F.);
#658=ORIENTED_EDGE('',*,*,#502,.F.);
#659=ORIENTED_EDGE('',*,*,#454,.T.);
#660=ORIENTED_EDGE('',*,*,#504,.T.);
#661=ORIENTED_EDGE('',*,*,#505,.F.);
#662=ORIENTED_EDGE('',*,*,#504,.F.);
#663=ORIENTED_EDGE('',*,*,#477,.T.);
#664=ORIENTED_EDGE('',*,*,#506,.T.);
#665=ORIENTED_EDGE('',*,*,#507,.F.);
#666=ORIENTED_EDGE('',*,*,#506,.F.);
#667=ORIENTED_EDGE('',*,*,#440,.T.);
#668=ORIENTED_EDGE('',*,*,#508,.T.);
#669=ORIENTED_EDGE('',*,*,#509,.F.);
#670=ORIENTED_EDGE('',*,*,#508,.F.);
#671=ORIENTED_EDGE('',*,*,#468,.T.);
#672=ORIENTED_EDGE('',*,*,#510,.T.);
#673=ORIENTED_EDGE('',*,*,#511,.F.);
#674=ORIENTED_EDGE('',*,*,#510,.F.);
#675=ORIENTED_EDGE('',*,*,#472,.T.);
#676=ORIENTED_EDGE('',*,*,#512,.T.);
#677=ORIENTED_EDGE('',*,*,#513,.F.);
#678=ORIENTED_EDGE('',*,*,#512,.F.);
#679=ORIENTED_EDGE('',*,*,#445,.T.);
#680=ORIENTED_EDGE('',*,*,#514,.T.);
#681=ORIENTED_EDGE('',*,*,#515,.F.);
#682=ORIENTED_EDGE('',*,*,#514,.F.);
#683=ORIENTED_EDGE('',*,*,#458,.T.);
#684=ORIENTED_EDGE('',*,*,#516,.T.);
#685=ORIENTED_EDGE('',*,*,#517,.F.);
#686=ORIENTED_EDGE('',*,*,#516,.F.);
#687=ORIENTED_EDGE('',*,*,#463,.T.);
#688=ORIENTED_EDGE('',*,*,#518,.T.);
#689=ORIENTED_EDGE('',*,*,#519,.F.);
#690=ORIENTED_EDGE('',*,*,#518,.F.);
#691=ORIENTED_EDGE('',*,*,#453,.T.);
#692=ORIENTED_EDGE('',*,*,#520,.T.);
#693=ORIENTED_EDGE('',*,*,#521,.F.);
#694=ORIENTED_EDGE('',*,*,#520,.F.);
#695=ORIENTED_EDGE('',*,*,#522,.T.);
#696=ORIENTED_EDGE('',*,*,#523,.T.);
#697=ORIENTED_EDGE('',*,*,#484,.F.);
#698=ORIENTED_EDGE('',*,*,#524,.F.);
#699=ORIENTED_EDGE('',*,*,#525,.T.);
#700=ORIENTED_EDGE('',*,*,#524,.T.);
#701=ORIENTED_EDGE('',*,*,#483,.F.);
#702=ORIENTED_EDGE('',*,*,#526,.F.);
#703=ORIENTED_EDGE('',*,*,#527,.T.);
#704=ORIENTED_EDGE('',*,*,#526,.T.);
#705=ORIENTED_EDGE('',*,*,#482,.F.);
#706=ORIENTED_EDGE('',*,*,#528,.F.);
#707=ORIENTED_EDGE('',*,*,#529,.T.);
#708=ORIENTED_EDGE('',*,*,#528,.T.);
#709=ORIENTED_EDGE('',*,*,#481,.F.);
#710=ORIENTED_EDGE('',*,*,#523,.F.);
#711=ORIENTED_EDGE('',*,*,#529,.F.);
#712=ORIENTED_EDGE('',*,*,#522,.F.);
#713=ORIENTED_EDGE('',*,*,#525,.F.);
#714=ORIENTED_EDGE('',*,*,#527,.F.);
#715=ORIENTED_EDGE('',*,*,#430,.T.);
#716=ORIENTED_EDGE('',*,*,#433,.T.);
#717=ORIENTED_EDGE('',*,*,#488,.T.);
#718=ORIENTED_EDGE('',*,*,#490,.T.);
#719=ORIENTED_EDGE('',*,*,#495,.T.);
#720=ORIENTED_EDGE('',*,*,#493,.T.);
#721=ORIENTED_EDGE('',*,*,#497,.T.);
#722=ORIENTED_EDGE('',*,*,#499,.T.);
#723=ORIENTED_EDGE('',*,*,#501,.T.);
#724=ORIENTED_EDGE('',*,*,#503,.T.);
#725=ORIENTED_EDGE('',*,*,#505,.T.);
#726=ORIENTED_EDGE('',*,*,#507,.T.);
#727=ORIENTED_EDGE('',*,*,#509,.T.);
#728=ORIENTED_EDGE('',*,*,#511,.T.);
#729=ORIENTED_EDGE('',*,*,#513,.T.);
#730=ORIENTED_EDGE('',*,*,#515,.T.);
#731=ORIENTED_EDGE('',*,*,#517,.T.);
#732=ORIENTED_EDGE('',*,*,#519,.T.);
#733=ORIENTED_EDGE('',*,*,#521,.T.);
#734=CYLINDRICAL_SURFACE('',#823,0.025);
#735=CYLINDRICAL_SURFACE('',#826,0.025);
#736=CYLINDRICAL_SURFACE('',#829,0.11);
#737=CYLINDRICAL_SURFACE('',#833,0.11);
#738=CYLINDRICAL_SURFACE('',#839,0.12);
#739=CYLINDRICAL_SURFACE('',#844,0.12);
#740=CYLINDRICAL_SURFACE('',#849,0.11);
#741=CYLINDRICAL_SURFACE('',#855,0.11);
#742=CYLINDRICAL_SURFACE('',#861,0.11);
#743=CYLINDRICAL_SURFACE('',#867,0.12);
#744=CYLINDRICAL_SURFACE('',#872,0.12);
#745=CYLINDRICAL_SURFACE('',#877,0.11);
#746=CYLINDRICAL_SURFACE('',#890,0.0250000000000001);
#747=CYLINDRICAL_SURFACE('',#892,0.025);
#748=CYLINDRICAL_SURFACE('',#894,0.57);
#749=CYLINDRICAL_SURFACE('',#896,0.188105456641317);
#750=CYLINDRICAL_SURFACE('',#898,0.31);
#751=CYLINDRICAL_SURFACE('',#900,0.067);
#752=CYLINDRICAL_SURFACE('',#902,0.0250000000000001);
#753=CYLINDRICAL_SURFACE('',#904,0.0250000000000001);
#754=CYLINDRICAL_SURFACE('',#906,0.0249999999999998);
#755=CYLINDRICAL_SURFACE('',#908,0.0250000000000005);
#756=CYLINDRICAL_SURFACE('',#910,0.025);
#757=CYLINDRICAL_SURFACE('',#912,0.0670000000000001);
#758=CYLINDRICAL_SURFACE('',#914,0.0670000000000001);
#759=CYLINDRICAL_SURFACE('',#916,0.067);
#760=CYLINDRICAL_SURFACE('',#918,0.025);
#761=CYLINDRICAL_SURFACE('',#920,0.0249999999999998);
#762=CYLINDRICAL_SURFACE('',#922,0.0250000000000001);
#763=ADVANCED_FACE('',(#78),#734,.F.);
#764=ADVANCED_FACE('',(#79),#735,.F.);
#765=ADVANCED_FACE('',(#80),#736,.F.);
#766=ADVANCED_FACE('',(#81,#15,#16),#61,.T.);
#767=ADVANCED_FACE('',(#82),#737,.F.);
#768=ADVANCED_FACE('',(#83,#17,#18),#62,.T.);
#769=ADVANCED_FACE('',(#84),#738,.F.);
#770=ADVANCED_FACE('',(#85,#19),#63,.T.);
#771=ADVANCED_FACE('',(#86),#739,.F.);
#772=ADVANCED_FACE('',(#87,#20),#64,.T.);
#773=ADVANCED_FACE('',(#88),#740,.F.);
#774=ADVANCED_FACE('',(#89,#21,#22),#65,.T.);
#775=ADVANCED_FACE('',(#90),#741,.F.);
#776=ADVANCED_FACE('',(#91,#23,#24),#66,.T.);
#777=ADVANCED_FACE('',(#92),#742,.F.);
#778=ADVANCED_FACE('',(#93,#25,#26),#67,.T.);
#779=ADVANCED_FACE('',(#94),#743,.F.);
#780=ADVANCED_FACE('',(#95,#27),#68,.T.);
#781=ADVANCED_FACE('',(#96),#744,.F.);
#782=ADVANCED_FACE('',(#97,#28),#69,.T.);
#783=ADVANCED_FACE('',(#98),#745,.F.);
#784=ADVANCED_FACE('',(#99,#29,#30),#70,.T.);
#785=ADVANCED_FACE('',(#100),#71,.T.);
#786=ADVANCED_FACE('',(#101,#31,#32,#33,#34,#35,#36,#37,#38,#39,#40,#41,
#42),#72,.T.);
#787=ADVANCED_FACE('',(#102),#746,.F.);
#788=ADVANCED_FACE('',(#103),#747,.F.);
#789=ADVANCED_FACE('',(#104),#748,.F.);
#790=ADVANCED_FACE('',(#105),#749,.F.);
#791=ADVANCED_FACE('',(#106),#750,.F.);
#792=ADVANCED_FACE('',(#107),#751,.F.);
#793=ADVANCED_FACE('',(#108),#752,.F.);
#794=ADVANCED_FACE('',(#109),#753,.F.);
#795=ADVANCED_FACE('',(#110),#754,.F.);
#796=ADVANCED_FACE('',(#111),#755,.F.);
#797=ADVANCED_FACE('',(#112),#756,.F.);
#798=ADVANCED_FACE('',(#113),#757,.F.);
#799=ADVANCED_FACE('',(#114),#758,.F.);
#800=ADVANCED_FACE('',(#115),#759,.F.);
#801=ADVANCED_FACE('',(#116),#760,.F.);
#802=ADVANCED_FACE('',(#117),#761,.F.);
#803=ADVANCED_FACE('',(#118),#762,.F.);
#804=ADVANCED_FACE('',(#119),#73,.T.);
#805=ADVANCED_FACE('',(#120),#74,.T.);
#806=ADVANCED_FACE('',(#121),#75,.T.);
#807=ADVANCED_FACE('',(#122),#76,.T.);
#808=ADVANCED_FACE('',(#123,#43,#44,#45,#46,#47,#48,#49,#50,#51,#52,#53,
#54,#55,#56,#57,#58,#59,#60),#77,.F.);
#809=CLOSED_SHELL('',(#763,#764,#765,#766,#767,#768,#769,#770,#771,#772,
#773,#774,#775,#776,#777,#778,#779,#780,#781,#782,#783,#784,#785,#786,#787,
#788,#789,#790,#791,#792,#793,#794,#795,#796,#797,#798,#799,#800,#801,#802,
#803,#804,#805,#806,#807,#808));
#810=DERIVED_UNIT_ELEMENT(#812,1.);
#811=DERIVED_UNIT_ELEMENT(#1409,-3.);
#812=(
MASS_UNIT()
NAMED_UNIT(*)
SI_UNIT(.KILO.,.GRAM.)
);
#813=DERIVED_UNIT((#810,#811));
#814=MEASURE_REPRESENTATION_ITEM('density measure',
POSITIVE_RATIO_MEASURE(7850.),#813);
#815=PROPERTY_DEFINITION_REPRESENTATION(#820,#817);
#816=PROPERTY_DEFINITION_REPRESENTATION(#821,#818);
#817=REPRESENTATION('material name',(#819),#1404);
#818=REPRESENTATION('density',(#814),#1404);
#819=DESCRIPTIVE_REPRESENTATION_ITEM('Steel','Steel');
#820=PROPERTY_DEFINITION('material property','material name',#1417);
#821=PROPERTY_DEFINITION('material property','density of part',#1417);
#822=AXIS2_PLACEMENT_3D('',#1185,#929,#930);
#823=AXIS2_PLACEMENT_3D('',#1186,#931,#932);
#824=AXIS2_PLACEMENT_3D('',#1188,#933,#934);
#825=AXIS2_PLACEMENT_3D('',#1191,#936,#937);
#826=AXIS2_PLACEMENT_3D('',#1192,#938,#939);
#827=AXIS2_PLACEMENT_3D('',#1194,#940,#941);
#828=AXIS2_PLACEMENT_3D('',#1197,#943,#944);
#829=AXIS2_PLACEMENT_3D('',#1198,#945,#946);
#830=AXIS2_PLACEMENT_3D('',#1200,#947,#948);
#831=AXIS2_PLACEMENT_3D('',#1203,#950,#951);
#832=AXIS2_PLACEMENT_3D('',#1204,#952,#953);
#833=AXIS2_PLACEMENT_3D('',#1205,#954,#955);
#834=AXIS2_PLACEMENT_3D('',#1207,#956,#957);
#835=AXIS2_PLACEMENT_3D('',#1210,#959,#960);
#836=AXIS2_PLACEMENT_3D('',#1211,#961,#962);
#837=AXIS2_PLACEMENT_3D('',#1213,#963,#964);
#838=AXIS2_PLACEMENT_3D('',#1215,#965,#966);
#839=AXIS2_PLACEMENT_3D('',#1216,#967,#968);
#840=AXIS2_PLACEMENT_3D('',#1218,#969,#970);
#841=AXIS2_PLACEMENT_3D('',#1221,#972,#973);
#842=AXIS2_PLACEMENT_3D('',#1222,#974,#975);
#843=AXIS2_PLACEMENT_3D('',#1224,#976,#977);
#844=AXIS2_PLACEMENT_3D('',#1225,#978,#979);
#845=AXIS2_PLACEMENT_3D('',#1227,#980,#981);
#846=AXIS2_PLACEMENT_3D('',#1230,#983,#984);
#847=AXIS2_PLACEMENT_3D('',#1231,#985,#986);
#848=AXIS2_PLACEMENT_3D('',#1233,#987,#988);
#849=AXIS2_PLACEMENT_3D('',#1234,#989,#990);
#850=AXIS2_PLACEMENT_3D('',#1236,#991,#992);
#851=AXIS2_PLACEMENT_3D('',#1239,#994,#995);
#852=AXIS2_PLACEMENT_3D('',#1240,#996,#997);
#853=AXIS2_PLACEMENT_3D('',#1242,#998,#999);
#854=AXIS2_PLACEMENT_3D('',#1244,#1000,#1001);
#855=AXIS2_PLACEMENT_3D('',#1245,#1002,#1003);
#856=AXIS2_PLACEMENT_3D('',#1247,#1004,#1005);
#857=AXIS2_PLACEMENT_3D('',#1250,#1007,#1008);
#858=AXIS2_PLACEMENT_3D('',#1251,#1009,#1010);
#859=AXIS2_PLACEMENT_3D('',#1253,#1011,#1012);
#860=AXIS2_PLACEMENT_3D('',#1255,#1013,#1014);
#861=AXIS2_PLACEMENT_3D('',#1256,#1015,#1016);
#862=AXIS2_PLACEMENT_3D('',#1258,#1017,#1018);
#863=AXIS2_PLACEMENT_3D('',#1261,#1020,#1021);
#864=AXIS2_PLACEMENT_3D('',#1262,#1022,#1023);
#865=AXIS2_PLACEMENT_3D('',#1264,#1024,#1025);
#866=AXIS2_PLACEMENT_3D('',#1266,#1026,#1027);
#867=AXIS2_PLACEMENT_3D('',#1267,#1028,#1029);
#868=AXIS2_PLACEMENT_3D('',#1269,#1030,#1031);
#869=AXIS2_PLACEMENT_3D('',#1272,#1033,#1034);
#870=AXIS2_PLACEMENT_3D('',#1273,#1035,#1036);
#871=AXIS2_PLACEMENT_3D('',#1275,#1037,#1038);
#872=AXIS2_PLACEMENT_3D('',#1276,#1039,#1040);
#873=AXIS2_PLACEMENT_3D('',#1278,#1041,#1042);
#874=AXIS2_PLACEMENT_3D('',#1281,#1044,#1045);
#875=AXIS2_PLACEMENT_3D('',#1282,#1046,#1047);
#876=AXIS2_PLACEMENT_3D('',#1284,#1048,#1049);
#877=AXIS2_PLACEMENT_3D('',#1285,#1050,#1051);
#878=AXIS2_PLACEMENT_3D('',#1287,#1052,#1053);
#879=AXIS2_PLACEMENT_3D('',#1290,#1055,#1056);
#880=AXIS2_PLACEMENT_3D('',#1291,#1057,#1058);
#881=AXIS2_PLACEMENT_3D('',#1293,#1059,#1060);
#882=AXIS2_PLACEMENT_3D('',#1295,#1061,#1062);
#883=AXIS2_PLACEMENT_3D('',#1296,#1063,#1064);
#884=AXIS2_PLACEMENT_3D('',#1299,#1065,#1066);
#885=AXIS2_PLACEMENT_3D('',#1301,#1067,#1068);
#886=AXIS2_PLACEMENT_3D('',#1302,#1069,#1070);
#887=AXIS2_PLACEMENT_3D('',#1303,#1071,#1072);
#888=AXIS2_PLACEMENT_3D('',#1313,#1077,#1078);
#889=AXIS2_PLACEMENT_3D('',#1315,#1079,#1080);
#890=AXIS2_PLACEMENT_3D('',#1316,#1081,#1082);
#891=AXIS2_PLACEMENT_3D('',#1319,#1084,#1085);
#892=AXIS2_PLACEMENT_3D('',#1320,#1086,#1087);
#893=AXIS2_PLACEMENT_3D('',#1323,#1089,#1090);
#894=AXIS2_PLACEMENT_3D('',#1324,#1091,#1092);
#895=AXIS2_PLACEMENT_3D('',#1329,#1095,#1096);
#896=AXIS2_PLACEMENT_3D('',#1331,#1098,#1099);
#897=AXIS2_PLACEMENT_3D('',#1332,#1100,#1101);
#898=AXIS2_PLACEMENT_3D('',#1333,#1102,#1103);
#899=AXIS2_PLACEMENT_3D('',#1336,#1105,#1106);
#900=AXIS2_PLACEMENT_3D('',#1337,#1107,#1108);
#901=AXIS2_PLACEMENT_3D('',#1340,#1110,#1111);
#902=AXIS2_PLACEMENT_3D('',#1341,#1112,#1113);
#903=AXIS2_PLACEMENT_3D('',#1344,#1115,#1116);
#904=AXIS2_PLACEMENT_3D('',#1345,#1117,#1118);
#905=AXIS2_PLACEMENT_3D('',#1348,#1120,#1121);
#906=AXIS2_PLACEMENT_3D('',#1349,#1122,#1123);
#907=AXIS2_PLACEMENT_3D('',#1352,#1125,#1126);
#908=AXIS2_PLACEMENT_3D('',#1353,#1127,#1128);
#909=AXIS2_PLACEMENT_3D('',#1356,#1130,#1131);
#910=AXIS2_PLACEMENT_3D('',#1357,#1132,#1133);
#911=AXIS2_PLACEMENT_3D('',#1360,#1135,#1136);
#912=AXIS2_PLACEMENT_3D('',#1361,#1137,#1138);
#913=AXIS2_PLACEMENT_3D('',#1364,#1140,#1141);
#914=AXIS2_PLACEMENT_3D('',#1365,#1142,#1143);
#915=AXIS2_PLACEMENT_3D('',#1368,#1145,#1146);
#916=AXIS2_PLACEMENT_3D('',#1369,#1147,#1148);
#917=AXIS2_PLACEMENT_3D('',#1372,#1150,#1151);
#918=AXIS2_PLACEMENT_3D('',#1373,#1152,#1153);
#919=AXIS2_PLACEMENT_3D('',#1376,#1155,#1156);
#920=AXIS2_PLACEMENT_3D('',#1377,#1157,#1158);
#921=AXIS2_PLACEMENT_3D('',#1380,#1160,#1161);
#922=AXIS2_PLACEMENT_3D('',#1381,#1162,#1163);
#923=AXIS2_PLACEMENT_3D('',#1384,#1165,#1166);
#924=AXIS2_PLACEMENT_3D('',#1385,#1167,#1168);
#925=AXIS2_PLACEMENT_3D('',#1391,#1172,#1173);
#926=AXIS2_PLACEMENT_3D('',#1395,#1176,#1177);
#927=AXIS2_PLACEMENT_3D('',#1399,#1180,#1181);
#928=AXIS2_PLACEMENT_3D('',#1401,#1183,#1184);
#929=DIRECTION('axis',(0.,0.,1.));
#930=DIRECTION('refdir',(1.,0.,0.));
#931=DIRECTION('center_axis',(0.,0.,-1.));
#932=DIRECTION('ref_axis',(-1.,0.,0.));
#933=DIRECTION('center_axis',(0.,0.,1.));
#934=DIRECTION('ref_axis',(-1.,0.,0.));
#935=DIRECTION('',(0.,0.,-1.));
#936=DIRECTION('center_axis',(0.,0.,1.));
#937=DIRECTION('ref_axis',(-1.,0.,0.));
#938=DIRECTION('center_axis',(0.,0.,-1.));
#939=DIRECTION('ref_axis',(-1.,0.,0.));
#940=DIRECTION('center_axis',(0.,0.,1.));
#941=DIRECTION('ref_axis',(-1.,0.,0.));
#942=DIRECTION('',(0.,0.,-1.));
#943=DIRECTION('center_axis',(0.,0.,1.));
#944=DIRECTION('ref_axis',(-1.,0.,0.));
#945=DIRECTION('center_axis',(0.,0.,-1.));
#946=DIRECTION('ref_axis',(-1.,0.,0.));
#947=DIRECTION('center_axis',(0.,0.,-1.));
#948=DIRECTION('ref_axis',(-1.,0.,0.));
#949=DIRECTION('',(0.,0.,-1.));
#950=DIRECTION('center_axis',(0.,0.,-1.));
#951=DIRECTION('ref_axis',(-1.,0.,0.));
#952=DIRECTION('center_axis',(0.,0.,1.));
#953=DIRECTION('ref_axis',(-1.,0.,0.));
#954=DIRECTION('center_axis',(0.,0.,-1.));
#955=DIRECTION('ref_axis',(-1.,0.,0.));
#956=DIRECTION('center_axis',(0.,0.,-1.));
#957=DIRECTION('ref_axis',(-1.,0.,0.));
#958=DIRECTION('',(0.,0.,-1.));
#959=DIRECTION('center_axis',(0.,0.,-1.));
#960=DIRECTION('ref_axis',(-1.,0.,0.));
#961=DIRECTION('center_axis',(0.,0.,1.));
#962=DIRECTION('ref_axis',(-1.,0.,0.));
#963=DIRECTION('center_axis',(0.,0.,1.));
#964=DIRECTION('ref_axis',(-1.,0.,0.));
#965=DIRECTION('center_axis',(0.,0.,1.));
#966=DIRECTION('ref_axis',(-1.,0.,0.));
#967=DIRECTION('center_axis',(0.,0.,-1.));
#968=DIRECTION('ref_axis',(-1.,0.,0.));
#969=DIRECTION('center_axis',(0.,0.,-1.));
#970=DIRECTION('ref_axis',(-1.,0.,0.));
#971=DIRECTION('',(0.,0.,-1.));
#972=DIRECTION('center_axis',(0.,0.,-1.));
#973=DIRECTION('ref_axis',(-1.,0.,0.));
#974=DIRECTION('center_axis',(0.,0.,1.));
#975=DIRECTION('ref_axis',(-1.,0.,0.));
#976=DIRECTION('center_axis',(0.,0.,1.));
#977=DIRECTION('ref_axis',(-1.,0.,0.));
#978=DIRECTION('center_axis',(0.,0.,-1.));
#979=DIRECTION('ref_axis',(-1.,0.,0.));
#980=DIRECTION('center_axis',(0.,0.,-1.));
#981=DIRECTION('ref_axis',(-1.,0.,0.));
#982=DIRECTION('',(0.,0.,-1.));
#983=DIRECTION('center_axis',(0.,0.,-1.));
#984=DIRECTION('ref_axis',(-1.,0.,0.));
#985=DIRECTION('center_axis',(0.,0.,1.));
#986=DIRECTION('ref_axis',(-1.,0.,0.));
#987=DIRECTION('center_axis',(0.,0.,1.));
#988=DIRECTION('ref_axis',(-1.,0.,0.));
#989=DIRECTION('center_axis',(0.,0.,-1.));
#990=DIRECTION('ref_axis',(-1.,0.,0.));
#991=DIRECTION('center_axis',(0.,0.,-1.));
#992=DIRECTION('ref_axis',(-1.,0.,0.));
#993=DIRECTION('',(0.,0.,-1.));
#994=DIRECTION('center_axis',(0.,0.,-1.));
#995=DIRECTION('ref_axis',(-1.,0.,0.));
#996=DIRECTION('center_axis',(0.,0.,1.));
#997=DIRECTION('ref_axis',(-1.,0.,0.));
#998=DIRECTION('center_axis',(0.,0.,1.));
#999=DIRECTION('ref_axis',(-1.,0.,0.));
#1000=DIRECTION('center_axis',(0.,0.,1.));
#1001=DIRECTION('ref_axis',(-1.,0.,0.));
#1002=DIRECTION('center_axis',(0.,0.,-1.));
#1003=DIRECTION('ref_axis',(-1.,0.,0.));
#1004=DIRECTION('center_axis',(0.,0.,-1.));
#1005=DIRECTION('ref_axis',(-1.,0.,0.));
#1006=DIRECTION('',(0.,0.,-1.));
#1007=DIRECTION('center_axis',(0.,0.,-1.));
#1008=DIRECTION('ref_axis',(-1.,0.,0.));
#1009=DIRECTION('center_axis',(0.,0.,1.));
#1010=DIRECTION('ref_axis',(-1.,0.,0.));
#1011=DIRECTION('center_axis',(0.,0.,1.));
#1012=DIRECTION('ref_axis',(-1.,0.,0.));
#1013=DIRECTION('center_axis',(0.,0.,1.));
#1014=DIRECTION('ref_axis',(-1.,0.,0.));
#1015=DIRECTION('center_axis',(0.,0.,-1.));
#1016=DIRECTION('ref_axis',(-1.,0.,0.));
#1017=DIRECTION('center_axis',(0.,0.,-1.));
#1018=DIRECTION('ref_axis',(-1.,0.,0.));
#1019=DIRECTION('',(0.,0.,-1.));
#1020=DIRECTION('center_axis',(0.,0.,-1.));
#1021=DIRECTION('ref_axis',(-1.,0.,0.));
#1022=DIRECTION('center_axis',(0.,0.,1.));
#1023=DIRECTION('ref_axis',(-1.,0.,0.));
#1024=DIRECTION('center_axis',(0.,0.,1.));
#1025=DIRECTION('ref_axis',(-1.,0.,0.));
#1026=DIRECTION('center_axis',(0.,0.,1.));
#1027=DIRECTION('ref_axis',(-1.,0.,0.));
#1028=DIRECTION('center_axis',(0.,0.,-1.));
#1029=DIRECTION('ref_axis',(-1.,0.,0.));
#1030=DIRECTION('center_axis',(0.,0.,-1.));
#1031=DIRECTION('ref_axis',(-1.,0.,0.));
#1032=DIRECTION('',(0.,0.,-1.));
#1033=DIRECTION('center_axis',(0.,0.,-1.));
#1034=DIRECTION('ref_axis',(-1.,0.,0.));
#1035=DIRECTION('center_axis',(0.,0.,1.));
#1036=DIRECTION('ref_axis',(-1.,0.,0.));
#1037=DIRECTION('center_axis',(0.,0.,1.));
#1038=DIRECTION('ref_axis',(-1.,0.,0.));
#1039=DIRECTION('center_axis',(0.,0.,-1.));
#1040=DIRECTION('ref_axis',(-1.,0.,0.));
#1041=DIRECTION('center_axis',(0.,0.,-1.));
#1042=DIRECTION('ref_axis',(-1.,0.,0.));
#1043=DIRECTION('',(0.,0.,-1.));
#1044=DIRECTION('center_axis',(0.,0.,-1.));
#1045=DIRECTION('ref_axis',(-1.,0.,0.));
#1046=DIRECTION('center_axis',(0.,0.,1.));
#1047=DIRECTION('ref_axis',(-1.,0.,0.));
#1048=DIRECTION('center_axis',(0.,0.,1.));
#1049=DIRECTION('ref_axis',(-1.,0.,0.));
#1050=DIRECTION('center_axis',(0.,0.,-1.));
#1051=DIRECTION('ref_axis',(-1.,0.,0.));
#1052=DIRECTION('center_axis',(0.,0.,-1.));
#1053=DIRECTION('ref_axis',(-1.,0.,0.));
#1054=DIRECTION('',(0.,0.,-1.));
#1055=DIRECTION('center_axis',(0.,0.,-1.));
#1056=DIRECTION('ref_axis',(-1.,0.,0.));
#1057=DIRECTION('center_axis',(0.,0.,1.));
#1058=DIRECTION('ref_axis',(-1.,0.,0.));
#1059=DIRECTION('center_axis',(0.,0.,1.));
#1060=DIRECTION('ref_axis',(-1.,0.,0.));
#1061=DIRECTION('center_axis',(0.,0.,1.));
#1062=DIRECTION('ref_axis',(-1.,0.,0.));
#1063=DIRECTION('center_axis',(0.,0.,1.));
#1064=DIRECTION('ref_axis',(-1.,0.,0.));
#1065=DIRECTION('center_axis',(0.,0.,-1.));
#1066=DIRECTION('ref_axis',(-1.,0.,0.));
#1067=DIRECTION('center_axis',(0.,0.,1.));
#1068=DIRECTION('ref_axis',(-1.,0.,0.));
#1069=DIRECTION('center_axis',(0.,0.,-1.));
#1070=DIRECTION('ref_axis',(-1.,0.,0.));
#1071=DIRECTION('center_axis',(0.,0.,1.));
#1072=DIRECTION('ref_axis',(1.,0.,0.));
#1073=DIRECTION('',(0.,-1.,0.));
#1074=DIRECTION('',(1.,0.,0.));
#1075=DIRECTION('',(0.,1.,0.));
#1076=DIRECTION('',(-1.,0.,0.));
#1077=DIRECTION('center_axis',(0.,0.,-1.));
#1078=DIRECTION('ref_axis',(-1.,0.,0.));
#1079=DIRECTION('center_axis',(0.,0.,-1.));
#1080=DIRECTION('ref_axis',(-1.,0.,0.));
#1081=DIRECTION('center_axis',(0.,0.,-1.));
#1082=DIRECTION('ref_axis',(-1.,0.,0.));
#1083=DIRECTION('',(0.,0.,-1.));
#1084=DIRECTION('center_axis',(0.,0.,1.));
#1085=DIRECTION('ref_axis',(-1.,0.,0.));
#1086=DIRECTION('center_axis',(0.,0.,-1.));
#1087=DIRECTION('ref_axis',(-1.,0.,0.));
#1088=DIRECTION('',(0.,0.,-1.));
#1089=DIRECTION('center_axis',(0.,0.,1.));
#1090=DIRECTION('ref_axis',(-1.,0.,0.));
#1091=DIRECTION('center_axis',(0.,0.,-1.));
#1092=DIRECTION('ref_axis',(-1.,0.,0.));
#1093=DIRECTION('',(0.,0.,-1.));
#1094=DIRECTION('',(0.,0.,-1.));
#1095=DIRECTION('center_axis',(0.,0.,1.));
#1096=DIRECTION('ref_axis',(-1.,0.,0.));
#1097=DIRECTION('',(0.,0.,-1.));
#1098=DIRECTION('center_axis',(0.,0.,-1.));
#1099=DIRECTION('ref_axis',(0.820420434783232,-0.571760710603739,0.));
#1100=DIRECTION('center_axis',(0.,0.,1.));
#1101=DIRECTION('ref_axis',(-1.,0.,0.));
#1102=DIRECTION('center_axis',(0.,0.,-1.));
#1103=DIRECTION('ref_axis',(-1.,0.,0.));
#1104=DIRECTION('',(0.,0.,-1.));
#1105=DIRECTION('center_axis',(0.,0.,1.));
#1106=DIRECTION('ref_axis',(-1.,0.,0.));
#1107=DIRECTION('center_axis',(0.,0.,-1.));
#1108=DIRECTION('ref_axis',(-1.,0.,0.));
#1109=DIRECTION('',(0.,0.,-1.));
#1110=DIRECTION('center_axis',(0.,0.,1.));
#1111=DIRECTION('ref_axis',(-1.,0.,0.));
#1112=DIRECTION('center_axis',(0.,0.,-1.));
#1113=DIRECTION('ref_axis',(-1.,0.,0.));
#1114=DIRECTION('',(0.,0.,-1.));
#1115=DIRECTION('center_axis',(0.,0.,1.));
#1116=DIRECTION('ref_axis',(-1.,0.,0.));
#1117=DIRECTION('center_axis',(0.,0.,-1.));
#1118=DIRECTION('ref_axis',(-1.,0.,0.));
#1119=DIRECTION('',(0.,0.,-1.));
#1120=DIRECTION('center_axis',(0.,0.,1.));
#1121=DIRECTION('ref_axis',(-1.,0.,0.));
#1122=DIRECTION('center_axis',(0.,0.,-1.));
#1123=DIRECTION('ref_axis',(-1.,0.,0.));
#1124=DIRECTION('',(0.,0.,-1.));
#1125=DIRECTION('center_axis',(0.,0.,1.));
#1126=DIRECTION('ref_axis',(-1.,0.,0.));
#1127=DIRECTION('center_axis',(0.,0.,-1.));
#1128=DIRECTION('ref_axis',(-1.,0.,0.));
#1129=DIRECTION('',(0.,0.,-1.));
#1130=DIRECTION('center_axis',(0.,0.,1.));
#1131=DIRECTION('ref_axis',(-1.,0.,0.));
#1132=DIRECTION('center_axis',(0.,0.,-1.));
#1133=DIRECTION('ref_axis',(-1.,0.,0.));
#1134=DIRECTION('',(0.,0.,-1.));
#1135=DIRECTION('center_axis',(0.,0.,1.));
#1136=DIRECTION('ref_axis',(-1.,0.,0.));
#1137=DIRECTION('center_axis',(0.,0.,-1.));
#1138=DIRECTION('ref_axis',(-1.,0.,0.));
#1139=DIRECTION('',(0.,0.,-1.));
#1140=DIRECTION('center_axis',(0.,0.,1.));
#1141=DIRECTION('ref_axis',(-1.,0.,0.));
#1142=DIRECTION('center_axis',(0.,0.,-1.));
#1143=DIRECTION('ref_axis',(-1.,0.,0.));
#1144=DIRECTION('',(0.,0.,-1.));
#1145=DIRECTION('center_axis',(0.,0.,1.));
#1146=DIRECTION('ref_axis',(-1.,0.,0.));
#1147=DIRECTION('center_axis',(0.,0.,-1.));
#1148=DIRECTION('ref_axis',(-1.,0.,0.));
#1149=DIRECTION('',(0.,0.,-1.));
#1150=DIRECTION('center_axis',(0.,0.,1.));
#1151=DIRECTION('ref_axis',(-1.,0.,0.));
#1152=DIRECTION('center_axis',(0.,0.,-1.));
#1153=DIRECTION('ref_axis',(-1.,0.,0.));
#1154=DIRECTION('',(0.,0.,-1.));
#1155=DIRECTION('center_axis',(0.,0.,1.));
#1156=DIRECTION('ref_axis',(-1.,0.,0.));
#1157=DIRECTION('center_axis',(0.,0.,-1.));
#1158=DIRECTION('ref_axis',(-1.,0.,0.));
#1159=DIRECTION('',(0.,0.,-1.));
#1160=DIRECTION('center_axis',(0.,0.,1.));
#1161=DIRECTION('ref_axis',(-1.,0.,0.));
#1162=DIRECTION('center_axis',(0.,0.,-1.));
#1163=DIRECTION('ref_axis',(-1.,0.,0.));
#1164=DIRECTION('',(0.,0.,-1.));
#1165=DIRECTION('center_axis',(0.,0.,1.));
#1166=DIRECTION('ref_axis',(-1.,0.,0.));
#1167=DIRECTION('center_axis',(0.,1.,0.));
#1168=DIRECTION('ref_axis',(-1.,0.,0.));
#1169=DIRECTION('',(-1.,0.,0.));
#1170=DIRECTION('',(0.,0.,1.));
#1171=DIRECTION('',(0.,0.,1.));
#1172=DIRECTION('center_axis',(1.,0.,0.));
#1173=DIRECTION('ref_axis',(0.,1.,0.));
#1174=DIRECTION('',(0.,1.,0.));
#1175=DIRECTION('',(0.,0.,1.));
#1176=DIRECTION('center_axis',(0.,-1.,0.));
#1177=DIRECTION('ref_axis',(1.,0.,0.));
#1178=DIRECTION('',(1.,0.,0.));
#1179=DIRECTION('',(0.,0.,1.));
#1180=DIRECTION('center_axis',(-1.,0.,0.));
#1181=DIRECTION('ref_axis',(0.,-1.,0.));
#1182=DIRECTION('',(0.,-1.,0.));
#1183=DIRECTION('center_axis',(0.,0.,1.));
#1184=DIRECTION('ref_axis',(1.,0.,0.));
#1185=CARTESIAN_POINT('',(0.,0.,0.));
#1186=CARTESIAN_POINT('Origin',(1.33866564851195,3.03288139507594,0.15));
#1187=CARTESIAN_POINT('',(1.36366564851195,3.03288139507594,0.1));
#1188=CARTESIAN_POINT('Origin',(1.33866564851195,3.03288139507594,0.1));
#1189=CARTESIAN_POINT('',(1.36366564851195,3.03288139507594,0.));
#1190=CARTESIAN_POINT('',(1.36366564851195,3.03288139507594,0.15));
#1191=CARTESIAN_POINT('Origin',(1.33866564851195,3.03288139507594,0.));
#1192=CARTESIAN_POINT('Origin',(1.46866564851195,3.03288139507594,0.15));
#1193=CARTESIAN_POINT('',(1.49366564851195,3.03288139507594,0.1));
#1194=CARTESIAN_POINT('Origin',(1.46866564851195,3.03288139507594,0.1));
#1195=CARTESIAN_POINT('',(1.49366564851195,3.03288139507594,0.));
#1196=CARTESIAN_POINT('',(1.49366564851195,3.03288139507594,0.15));
#1197=CARTESIAN_POINT('Origin',(1.46866564851195,3.03288139507594,0.));
#1198=CARTESIAN_POINT('Origin',(1.40366564851195,3.03288139507594,0.2));
#1199=CARTESIAN_POINT('',(1.51366564851195,3.03288139507594,0.15));
#1200=CARTESIAN_POINT('Origin',(1.40366564851195,3.03288139507594,0.15));
#1201=CARTESIAN_POINT('',(1.51366564851195,3.03288139507594,0.1));
#1202=CARTESIAN_POINT('',(1.51366564851195,3.03288139507594,0.2));
#1203=CARTESIAN_POINT('Origin',(1.40366564851195,3.03288139507594,0.1));
#1204=CARTESIAN_POINT('Origin',(1.40366564851195,3.03288139507594,0.1));
#1205=CARTESIAN_POINT('Origin',(1.40366564851195,0.967118604924064,0.2));
#1206=CARTESIAN_POINT('',(1.51366564851195,0.967118604924064,0.15));
#1207=CARTESIAN_POINT('Origin',(1.40366564851195,0.967118604924064,0.15));
#1208=CARTESIAN_POINT('',(1.51366564851195,0.967118604924064,0.1));
#1209=CARTESIAN_POINT('',(1.51366564851195,0.967118604924064,0.2));
#1210=CARTESIAN_POINT('Origin',(1.40366564851195,0.967118604924064,0.1));
#1211=CARTESIAN_POINT('Origin',(1.40366564851195,0.967118604924064,0.1));
#1212=CARTESIAN_POINT('',(1.49366564851195,0.967118604924064,0.1));
#1213=CARTESIAN_POINT('Origin',(1.46866564851195,0.967118604924064,0.1));
#1214=CARTESIAN_POINT('',(1.36366564851195,0.967118604924064,0.1));
#1215=CARTESIAN_POINT('Origin',(1.33866564851195,0.967118604924064,0.1));
#1216=CARTESIAN_POINT('Origin',(0.18,3.82,0.2));
#1217=CARTESIAN_POINT('',(0.3,3.82,0.15));
#1218=CARTESIAN_POINT('Origin',(0.18,3.82,0.15));
#1219=CARTESIAN_POINT('',(0.3,3.82,0.1));
#1220=CARTESIAN_POINT('',(0.3,3.82,0.2));
#1221=CARTESIAN_POINT('Origin',(0.18,3.82,0.1));
#1222=CARTESIAN_POINT('Origin',(0.18,3.82,0.1));
#1223=CARTESIAN_POINT('',(0.247,3.82,0.1));
#1224=CARTESIAN_POINT('Origin',(0.18,3.82,0.1));
#1225=CARTESIAN_POINT('Origin',(0.18,0.18,0.2));
#1226=CARTESIAN_POINT('',(0.3,0.18,0.15));
#1227=CARTESIAN_POINT('Origin',(0.18,0.18,0.15));
#1228=CARTESIAN_POINT('',(0.3,0.18,0.1));
#1229=CARTESIAN_POINT('',(0.3,0.18,0.2));
#1230=CARTESIAN_POINT('Origin',(0.18,0.18,0.1));
#1231=CARTESIAN_POINT('Origin',(0.18,0.18,0.1));
#1232=CARTESIAN_POINT('',(0.247,0.18,0.1));
#1233=CARTESIAN_POINT('Origin',(0.18,0.18,0.1));
#1234=CARTESIAN_POINT('Origin',(2.59633435148805,3.03288139507594,0.2));
#1235=CARTESIAN_POINT('',(2.70633435148805,3.03288139507594,0.15));
#1236=CARTESIAN_POINT('Origin',(2.59633435148805,3.03288139507594,0.15));
#1237=CARTESIAN_POINT('',(2.70633435148805,3.03288139507594,0.1));
#1238=CARTESIAN_POINT('',(2.70633435148805,3.03288139507594,0.2));
#1239=CARTESIAN_POINT('Origin',(2.59633435148805,3.03288139507594,0.1));
#1240=CARTESIAN_POINT('Origin',(2.59633435148805,3.03288139507594,0.1));
#1241=CARTESIAN_POINT('',(2.55633435148805,3.03288139507594,0.1));
#1242=CARTESIAN_POINT('Origin',(2.53133435148805,3.03288139507594,0.1));
#1243=CARTESIAN_POINT('',(2.68633435148805,3.03288139507594,0.1));
#1244=CARTESIAN_POINT('Origin',(2.66133435148805,3.03288139507594,0.1));
#1245=CARTESIAN_POINT('Origin',(0.807331297023904,2.,0.2));
#1246=CARTESIAN_POINT('',(0.917331297023904,2.,0.15));
#1247=CARTESIAN_POINT('Origin',(0.807331297023904,2.,0.15));
#1248=CARTESIAN_POINT('',(0.917331297023904,2.,0.1));
#1249=CARTESIAN_POINT('',(0.917331297023904,2.,0.2));
#1250=CARTESIAN_POINT('Origin',(0.807331297023904,2.,0.1));
#1251=CARTESIAN_POINT('Origin',(0.807331297023904,2.,0.1));
#1252=CARTESIAN_POINT('',(0.767331297023904,2.,0.1));
#1253=CARTESIAN_POINT('Origin',(0.742331297023904,2.,0.1));
#1254=CARTESIAN_POINT('',(0.897331297023904,2.,0.1));
#1255=CARTESIAN_POINT('Origin',(0.872331297023904,2.,0.1));
#1256=CARTESIAN_POINT('Origin',(2.59633435148805,0.967118604924064,0.2));
#1257=CARTESIAN_POINT('',(2.70633435148805,0.967118604924064,0.15));
#1258=CARTESIAN_POINT('Origin',(2.59633435148805,0.967118604924064,0.15));
#1259=CARTESIAN_POINT('',(2.70633435148805,0.967118604924064,0.1));
#1260=CARTESIAN_POINT('',(2.70633435148805,0.967118604924064,0.2));
#1261=CARTESIAN_POINT('Origin',(2.59633435148805,0.967118604924064,0.1));
#1262=CARTESIAN_POINT('Origin',(2.59633435148805,0.967118604924064,0.1));
#1263=CARTESIAN_POINT('',(2.55633435148805,0.967118604924064,0.1));
#1264=CARTESIAN_POINT('Origin',(2.53133435148805,0.967118604924064,0.1));
#1265=CARTESIAN_POINT('',(2.68633435148805,0.967118604924064,0.1));
#1266=CARTESIAN_POINT('Origin',(2.66133435148805,0.967118604924064,0.1));
#1267=CARTESIAN_POINT('Origin',(3.82,3.82,0.2));
#1268=CARTESIAN_POINT('',(3.94,3.82,0.15));
#1269=CARTESIAN_POINT('Origin',(3.82,3.82,0.15));
#1270=CARTESIAN_POINT('',(3.94,3.82,0.1));
#1271=CARTESIAN_POINT('',(3.94,3.82,0.2));
#1272=CARTESIAN_POINT('Origin',(3.82,3.82,0.1));
#1273=CARTESIAN_POINT('Origin',(3.82,3.82,0.1));
#1274=CARTESIAN_POINT('',(3.887,3.82,0.1));
#1275=CARTESIAN_POINT('Origin',(3.82,3.82,0.1));
#1276=CARTESIAN_POINT('Origin',(3.82,0.18,0.2));
#1277=CARTESIAN_POINT('',(3.94,0.18,0.15));
#1278=CARTESIAN_POINT('Origin',(3.82,0.18,0.15));
#1279=CARTESIAN_POINT('',(3.94,0.18,0.1));
#1280=CARTESIAN_POINT('',(3.94,0.18,0.2));
#1281=CARTESIAN_POINT('Origin',(3.82,0.18,0.1));
#1282=CARTESIAN_POINT('Origin',(3.82,0.18,0.1));
#1283=CARTESIAN_POINT('',(3.887,0.18,0.1));
#1284=CARTESIAN_POINT('Origin',(3.82,0.18,0.1));
#1285=CARTESIAN_POINT('Origin',(3.1926687029761,2.,0.2));
#1286=CARTESIAN_POINT('',(3.3026687029761,2.,0.15));
#1287=CARTESIAN_POINT('Origin',(3.1926687029761,2.,0.15));
#1288=CARTESIAN_POINT('',(3.3026687029761,2.,0.1));
#1289=CARTESIAN_POINT('',(3.3026687029761,2.,0.2));
#1290=CARTESIAN_POINT('Origin',(3.1926687029761,2.,0.1));
#1291=CARTESIAN_POINT('Origin',(3.1926687029761,2.,0.1));
#1292=CARTESIAN_POINT('',(3.1526687029761,2.,0.1));
#1293=CARTESIAN_POINT('Origin',(3.1276687029761,2.,0.1));
#1294=CARTESIAN_POINT('',(3.2826687029761,2.,0.1));
#1295=CARTESIAN_POINT('Origin',(3.2576687029761,2.,0.1));
#1296=CARTESIAN_POINT('Origin',(2.,2.,0.1));
#1297=CARTESIAN_POINT('',(1.66390188694259,2.46036730813476,0.1));
#1298=CARTESIAN_POINT('',(2.57,2.,0.1));
#1299=CARTESIAN_POINT('Origin',(2.,2.,0.1));
#1300=CARTESIAN_POINT('',(1.45174772974411,2.15594694020487,0.1));
#1301=CARTESIAN_POINT('Origin',(1.53236035217356,2.32590360504413,0.1));
#1302=CARTESIAN_POINT('Origin',(2.,2.,0.1));
#1303=CARTESIAN_POINT('Origin',(2.,2.,0.15));
#1304=CARTESIAN_POINT('',(0.,4.,0.15));
#1305=CARTESIAN_POINT('',(0.,0.,0.15));
#1306=CARTESIAN_POINT('',(0.,4.,0.15));
#1307=CARTESIAN_POINT('',(4.,0.,0.15));
#1308=CARTESIAN_POINT('',(0.,0.,0.15));
#1309=CARTESIAN_POINT('',(4.,4.,0.15));
#1310=CARTESIAN_POINT('',(4.,0.,0.15));
#1311=CARTESIAN_POINT('',(4.,4.,0.15));
#1312=CARTESIAN_POINT('',(3.51,0.8,0.15));
#1313=CARTESIAN_POINT('Origin',(3.2,0.8,0.15));
#1314=CARTESIAN_POINT('',(2.57,2.,0.15));
#1315=CARTESIAN_POINT('Origin',(2.,2.,0.15));
#1316=CARTESIAN_POINT('Origin',(3.1276687029761,2.,0.2));
#1317=CARTESIAN_POINT('',(3.1526687029761,2.,0.));
#1318=CARTESIAN_POINT('',(3.1526687029761,2.,0.2));
#1319=CARTESIAN_POINT('Origin',(3.1276687029761,2.,0.));
#1320=CARTESIAN_POINT('Origin',(1.33866564851195,0.967118604924064,0.2));
#1321=CARTESIAN_POINT('',(1.36366564851195,0.967118604924064,0.));
#1322=CARTESIAN_POINT('',(1.36366564851195,0.967118604924064,0.2));
#1323=CARTESIAN_POINT('Origin',(1.33866564851195,0.967118604924064,0.));
#1324=CARTESIAN_POINT('Origin',(2.,2.,0.2));
#1325=CARTESIAN_POINT('',(2.57,2.,0.2));
#1326=CARTESIAN_POINT('',(1.45174772974411,2.15594694020487,0.));
#1327=CARTESIAN_POINT('',(1.45174772974411,2.15594694020487,0.2));
#1328=CARTESIAN_POINT('',(1.66390188694259,2.46036730813476,0.));
#1329=CARTESIAN_POINT('Origin',(2.,2.,0.));
#1330=CARTESIAN_POINT('',(1.66390188694259,2.46036730813476,0.2));
#1331=CARTESIAN_POINT('Origin',(1.53236035217356,2.32590360504413,0.2));
#1332=CARTESIAN_POINT('Origin',(1.53236035217356,2.32590360504413,0.));
#1333=CARTESIAN_POINT('Origin',(3.2,0.8,0.2));
#1334=CARTESIAN_POINT('',(3.51,0.8,0.));
#1335=CARTESIAN_POINT('',(3.51,0.8,0.2));
#1336=CARTESIAN_POINT('Origin',(3.2,0.8,0.));
#1337=CARTESIAN_POINT('Origin',(0.18,0.18,0.2));
#1338=CARTESIAN_POINT('',(0.247,0.18,0.));
#1339=CARTESIAN_POINT('',(0.247,0.18,0.2));
#1340=CARTESIAN_POINT('Origin',(0.18,0.18,0.));
#1341=CARTESIAN_POINT('Origin',(0.872331297023904,2.,0.2));
#1342=CARTESIAN_POINT('',(0.897331297023904,2.,0.));
#1343=CARTESIAN_POINT('',(0.897331297023904,2.,0.2));
#1344=CARTESIAN_POINT('Origin',(0.872331297023904,2.,0.));
#1345=CARTESIAN_POINT('Origin',(2.66133435148805,0.967118604924064,0.2));
#1346=CARTESIAN_POINT('',(2.68633435148805,0.967118604924064,0.));
#1347=CARTESIAN_POINT('',(2.68633435148805,0.967118604924064,0.2));
#1348=CARTESIAN_POINT('Origin',(2.66133435148805,0.967118604924064,0.));
#1349=CARTESIAN_POINT('Origin',(2.66133435148805,3.03288139507594,0.2));
#1350=CARTESIAN_POINT('',(2.68633435148805,3.03288139507594,0.));
#1351=CARTESIAN_POINT('',(2.68633435148805,3.03288139507594,0.2));
#1352=CARTESIAN_POINT('Origin',(2.66133435148805,3.03288139507594,0.));
#1353=CARTESIAN_POINT('Origin',(3.2576687029761,2.,0.2));
#1354=CARTESIAN_POINT('',(3.2826687029761,2.,0.));
#1355=CARTESIAN_POINT('',(3.2826687029761,2.,0.2));
#1356=CARTESIAN_POINT('Origin',(3.2576687029761,2.,0.));
#1357=CARTESIAN_POINT('Origin',(1.46866564851195,0.967118604924064,0.2));
#1358=CARTESIAN_POINT('',(1.49366564851195,0.967118604924064,0.));
#1359=CARTESIAN_POINT('',(1.49366564851195,0.967118604924064,0.2));
#1360=CARTESIAN_POINT('Origin',(1.46866564851195,0.967118604924064,0.));
#1361=CARTESIAN_POINT('Origin',(3.82,3.82,0.2));
#1362=CARTESIAN_POINT('',(3.887,3.82,0.));
#1363=CARTESIAN_POINT('',(3.887,3.82,0.2));
#1364=CARTESIAN_POINT('Origin',(3.82,3.82,0.));
#1365=CARTESIAN_POINT('Origin',(3.82,0.18,0.2));
#1366=CARTESIAN_POINT('',(3.887,0.18,0.));
#1367=CARTESIAN_POINT('',(3.887,0.18,0.2));
#1368=CARTESIAN_POINT('Origin',(3.82,0.18,0.));
#1369=CARTESIAN_POINT('Origin',(0.18,3.82,0.2));
#1370=CARTESIAN_POINT('',(0.247,3.82,0.));
#1371=CARTESIAN_POINT('',(0.247,3.82,0.2));
#1372=CARTESIAN_POINT('Origin',(0.18,3.82,0.));
#1373=CARTESIAN_POINT('Origin',(0.742331297023904,2.,0.2));
#1374=CARTESIAN_POINT('',(0.767331297023904,2.,0.));
#1375=CARTESIAN_POINT('',(0.767331297023904,2.,0.2));
#1376=CARTESIAN_POINT('Origin',(0.742331297023904,2.,0.));
#1377=CARTESIAN_POINT('Origin',(2.53133435148805,0.967118604924064,0.2));
#1378=CARTESIAN_POINT('',(2.55633435148805,0.967118604924064,0.));
#1379=CARTESIAN_POINT('',(2.55633435148805,0.967118604924064,0.2));
#1380=CARTESIAN_POINT('Origin',(2.53133435148805,0.967118604924064,0.));
#1381=CARTESIAN_POINT('Origin',(2.53133435148805,3.03288139507594,0.2));
#1382=CARTESIAN_POINT('',(2.55633435148805,3.03288139507594,0.));
#1383=CARTESIAN_POINT('',(2.55633435148805,3.03288139507594,0.2));
#1384=CARTESIAN_POINT('Origin',(2.53133435148805,3.03288139507594,0.));
#1385=CARTESIAN_POINT('Origin',(4.,4.,0.));
#1386=CARTESIAN_POINT('',(4.,4.,0.));
#1387=CARTESIAN_POINT('',(0.,4.,0.));
#1388=CARTESIAN_POINT('',(4.,4.,0.));
#1389=CARTESIAN_POINT('',(0.,4.,0.));
#1390=CARTESIAN_POINT('',(4.,4.,0.));
#1391=CARTESIAN_POINT('Origin',(4.,0.,0.));
#1392=CARTESIAN_POINT('',(4.,0.,0.));
#1393=CARTESIAN_POINT('',(4.,0.,0.));
#1394=CARTESIAN_POINT('',(4.,0.,0.));
#1395=CARTESIAN_POINT('Origin',(0.,0.,0.));
#1396=CARTESIAN_POINT('',(0.,0.,0.));
#1397=CARTESIAN_POINT('',(0.,0.,0.));
#1398=CARTESIAN_POINT('',(0.,0.,0.));
#1399=CARTESIAN_POINT('Origin',(0.,4.,0.));
#1400=CARTESIAN_POINT('',(0.,4.,0.));
#1401=CARTESIAN_POINT('Origin',(2.,2.,0.));
#1402=UNCERTAINTY_MEASURE_WITH_UNIT(LENGTH_MEASURE(0.000393700787401575),
#1407,'DISTANCE_ACCURACY_VALUE',
'Maximum model space distance between geometric entities at asserted c
onnectivities');
#1403=UNCERTAINTY_MEASURE_WITH_UNIT(LENGTH_MEASURE(0.000393700787401575),
#1407,'DISTANCE_ACCURACY_VALUE',
'Maximum model space distance between geometric entities at asserted c
onnectivities');
#1404=(
GEOMETRIC_REPRESENTATION_CONTEXT(3)
GLOBAL_UNCERTAINTY_ASSIGNED_CONTEXT((#1402))
GLOBAL_UNIT_ASSIGNED_CONTEXT((#1407,#1411,#1412))
REPRESENTATION_CONTEXT('','3D')
);
#1405=(
GEOMETRIC_REPRESENTATION_CONTEXT(3)
GLOBAL_UNCERTAINTY_ASSIGNED_CONTEXT((#1403))
GLOBAL_UNIT_ASSIGNED_CONTEXT((#1407,#1411,#1412))
REPRESENTATION_CONTEXT('','3D')
);
#1406=DIMENSIONAL_EXPONENTS(1.,0.,0.,0.,0.,0.,0.);
#1407=(
CONVERSION_BASED_UNIT('inch',#1410)
LENGTH_UNIT()
NAMED_UNIT(#1406)
);
#1408=(
LENGTH_UNIT()
NAMED_UNIT(*)
SI_UNIT(.MILLI.,.METRE.)
);
#1409=(
LENGTH_UNIT()
NAMED_UNIT(*)
SI_UNIT($,.METRE.)
);
#1410=LENGTH_MEASURE_WITH_UNIT(LENGTH_MEASURE(25.4),#1408);
#1411=(
NAMED_UNIT(*)
PLANE_ANGLE_UNIT()
SI_UNIT($,.RADIAN.)
);
#1412=(
NAMED_UNIT(*)
SI_UNIT($,.STERADIAN.)
SOLID_ANGLE_UNIT()
);
#1413=SHAPE_DEFINITION_REPRESENTATION(#1414,#1415);
#1414=PRODUCT_DEFINITION_SHAPE('',$,#1417);
#1415=SHAPE_REPRESENTATION('',(#822),#1404);
#1416=PRODUCT_DEFINITION_CONTEXT('part definition',#1421,'design');
#1417=PRODUCT_DEFINITION('2026-04-04-16-01-33-408','Enclosure_Top',#1418,
#1416);
#1418=PRODUCT_DEFINITION_FORMATION('',$,#1423);
#1419=PRODUCT_RELATED_PRODUCT_CATEGORY('Enclosure_Top','Enclosure_Top',
(#1423));
#1420=APPLICATION_PROTOCOL_DEFINITION('international standard',
'automotive_design',2009,#1421);
#1421=APPLICATION_CONTEXT(
'Core Data for Automotive Mechanical Design Process');
#1422=PRODUCT_CONTEXT('part definition',#1421,'mechanical');
#1423=PRODUCT('2026-04-04-16-01-33-408','Enclosure_Top',$,(#1422));
#1424=PRESENTATION_STYLE_ASSIGNMENT((#1425));
#1425=SURFACE_STYLE_USAGE(.BOTH.,#1426);
#1426=SURFACE_SIDE_STYLE('',(#1427));
#1427=SURFACE_STYLE_FILL_AREA(#1428);
#1428=FILL_AREA_STYLE('Steel - Satin',(#1429));
#1429=FILL_AREA_STYLE_COLOUR('Steel - Satin',#1430);
#1430=COLOUR_RGB('Steel - Satin',0.627450980392157,0.627450980392157,0.627450980392157);
ENDSEC;
END-ISO-10303-21;
