ISO-10303-21;
HEADER;
/* Generated by software containing ST-Developer
 * from STEP Tools, Inc. (www.steptools.com) 
 */

FILE_DESCRIPTION(
/* description */ (''),
/* implementation_level */ '2;1');

FILE_NAME(
/* name */ 'Enclosure_Top_v2.step',
/* time_stamp */ '2026-04-10T13:33:00-04:00',
/* author */ (''),
/* organization */ (''),
/* preprocessor_version */ 'ST-DEVELOPER v20.1',
/* originating_system */ 'Autodesk Translation Framework v14.24.0.0',
/* authorisation */ '');

FILE_SCHEMA (('AUTOMOTIVE_DESIGN { 1 0 10303 214 3 1 1 }'));
ENDSEC;

DATA;
#10=MECHANICAL_DESIGN_GEOMETRIC_PRESENTATION_REPRESENTATION('',(#13),#1444);
#11=SHAPE_REPRESENTATION_RELATIONSHIP('SRR','None',#1454,#12);
#12=ADVANCED_BREP_SHAPE_REPRESENTATION('',(#14),#1443);
#13=STYLED_ITEM('',(#1463),#14);
#14=MANIFOLD_SOLID_BREP('Body9',#832);
#15=LINE('',#1230,#58);
#16=LINE('',#1236,#59);
#17=LINE('',#1242,#60);
#18=LINE('',#1248,#61);
#19=LINE('',#1255,#62);
#20=LINE('',#1266,#63);
#21=LINE('',#1275,#64);
#22=LINE('',#1284,#65);
#23=LINE('',#1295,#66);
#24=LINE('',#1306,#67);
#25=LINE('',#1317,#68);
#26=LINE('',#1326,#69);
#27=LINE('',#1335,#70);
#28=LINE('',#1345,#71);
#29=LINE('',#1347,#72);
#30=LINE('',#1349,#73);
#31=LINE('',#1350,#74);
#32=LINE('',#1357,#75);
#33=LINE('',#1361,#76);
#34=LINE('',#1364,#77);
#35=LINE('',#1366,#78);
#36=LINE('',#1369,#79);
#37=LINE('',#1374,#80);
#38=LINE('',#1378,#81);
#39=LINE('',#1382,#82);
#40=LINE('',#1386,#83);
#41=LINE('',#1390,#84);
#42=LINE('',#1394,#85);
#43=LINE('',#1398,#86);
#44=LINE('',#1402,#87);
#45=LINE('',#1406,#88);
#46=LINE('',#1410,#89);
#47=LINE('',#1414,#90);
#48=LINE('',#1418,#91);
#49=LINE('',#1422,#92);
#50=LINE('',#1427,#93);
#51=LINE('',#1428,#94);
#52=LINE('',#1429,#95);
#53=LINE('',#1432,#96);
#54=LINE('',#1433,#97);
#55=LINE('',#1436,#98);
#56=LINE('',#1437,#99);
#57=LINE('',#1439,#100);
#58=VECTOR('',#969,0.32);
#59=VECTOR('',#976,0.0375);
#60=VECTOR('',#983,0.0375);
#61=VECTOR('',#990,0.11);
#62=VECTOR('',#999,0.11);
#63=VECTOR('',#1012,0.12);
#64=VECTOR('',#1023,0.12);
#65=VECTOR('',#1034,0.11);
#66=VECTOR('',#1047,0.11);
#67=VECTOR('',#1060,0.11);
#68=VECTOR('',#1073,0.12);
#69=VECTOR('',#1084,0.12);
#70=VECTOR('',#1095,0.11);
#71=VECTOR('',#1106,0.393700787401575);
#72=VECTOR('',#1107,0.393700787401575);
#73=VECTOR('',#1108,0.393700787401575);
#74=VECTOR('',#1109,0.393700787401575);
#75=VECTOR('',#1116,0.0375);
#76=VECTOR('',#1121,0.0375);
#77=VECTOR('',#1126,0.57);
#78=VECTOR('',#1127,0.393700787401575);
#79=VECTOR('',#1130,0.393700787401575);
#80=VECTOR('',#1137,0.325);
#81=VECTOR('',#1142,0.067);
#82=VECTOR('',#1147,0.0375);
#83=VECTOR('',#1152,0.0375);
#84=VECTOR('',#1157,0.0375);
#85=VECTOR('',#1162,0.0375);
#86=VECTOR('',#1167,0.0375);
#87=VECTOR('',#1172,0.0670000000000001);
#88=VECTOR('',#1177,0.0670000000000001);
#89=VECTOR('',#1182,0.067);
#90=VECTOR('',#1187,0.0375);
#91=VECTOR('',#1192,0.0375);
#92=VECTOR('',#1197,0.0375);
#93=VECTOR('',#1202,0.393700787401575);
#94=VECTOR('',#1203,0.393700787401575);
#95=VECTOR('',#1204,0.393700787401575);
#96=VECTOR('',#1207,0.393700787401575);
#97=VECTOR('',#1208,0.393700787401575);
#98=VECTOR('',#1211,0.393700787401575);
#99=VECTOR('',#1212,0.393700787401575);
#100=VECTOR('',#1215,0.393700787401575);
#101=CYLINDRICAL_SURFACE('',#851,0.32);
#102=CYLINDRICAL_SURFACE('',#853,0.0375);
#103=CYLINDRICAL_SURFACE('',#856,0.0375);
#104=CYLINDRICAL_SURFACE('',#859,0.11);
#105=CYLINDRICAL_SURFACE('',#863,0.11);
#106=CYLINDRICAL_SURFACE('',#869,0.12);
#107=CYLINDRICAL_SURFACE('',#874,0.12);
#108=CYLINDRICAL_SURFACE('',#879,0.11);
#109=CYLINDRICAL_SURFACE('',#885,0.11);
#110=CYLINDRICAL_SURFACE('',#891,0.11);
#111=CYLINDRICAL_SURFACE('',#897,0.12);
#112=CYLINDRICAL_SURFACE('',#902,0.12);
#113=CYLINDRICAL_SURFACE('',#907,0.11);
#114=CYLINDRICAL_SURFACE('',#916,0.0375);
#115=CYLINDRICAL_SURFACE('',#918,0.0375);
#116=CYLINDRICAL_SURFACE('',#920,0.57);
#117=CYLINDRICAL_SURFACE('',#922,0.188105456641317);
#118=CYLINDRICAL_SURFACE('',#924,0.325);
#119=CYLINDRICAL_SURFACE('',#926,0.067);
#120=CYLINDRICAL_SURFACE('',#928,0.0375);
#121=CYLINDRICAL_SURFACE('',#930,0.0375);
#122=CYLINDRICAL_SURFACE('',#932,0.0375);
#123=CYLINDRICAL_SURFACE('',#934,0.0375);
#124=CYLINDRICAL_SURFACE('',#936,0.0375);
#125=CYLINDRICAL_SURFACE('',#938,0.0670000000000001);
#126=CYLINDRICAL_SURFACE('',#940,0.0670000000000001);
#127=CYLINDRICAL_SURFACE('',#942,0.067);
#128=CYLINDRICAL_SURFACE('',#944,0.0375);
#129=CYLINDRICAL_SURFACE('',#946,0.0375);
#130=CYLINDRICAL_SURFACE('',#948,0.0375);
#131=FACE_BOUND('',#227,.T.);
#132=FACE_BOUND('',#233,.T.);
#133=FACE_BOUND('',#234,.T.);
#134=FACE_BOUND('',#237,.T.);
#135=FACE_BOUND('',#238,.T.);
#136=FACE_BOUND('',#241,.T.);
#137=FACE_BOUND('',#244,.T.);
#138=FACE_BOUND('',#247,.T.);
#139=FACE_BOUND('',#248,.T.);
#140=FACE_BOUND('',#251,.T.);
#141=FACE_BOUND('',#252,.T.);
#142=FACE_BOUND('',#255,.T.);
#143=FACE_BOUND('',#256,.T.);
#144=FACE_BOUND('',#259,.T.);
#145=FACE_BOUND('',#262,.T.);
#146=FACE_BOUND('',#265,.T.);
#147=FACE_BOUND('',#266,.T.);
#148=FACE_BOUND('',#268,.T.);
#149=FACE_BOUND('',#269,.T.);
#150=FACE_BOUND('',#270,.T.);
#151=FACE_BOUND('',#271,.T.);
#152=FACE_BOUND('',#272,.T.);
#153=FACE_BOUND('',#273,.T.);
#154=FACE_BOUND('',#274,.T.);
#155=FACE_BOUND('',#275,.T.);
#156=FACE_BOUND('',#276,.T.);
#157=FACE_BOUND('',#277,.T.);
#158=FACE_BOUND('',#278,.T.);
#159=FACE_BOUND('',#279,.T.);
#160=FACE_BOUND('',#302,.T.);
#161=FACE_BOUND('',#303,.T.);
#162=FACE_BOUND('',#304,.T.);
#163=FACE_BOUND('',#305,.T.);
#164=FACE_BOUND('',#306,.T.);
#165=FACE_BOUND('',#307,.T.);
#166=FACE_BOUND('',#308,.T.);
#167=FACE_BOUND('',#309,.T.);
#168=FACE_BOUND('',#310,.T.);
#169=FACE_BOUND('',#311,.T.);
#170=FACE_BOUND('',#312,.T.);
#171=FACE_BOUND('',#313,.T.);
#172=FACE_BOUND('',#314,.T.);
#173=FACE_BOUND('',#315,.T.);
#174=FACE_BOUND('',#316,.T.);
#175=FACE_BOUND('',#317,.T.);
#176=FACE_BOUND('',#318,.T.);
#177=FACE_BOUND('',#319,.T.);
#178=FACE_BOUND('',#320,.T.);
#179=FACE_OUTER_BOUND('',#226,.T.);
#180=FACE_OUTER_BOUND('',#228,.T.);
#181=FACE_OUTER_BOUND('',#229,.T.);
#182=FACE_OUTER_BOUND('',#230,.T.);
#183=FACE_OUTER_BOUND('',#231,.T.);
#184=FACE_OUTER_BOUND('',#232,.T.);
#185=FACE_OUTER_BOUND('',#235,.T.);
#186=FACE_OUTER_BOUND('',#236,.T.);
#187=FACE_OUTER_BOUND('',#239,.T.);
#188=FACE_OUTER_BOUND('',#240,.T.);
#189=FACE_OUTER_BOUND('',#242,.T.);
#190=FACE_OUTER_BOUND('',#243,.T.);
#191=FACE_OUTER_BOUND('',#245,.T.);
#192=FACE_OUTER_BOUND('',#246,.T.);
#193=FACE_OUTER_BOUND('',#249,.T.);
#194=FACE_OUTER_BOUND('',#250,.T.);
#195=FACE_OUTER_BOUND('',#253,.T.);
#196=FACE_OUTER_BOUND('',#254,.T.);
#197=FACE_OUTER_BOUND('',#257,.T.);
#198=FACE_OUTER_BOUND('',#258,.T.);
#199=FACE_OUTER_BOUND('',#260,.T.);
#200=FACE_OUTER_BOUND('',#261,.T.);
#201=FACE_OUTER_BOUND('',#263,.T.);
#202=FACE_OUTER_BOUND('',#264,.T.);
#203=FACE_OUTER_BOUND('',#267,.T.);
#204=FACE_OUTER_BOUND('',#280,.T.);
#205=FACE_OUTER_BOUND('',#281,.T.);
#206=FACE_OUTER_BOUND('',#282,.T.);
#207=FACE_OUTER_BOUND('',#283,.T.);
#208=FACE_OUTER_BOUND('',#284,.T.);
#209=FACE_OUTER_BOUND('',#285,.T.);
#210=FACE_OUTER_BOUND('',#286,.T.);
#211=FACE_OUTER_BOUND('',#287,.T.);
#212=FACE_OUTER_BOUND('',#288,.T.);
#213=FACE_OUTER_BOUND('',#289,.T.);
#214=FACE_OUTER_BOUND('',#290,.T.);
#215=FACE_OUTER_BOUND('',#291,.T.);
#216=FACE_OUTER_BOUND('',#292,.T.);
#217=FACE_OUTER_BOUND('',#293,.T.);
#218=FACE_OUTER_BOUND('',#294,.T.);
#219=FACE_OUTER_BOUND('',#295,.T.);
#220=FACE_OUTER_BOUND('',#296,.T.);
#221=FACE_OUTER_BOUND('',#297,.T.);
#222=FACE_OUTER_BOUND('',#298,.T.);
#223=FACE_OUTER_BOUND('',#299,.T.);
#224=FACE_OUTER_BOUND('',#300,.T.);
#225=FACE_OUTER_BOUND('',#301,.T.);
#226=EDGE_LOOP('',(#558,#559,#560));
#227=EDGE_LOOP('',(#561));
#228=EDGE_LOOP('',(#562,#563,#564,#565));
#229=EDGE_LOOP('',(#566,#567,#568,#569));
#230=EDGE_LOOP('',(#570,#571,#572,#573));
#231=EDGE_LOOP('',(#574,#575,#576,#577));
#232=EDGE_LOOP('',(#578));
#233=EDGE_LOOP('',(#579));
#234=EDGE_LOOP('',(#580));
#235=EDGE_LOOP('',(#581,#582,#583,#584));
#236=EDGE_LOOP('',(#585));
#237=EDGE_LOOP('',(#586));
#238=EDGE_LOOP('',(#587));
#239=EDGE_LOOP('',(#588,#589,#590,#591));
#240=EDGE_LOOP('',(#592));
#241=EDGE_LOOP('',(#593));
#242=EDGE_LOOP('',(#594,#595,#596,#597));
#243=EDGE_LOOP('',(#598));
#244=EDGE_LOOP('',(#599));
#245=EDGE_LOOP('',(#600,#601,#602,#603));
#246=EDGE_LOOP('',(#604));
#247=EDGE_LOOP('',(#605));
#248=EDGE_LOOP('',(#606));
#249=EDGE_LOOP('',(#607,#608,#609,#610));
#250=EDGE_LOOP('',(#611));
#251=EDGE_LOOP('',(#612));
#252=EDGE_LOOP('',(#613));
#253=EDGE_LOOP('',(#614,#615,#616,#617));
#254=EDGE_LOOP('',(#618));
#255=EDGE_LOOP('',(#619));
#256=EDGE_LOOP('',(#620));
#257=EDGE_LOOP('',(#621,#622,#623,#624));
#258=EDGE_LOOP('',(#625));
#259=EDGE_LOOP('',(#626));
#260=EDGE_LOOP('',(#627,#628,#629,#630));
#261=EDGE_LOOP('',(#631));
#262=EDGE_LOOP('',(#632));
#263=EDGE_LOOP('',(#633,#634,#635,#636));
#264=EDGE_LOOP('',(#637));
#265=EDGE_LOOP('',(#638));
#266=EDGE_LOOP('',(#639));
#267=EDGE_LOOP('',(#640,#641,#642,#643));
#268=EDGE_LOOP('',(#644));
#269=EDGE_LOOP('',(#645));
#270=EDGE_LOOP('',(#646));
#271=EDGE_LOOP('',(#647));
#272=EDGE_LOOP('',(#648));
#273=EDGE_LOOP('',(#649));
#274=EDGE_LOOP('',(#650));
#275=EDGE_LOOP('',(#651));
#276=EDGE_LOOP('',(#652));
#277=EDGE_LOOP('',(#653));
#278=EDGE_LOOP('',(#654));
#279=EDGE_LOOP('',(#655));
#280=EDGE_LOOP('',(#656,#657,#658,#659));
#281=EDGE_LOOP('',(#660,#661,#662,#663));
#282=EDGE_LOOP('',(#664,#665,#666,#667,#668,#669,#670,#671));
#283=EDGE_LOOP('',(#672,#673,#674,#675));
#284=EDGE_LOOP('',(#676,#677,#678,#679));
#285=EDGE_LOOP('',(#680,#681,#682,#683));
#286=EDGE_LOOP('',(#684,#685,#686,#687));
#287=EDGE_LOOP('',(#688,#689,#690,#691));
#288=EDGE_LOOP('',(#692,#693,#694,#695));
#289=EDGE_LOOP('',(#696,#697,#698,#699));
#290=EDGE_LOOP('',(#700,#701,#702,#703));
#291=EDGE_LOOP('',(#704,#705,#706,#707));
#292=EDGE_LOOP('',(#708,#709,#710,#711));
#293=EDGE_LOOP('',(#712,#713,#714,#715));
#294=EDGE_LOOP('',(#716,#717,#718,#719));
#295=EDGE_LOOP('',(#720,#721,#722,#723));
#296=EDGE_LOOP('',(#724,#725,#726,#727));
#297=EDGE_LOOP('',(#728,#729,#730,#731));
#298=EDGE_LOOP('',(#732,#733,#734,#735));
#299=EDGE_LOOP('',(#736,#737,#738,#739));
#300=EDGE_LOOP('',(#740,#741,#742,#743));
#301=EDGE_LOOP('',(#744,#745,#746,#747));
#302=EDGE_LOOP('',(#748));
#303=EDGE_LOOP('',(#749));
#304=EDGE_LOOP('',(#750));
#305=EDGE_LOOP('',(#751));
#306=EDGE_LOOP('',(#752));
#307=EDGE_LOOP('',(#753,#754));
#308=EDGE_LOOP('',(#755));
#309=EDGE_LOOP('',(#756));
#310=EDGE_LOOP('',(#757));
#311=EDGE_LOOP('',(#758));
#312=EDGE_LOOP('',(#759));
#313=EDGE_LOOP('',(#760));
#314=EDGE_LOOP('',(#761));
#315=EDGE_LOOP('',(#762));
#316=EDGE_LOOP('',(#763));
#317=EDGE_LOOP('',(#764));
#318=EDGE_LOOP('',(#765));
#319=EDGE_LOOP('',(#766));
#320=EDGE_LOOP('',(#767));
#321=CIRCLE('',#847,0.57);
#322=CIRCLE('',#848,0.188105456641317);
#323=CIRCLE('',#849,0.57);
#324=CIRCLE('',#850,0.32);
#325=CIRCLE('',#852,0.32);
#326=CIRCLE('',#854,0.0375);
#327=CIRCLE('',#855,0.0375);
#328=CIRCLE('',#857,0.0375);
#329=CIRCLE('',#858,0.0375);
#330=CIRCLE('',#860,0.11);
#331=CIRCLE('',#861,0.11);
#332=CIRCLE('',#864,0.11);
#333=CIRCLE('',#865,0.11);
#334=CIRCLE('',#867,0.0375);
#335=CIRCLE('',#868,0.0375);
#336=CIRCLE('',#870,0.12);
#337=CIRCLE('',#871,0.12);
#338=CIRCLE('',#873,0.067);
#339=CIRCLE('',#875,0.12);
#340=CIRCLE('',#876,0.12);
#341=CIRCLE('',#878,0.067);
#342=CIRCLE('',#880,0.11);
#343=CIRCLE('',#881,0.11);
#344=CIRCLE('',#883,0.0375);
#345=CIRCLE('',#884,0.0375);
#346=CIRCLE('',#886,0.11);
#347=CIRCLE('',#887,0.11);
#348=CIRCLE('',#889,0.0375);
#349=CIRCLE('',#890,0.0375);
#350=CIRCLE('',#892,0.11);
#351=CIRCLE('',#893,0.11);
#352=CIRCLE('',#895,0.0375);
#353=CIRCLE('',#896,0.0375);
#354=CIRCLE('',#898,0.12);
#355=CIRCLE('',#899,0.12);
#356=CIRCLE('',#901,0.0670000000000001);
#357=CIRCLE('',#903,0.12);
#358=CIRCLE('',#904,0.12);
#359=CIRCLE('',#906,0.0670000000000001);
#360=CIRCLE('',#908,0.11);
#361=CIRCLE('',#909,0.11);
#362=CIRCLE('',#911,0.0375);
#363=CIRCLE('',#912,0.0375);
#364=CIRCLE('',#914,0.325);
#365=CIRCLE('',#915,0.57);
#366=CIRCLE('',#917,0.0375);
#367=CIRCLE('',#919,0.0375);
#368=CIRCLE('',#921,0.57);
#369=CIRCLE('',#923,0.188105456641317);
#370=CIRCLE('',#925,0.325);
#371=CIRCLE('',#927,0.067);
#372=CIRCLE('',#929,0.0375);
#373=CIRCLE('',#931,0.0375);
#374=CIRCLE('',#933,0.0375);
#375=CIRCLE('',#935,0.0375);
#376=CIRCLE('',#937,0.0375);
#377=CIRCLE('',#939,0.0670000000000001);
#378=CIRCLE('',#941,0.0670000000000001);
#379=CIRCLE('',#943,0.067);
#380=CIRCLE('',#945,0.0375);
#381=CIRCLE('',#947,0.0375);
#382=CIRCLE('',#949,0.0375);
#383=VERTEX_POINT('',#1220);
#384=VERTEX_POINT('',#1221);
#385=VERTEX_POINT('',#1223);
#386=VERTEX_POINT('',#1226);
#387=VERTEX_POINT('',#1229);
#388=VERTEX_POINT('',#1233);
#389=VERTEX_POINT('',#1235);
#390=VERTEX_POINT('',#1239);
#391=VERTEX_POINT('',#1241);
#392=VERTEX_POINT('',#1245);
#393=VERTEX_POINT('',#1247);
#394=VERTEX_POINT('',#1252);
#395=VERTEX_POINT('',#1254);
#396=VERTEX_POINT('',#1258);
#397=VERTEX_POINT('',#1260);
#398=VERTEX_POINT('',#1263);
#399=VERTEX_POINT('',#1265);
#400=VERTEX_POINT('',#1269);
#401=VERTEX_POINT('',#1272);
#402=VERTEX_POINT('',#1274);
#403=VERTEX_POINT('',#1278);
#404=VERTEX_POINT('',#1281);
#405=VERTEX_POINT('',#1283);
#406=VERTEX_POINT('',#1287);
#407=VERTEX_POINT('',#1289);
#408=VERTEX_POINT('',#1292);
#409=VERTEX_POINT('',#1294);
#410=VERTEX_POINT('',#1298);
#411=VERTEX_POINT('',#1300);
#412=VERTEX_POINT('',#1303);
#413=VERTEX_POINT('',#1305);
#414=VERTEX_POINT('',#1309);
#415=VERTEX_POINT('',#1311);
#416=VERTEX_POINT('',#1314);
#417=VERTEX_POINT('',#1316);
#418=VERTEX_POINT('',#1320);
#419=VERTEX_POINT('',#1323);
#420=VERTEX_POINT('',#1325);
#421=VERTEX_POINT('',#1329);
#422=VERTEX_POINT('',#1332);
#423=VERTEX_POINT('',#1334);
#424=VERTEX_POINT('',#1338);
#425=VERTEX_POINT('',#1340);
#426=VERTEX_POINT('',#1343);
#427=VERTEX_POINT('',#1344);
#428=VERTEX_POINT('',#1346);
#429=VERTEX_POINT('',#1348);
#430=VERTEX_POINT('',#1351);
#431=VERTEX_POINT('',#1353);
#432=VERTEX_POINT('',#1356);
#433=VERTEX_POINT('',#1360);
#434=VERTEX_POINT('',#1365);
#435=VERTEX_POINT('',#1367);
#436=VERTEX_POINT('',#1373);
#437=VERTEX_POINT('',#1377);
#438=VERTEX_POINT('',#1381);
#439=VERTEX_POINT('',#1385);
#440=VERTEX_POINT('',#1389);
#441=VERTEX_POINT('',#1393);
#442=VERTEX_POINT('',#1397);
#443=VERTEX_POINT('',#1401);
#444=VERTEX_POINT('',#1405);
#445=VERTEX_POINT('',#1409);
#446=VERTEX_POINT('',#1413);
#447=VERTEX_POINT('',#1417);
#448=VERTEX_POINT('',#1421);
#449=VERTEX_POINT('',#1425);
#450=VERTEX_POINT('',#1426);
#451=VERTEX_POINT('',#1431);
#452=VERTEX_POINT('',#1435);
#453=EDGE_CURVE('',#383,#384,#321,.T.);
#454=EDGE_CURVE('',#385,#383,#322,.T.);
#455=EDGE_CURVE('',#384,#385,#323,.T.);
#456=EDGE_CURVE('',#386,#386,#324,.T.);
#457=EDGE_CURVE('',#386,#387,#15,.T.);
#458=EDGE_CURVE('',#387,#387,#325,.T.);
#459=EDGE_CURVE('',#388,#388,#326,.T.);
#460=EDGE_CURVE('',#388,#389,#16,.T.);
#461=EDGE_CURVE('',#389,#389,#327,.T.);
#462=EDGE_CURVE('',#390,#390,#328,.T.);
#463=EDGE_CURVE('',#390,#391,#17,.T.);
#464=EDGE_CURVE('',#391,#391,#329,.T.);
#465=EDGE_CURVE('',#392,#392,#330,.T.);
#466=EDGE_CURVE('',#392,#393,#18,.T.);
#467=EDGE_CURVE('',#393,#393,#331,.T.);
#468=EDGE_CURVE('',#394,#394,#332,.T.);
#469=EDGE_CURVE('',#394,#395,#19,.T.);
#470=EDGE_CURVE('',#395,#395,#333,.T.);
#471=EDGE_CURVE('',#396,#396,#334,.T.);
#472=EDGE_CURVE('',#397,#397,#335,.T.);
#473=EDGE_CURVE('',#398,#398,#336,.T.);
#474=EDGE_CURVE('',#398,#399,#20,.T.);
#475=EDGE_CURVE('',#399,#399,#337,.T.);
#476=EDGE_CURVE('',#400,#400,#338,.T.);
#477=EDGE_CURVE('',#401,#401,#339,.T.);
#478=EDGE_CURVE('',#401,#402,#21,.T.);
#479=EDGE_CURVE('',#402,#402,#340,.T.);
#480=EDGE_CURVE('',#403,#403,#341,.T.);
#481=EDGE_CURVE('',#404,#404,#342,.T.);
#482=EDGE_CURVE('',#404,#405,#22,.T.);
#483=EDGE_CURVE('',#405,#405,#343,.T.);
#484=EDGE_CURVE('',#406,#406,#344,.T.);
#485=EDGE_CURVE('',#407,#407,#345,.T.);
#486=EDGE_CURVE('',#408,#408,#346,.T.);
#487=EDGE_CURVE('',#408,#409,#23,.T.);
#488=EDGE_CURVE('',#409,#409,#347,.T.);
#489=EDGE_CURVE('',#410,#410,#348,.T.);
#490=EDGE_CURVE('',#411,#411,#349,.T.);
#491=EDGE_CURVE('',#412,#412,#350,.T.);
#492=EDGE_CURVE('',#412,#413,#24,.T.);
#493=EDGE_CURVE('',#413,#413,#351,.T.);
#494=EDGE_CURVE('',#414,#414,#352,.T.);
#495=EDGE_CURVE('',#415,#415,#353,.T.);
#496=EDGE_CURVE('',#416,#416,#354,.T.);
#497=EDGE_CURVE('',#416,#417,#25,.T.);
#498=EDGE_CURVE('',#417,#417,#355,.T.);
#499=EDGE_CURVE('',#418,#418,#356,.T.);
#500=EDGE_CURVE('',#419,#419,#357,.T.);
#501=EDGE_CURVE('',#419,#420,#26,.T.);
#502=EDGE_CURVE('',#420,#420,#358,.T.);
#503=EDGE_CURVE('',#421,#421,#359,.T.);
#504=EDGE_CURVE('',#422,#422,#360,.T.);
#505=EDGE_CURVE('',#422,#423,#27,.T.);
#506=EDGE_CURVE('',#423,#423,#361,.T.);
#507=EDGE_CURVE('',#424,#424,#362,.T.);
#508=EDGE_CURVE('',#425,#425,#363,.T.);
#509=EDGE_CURVE('',#426,#427,#28,.T.);
#510=EDGE_CURVE('',#427,#428,#29,.T.);
#511=EDGE_CURVE('',#428,#429,#30,.T.);
#512=EDGE_CURVE('',#429,#426,#31,.T.);
#513=EDGE_CURVE('',#430,#430,#364,.T.);
#514=EDGE_CURVE('',#431,#431,#365,.T.);
#515=EDGE_CURVE('',#425,#432,#32,.T.);
#516=EDGE_CURVE('',#432,#432,#366,.T.);
#517=EDGE_CURVE('',#396,#433,#33,.T.);
#518=EDGE_CURVE('',#433,#433,#367,.T.);
#519=EDGE_CURVE('',#431,#384,#34,.T.);
#520=EDGE_CURVE('',#385,#434,#35,.T.);
#521=EDGE_CURVE('',#435,#434,#368,.T.);
#522=EDGE_CURVE('',#383,#435,#36,.T.);
#523=EDGE_CURVE('',#434,#435,#369,.T.);
#524=EDGE_CURVE('',#430,#436,#37,.T.);
#525=EDGE_CURVE('',#436,#436,#370,.T.);
#526=EDGE_CURVE('',#403,#437,#38,.T.);
#527=EDGE_CURVE('',#437,#437,#371,.T.);
#528=EDGE_CURVE('',#411,#438,#39,.T.);
#529=EDGE_CURVE('',#438,#438,#372,.T.);
#530=EDGE_CURVE('',#414,#439,#40,.T.);
#531=EDGE_CURVE('',#439,#439,#373,.T.);
#532=EDGE_CURVE('',#406,#440,#41,.T.);
#533=EDGE_CURVE('',#440,#440,#374,.T.);
#534=EDGE_CURVE('',#424,#441,#42,.T.);
#535=EDGE_CURVE('',#441,#441,#375,.T.);
#536=EDGE_CURVE('',#397,#442,#43,.T.);
#537=EDGE_CURVE('',#442,#442,#376,.T.);
#538=EDGE_CURVE('',#418,#443,#44,.T.);
#539=EDGE_CURVE('',#443,#443,#377,.T.);
#540=EDGE_CURVE('',#421,#444,#45,.T.);
#541=EDGE_CURVE('',#444,#444,#378,.T.);
#542=EDGE_CURVE('',#400,#445,#46,.T.);
#543=EDGE_CURVE('',#445,#445,#379,.T.);
#544=EDGE_CURVE('',#410,#446,#47,.T.);
#545=EDGE_CURVE('',#446,#446,#380,.T.);
#546=EDGE_CURVE('',#415,#447,#48,.T.);
#547=EDGE_CURVE('',#447,#447,#381,.T.);
#548=EDGE_CURVE('',#407,#448,#49,.T.);
#549=EDGE_CURVE('',#448,#448,#382,.T.);
#550=EDGE_CURVE('',#449,#450,#50,.T.);
#551=EDGE_CURVE('',#450,#426,#51,.T.);
#552=EDGE_CURVE('',#449,#429,#52,.T.);
#553=EDGE_CURVE('',#451,#449,#53,.T.);
#554=EDGE_CURVE('',#451,#428,#54,.T.);
#555=EDGE_CURVE('',#452,#451,#55,.T.);
#556=EDGE_CURVE('',#452,#427,#56,.T.);
#557=EDGE_CURVE('',#450,#452,#57,.T.);
#558=ORIENTED_EDGE('',*,*,#453,.F.);
#559=ORIENTED_EDGE('',*,*,#454,.F.);
#560=ORIENTED_EDGE('',*,*,#455,.F.);
#561=ORIENTED_EDGE('',*,*,#456,.F.);
#562=ORIENTED_EDGE('',*,*,#456,.T.);
#563=ORIENTED_EDGE('',*,*,#457,.T.);
#564=ORIENTED_EDGE('',*,*,#458,.F.);
#565=ORIENTED_EDGE('',*,*,#457,.F.);
#566=ORIENTED_EDGE('',*,*,#459,.T.);
#567=ORIENTED_EDGE('',*,*,#460,.T.);
#568=ORIENTED_EDGE('',*,*,#461,.F.);
#569=ORIENTED_EDGE('',*,*,#460,.F.);
#570=ORIENTED_EDGE('',*,*,#462,.T.);
#571=ORIENTED_EDGE('',*,*,#463,.T.);
#572=ORIENTED_EDGE('',*,*,#464,.F.);
#573=ORIENTED_EDGE('',*,*,#463,.F.);
#574=ORIENTED_EDGE('',*,*,#465,.F.);
#575=ORIENTED_EDGE('',*,*,#466,.T.);
#576=ORIENTED_EDGE('',*,*,#467,.T.);
#577=ORIENTED_EDGE('',*,*,#466,.F.);
#578=ORIENTED_EDGE('',*,*,#467,.F.);
#579=ORIENTED_EDGE('',*,*,#459,.F.);
#580=ORIENTED_EDGE('',*,*,#462,.F.);
#581=ORIENTED_EDGE('',*,*,#468,.F.);
#582=ORIENTED_EDGE('',*,*,#469,.T.);
#583=ORIENTED_EDGE('',*,*,#470,.T.);
#584=ORIENTED_EDGE('',*,*,#469,.F.);
#585=ORIENTED_EDGE('',*,*,#470,.F.);
#586=ORIENTED_EDGE('',*,*,#471,.F.);
#587=ORIENTED_EDGE('',*,*,#472,.F.);
#588=ORIENTED_EDGE('',*,*,#473,.F.);
#589=ORIENTED_EDGE('',*,*,#474,.T.);
#590=ORIENTED_EDGE('',*,*,#475,.T.);
#591=ORIENTED_EDGE('',*,*,#474,.F.);
#592=ORIENTED_EDGE('',*,*,#475,.F.);
#593=ORIENTED_EDGE('',*,*,#476,.F.);
#594=ORIENTED_EDGE('',*,*,#477,.F.);
#595=ORIENTED_EDGE('',*,*,#478,.T.);
#596=ORIENTED_EDGE('',*,*,#479,.T.);
#597=ORIENTED_EDGE('',*,*,#478,.F.);
#598=ORIENTED_EDGE('',*,*,#479,.F.);
#599=ORIENTED_EDGE('',*,*,#480,.F.);
#600=ORIENTED_EDGE('',*,*,#481,.F.);
#601=ORIENTED_EDGE('',*,*,#482,.T.);
#602=ORIENTED_EDGE('',*,*,#483,.T.);
#603=ORIENTED_EDGE('',*,*,#482,.F.);
#604=ORIENTED_EDGE('',*,*,#483,.F.);
#605=ORIENTED_EDGE('',*,*,#484,.F.);
#606=ORIENTED_EDGE('',*,*,#485,.F.);
#607=ORIENTED_EDGE('',*,*,#486,.F.);
#608=ORIENTED_EDGE('',*,*,#487,.T.);
#609=ORIENTED_EDGE('',*,*,#488,.T.);
#610=ORIENTED_EDGE('',*,*,#487,.F.);
#611=ORIENTED_EDGE('',*,*,#488,.F.);
#612=ORIENTED_EDGE('',*,*,#489,.F.);
#613=ORIENTED_EDGE('',*,*,#490,.F.);
#614=ORIENTED_EDGE('',*,*,#491,.F.);
#615=ORIENTED_EDGE('',*,*,#492,.T.);
#616=ORIENTED_EDGE('',*,*,#493,.T.);
#617=ORIENTED_EDGE('',*,*,#492,.F.);
#618=ORIENTED_EDGE('',*,*,#493,.F.);
#619=ORIENTED_EDGE('',*,*,#494,.F.);
#620=ORIENTED_EDGE('',*,*,#495,.F.);
#621=ORIENTED_EDGE('',*,*,#496,.F.);
#622=ORIENTED_EDGE('',*,*,#497,.T.);
#623=ORIENTED_EDGE('',*,*,#498,.T.);
#624=ORIENTED_EDGE('',*,*,#497,.F.);
#625=ORIENTED_EDGE('',*,*,#498,.F.);
#626=ORIENTED_EDGE('',*,*,#499,.F.);
#627=ORIENTED_EDGE('',*,*,#500,.F.);
#628=ORIENTED_EDGE('',*,*,#501,.T.);
#629=ORIENTED_EDGE('',*,*,#502,.T.);
#630=ORIENTED_EDGE('',*,*,#501,.F.);
#631=ORIENTED_EDGE('',*,*,#502,.F.);
#632=ORIENTED_EDGE('',*,*,#503,.F.);
#633=ORIENTED_EDGE('',*,*,#504,.F.);
#634=ORIENTED_EDGE('',*,*,#505,.T.);
#635=ORIENTED_EDGE('',*,*,#506,.T.);
#636=ORIENTED_EDGE('',*,*,#505,.F.);
#637=ORIENTED_EDGE('',*,*,#506,.F.);
#638=ORIENTED_EDGE('',*,*,#507,.F.);
#639=ORIENTED_EDGE('',*,*,#508,.F.);
#640=ORIENTED_EDGE('',*,*,#509,.T.);
#641=ORIENTED_EDGE('',*,*,#510,.T.);
#642=ORIENTED_EDGE('',*,*,#511,.T.);
#643=ORIENTED_EDGE('',*,*,#512,.T.);
#644=ORIENTED_EDGE('',*,*,#513,.T.);
#645=ORIENTED_EDGE('',*,*,#514,.T.);
#646=ORIENTED_EDGE('',*,*,#504,.T.);
#647=ORIENTED_EDGE('',*,*,#500,.T.);
#648=ORIENTED_EDGE('',*,*,#496,.T.);
#649=ORIENTED_EDGE('',*,*,#491,.T.);
#650=ORIENTED_EDGE('',*,*,#486,.T.);
#651=ORIENTED_EDGE('',*,*,#481,.T.);
#652=ORIENTED_EDGE('',*,*,#477,.T.);
#653=ORIENTED_EDGE('',*,*,#473,.T.);
#654=ORIENTED_EDGE('',*,*,#468,.T.);
#655=ORIENTED_EDGE('',*,*,#465,.T.);
#656=ORIENTED_EDGE('',*,*,#508,.T.);
#657=ORIENTED_EDGE('',*,*,#515,.T.);
#658=ORIENTED_EDGE('',*,*,#516,.F.);
#659=ORIENTED_EDGE('',*,*,#515,.F.);
#660=ORIENTED_EDGE('',*,*,#471,.T.);
#661=ORIENTED_EDGE('',*,*,#517,.T.);
#662=ORIENTED_EDGE('',*,*,#518,.F.);
#663=ORIENTED_EDGE('',*,*,#517,.F.);
#664=ORIENTED_EDGE('',*,*,#514,.F.);
#665=ORIENTED_EDGE('',*,*,#519,.T.);
#666=ORIENTED_EDGE('',*,*,#455,.T.);
#667=ORIENTED_EDGE('',*,*,#520,.T.);
#668=ORIENTED_EDGE('',*,*,#521,.F.);
#669=ORIENTED_EDGE('',*,*,#522,.F.);
#670=ORIENTED_EDGE('',*,*,#453,.T.);
#671=ORIENTED_EDGE('',*,*,#519,.F.);
#672=ORIENTED_EDGE('',*,*,#454,.T.);
#673=ORIENTED_EDGE('',*,*,#522,.T.);
#674=ORIENTED_EDGE('',*,*,#523,.F.);
#675=ORIENTED_EDGE('',*,*,#520,.F.);
#676=ORIENTED_EDGE('',*,*,#513,.F.);
#677=ORIENTED_EDGE('',*,*,#524,.T.);
#678=ORIENTED_EDGE('',*,*,#525,.F.);
#679=ORIENTED_EDGE('',*,*,#524,.F.);
#680=ORIENTED_EDGE('',*,*,#480,.T.);
#681=ORIENTED_EDGE('',*,*,#526,.T.);
#682=ORIENTED_EDGE('',*,*,#527,.F.);
#683=ORIENTED_EDGE('',*,*,#526,.F.);
#684=ORIENTED_EDGE('',*,*,#490,.T.);
#685=ORIENTED_EDGE('',*,*,#528,.T.);
#686=ORIENTED_EDGE('',*,*,#529,.F.);
#687=ORIENTED_EDGE('',*,*,#528,.F.);
#688=ORIENTED_EDGE('',*,*,#494,.T.);
#689=ORIENTED_EDGE('',*,*,#530,.T.);
#690=ORIENTED_EDGE('',*,*,#531,.F.);
#691=ORIENTED_EDGE('',*,*,#530,.F.);
#692=ORIENTED_EDGE('',*,*,#484,.T.);
#693=ORIENTED_EDGE('',*,*,#532,.T.);
#694=ORIENTED_EDGE('',*,*,#533,.F.);
#695=ORIENTED_EDGE('',*,*,#532,.F.);
#696=ORIENTED_EDGE('',*,*,#507,.T.);
#697=ORIENTED_EDGE('',*,*,#534,.T.);
#698=ORIENTED_EDGE('',*,*,#535,.F.);
#699=ORIENTED_EDGE('',*,*,#534,.F.);
#700=ORIENTED_EDGE('',*,*,#472,.T.);
#701=ORIENTED_EDGE('',*,*,#536,.T.);
#702=ORIENTED_EDGE('',*,*,#537,.F.);
#703=ORIENTED_EDGE('',*,*,#536,.F.);
#704=ORIENTED_EDGE('',*,*,#499,.T.);
#705=ORIENTED_EDGE('',*,*,#538,.T.);
#706=ORIENTED_EDGE('',*,*,#539,.F.);
#707=ORIENTED_EDGE('',*,*,#538,.F.);
#708=ORIENTED_EDGE('',*,*,#503,.T.);
#709=ORIENTED_EDGE('',*,*,#540,.T.);
#710=ORIENTED_EDGE('',*,*,#541,.F.);
#711=ORIENTED_EDGE('',*,*,#540,.F.);
#712=ORIENTED_EDGE('',*,*,#476,.T.);
#713=ORIENTED_EDGE('',*,*,#542,.T.);
#714=ORIENTED_EDGE('',*,*,#543,.F.);
#715=ORIENTED_EDGE('',*,*,#542,.F.);
#716=ORIENTED_EDGE('',*,*,#489,.T.);
#717=ORIENTED_EDGE('',*,*,#544,.T.);
#718=ORIENTED_EDGE('',*,*,#545,.F.);
#719=ORIENTED_EDGE('',*,*,#544,.F.);
#720=ORIENTED_EDGE('',*,*,#495,.T.);
#721=ORIENTED_EDGE('',*,*,#546,.T.);
#722=ORIENTED_EDGE('',*,*,#547,.F.);
#723=ORIENTED_EDGE('',*,*,#546,.F.);
#724=ORIENTED_EDGE('',*,*,#485,.T.);
#725=ORIENTED_EDGE('',*,*,#548,.T.);
#726=ORIENTED_EDGE('',*,*,#549,.F.);
#727=ORIENTED_EDGE('',*,*,#548,.F.);
#728=ORIENTED_EDGE('',*,*,#550,.T.);
#729=ORIENTED_EDGE('',*,*,#551,.T.);
#730=ORIENTED_EDGE('',*,*,#512,.F.);
#731=ORIENTED_EDGE('',*,*,#552,.F.);
#732=ORIENTED_EDGE('',*,*,#553,.T.);
#733=ORIENTED_EDGE('',*,*,#552,.T.);
#734=ORIENTED_EDGE('',*,*,#511,.F.);
#735=ORIENTED_EDGE('',*,*,#554,.F.);
#736=ORIENTED_EDGE('',*,*,#555,.T.);
#737=ORIENTED_EDGE('',*,*,#554,.T.);
#738=ORIENTED_EDGE('',*,*,#510,.F.);
#739=ORIENTED_EDGE('',*,*,#556,.F.);
#740=ORIENTED_EDGE('',*,*,#557,.T.);
#741=ORIENTED_EDGE('',*,*,#556,.T.);
#742=ORIENTED_EDGE('',*,*,#509,.F.);
#743=ORIENTED_EDGE('',*,*,#551,.F.);
#744=ORIENTED_EDGE('',*,*,#557,.F.);
#745=ORIENTED_EDGE('',*,*,#550,.F.);
#746=ORIENTED_EDGE('',*,*,#553,.F.);
#747=ORIENTED_EDGE('',*,*,#555,.F.);
#748=ORIENTED_EDGE('',*,*,#458,.T.);
#749=ORIENTED_EDGE('',*,*,#461,.T.);
#750=ORIENTED_EDGE('',*,*,#464,.T.);
#751=ORIENTED_EDGE('',*,*,#516,.T.);
#752=ORIENTED_EDGE('',*,*,#518,.T.);
#753=ORIENTED_EDGE('',*,*,#523,.T.);
#754=ORIENTED_EDGE('',*,*,#521,.T.);
#755=ORIENTED_EDGE('',*,*,#525,.T.);
#756=ORIENTED_EDGE('',*,*,#527,.T.);
#757=ORIENTED_EDGE('',*,*,#529,.T.);
#758=ORIENTED_EDGE('',*,*,#531,.T.);
#759=ORIENTED_EDGE('',*,*,#533,.T.);
#760=ORIENTED_EDGE('',*,*,#535,.T.);
#761=ORIENTED_EDGE('',*,*,#537,.T.);
#762=ORIENTED_EDGE('',*,*,#539,.T.);
#763=ORIENTED_EDGE('',*,*,#541,.T.);
#764=ORIENTED_EDGE('',*,*,#543,.T.);
#765=ORIENTED_EDGE('',*,*,#545,.T.);
#766=ORIENTED_EDGE('',*,*,#547,.T.);
#767=ORIENTED_EDGE('',*,*,#549,.T.);
#768=PLANE('',#846);
#769=PLANE('',#862);
#770=PLANE('',#866);
#771=PLANE('',#872);
#772=PLANE('',#877);
#773=PLANE('',#882);
#774=PLANE('',#888);
#775=PLANE('',#894);
#776=PLANE('',#900);
#777=PLANE('',#905);
#778=PLANE('',#910);
#779=PLANE('',#913);
#780=PLANE('',#950);
#781=PLANE('',#951);
#782=PLANE('',#952);
#783=PLANE('',#953);
#784=PLANE('',#954);
#785=ADVANCED_FACE('',(#179,#131),#768,.T.);
#786=ADVANCED_FACE('',(#180),#101,.F.);
#787=ADVANCED_FACE('',(#181),#102,.F.);
#788=ADVANCED_FACE('',(#182),#103,.F.);
#789=ADVANCED_FACE('',(#183),#104,.F.);
#790=ADVANCED_FACE('',(#184,#132,#133),#769,.T.);
#791=ADVANCED_FACE('',(#185),#105,.F.);
#792=ADVANCED_FACE('',(#186,#134,#135),#770,.T.);
#793=ADVANCED_FACE('',(#187),#106,.F.);
#794=ADVANCED_FACE('',(#188,#136),#771,.T.);
#795=ADVANCED_FACE('',(#189),#107,.F.);
#796=ADVANCED_FACE('',(#190,#137),#772,.T.);
#797=ADVANCED_FACE('',(#191),#108,.F.);
#798=ADVANCED_FACE('',(#192,#138,#139),#773,.T.);
#799=ADVANCED_FACE('',(#193),#109,.F.);
#800=ADVANCED_FACE('',(#194,#140,#141),#774,.T.);
#801=ADVANCED_FACE('',(#195),#110,.F.);
#802=ADVANCED_FACE('',(#196,#142,#143),#775,.T.);
#803=ADVANCED_FACE('',(#197),#111,.F.);
#804=ADVANCED_FACE('',(#198,#144),#776,.T.);
#805=ADVANCED_FACE('',(#199),#112,.F.);
#806=ADVANCED_FACE('',(#200,#145),#777,.T.);
#807=ADVANCED_FACE('',(#201),#113,.F.);
#808=ADVANCED_FACE('',(#202,#146,#147),#778,.T.);
#809=ADVANCED_FACE('',(#203,#148,#149,#150,#151,#152,#153,#154,#155,#156,
#157,#158,#159),#779,.T.);
#810=ADVANCED_FACE('',(#204),#114,.F.);
#811=ADVANCED_FACE('',(#205),#115,.F.);
#812=ADVANCED_FACE('',(#206),#116,.F.);
#813=ADVANCED_FACE('',(#207),#117,.F.);
#814=ADVANCED_FACE('',(#208),#118,.F.);
#815=ADVANCED_FACE('',(#209),#119,.F.);
#816=ADVANCED_FACE('',(#210),#120,.F.);
#817=ADVANCED_FACE('',(#211),#121,.F.);
#818=ADVANCED_FACE('',(#212),#122,.F.);
#819=ADVANCED_FACE('',(#213),#123,.F.);
#820=ADVANCED_FACE('',(#214),#124,.F.);
#821=ADVANCED_FACE('',(#215),#125,.F.);
#822=ADVANCED_FACE('',(#216),#126,.F.);
#823=ADVANCED_FACE('',(#217),#127,.F.);
#824=ADVANCED_FACE('',(#218),#128,.F.);
#825=ADVANCED_FACE('',(#219),#129,.F.);
#826=ADVANCED_FACE('',(#220),#130,.F.);
#827=ADVANCED_FACE('',(#221),#780,.T.);
#828=ADVANCED_FACE('',(#222),#781,.T.);
#829=ADVANCED_FACE('',(#223),#782,.T.);
#830=ADVANCED_FACE('',(#224),#783,.T.);
#831=ADVANCED_FACE('',(#225,#160,#161,#162,#163,#164,#165,#166,#167,#168,
#169,#170,#171,#172,#173,#174,#175,#176,#177,#178),#784,.F.);
#832=CLOSED_SHELL('',(#785,#786,#787,#788,#789,#790,#791,#792,#793,#794,
#795,#796,#797,#798,#799,#800,#801,#802,#803,#804,#805,#806,#807,#808,#809,
#810,#811,#812,#813,#814,#815,#816,#817,#818,#819,#820,#821,#822,#823,#824,
#825,#826,#827,#828,#829,#830,#831));
#833=DERIVED_UNIT_ELEMENT(#835,1.);
#834=DERIVED_UNIT_ELEMENT(#1448,-3.);
#835=(
MASS_UNIT()
NAMED_UNIT(*)
SI_UNIT(.KILO.,.GRAM.)
);
#836=DERIVED_UNIT((#833,#834));
#837=MEASURE_REPRESENTATION_ITEM('density measure',
POSITIVE_RATIO_MEASURE(7850.),#836);
#838=PROPERTY_DEFINITION_REPRESENTATION(#843,#840);
#839=PROPERTY_DEFINITION_REPRESENTATION(#844,#841);
#840=REPRESENTATION('material name',(#842),#1443);
#841=REPRESENTATION('density',(#837),#1443);
#842=DESCRIPTIVE_REPRESENTATION_ITEM('Steel','Steel');
#843=PROPERTY_DEFINITION('material property','material name',#1456);
#844=PROPERTY_DEFINITION('material property','density of part',#1456);
#845=AXIS2_PLACEMENT_3D('',#1218,#955,#956);
#846=AXIS2_PLACEMENT_3D('',#1219,#957,#958);
#847=AXIS2_PLACEMENT_3D('',#1222,#959,#960);
#848=AXIS2_PLACEMENT_3D('',#1224,#961,#962);
#849=AXIS2_PLACEMENT_3D('',#1225,#963,#964);
#850=AXIS2_PLACEMENT_3D('',#1227,#965,#966);
#851=AXIS2_PLACEMENT_3D('',#1228,#967,#968);
#852=AXIS2_PLACEMENT_3D('',#1231,#970,#971);
#853=AXIS2_PLACEMENT_3D('',#1232,#972,#973);
#854=AXIS2_PLACEMENT_3D('',#1234,#974,#975);
#855=AXIS2_PLACEMENT_3D('',#1237,#977,#978);
#856=AXIS2_PLACEMENT_3D('',#1238,#979,#980);
#857=AXIS2_PLACEMENT_3D('',#1240,#981,#982);
#858=AXIS2_PLACEMENT_3D('',#1243,#984,#985);
#859=AXIS2_PLACEMENT_3D('',#1244,#986,#987);
#860=AXIS2_PLACEMENT_3D('',#1246,#988,#989);
#861=AXIS2_PLACEMENT_3D('',#1249,#991,#992);
#862=AXIS2_PLACEMENT_3D('',#1250,#993,#994);
#863=AXIS2_PLACEMENT_3D('',#1251,#995,#996);
#864=AXIS2_PLACEMENT_3D('',#1253,#997,#998);
#865=AXIS2_PLACEMENT_3D('',#1256,#1000,#1001);
#866=AXIS2_PLACEMENT_3D('',#1257,#1002,#1003);
#867=AXIS2_PLACEMENT_3D('',#1259,#1004,#1005);
#868=AXIS2_PLACEMENT_3D('',#1261,#1006,#1007);
#869=AXIS2_PLACEMENT_3D('',#1262,#1008,#1009);
#870=AXIS2_PLACEMENT_3D('',#1264,#1010,#1011);
#871=AXIS2_PLACEMENT_3D('',#1267,#1013,#1014);
#872=AXIS2_PLACEMENT_3D('',#1268,#1015,#1016);
#873=AXIS2_PLACEMENT_3D('',#1270,#1017,#1018);
#874=AXIS2_PLACEMENT_3D('',#1271,#1019,#1020);
#875=AXIS2_PLACEMENT_3D('',#1273,#1021,#1022);
#876=AXIS2_PLACEMENT_3D('',#1276,#1024,#1025);
#877=AXIS2_PLACEMENT_3D('',#1277,#1026,#1027);
#878=AXIS2_PLACEMENT_3D('',#1279,#1028,#1029);
#879=AXIS2_PLACEMENT_3D('',#1280,#1030,#1031);
#880=AXIS2_PLACEMENT_3D('',#1282,#1032,#1033);
#881=AXIS2_PLACEMENT_3D('',#1285,#1035,#1036);
#882=AXIS2_PLACEMENT_3D('',#1286,#1037,#1038);
#883=AXIS2_PLACEMENT_3D('',#1288,#1039,#1040);
#884=AXIS2_PLACEMENT_3D('',#1290,#1041,#1042);
#885=AXIS2_PLACEMENT_3D('',#1291,#1043,#1044);
#886=AXIS2_PLACEMENT_3D('',#1293,#1045,#1046);
#887=AXIS2_PLACEMENT_3D('',#1296,#1048,#1049);
#888=AXIS2_PLACEMENT_3D('',#1297,#1050,#1051);
#889=AXIS2_PLACEMENT_3D('',#1299,#1052,#1053);
#890=AXIS2_PLACEMENT_3D('',#1301,#1054,#1055);
#891=AXIS2_PLACEMENT_3D('',#1302,#1056,#1057);
#892=AXIS2_PLACEMENT_3D('',#1304,#1058,#1059);
#893=AXIS2_PLACEMENT_3D('',#1307,#1061,#1062);
#894=AXIS2_PLACEMENT_3D('',#1308,#1063,#1064);
#895=AXIS2_PLACEMENT_3D('',#1310,#1065,#1066);
#896=AXIS2_PLACEMENT_3D('',#1312,#1067,#1068);
#897=AXIS2_PLACEMENT_3D('',#1313,#1069,#1070);
#898=AXIS2_PLACEMENT_3D('',#1315,#1071,#1072);
#899=AXIS2_PLACEMENT_3D('',#1318,#1074,#1075);
#900=AXIS2_PLACEMENT_3D('',#1319,#1076,#1077);
#901=AXIS2_PLACEMENT_3D('',#1321,#1078,#1079);
#902=AXIS2_PLACEMENT_3D('',#1322,#1080,#1081);
#903=AXIS2_PLACEMENT_3D('',#1324,#1082,#1083);
#904=AXIS2_PLACEMENT_3D('',#1327,#1085,#1086);
#905=AXIS2_PLACEMENT_3D('',#1328,#1087,#1088);
#906=AXIS2_PLACEMENT_3D('',#1330,#1089,#1090);
#907=AXIS2_PLACEMENT_3D('',#1331,#1091,#1092);
#908=AXIS2_PLACEMENT_3D('',#1333,#1093,#1094);
#909=AXIS2_PLACEMENT_3D('',#1336,#1096,#1097);
#910=AXIS2_PLACEMENT_3D('',#1337,#1098,#1099);
#911=AXIS2_PLACEMENT_3D('',#1339,#1100,#1101);
#912=AXIS2_PLACEMENT_3D('',#1341,#1102,#1103);
#913=AXIS2_PLACEMENT_3D('',#1342,#1104,#1105);
#914=AXIS2_PLACEMENT_3D('',#1352,#1110,#1111);
#915=AXIS2_PLACEMENT_3D('',#1354,#1112,#1113);
#916=AXIS2_PLACEMENT_3D('',#1355,#1114,#1115);
#917=AXIS2_PLACEMENT_3D('',#1358,#1117,#1118);
#918=AXIS2_PLACEMENT_3D('',#1359,#1119,#1120);
#919=AXIS2_PLACEMENT_3D('',#1362,#1122,#1123);
#920=AXIS2_PLACEMENT_3D('',#1363,#1124,#1125);
#921=AXIS2_PLACEMENT_3D('',#1368,#1128,#1129);
#922=AXIS2_PLACEMENT_3D('',#1370,#1131,#1132);
#923=AXIS2_PLACEMENT_3D('',#1371,#1133,#1134);
#924=AXIS2_PLACEMENT_3D('',#1372,#1135,#1136);
#925=AXIS2_PLACEMENT_3D('',#1375,#1138,#1139);
#926=AXIS2_PLACEMENT_3D('',#1376,#1140,#1141);
#927=AXIS2_PLACEMENT_3D('',#1379,#1143,#1144);
#928=AXIS2_PLACEMENT_3D('',#1380,#1145,#1146);
#929=AXIS2_PLACEMENT_3D('',#1383,#1148,#1149);
#930=AXIS2_PLACEMENT_3D('',#1384,#1150,#1151);
#931=AXIS2_PLACEMENT_3D('',#1387,#1153,#1154);
#932=AXIS2_PLACEMENT_3D('',#1388,#1155,#1156);
#933=AXIS2_PLACEMENT_3D('',#1391,#1158,#1159);
#934=AXIS2_PLACEMENT_3D('',#1392,#1160,#1161);
#935=AXIS2_PLACEMENT_3D('',#1395,#1163,#1164);
#936=AXIS2_PLACEMENT_3D('',#1396,#1165,#1166);
#937=AXIS2_PLACEMENT_3D('',#1399,#1168,#1169);
#938=AXIS2_PLACEMENT_3D('',#1400,#1170,#1171);
#939=AXIS2_PLACEMENT_3D('',#1403,#1173,#1174);
#940=AXIS2_PLACEMENT_3D('',#1404,#1175,#1176);
#941=AXIS2_PLACEMENT_3D('',#1407,#1178,#1179);
#942=AXIS2_PLACEMENT_3D('',#1408,#1180,#1181);
#943=AXIS2_PLACEMENT_3D('',#1411,#1183,#1184);
#944=AXIS2_PLACEMENT_3D('',#1412,#1185,#1186);
#945=AXIS2_PLACEMENT_3D('',#1415,#1188,#1189);
#946=AXIS2_PLACEMENT_3D('',#1416,#1190,#1191);
#947=AXIS2_PLACEMENT_3D('',#1419,#1193,#1194);
#948=AXIS2_PLACEMENT_3D('',#1420,#1195,#1196);
#949=AXIS2_PLACEMENT_3D('',#1423,#1198,#1199);
#950=AXIS2_PLACEMENT_3D('',#1424,#1200,#1201);
#951=AXIS2_PLACEMENT_3D('',#1430,#1205,#1206);
#952=AXIS2_PLACEMENT_3D('',#1434,#1209,#1210);
#953=AXIS2_PLACEMENT_3D('',#1438,#1213,#1214);
#954=AXIS2_PLACEMENT_3D('',#1440,#1216,#1217);
#955=DIRECTION('axis',(0.,0.,1.));
#956=DIRECTION('refdir',(1.,0.,0.));
#957=DIRECTION('center_axis',(0.,0.,1.));
#958=DIRECTION('ref_axis',(-1.,0.,0.));
#959=DIRECTION('center_axis',(0.,0.,-1.));
#960=DIRECTION('ref_axis',(-1.,0.,0.));
#961=DIRECTION('center_axis',(0.,0.,1.));
#962=DIRECTION('ref_axis',(-1.,0.,0.));
#963=DIRECTION('center_axis',(0.,0.,-1.));
#964=DIRECTION('ref_axis',(-1.,0.,0.));
#965=DIRECTION('center_axis',(0.,0.,1.));
#966=DIRECTION('ref_axis',(-1.,0.,0.));
#967=DIRECTION('center_axis',(0.,0.,-1.));
#968=DIRECTION('ref_axis',(-1.,0.,0.));
#969=DIRECTION('',(0.,0.,-1.));
#970=DIRECTION('center_axis',(0.,0.,1.));
#971=DIRECTION('ref_axis',(-1.,0.,0.));
#972=DIRECTION('center_axis',(0.,0.,-1.));
#973=DIRECTION('ref_axis',(-1.,0.,0.));
#974=DIRECTION('center_axis',(0.,0.,1.));
#975=DIRECTION('ref_axis',(-1.,0.,0.));
#976=DIRECTION('',(0.,0.,-1.));
#977=DIRECTION('center_axis',(0.,0.,1.));
#978=DIRECTION('ref_axis',(-1.,0.,0.));
#979=DIRECTION('center_axis',(0.,0.,-1.));
#980=DIRECTION('ref_axis',(-1.,0.,0.));
#981=DIRECTION('center_axis',(0.,0.,1.));
#982=DIRECTION('ref_axis',(-1.,0.,0.));
#983=DIRECTION('',(0.,0.,-1.));
#984=DIRECTION('center_axis',(0.,0.,1.));
#985=DIRECTION('ref_axis',(-1.,0.,0.));
#986=DIRECTION('center_axis',(0.,0.,-1.));
#987=DIRECTION('ref_axis',(-1.,0.,0.));
#988=DIRECTION('center_axis',(0.,0.,-1.));
#989=DIRECTION('ref_axis',(-1.,0.,0.));
#990=DIRECTION('',(0.,0.,-1.));
#991=DIRECTION('center_axis',(0.,0.,-1.));
#992=DIRECTION('ref_axis',(-1.,0.,0.));
#993=DIRECTION('center_axis',(0.,0.,1.));
#994=DIRECTION('ref_axis',(-1.,0.,0.));
#995=DIRECTION('center_axis',(0.,0.,-1.));
#996=DIRECTION('ref_axis',(-1.,0.,0.));
#997=DIRECTION('center_axis',(0.,0.,-1.));
#998=DIRECTION('ref_axis',(-1.,0.,0.));
#999=DIRECTION('',(0.,0.,-1.));
#1000=DIRECTION('center_axis',(0.,0.,-1.));
#1001=DIRECTION('ref_axis',(-1.,0.,0.));
#1002=DIRECTION('center_axis',(0.,0.,1.));
#1003=DIRECTION('ref_axis',(-1.,0.,0.));
#1004=DIRECTION('center_axis',(0.,0.,1.));
#1005=DIRECTION('ref_axis',(-1.,0.,0.));
#1006=DIRECTION('center_axis',(0.,0.,1.));
#1007=DIRECTION('ref_axis',(-1.,0.,0.));
#1008=DIRECTION('center_axis',(0.,0.,-1.));
#1009=DIRECTION('ref_axis',(-1.,0.,0.));
#1010=DIRECTION('center_axis',(0.,0.,-1.));
#1011=DIRECTION('ref_axis',(-1.,0.,0.));
#1012=DIRECTION('',(0.,0.,-1.));
#1013=DIRECTION('center_axis',(0.,0.,-1.));
#1014=DIRECTION('ref_axis',(-1.,0.,0.));
#1015=DIRECTION('center_axis',(0.,0.,1.));
#1016=DIRECTION('ref_axis',(-1.,0.,0.));
#1017=DIRECTION('center_axis',(0.,0.,1.));
#1018=DIRECTION('ref_axis',(-1.,0.,0.));
#1019=DIRECTION('center_axis',(0.,0.,-1.));
#1020=DIRECTION('ref_axis',(-1.,0.,0.));
#1021=DIRECTION('center_axis',(0.,0.,-1.));
#1022=DIRECTION('ref_axis',(-1.,0.,0.));
#1023=DIRECTION('',(0.,0.,-1.));
#1024=DIRECTION('center_axis',(0.,0.,-1.));
#1025=DIRECTION('ref_axis',(-1.,0.,0.));
#1026=DIRECTION('center_axis',(0.,0.,1.));
#1027=DIRECTION('ref_axis',(-1.,0.,0.));
#1028=DIRECTION('center_axis',(0.,0.,1.));
#1029=DIRECTION('ref_axis',(-1.,0.,0.));
#1030=DIRECTION('center_axis',(0.,0.,-1.));
#1031=DIRECTION('ref_axis',(-1.,0.,0.));
#1032=DIRECTION('center_axis',(0.,0.,-1.));
#1033=DIRECTION('ref_axis',(-1.,0.,0.));
#1034=DIRECTION('',(0.,0.,-1.));
#1035=DIRECTION('center_axis',(0.,0.,-1.));
#1036=DIRECTION('ref_axis',(-1.,0.,0.));
#1037=DIRECTION('center_axis',(0.,0.,1.));
#1038=DIRECTION('ref_axis',(-1.,0.,0.));
#1039=DIRECTION('center_axis',(0.,0.,1.));
#1040=DIRECTION('ref_axis',(-1.,0.,0.));
#1041=DIRECTION('center_axis',(0.,0.,1.));
#1042=DIRECTION('ref_axis',(-1.,0.,0.));
#1043=DIRECTION('center_axis',(0.,0.,-1.));
#1044=DIRECTION('ref_axis',(-1.,0.,0.));
#1045=DIRECTION('center_axis',(0.,0.,-1.));
#1046=DIRECTION('ref_axis',(-1.,0.,0.));
#1047=DIRECTION('',(0.,0.,-1.));
#1048=DIRECTION('center_axis',(0.,0.,-1.));
#1049=DIRECTION('ref_axis',(-1.,0.,0.));
#1050=DIRECTION('center_axis',(0.,0.,1.));
#1051=DIRECTION('ref_axis',(-1.,0.,0.));
#1052=DIRECTION('center_axis',(0.,0.,1.));
#1053=DIRECTION('ref_axis',(-1.,0.,0.));
#1054=DIRECTION('center_axis',(0.,0.,1.));
#1055=DIRECTION('ref_axis',(-1.,0.,0.));
#1056=DIRECTION('center_axis',(0.,0.,-1.));
#1057=DIRECTION('ref_axis',(-1.,0.,0.));
#1058=DIRECTION('center_axis',(0.,0.,-1.));
#1059=DIRECTION('ref_axis',(-1.,0.,0.));
#1060=DIRECTION('',(0.,0.,-1.));
#1061=DIRECTION('center_axis',(0.,0.,-1.));
#1062=DIRECTION('ref_axis',(-1.,0.,0.));
#1063=DIRECTION('center_axis',(0.,0.,1.));
#1064=DIRECTION('ref_axis',(-1.,0.,0.));
#1065=DIRECTION('center_axis',(0.,0.,1.));
#1066=DIRECTION('ref_axis',(-1.,0.,0.));
#1067=DIRECTION('center_axis',(0.,0.,1.));
#1068=DIRECTION('ref_axis',(-1.,0.,0.));
#1069=DIRECTION('center_axis',(0.,0.,-1.));
#1070=DIRECTION('ref_axis',(-1.,0.,0.));
#1071=DIRECTION('center_axis',(0.,0.,-1.));
#1072=DIRECTION('ref_axis',(-1.,0.,0.));
#1073=DIRECTION('',(0.,0.,-1.));
#1074=DIRECTION('center_axis',(0.,0.,-1.));
#1075=DIRECTION('ref_axis',(-1.,0.,0.));
#1076=DIRECTION('center_axis',(0.,0.,1.));
#1077=DIRECTION('ref_axis',(-1.,0.,0.));
#1078=DIRECTION('center_axis',(0.,0.,1.));
#1079=DIRECTION('ref_axis',(-1.,0.,0.));
#1080=DIRECTION('center_axis',(0.,0.,-1.));
#1081=DIRECTION('ref_axis',(-1.,0.,0.));
#1082=DIRECTION('center_axis',(0.,0.,-1.));
#1083=DIRECTION('ref_axis',(-1.,0.,0.));
#1084=DIRECTION('',(0.,0.,-1.));
#1085=DIRECTION('center_axis',(0.,0.,-1.));
#1086=DIRECTION('ref_axis',(-1.,0.,0.));
#1087=DIRECTION('center_axis',(0.,0.,1.));
#1088=DIRECTION('ref_axis',(-1.,0.,0.));
#1089=DIRECTION('center_axis',(0.,0.,1.));
#1090=DIRECTION('ref_axis',(-1.,0.,0.));
#1091=DIRECTION('center_axis',(0.,0.,-1.));
#1092=DIRECTION('ref_axis',(-1.,0.,0.));
#1093=DIRECTION('center_axis',(0.,0.,-1.));
#1094=DIRECTION('ref_axis',(-1.,0.,0.));
#1095=DIRECTION('',(0.,0.,-1.));
#1096=DIRECTION('center_axis',(0.,0.,-1.));
#1097=DIRECTION('ref_axis',(-1.,0.,0.));
#1098=DIRECTION('center_axis',(0.,0.,1.));
#1099=DIRECTION('ref_axis',(-1.,0.,0.));
#1100=DIRECTION('center_axis',(0.,0.,1.));
#1101=DIRECTION('ref_axis',(-1.,0.,0.));
#1102=DIRECTION('center_axis',(0.,0.,1.));
#1103=DIRECTION('ref_axis',(-1.,0.,0.));
#1104=DIRECTION('center_axis',(0.,0.,1.));
#1105=DIRECTION('ref_axis',(1.,0.,0.));
#1106=DIRECTION('',(0.,-1.,0.));
#1107=DIRECTION('',(1.,0.,0.));
#1108=DIRECTION('',(0.,1.,0.));
#1109=DIRECTION('',(-1.,0.,0.));
#1110=DIRECTION('center_axis',(0.,0.,-1.));
#1111=DIRECTION('ref_axis',(-1.,0.,0.));
#1112=DIRECTION('center_axis',(0.,0.,-1.));
#1113=DIRECTION('ref_axis',(-1.,0.,0.));
#1114=DIRECTION('center_axis',(0.,0.,-1.));
#1115=DIRECTION('ref_axis',(-1.,0.,0.));
#1116=DIRECTION('',(0.,0.,-1.));
#1117=DIRECTION('center_axis',(0.,0.,1.));
#1118=DIRECTION('ref_axis',(-1.,0.,0.));
#1119=DIRECTION('center_axis',(0.,0.,-1.));
#1120=DIRECTION('ref_axis',(-1.,0.,0.));
#1121=DIRECTION('',(0.,0.,-1.));
#1122=DIRECTION('center_axis',(0.,0.,1.));
#1123=DIRECTION('ref_axis',(-1.,0.,0.));
#1124=DIRECTION('center_axis',(0.,0.,-1.));
#1125=DIRECTION('ref_axis',(-1.,0.,0.));
#1126=DIRECTION('',(0.,0.,-1.));
#1127=DIRECTION('',(0.,0.,-1.));
#1128=DIRECTION('center_axis',(0.,0.,1.));
#1129=DIRECTION('ref_axis',(-1.,0.,0.));
#1130=DIRECTION('',(0.,0.,-1.));
#1131=DIRECTION('center_axis',(0.,0.,-1.));
#1132=DIRECTION('ref_axis',(0.820420434783232,-0.571760710603739,0.));
#1133=DIRECTION('center_axis',(0.,0.,1.));
#1134=DIRECTION('ref_axis',(-1.,0.,0.));
#1135=DIRECTION('center_axis',(0.,0.,-1.));
#1136=DIRECTION('ref_axis',(-1.,0.,0.));
#1137=DIRECTION('',(0.,0.,-1.));
#1138=DIRECTION('center_axis',(0.,0.,1.));
#1139=DIRECTION('ref_axis',(-1.,0.,0.));
#1140=DIRECTION('center_axis',(0.,0.,-1.));
#1141=DIRECTION('ref_axis',(-1.,0.,0.));
#1142=DIRECTION('',(0.,0.,-1.));
#1143=DIRECTION('center_axis',(0.,0.,1.));
#1144=DIRECTION('ref_axis',(-1.,0.,0.));
#1145=DIRECTION('center_axis',(0.,0.,-1.));
#1146=DIRECTION('ref_axis',(-1.,0.,0.));
#1147=DIRECTION('',(0.,0.,-1.));
#1148=DIRECTION('center_axis',(0.,0.,1.));
#1149=DIRECTION('ref_axis',(-1.,0.,0.));
#1150=DIRECTION('center_axis',(0.,0.,-1.));
#1151=DIRECTION('ref_axis',(-1.,0.,0.));
#1152=DIRECTION('',(0.,0.,-1.));
#1153=DIRECTION('center_axis',(0.,0.,1.));
#1154=DIRECTION('ref_axis',(-1.,0.,0.));
#1155=DIRECTION('center_axis',(0.,0.,-1.));
#1156=DIRECTION('ref_axis',(-1.,0.,0.));
#1157=DIRECTION('',(0.,0.,-1.));
#1158=DIRECTION('center_axis',(0.,0.,1.));
#1159=DIRECTION('ref_axis',(-1.,0.,0.));
#1160=DIRECTION('center_axis',(0.,0.,-1.));
#1161=DIRECTION('ref_axis',(-1.,0.,0.));
#1162=DIRECTION('',(0.,0.,-1.));
#1163=DIRECTION('center_axis',(0.,0.,1.));
#1164=DIRECTION('ref_axis',(-1.,0.,0.));
#1165=DIRECTION('center_axis',(0.,0.,-1.));
#1166=DIRECTION('ref_axis',(-1.,0.,0.));
#1167=DIRECTION('',(0.,0.,-1.));
#1168=DIRECTION('center_axis',(0.,0.,1.));
#1169=DIRECTION('ref_axis',(-1.,0.,0.));
#1170=DIRECTION('center_axis',(0.,0.,-1.));
#1171=DIRECTION('ref_axis',(-1.,0.,0.));
#1172=DIRECTION('',(0.,0.,-1.));
#1173=DIRECTION('center_axis',(0.,0.,1.));
#1174=DIRECTION('ref_axis',(-1.,0.,0.));
#1175=DIRECTION('center_axis',(0.,0.,-1.));
#1176=DIRECTION('ref_axis',(-1.,0.,0.));
#1177=DIRECTION('',(0.,0.,-1.));
#1178=DIRECTION('center_axis',(0.,0.,1.));
#1179=DIRECTION('ref_axis',(-1.,0.,0.));
#1180=DIRECTION('center_axis',(0.,0.,-1.));
#1181=DIRECTION('ref_axis',(-1.,0.,0.));
#1182=DIRECTION('',(0.,0.,-1.));
#1183=DIRECTION('center_axis',(0.,0.,1.));
#1184=DIRECTION('ref_axis',(-1.,0.,0.));
#1185=DIRECTION('center_axis',(0.,0.,-1.));
#1186=DIRECTION('ref_axis',(-1.,0.,0.));
#1187=DIRECTION('',(0.,0.,-1.));
#1188=DIRECTION('center_axis',(0.,0.,1.));
#1189=DIRECTION('ref_axis',(-1.,0.,0.));
#1190=DIRECTION('center_axis',(0.,0.,-1.));
#1191=DIRECTION('ref_axis',(-1.,0.,0.));
#1192=DIRECTION('',(0.,0.,-1.));
#1193=DIRECTION('center_axis',(0.,0.,1.));
#1194=DIRECTION('ref_axis',(-1.,0.,0.));
#1195=DIRECTION('center_axis',(0.,0.,-1.));
#1196=DIRECTION('ref_axis',(-1.,0.,0.));
#1197=DIRECTION('',(0.,0.,-1.));
#1198=DIRECTION('center_axis',(0.,0.,1.));
#1199=DIRECTION('ref_axis',(-1.,0.,0.));
#1200=DIRECTION('center_axis',(0.,1.,0.));
#1201=DIRECTION('ref_axis',(-1.,0.,0.));
#1202=DIRECTION('',(-1.,0.,0.));
#1203=DIRECTION('',(0.,0.,1.));
#1204=DIRECTION('',(0.,0.,1.));
#1205=DIRECTION('center_axis',(1.,0.,0.));
#1206=DIRECTION('ref_axis',(0.,1.,0.));
#1207=DIRECTION('',(0.,1.,0.));
#1208=DIRECTION('',(0.,0.,1.));
#1209=DIRECTION('center_axis',(0.,-1.,0.));
#1210=DIRECTION('ref_axis',(1.,0.,0.));
#1211=DIRECTION('',(1.,0.,0.));
#1212=DIRECTION('',(0.,0.,1.));
#1213=DIRECTION('center_axis',(-1.,0.,0.));
#1214=DIRECTION('ref_axis',(0.,-1.,0.));
#1215=DIRECTION('',(0.,-1.,0.));
#1216=DIRECTION('center_axis',(0.,0.,1.));
#1217=DIRECTION('ref_axis',(1.,0.,0.));
#1218=CARTESIAN_POINT('',(0.,0.,0.));
#1219=CARTESIAN_POINT('Origin',(2.,2.,0.05));
#1220=CARTESIAN_POINT('',(1.66390188694259,2.46036730813476,0.05));
#1221=CARTESIAN_POINT('',(2.57,2.,0.05));
#1222=CARTESIAN_POINT('Origin',(2.,2.,0.05));
#1223=CARTESIAN_POINT('',(1.45174772974411,2.15594694020487,0.05));
#1224=CARTESIAN_POINT('Origin',(1.53236035217356,2.32590360504413,0.05));
#1225=CARTESIAN_POINT('Origin',(2.,2.,0.05));
#1226=CARTESIAN_POINT('',(2.32,2.,0.05));
#1227=CARTESIAN_POINT('Origin',(2.,2.,0.05));
#1228=CARTESIAN_POINT('Origin',(2.,2.,0.2));
#1229=CARTESIAN_POINT('',(2.32,2.,0.));
#1230=CARTESIAN_POINT('',(2.32,2.,0.2));
#1231=CARTESIAN_POINT('Origin',(2.,2.,0.));
#1232=CARTESIAN_POINT('Origin',(1.34166564851195,3.03288139507594,0.15));
#1233=CARTESIAN_POINT('',(1.37916564851195,3.03288139507594,0.1));
#1234=CARTESIAN_POINT('Origin',(1.34166564851195,3.03288139507594,0.1));
#1235=CARTESIAN_POINT('',(1.37916564851195,3.03288139507594,0.));
#1236=CARTESIAN_POINT('',(1.37916564851195,3.03288139507594,0.15));
#1237=CARTESIAN_POINT('Origin',(1.34166564851195,3.03288139507594,0.));
#1238=CARTESIAN_POINT('Origin',(1.46566564851195,3.03288139507594,0.15));
#1239=CARTESIAN_POINT('',(1.50316564851195,3.03288139507594,0.1));
#1240=CARTESIAN_POINT('Origin',(1.46566564851195,3.03288139507594,0.1));
#1241=CARTESIAN_POINT('',(1.50316564851195,3.03288139507594,0.));
#1242=CARTESIAN_POINT('',(1.50316564851195,3.03288139507594,0.15));
#1243=CARTESIAN_POINT('Origin',(1.46566564851195,3.03288139507594,0.));
#1244=CARTESIAN_POINT('Origin',(1.40366564851195,3.03288139507594,0.2));
#1245=CARTESIAN_POINT('',(1.51366564851195,3.03288139507594,0.15));
#1246=CARTESIAN_POINT('Origin',(1.40366564851195,3.03288139507594,0.15));
#1247=CARTESIAN_POINT('',(1.51366564851195,3.03288139507594,0.1));
#1248=CARTESIAN_POINT('',(1.51366564851195,3.03288139507594,0.2));
#1249=CARTESIAN_POINT('Origin',(1.40366564851195,3.03288139507594,0.1));
#1250=CARTESIAN_POINT('Origin',(1.40366564851195,3.03288139507594,0.1));
#1251=CARTESIAN_POINT('Origin',(1.40366564851195,0.967118604924064,0.2));
#1252=CARTESIAN_POINT('',(1.51366564851195,0.967118604924064,0.15));
#1253=CARTESIAN_POINT('Origin',(1.40366564851195,0.967118604924064,0.15));
#1254=CARTESIAN_POINT('',(1.51366564851195,0.967118604924064,0.1));
#1255=CARTESIAN_POINT('',(1.51366564851195,0.967118604924064,0.2));
#1256=CARTESIAN_POINT('Origin',(1.40366564851195,0.967118604924064,0.1));
#1257=CARTESIAN_POINT('Origin',(1.40366564851195,0.967118604924064,0.1));
#1258=CARTESIAN_POINT('',(1.37916564851195,0.967118604924064,0.1));
#1259=CARTESIAN_POINT('Origin',(1.34166564851195,0.967118604924064,0.1));
#1260=CARTESIAN_POINT('',(1.50316564851195,0.967118604924064,0.1));
#1261=CARTESIAN_POINT('Origin',(1.46566564851195,0.967118604924064,0.1));
#1262=CARTESIAN_POINT('Origin',(0.18,3.82,0.2));
#1263=CARTESIAN_POINT('',(0.3,3.82,0.15));
#1264=CARTESIAN_POINT('Origin',(0.18,3.82,0.15));
#1265=CARTESIAN_POINT('',(0.3,3.82,0.1));
#1266=CARTESIAN_POINT('',(0.3,3.82,0.2));
#1267=CARTESIAN_POINT('Origin',(0.18,3.82,0.1));
#1268=CARTESIAN_POINT('Origin',(0.18,3.82,0.1));
#1269=CARTESIAN_POINT('',(0.247,3.82,0.1));
#1270=CARTESIAN_POINT('Origin',(0.18,3.82,0.1));
#1271=CARTESIAN_POINT('Origin',(0.18,0.18,0.2));
#1272=CARTESIAN_POINT('',(0.3,0.18,0.15));
#1273=CARTESIAN_POINT('Origin',(0.18,0.18,0.15));
#1274=CARTESIAN_POINT('',(0.3,0.18,0.1));
#1275=CARTESIAN_POINT('',(0.3,0.18,0.2));
#1276=CARTESIAN_POINT('Origin',(0.18,0.18,0.1));
#1277=CARTESIAN_POINT('Origin',(0.18,0.18,0.1));
#1278=CARTESIAN_POINT('',(0.247,0.18,0.1));
#1279=CARTESIAN_POINT('Origin',(0.18,0.18,0.1));
#1280=CARTESIAN_POINT('Origin',(2.59633435148805,3.03288139507594,0.2));
#1281=CARTESIAN_POINT('',(2.70633435148805,3.03288139507594,0.15));
#1282=CARTESIAN_POINT('Origin',(2.59633435148805,3.03288139507594,0.15));
#1283=CARTESIAN_POINT('',(2.70633435148805,3.03288139507594,0.1));
#1284=CARTESIAN_POINT('',(2.70633435148805,3.03288139507594,0.2));
#1285=CARTESIAN_POINT('Origin',(2.59633435148805,3.03288139507594,0.1));
#1286=CARTESIAN_POINT('Origin',(2.59633435148805,3.03288139507594,0.1));
#1287=CARTESIAN_POINT('',(2.69583435148805,3.03288139507594,0.1));
#1288=CARTESIAN_POINT('Origin',(2.65833435148805,3.03288139507594,0.1));
#1289=CARTESIAN_POINT('',(2.57183435148805,3.03288139507594,0.1));
#1290=CARTESIAN_POINT('Origin',(2.53433435148805,3.03288139507594,0.1));
#1291=CARTESIAN_POINT('Origin',(0.807331297023904,2.,0.2));
#1292=CARTESIAN_POINT('',(0.917331297023904,2.,0.15));
#1293=CARTESIAN_POINT('Origin',(0.807331297023904,2.,0.15));
#1294=CARTESIAN_POINT('',(0.917331297023904,2.,0.1));
#1295=CARTESIAN_POINT('',(0.917331297023904,2.,0.2));
#1296=CARTESIAN_POINT('Origin',(0.807331297023904,2.,0.1));
#1297=CARTESIAN_POINT('Origin',(0.807331297023904,2.,0.1));
#1298=CARTESIAN_POINT('',(0.785831297023904,2.,0.1));
#1299=CARTESIAN_POINT('Origin',(0.748331297023904,2.,0.1));
#1300=CARTESIAN_POINT('',(0.909831297023904,2.,0.1));
#1301=CARTESIAN_POINT('Origin',(0.872331297023904,2.,0.1));
#1302=CARTESIAN_POINT('Origin',(2.59633435148805,0.967118604924064,0.2));
#1303=CARTESIAN_POINT('',(2.70633435148805,0.967118604924064,0.15));
#1304=CARTESIAN_POINT('Origin',(2.59633435148805,0.967118604924064,0.15));
#1305=CARTESIAN_POINT('',(2.70633435148805,0.967118604924064,0.1));
#1306=CARTESIAN_POINT('',(2.70633435148805,0.967118604924064,0.2));
#1307=CARTESIAN_POINT('Origin',(2.59633435148805,0.967118604924064,0.1));
#1308=CARTESIAN_POINT('Origin',(2.59633435148805,0.967118604924064,0.1));
#1309=CARTESIAN_POINT('',(2.69583435148805,0.967118604924064,0.1));
#1310=CARTESIAN_POINT('Origin',(2.65833435148805,0.967118604924064,0.1));
#1311=CARTESIAN_POINT('',(2.57183435148805,0.967118604924064,0.1));
#1312=CARTESIAN_POINT('Origin',(2.53433435148805,0.967118604924064,0.1));
#1313=CARTESIAN_POINT('Origin',(3.82,3.82,0.2));
#1314=CARTESIAN_POINT('',(3.94,3.82,0.15));
#1315=CARTESIAN_POINT('Origin',(3.82,3.82,0.15));
#1316=CARTESIAN_POINT('',(3.94,3.82,0.1));
#1317=CARTESIAN_POINT('',(3.94,3.82,0.2));
#1318=CARTESIAN_POINT('Origin',(3.82,3.82,0.1));
#1319=CARTESIAN_POINT('Origin',(3.82,3.82,0.1));
#1320=CARTESIAN_POINT('',(3.887,3.82,0.1));
#1321=CARTESIAN_POINT('Origin',(3.82,3.82,0.1));
#1322=CARTESIAN_POINT('Origin',(3.82,0.18,0.2));
#1323=CARTESIAN_POINT('',(3.94,0.18,0.15));
#1324=CARTESIAN_POINT('Origin',(3.82,0.18,0.15));
#1325=CARTESIAN_POINT('',(3.94,0.18,0.1));
#1326=CARTESIAN_POINT('',(3.94,0.18,0.2));
#1327=CARTESIAN_POINT('Origin',(3.82,0.18,0.1));
#1328=CARTESIAN_POINT('Origin',(3.82,0.18,0.1));
#1329=CARTESIAN_POINT('',(3.887,0.18,0.1));
#1330=CARTESIAN_POINT('Origin',(3.82,0.18,0.1));
#1331=CARTESIAN_POINT('Origin',(3.1926687029761,2.,0.2));
#1332=CARTESIAN_POINT('',(3.3026687029761,2.,0.15));
#1333=CARTESIAN_POINT('Origin',(3.1926687029761,2.,0.15));
#1334=CARTESIAN_POINT('',(3.3026687029761,2.,0.1));
#1335=CARTESIAN_POINT('',(3.3026687029761,2.,0.2));
#1336=CARTESIAN_POINT('Origin',(3.1926687029761,2.,0.1));
#1337=CARTESIAN_POINT('Origin',(3.1926687029761,2.,0.1));
#1338=CARTESIAN_POINT('',(3.2921687029761,2.,0.1));
#1339=CARTESIAN_POINT('Origin',(3.2546687029761,2.,0.1));
#1340=CARTESIAN_POINT('',(3.1681687029761,2.,0.1));
#1341=CARTESIAN_POINT('Origin',(3.1306687029761,2.,0.1));
#1342=CARTESIAN_POINT('Origin',(2.,2.,0.15));
#1343=CARTESIAN_POINT('',(0.,4.,0.15));
#1344=CARTESIAN_POINT('',(0.,0.,0.15));
#1345=CARTESIAN_POINT('',(0.,4.,0.15));
#1346=CARTESIAN_POINT('',(4.,0.,0.15));
#1347=CARTESIAN_POINT('',(0.,0.,0.15));
#1348=CARTESIAN_POINT('',(4.,4.,0.15));
#1349=CARTESIAN_POINT('',(4.,0.,0.15));
#1350=CARTESIAN_POINT('',(4.,4.,0.15));
#1351=CARTESIAN_POINT('',(3.525,0.8,0.15));
#1352=CARTESIAN_POINT('Origin',(3.2,0.8,0.15));
#1353=CARTESIAN_POINT('',(2.57,2.,0.15));
#1354=CARTESIAN_POINT('Origin',(2.,2.,0.15));
#1355=CARTESIAN_POINT('Origin',(3.1306687029761,2.,0.2));
#1356=CARTESIAN_POINT('',(3.1681687029761,2.,0.));
#1357=CARTESIAN_POINT('',(3.1681687029761,2.,0.2));
#1358=CARTESIAN_POINT('Origin',(3.1306687029761,2.,0.));
#1359=CARTESIAN_POINT('Origin',(1.34166564851195,0.967118604924064,0.2));
#1360=CARTESIAN_POINT('',(1.37916564851195,0.967118604924064,0.));
#1361=CARTESIAN_POINT('',(1.37916564851195,0.967118604924064,0.2));
#1362=CARTESIAN_POINT('Origin',(1.34166564851195,0.967118604924064,0.));
#1363=CARTESIAN_POINT('Origin',(2.,2.,0.2));
#1364=CARTESIAN_POINT('',(2.57,2.,0.2));
#1365=CARTESIAN_POINT('',(1.45174772974411,2.15594694020487,0.));
#1366=CARTESIAN_POINT('',(1.45174772974411,2.15594694020487,0.2));
#1367=CARTESIAN_POINT('',(1.66390188694259,2.46036730813476,0.));
#1368=CARTESIAN_POINT('Origin',(2.,2.,0.));
#1369=CARTESIAN_POINT('',(1.66390188694259,2.46036730813476,0.2));
#1370=CARTESIAN_POINT('Origin',(1.53236035217356,2.32590360504413,0.2));
#1371=CARTESIAN_POINT('Origin',(1.53236035217356,2.32590360504413,0.));
#1372=CARTESIAN_POINT('Origin',(3.2,0.8,0.2));
#1373=CARTESIAN_POINT('',(3.525,0.8,0.));
#1374=CARTESIAN_POINT('',(3.525,0.8,0.2));
#1375=CARTESIAN_POINT('Origin',(3.2,0.8,0.));
#1376=CARTESIAN_POINT('Origin',(0.18,0.18,0.2));
#1377=CARTESIAN_POINT('',(0.247,0.18,0.));
#1378=CARTESIAN_POINT('',(0.247,0.18,0.2));
#1379=CARTESIAN_POINT('Origin',(0.18,0.18,0.));
#1380=CARTESIAN_POINT('Origin',(0.872331297023904,2.,0.2));
#1381=CARTESIAN_POINT('',(0.909831297023904,2.,0.));
#1382=CARTESIAN_POINT('',(0.909831297023904,2.,0.2));
#1383=CARTESIAN_POINT('Origin',(0.872331297023904,2.,0.));
#1384=CARTESIAN_POINT('Origin',(2.65833435148805,0.967118604924064,0.2));
#1385=CARTESIAN_POINT('',(2.69583435148805,0.967118604924064,0.));
#1386=CARTESIAN_POINT('',(2.69583435148805,0.967118604924064,0.2));
#1387=CARTESIAN_POINT('Origin',(2.65833435148805,0.967118604924064,0.));
#1388=CARTESIAN_POINT('Origin',(2.65833435148805,3.03288139507594,0.2));
#1389=CARTESIAN_POINT('',(2.69583435148805,3.03288139507594,0.));
#1390=CARTESIAN_POINT('',(2.69583435148805,3.03288139507594,0.2));
#1391=CARTESIAN_POINT('Origin',(2.65833435148805,3.03288139507594,0.));
#1392=CARTESIAN_POINT('Origin',(3.2546687029761,2.,0.2));
#1393=CARTESIAN_POINT('',(3.2921687029761,2.,0.));
#1394=CARTESIAN_POINT('',(3.2921687029761,2.,0.2));
#1395=CARTESIAN_POINT('Origin',(3.2546687029761,2.,0.));
#1396=CARTESIAN_POINT('Origin',(1.46566564851195,0.967118604924064,0.2));
#1397=CARTESIAN_POINT('',(1.50316564851195,0.967118604924064,0.));
#1398=CARTESIAN_POINT('',(1.50316564851195,0.967118604924064,0.2));
#1399=CARTESIAN_POINT('Origin',(1.46566564851195,0.967118604924064,0.));
#1400=CARTESIAN_POINT('Origin',(3.82,3.82,0.2));
#1401=CARTESIAN_POINT('',(3.887,3.82,0.));
#1402=CARTESIAN_POINT('',(3.887,3.82,0.2));
#1403=CARTESIAN_POINT('Origin',(3.82,3.82,0.));
#1404=CARTESIAN_POINT('Origin',(3.82,0.18,0.2));
#1405=CARTESIAN_POINT('',(3.887,0.18,0.));
#1406=CARTESIAN_POINT('',(3.887,0.18,0.2));
#1407=CARTESIAN_POINT('Origin',(3.82,0.18,0.));
#1408=CARTESIAN_POINT('Origin',(0.18,3.82,0.2));
#1409=CARTESIAN_POINT('',(0.247,3.82,0.));
#1410=CARTESIAN_POINT('',(0.247,3.82,0.2));
#1411=CARTESIAN_POINT('Origin',(0.18,3.82,0.));
#1412=CARTESIAN_POINT('Origin',(0.748331297023904,2.,0.2));
#1413=CARTESIAN_POINT('',(0.785831297023904,2.,0.));
#1414=CARTESIAN_POINT('',(0.785831297023904,2.,0.2));
#1415=CARTESIAN_POINT('Origin',(0.748331297023904,2.,0.));
#1416=CARTESIAN_POINT('Origin',(2.53433435148805,0.967118604924064,0.2));
#1417=CARTESIAN_POINT('',(2.57183435148805,0.967118604924064,0.));
#1418=CARTESIAN_POINT('',(2.57183435148805,0.967118604924064,0.2));
#1419=CARTESIAN_POINT('Origin',(2.53433435148805,0.967118604924064,0.));
#1420=CARTESIAN_POINT('Origin',(2.53433435148805,3.03288139507594,0.2));
#1421=CARTESIAN_POINT('',(2.57183435148805,3.03288139507594,0.));
#1422=CARTESIAN_POINT('',(2.57183435148805,3.03288139507594,0.2));
#1423=CARTESIAN_POINT('Origin',(2.53433435148805,3.03288139507594,0.));
#1424=CARTESIAN_POINT('Origin',(4.,4.,0.));
#1425=CARTESIAN_POINT('',(4.,4.,0.));
#1426=CARTESIAN_POINT('',(0.,4.,0.));
#1427=CARTESIAN_POINT('',(4.,4.,0.));
#1428=CARTESIAN_POINT('',(0.,4.,0.));
#1429=CARTESIAN_POINT('',(4.,4.,0.));
#1430=CARTESIAN_POINT('Origin',(4.,0.,0.));
#1431=CARTESIAN_POINT('',(4.,0.,0.));
#1432=CARTESIAN_POINT('',(4.,0.,0.));
#1433=CARTESIAN_POINT('',(4.,0.,0.));
#1434=CARTESIAN_POINT('Origin',(0.,0.,0.));
#1435=CARTESIAN_POINT('',(0.,0.,0.));
#1436=CARTESIAN_POINT('',(0.,0.,0.));
#1437=CARTESIAN_POINT('',(0.,0.,0.));
#1438=CARTESIAN_POINT('Origin',(0.,4.,0.));
#1439=CARTESIAN_POINT('',(0.,4.,0.));
#1440=CARTESIAN_POINT('Origin',(2.,2.,0.));
#1441=UNCERTAINTY_MEASURE_WITH_UNIT(LENGTH_MEASURE(0.000393700787401575),
#1446,'DISTANCE_ACCURACY_VALUE',
'Maximum model space distance between geometric entities at asserted c
onnectivities');
#1442=UNCERTAINTY_MEASURE_WITH_UNIT(LENGTH_MEASURE(0.000393700787401575),
#1446,'DISTANCE_ACCURACY_VALUE',
'Maximum model space distance between geometric entities at asserted c
onnectivities');
#1443=(
GEOMETRIC_REPRESENTATION_CONTEXT(3)
GLOBAL_UNCERTAINTY_ASSIGNED_CONTEXT((#1441))
GLOBAL_UNIT_ASSIGNED_CONTEXT((#1446,#1450,#1451))
REPRESENTATION_CONTEXT('','3D')
);
#1444=(
GEOMETRIC_REPRESENTATION_CONTEXT(3)
GLOBAL_UNCERTAINTY_ASSIGNED_CONTEXT((#1442))
GLOBAL_UNIT_ASSIGNED_CONTEXT((#1446,#1450,#1451))
REPRESENTATION_CONTEXT('','3D')
);
#1445=DIMENSIONAL_EXPONENTS(1.,0.,0.,0.,0.,0.,0.);
#1446=(
CONVERSION_BASED_UNIT('inch',#1449)
LENGTH_UNIT()
NAMED_UNIT(#1445)
);
#1447=(
LENGTH_UNIT()
NAMED_UNIT(*)
SI_UNIT(.MILLI.,.METRE.)
);
#1448=(
LENGTH_UNIT()
NAMED_UNIT(*)
SI_UNIT($,.METRE.)
);
#1449=LENGTH_MEASURE_WITH_UNIT(LENGTH_MEASURE(25.4),#1447);
#1450=(
NAMED_UNIT(*)
PLANE_ANGLE_UNIT()
SI_UNIT($,.RADIAN.)
);
#1451=(
NAMED_UNIT(*)
SI_UNIT($,.STERADIAN.)
SOLID_ANGLE_UNIT()
);
#1452=SHAPE_DEFINITION_REPRESENTATION(#1453,#1454);
#1453=PRODUCT_DEFINITION_SHAPE('',$,#1456);
#1454=SHAPE_REPRESENTATION('',(#845),#1443);
#1455=PRODUCT_DEFINITION_CONTEXT('part definition',#1460,'design');
#1456=PRODUCT_DEFINITION('2026-04-04-16-01-33-408','Enclosure_Top',#1457,
#1455);
#1457=PRODUCT_DEFINITION_FORMATION('',$,#1462);
#1458=PRODUCT_RELATED_PRODUCT_CATEGORY('Enclosure_Top','Enclosure_Top',
(#1462));
#1459=APPLICATION_PROTOCOL_DEFINITION('international standard',
'automotive_design',2009,#1460);
#1460=APPLICATION_CONTEXT(
'Core Data for Automotive Mechanical Design Process');
#1461=PRODUCT_CONTEXT('part definition',#1460,'mechanical');
#1462=PRODUCT('2026-04-04-16-01-33-408','Enclosure_Top',$,(#1461));
#1463=PRESENTATION_STYLE_ASSIGNMENT((#1464));
#1464=SURFACE_STYLE_USAGE(.BOTH.,#1465);
#1465=SURFACE_SIDE_STYLE('',(#1466));
#1466=SURFACE_STYLE_FILL_AREA(#1467);
#1467=FILL_AREA_STYLE('Steel - Satin',(#1468));
#1468=FILL_AREA_STYLE_COLOUR('Steel - Satin',#1469);
#1469=COLOUR_RGB('Steel - Satin',0.627450980392157,0.627450980392157,0.627450980392157);
ENDSEC;
END-ISO-10303-21;
