ISO-10303-21;
HEADER;
/* Generated by software containing ST-Developer
 * from STEP Tools, Inc. (www.steptools.com) 
 */

FILE_DESCRIPTION(
/* description */ (''),
/* implementation_level */ '2;1');

FILE_NAME(
/* name */ 'Enclosure.step',
/* time_stamp */ '2026-04-10T13:49:39-04:00',
/* author */ (''),
/* organization */ (''),
/* preprocessor_version */ 'ST-DEVELOPER v20.1',
/* originating_system */ 'Autodesk Translation Framework v14.24.0.0',
/* authorisation */ '');

FILE_SCHEMA (('AUTOMOTIVE_DESIGN { 1 0 10303 214 3 1 1 }'));
ENDSEC;

DATA;
#10=MECHANICAL_DESIGN_GEOMETRIC_PRESENTATION_REPRESENTATION('',(#13),#1156);
#11=SHAPE_REPRESENTATION_RELATIONSHIP('SRR','None',#1166,#12);
#12=ADVANCED_BREP_SHAPE_REPRESENTATION('',(#14),#1155);
#13=STYLED_ITEM('',(#1175),#14);
#14=MANIFOLD_SOLID_BREP('Body9',#676);
#15=FACE_BOUND('',#116,.T.);
#16=FACE_BOUND('',#117,.T.);
#17=FACE_BOUND('',#123,.T.);
#18=FACE_BOUND('',#124,.T.);
#19=FACE_BOUND('',#125,.T.);
#20=FACE_BOUND('',#126,.T.);
#21=FACE_BOUND('',#127,.T.);
#22=FACE_BOUND('',#130,.T.);
#23=FACE_BOUND('',#133,.T.);
#24=FACE_BOUND('',#136,.T.);
#25=FACE_BOUND('',#139,.T.);
#26=FACE_BOUND('',#147,.T.);
#27=FACE_BOUND('',#148,.T.);
#28=FACE_BOUND('',#151,.T.);
#29=FACE_BOUND('',#152,.T.);
#30=FACE_BOUND('',#153,.T.);
#31=FACE_BOUND('',#154,.T.);
#32=FACE_BOUND('',#156,.T.);
#33=FACE_BOUND('',#157,.T.);
#34=FACE_BOUND('',#158,.T.);
#35=FACE_BOUND('',#159,.T.);
#36=PLANE('',#693);
#37=PLANE('',#697);
#38=PLANE('',#701);
#39=PLANE('',#705);
#40=PLANE('',#706);
#41=PLANE('',#707);
#42=PLANE('',#708);
#43=PLANE('',#709);
#44=PLANE('',#716);
#45=PLANE('',#720);
#46=PLANE('',#724);
#47=PLANE('',#728);
#48=PLANE('',#729);
#49=PLANE('',#733);
#50=PLANE('',#738);
#51=PLANE('',#743);
#52=PLANE('',#748);
#53=PLANE('',#758);
#54=PLANE('',#759);
#55=PLANE('',#760);
#56=PLANE('',#761);
#57=PLANE('',#762);
#58=PLANE('',#763);
#59=FACE_OUTER_BOUND('',#99,.T.);
#60=FACE_OUTER_BOUND('',#100,.T.);
#61=FACE_OUTER_BOUND('',#101,.T.);
#62=FACE_OUTER_BOUND('',#102,.T.);
#63=FACE_OUTER_BOUND('',#103,.T.);
#64=FACE_OUTER_BOUND('',#104,.T.);
#65=FACE_OUTER_BOUND('',#105,.T.);
#66=FACE_OUTER_BOUND('',#106,.T.);
#67=FACE_OUTER_BOUND('',#107,.T.);
#68=FACE_OUTER_BOUND('',#108,.T.);
#69=FACE_OUTER_BOUND('',#109,.T.);
#70=FACE_OUTER_BOUND('',#110,.T.);
#71=FACE_OUTER_BOUND('',#111,.T.);
#72=FACE_OUTER_BOUND('',#112,.T.);
#73=FACE_OUTER_BOUND('',#113,.T.);
#74=FACE_OUTER_BOUND('',#114,.T.);
#75=FACE_OUTER_BOUND('',#115,.T.);
#76=FACE_OUTER_BOUND('',#118,.T.);
#77=FACE_OUTER_BOUND('',#119,.T.);
#78=FACE_OUTER_BOUND('',#120,.T.);
#79=FACE_OUTER_BOUND('',#121,.T.);
#80=FACE_OUTER_BOUND('',#122,.T.);
#81=FACE_OUTER_BOUND('',#128,.T.);
#82=FACE_OUTER_BOUND('',#129,.T.);
#83=FACE_OUTER_BOUND('',#131,.T.);
#84=FACE_OUTER_BOUND('',#132,.T.);
#85=FACE_OUTER_BOUND('',#134,.T.);
#86=FACE_OUTER_BOUND('',#135,.T.);
#87=FACE_OUTER_BOUND('',#137,.T.);
#88=FACE_OUTER_BOUND('',#138,.T.);
#89=FACE_OUTER_BOUND('',#140,.T.);
#90=FACE_OUTER_BOUND('',#141,.T.);
#91=FACE_OUTER_BOUND('',#142,.T.);
#92=FACE_OUTER_BOUND('',#143,.T.);
#93=FACE_OUTER_BOUND('',#144,.T.);
#94=FACE_OUTER_BOUND('',#145,.T.);
#95=FACE_OUTER_BOUND('',#146,.T.);
#96=FACE_OUTER_BOUND('',#149,.T.);
#97=FACE_OUTER_BOUND('',#150,.T.);
#98=FACE_OUTER_BOUND('',#155,.T.);
#99=EDGE_LOOP('',(#445,#446,#447,#448));
#100=EDGE_LOOP('',(#449));
#101=EDGE_LOOP('',(#450,#451,#452,#453));
#102=EDGE_LOOP('',(#454));
#103=EDGE_LOOP('',(#455,#456,#457,#458));
#104=EDGE_LOOP('',(#459));
#105=EDGE_LOOP('',(#460,#461,#462,#463));
#106=EDGE_LOOP('',(#464));
#107=EDGE_LOOP('',(#465,#466,#467,#468));
#108=EDGE_LOOP('',(#469,#470,#471,#472));
#109=EDGE_LOOP('',(#473,#474,#475,#476));
#110=EDGE_LOOP('',(#477,#478,#479,#480));
#111=EDGE_LOOP('',(#481,#482,#483,#484));
#112=EDGE_LOOP('',(#485,#486,#487,#488));
#113=EDGE_LOOP('',(#489,#490,#491,#492));
#114=EDGE_LOOP('',(#493,#494,#495,#496));
#115=EDGE_LOOP('',(#497,#498,#499,#500));
#116=EDGE_LOOP('',(#501,#502,#503,#504));
#117=EDGE_LOOP('',(#505));
#118=EDGE_LOOP('',(#506,#507,#508,#509));
#119=EDGE_LOOP('',(#510,#511,#512,#513));
#120=EDGE_LOOP('',(#514,#515,#516,#517));
#121=EDGE_LOOP('',(#518,#519,#520,#521));
#122=EDGE_LOOP('',(#522,#523,#524,#525));
#123=EDGE_LOOP('',(#526));
#124=EDGE_LOOP('',(#527));
#125=EDGE_LOOP('',(#528));
#126=EDGE_LOOP('',(#529));
#127=EDGE_LOOP('',(#530,#531,#532,#533,#534,#535,#536,#537));
#128=EDGE_LOOP('',(#538,#539,#540,#541));
#129=EDGE_LOOP('',(#542));
#130=EDGE_LOOP('',(#543));
#131=EDGE_LOOP('',(#544,#545,#546,#547));
#132=EDGE_LOOP('',(#548));
#133=EDGE_LOOP('',(#549));
#134=EDGE_LOOP('',(#550,#551,#552,#553));
#135=EDGE_LOOP('',(#554));
#136=EDGE_LOOP('',(#555));
#137=EDGE_LOOP('',(#556,#557,#558,#559));
#138=EDGE_LOOP('',(#560));
#139=EDGE_LOOP('',(#561));
#140=EDGE_LOOP('',(#562,#563,#564,#565));
#141=EDGE_LOOP('',(#566,#567,#568,#569));
#142=EDGE_LOOP('',(#570,#571,#572,#573));
#143=EDGE_LOOP('',(#574,#575,#576,#577));
#144=EDGE_LOOP('',(#578,#579,#580,#581));
#145=EDGE_LOOP('',(#582,#583,#584,#585));
#146=EDGE_LOOP('',(#586,#587,#588,#589));
#147=EDGE_LOOP('',(#590,#591,#592,#593));
#148=EDGE_LOOP('',(#594));
#149=EDGE_LOOP('',(#595,#596,#597,#598));
#150=EDGE_LOOP('',(#599,#600,#601,#602,#603,#604,#605,#606));
#151=EDGE_LOOP('',(#607));
#152=EDGE_LOOP('',(#608));
#153=EDGE_LOOP('',(#609));
#154=EDGE_LOOP('',(#610));
#155=EDGE_LOOP('',(#611,#612,#613,#614));
#156=EDGE_LOOP('',(#615));
#157=EDGE_LOOP('',(#616));
#158=EDGE_LOOP('',(#617));
#159=EDGE_LOOP('',(#618));
#160=LINE('',#972,#213);
#161=LINE('',#979,#214);
#162=LINE('',#986,#215);
#163=LINE('',#993,#216);
#164=LINE('',#999,#217);
#165=LINE('',#1001,#218);
#166=LINE('',#1003,#219);
#167=LINE('',#1004,#220);
#168=LINE('',#1007,#221);
#169=LINE('',#1009,#222);
#170=LINE('',#1010,#223);
#171=LINE('',#1013,#224);
#172=LINE('',#1015,#225);
#173=LINE('',#1016,#226);
#174=LINE('',#1018,#227);
#175=LINE('',#1019,#228);
#176=LINE('',#1024,#229);
#177=LINE('',#1031,#230);
#178=LINE('',#1034,#231);
#179=LINE('',#1037,#232);
#180=LINE('',#1039,#233);
#181=LINE('',#1040,#234);
#182=LINE('',#1046,#235);
#183=LINE('',#1049,#236);
#184=LINE('',#1051,#237);
#185=LINE('',#1052,#238);
#186=LINE('',#1058,#239);
#187=LINE('',#1061,#240);
#188=LINE('',#1063,#241);
#189=LINE('',#1064,#242);
#190=LINE('',#1070,#243);
#191=LINE('',#1072,#244);
#192=LINE('',#1073,#245);
#193=LINE('',#1077,#246);
#194=LINE('',#1079,#247);
#195=LINE('',#1081,#248);
#196=LINE('',#1082,#249);
#197=LINE('',#1087,#250);
#198=LINE('',#1096,#251);
#199=LINE('',#1105,#252);
#200=LINE('',#1114,#253);
#201=LINE('',#1122,#254);
#202=LINE('',#1126,#255);
#203=LINE('',#1130,#256);
#204=LINE('',#1134,#257);
#205=LINE('',#1138,#258);
#206=LINE('',#1139,#259);
#207=LINE('',#1140,#260);
#208=LINE('',#1143,#261);
#209=LINE('',#1144,#262);
#210=LINE('',#1147,#263);
#211=LINE('',#1148,#264);
#212=LINE('',#1150,#265);
#213=VECTOR('',#770,0.08);
#214=VECTOR('',#779,0.0800000000000003);
#215=VECTOR('',#788,0.08);
#216=VECTOR('',#797,0.0800000000000003);
#217=VECTOR('',#804,0.393700787401575);
#218=VECTOR('',#805,0.393700787401575);
#219=VECTOR('',#806,0.393700787401575);
#220=VECTOR('',#807,0.393700787401575);
#221=VECTOR('',#810,0.393700787401575);
#222=VECTOR('',#811,0.393700787401575);
#223=VECTOR('',#812,0.393700787401575);
#224=VECTOR('',#815,0.393700787401575);
#225=VECTOR('',#816,0.393700787401575);
#226=VECTOR('',#817,0.393700787401575);
#227=VECTOR('',#820,0.393700787401575);
#228=VECTOR('',#821,0.393700787401575);
#229=VECTOR('',#826,0.41);
#230=VECTOR('',#833,0.393700787401575);
#231=VECTOR('',#836,0.393700787401575);
#232=VECTOR('',#839,0.393700787401575);
#233=VECTOR('',#840,0.393700787401575);
#234=VECTOR('',#841,0.393700787401575);
#235=VECTOR('',#848,0.393700787401575);
#236=VECTOR('',#851,0.393700787401575);
#237=VECTOR('',#852,0.393700787401575);
#238=VECTOR('',#853,0.393700787401575);
#239=VECTOR('',#860,0.393700787401575);
#240=VECTOR('',#863,0.393700787401575);
#241=VECTOR('',#864,0.393700787401575);
#242=VECTOR('',#865,0.393700787401575);
#243=VECTOR('',#872,0.393700787401575);
#244=VECTOR('',#875,0.393700787401575);
#245=VECTOR('',#876,0.393700787401575);
#246=VECTOR('',#879,0.393700787401575);
#247=VECTOR('',#880,0.393700787401575);
#248=VECTOR('',#881,0.393700787401575);
#249=VECTOR('',#882,0.393700787401575);
#250=VECTOR('',#887,0.1);
#251=VECTOR('',#898,0.0999999999999998);
#252=VECTOR('',#909,0.1);
#253=VECTOR('',#920,0.0999999999999998);
#254=VECTOR('',#931,0.0499999999999999);
#255=VECTOR('',#936,0.0499999999999999);
#256=VECTOR('',#941,0.0499999999999999);
#257=VECTOR('',#946,0.0499999999999999);
#258=VECTOR('',#949,0.393700787401575);
#259=VECTOR('',#950,0.393700787401575);
#260=VECTOR('',#951,0.393700787401575);
#261=VECTOR('',#954,0.393700787401575);
#262=VECTOR('',#955,0.393700787401575);
#263=VECTOR('',#958,0.393700787401575);
#264=VECTOR('',#959,0.393700787401575);
#265=VECTOR('',#962,0.393700787401575);
#266=CIRCLE('',#691,0.08);
#267=CIRCLE('',#692,0.08);
#268=CIRCLE('',#695,0.0800000000000003);
#269=CIRCLE('',#696,0.0800000000000003);
#270=CIRCLE('',#699,0.08);
#271=CIRCLE('',#700,0.08);
#272=CIRCLE('',#703,0.0800000000000003);
#273=CIRCLE('',#704,0.0800000000000003);
#274=CIRCLE('',#711,0.41);
#275=CIRCLE('',#712,0.41);
#276=CIRCLE('',#714,0.212132034355964);
#277=CIRCLE('',#715,0.212132034355964);
#278=CIRCLE('',#718,0.212132034355964);
#279=CIRCLE('',#719,0.212132034355964);
#280=CIRCLE('',#722,0.212132034355964);
#281=CIRCLE('',#723,0.212132034355964);
#282=CIRCLE('',#726,0.212132034355964);
#283=CIRCLE('',#727,0.212132034355964);
#284=CIRCLE('',#731,0.1);
#285=CIRCLE('',#732,0.1);
#286=CIRCLE('',#734,0.0499999999999999);
#287=CIRCLE('',#736,0.0999999999999998);
#288=CIRCLE('',#737,0.0999999999999998);
#289=CIRCLE('',#739,0.0499999999999999);
#290=CIRCLE('',#741,0.1);
#291=CIRCLE('',#742,0.1);
#292=CIRCLE('',#744,0.0499999999999999);
#293=CIRCLE('',#746,0.0999999999999998);
#294=CIRCLE('',#747,0.0999999999999998);
#295=CIRCLE('',#749,0.0499999999999999);
#296=CIRCLE('',#751,0.0499999999999999);
#297=CIRCLE('',#753,0.0499999999999999);
#298=CIRCLE('',#755,0.0499999999999999);
#299=CIRCLE('',#757,0.0499999999999999);
#300=VERTEX_POINT('',#969);
#301=VERTEX_POINT('',#971);
#302=VERTEX_POINT('',#976);
#303=VERTEX_POINT('',#978);
#304=VERTEX_POINT('',#983);
#305=VERTEX_POINT('',#985);
#306=VERTEX_POINT('',#990);
#307=VERTEX_POINT('',#992);
#308=VERTEX_POINT('',#997);
#309=VERTEX_POINT('',#998);
#310=VERTEX_POINT('',#1000);
#311=VERTEX_POINT('',#1002);
#312=VERTEX_POINT('',#1006);
#313=VERTEX_POINT('',#1008);
#314=VERTEX_POINT('',#1012);
#315=VERTEX_POINT('',#1014);
#316=VERTEX_POINT('',#1021);
#317=VERTEX_POINT('',#1023);
#318=VERTEX_POINT('',#1027);
#319=VERTEX_POINT('',#1028);
#320=VERTEX_POINT('',#1030);
#321=VERTEX_POINT('',#1032);
#322=VERTEX_POINT('',#1036);
#323=VERTEX_POINT('',#1038);
#324=VERTEX_POINT('',#1042);
#325=VERTEX_POINT('',#1044);
#326=VERTEX_POINT('',#1048);
#327=VERTEX_POINT('',#1050);
#328=VERTEX_POINT('',#1054);
#329=VERTEX_POINT('',#1056);
#330=VERTEX_POINT('',#1060);
#331=VERTEX_POINT('',#1062);
#332=VERTEX_POINT('',#1066);
#333=VERTEX_POINT('',#1068);
#334=VERTEX_POINT('',#1075);
#335=VERTEX_POINT('',#1076);
#336=VERTEX_POINT('',#1078);
#337=VERTEX_POINT('',#1080);
#338=VERTEX_POINT('',#1084);
#339=VERTEX_POINT('',#1086);
#340=VERTEX_POINT('',#1090);
#341=VERTEX_POINT('',#1093);
#342=VERTEX_POINT('',#1095);
#343=VERTEX_POINT('',#1099);
#344=VERTEX_POINT('',#1102);
#345=VERTEX_POINT('',#1104);
#346=VERTEX_POINT('',#1108);
#347=VERTEX_POINT('',#1111);
#348=VERTEX_POINT('',#1113);
#349=VERTEX_POINT('',#1117);
#350=VERTEX_POINT('',#1120);
#351=VERTEX_POINT('',#1124);
#352=VERTEX_POINT('',#1128);
#353=VERTEX_POINT('',#1132);
#354=VERTEX_POINT('',#1136);
#355=VERTEX_POINT('',#1137);
#356=VERTEX_POINT('',#1142);
#357=VERTEX_POINT('',#1146);
#358=EDGE_CURVE('',#300,#300,#266,.T.);
#359=EDGE_CURVE('',#300,#301,#160,.T.);
#360=EDGE_CURVE('',#301,#301,#267,.T.);
#361=EDGE_CURVE('',#302,#302,#268,.T.);
#362=EDGE_CURVE('',#302,#303,#161,.T.);
#363=EDGE_CURVE('',#303,#303,#269,.T.);
#364=EDGE_CURVE('',#304,#304,#270,.T.);
#365=EDGE_CURVE('',#304,#305,#162,.T.);
#366=EDGE_CURVE('',#305,#305,#271,.T.);
#367=EDGE_CURVE('',#306,#306,#272,.T.);
#368=EDGE_CURVE('',#306,#307,#163,.T.);
#369=EDGE_CURVE('',#307,#307,#273,.T.);
#370=EDGE_CURVE('',#308,#309,#164,.T.);
#371=EDGE_CURVE('',#308,#310,#165,.T.);
#372=EDGE_CURVE('',#311,#310,#166,.T.);
#373=EDGE_CURVE('',#309,#311,#167,.T.);
#374=EDGE_CURVE('',#312,#308,#168,.T.);
#375=EDGE_CURVE('',#312,#313,#169,.T.);
#376=EDGE_CURVE('',#310,#313,#170,.T.);
#377=EDGE_CURVE('',#314,#312,#171,.T.);
#378=EDGE_CURVE('',#314,#315,#172,.T.);
#379=EDGE_CURVE('',#313,#315,#173,.T.);
#380=EDGE_CURVE('',#309,#314,#174,.T.);
#381=EDGE_CURVE('',#315,#311,#175,.T.);
#382=EDGE_CURVE('',#316,#316,#274,.T.);
#383=EDGE_CURVE('',#316,#317,#176,.T.);
#384=EDGE_CURVE('',#317,#317,#275,.T.);
#385=EDGE_CURVE('',#318,#319,#276,.T.);
#386=EDGE_CURVE('',#318,#320,#177,.T.);
#387=EDGE_CURVE('',#321,#320,#277,.T.);
#388=EDGE_CURVE('',#319,#321,#178,.T.);
#389=EDGE_CURVE('',#319,#322,#179,.T.);
#390=EDGE_CURVE('',#323,#321,#180,.T.);
#391=EDGE_CURVE('',#322,#323,#181,.T.);
#392=EDGE_CURVE('',#322,#324,#278,.T.);
#393=EDGE_CURVE('',#325,#323,#279,.T.);
#394=EDGE_CURVE('',#324,#325,#182,.T.);
#395=EDGE_CURVE('',#324,#326,#183,.T.);
#396=EDGE_CURVE('',#327,#325,#184,.T.);
#397=EDGE_CURVE('',#326,#327,#185,.T.);
#398=EDGE_CURVE('',#326,#328,#280,.T.);
#399=EDGE_CURVE('',#329,#327,#281,.T.);
#400=EDGE_CURVE('',#328,#329,#186,.T.);
#401=EDGE_CURVE('',#328,#330,#187,.T.);
#402=EDGE_CURVE('',#331,#329,#188,.T.);
#403=EDGE_CURVE('',#330,#331,#189,.T.);
#404=EDGE_CURVE('',#330,#332,#282,.T.);
#405=EDGE_CURVE('',#333,#331,#283,.T.);
#406=EDGE_CURVE('',#332,#333,#190,.T.);
#407=EDGE_CURVE('',#332,#318,#191,.T.);
#408=EDGE_CURVE('',#320,#333,#192,.T.);
#409=EDGE_CURVE('',#334,#335,#193,.T.);
#410=EDGE_CURVE('',#335,#336,#194,.T.);
#411=EDGE_CURVE('',#336,#337,#195,.T.);
#412=EDGE_CURVE('',#337,#334,#196,.T.);
#413=EDGE_CURVE('',#338,#338,#284,.T.);
#414=EDGE_CURVE('',#338,#339,#197,.T.);
#415=EDGE_CURVE('',#339,#339,#285,.T.);
#416=EDGE_CURVE('',#340,#340,#286,.T.);
#417=EDGE_CURVE('',#341,#341,#287,.T.);
#418=EDGE_CURVE('',#341,#342,#198,.T.);
#419=EDGE_CURVE('',#342,#342,#288,.T.);
#420=EDGE_CURVE('',#343,#343,#289,.T.);
#421=EDGE_CURVE('',#344,#344,#290,.T.);
#422=EDGE_CURVE('',#344,#345,#199,.T.);
#423=EDGE_CURVE('',#345,#345,#291,.T.);
#424=EDGE_CURVE('',#346,#346,#292,.T.);
#425=EDGE_CURVE('',#347,#347,#293,.T.);
#426=EDGE_CURVE('',#347,#348,#200,.T.);
#427=EDGE_CURVE('',#348,#348,#294,.T.);
#428=EDGE_CURVE('',#349,#349,#295,.T.);
#429=EDGE_CURVE('',#350,#350,#296,.T.);
#430=EDGE_CURVE('',#350,#343,#201,.T.);
#431=EDGE_CURVE('',#351,#351,#297,.T.);
#432=EDGE_CURVE('',#351,#340,#202,.T.);
#433=EDGE_CURVE('',#352,#352,#298,.T.);
#434=EDGE_CURVE('',#352,#346,#203,.T.);
#435=EDGE_CURVE('',#353,#353,#299,.T.);
#436=EDGE_CURVE('',#353,#349,#204,.T.);
#437=EDGE_CURVE('',#354,#355,#205,.T.);
#438=EDGE_CURVE('',#355,#337,#206,.T.);
#439=EDGE_CURVE('',#354,#336,#207,.T.);
#440=EDGE_CURVE('',#356,#354,#208,.T.);
#441=EDGE_CURVE('',#356,#335,#209,.T.);
#442=EDGE_CURVE('',#357,#356,#210,.T.);
#443=EDGE_CURVE('',#357,#334,#211,.T.);
#444=EDGE_CURVE('',#355,#357,#212,.T.);
#445=ORIENTED_EDGE('',*,*,#358,.F.);
#446=ORIENTED_EDGE('',*,*,#359,.T.);
#447=ORIENTED_EDGE('',*,*,#360,.T.);
#448=ORIENTED_EDGE('',*,*,#359,.F.);
#449=ORIENTED_EDGE('',*,*,#360,.F.);
#450=ORIENTED_EDGE('',*,*,#361,.F.);
#451=ORIENTED_EDGE('',*,*,#362,.T.);
#452=ORIENTED_EDGE('',*,*,#363,.T.);
#453=ORIENTED_EDGE('',*,*,#362,.F.);
#454=ORIENTED_EDGE('',*,*,#363,.F.);
#455=ORIENTED_EDGE('',*,*,#364,.F.);
#456=ORIENTED_EDGE('',*,*,#365,.T.);
#457=ORIENTED_EDGE('',*,*,#366,.T.);
#458=ORIENTED_EDGE('',*,*,#365,.F.);
#459=ORIENTED_EDGE('',*,*,#366,.F.);
#460=ORIENTED_EDGE('',*,*,#367,.F.);
#461=ORIENTED_EDGE('',*,*,#368,.T.);
#462=ORIENTED_EDGE('',*,*,#369,.T.);
#463=ORIENTED_EDGE('',*,*,#368,.F.);
#464=ORIENTED_EDGE('',*,*,#369,.F.);
#465=ORIENTED_EDGE('',*,*,#370,.F.);
#466=ORIENTED_EDGE('',*,*,#371,.T.);
#467=ORIENTED_EDGE('',*,*,#372,.F.);
#468=ORIENTED_EDGE('',*,*,#373,.F.);
#469=ORIENTED_EDGE('',*,*,#374,.F.);
#470=ORIENTED_EDGE('',*,*,#375,.T.);
#471=ORIENTED_EDGE('',*,*,#376,.F.);
#472=ORIENTED_EDGE('',*,*,#371,.F.);
#473=ORIENTED_EDGE('',*,*,#377,.F.);
#474=ORIENTED_EDGE('',*,*,#378,.T.);
#475=ORIENTED_EDGE('',*,*,#379,.F.);
#476=ORIENTED_EDGE('',*,*,#375,.F.);
#477=ORIENTED_EDGE('',*,*,#380,.F.);
#478=ORIENTED_EDGE('',*,*,#373,.T.);
#479=ORIENTED_EDGE('',*,*,#381,.F.);
#480=ORIENTED_EDGE('',*,*,#378,.F.);
#481=ORIENTED_EDGE('',*,*,#382,.F.);
#482=ORIENTED_EDGE('',*,*,#383,.T.);
#483=ORIENTED_EDGE('',*,*,#384,.F.);
#484=ORIENTED_EDGE('',*,*,#383,.F.);
#485=ORIENTED_EDGE('',*,*,#385,.F.);
#486=ORIENTED_EDGE('',*,*,#386,.T.);
#487=ORIENTED_EDGE('',*,*,#387,.F.);
#488=ORIENTED_EDGE('',*,*,#388,.F.);
#489=ORIENTED_EDGE('',*,*,#389,.F.);
#490=ORIENTED_EDGE('',*,*,#388,.T.);
#491=ORIENTED_EDGE('',*,*,#390,.F.);
#492=ORIENTED_EDGE('',*,*,#391,.F.);
#493=ORIENTED_EDGE('',*,*,#392,.F.);
#494=ORIENTED_EDGE('',*,*,#391,.T.);
#495=ORIENTED_EDGE('',*,*,#393,.F.);
#496=ORIENTED_EDGE('',*,*,#394,.F.);
#497=ORIENTED_EDGE('',*,*,#395,.F.);
#498=ORIENTED_EDGE('',*,*,#394,.T.);
#499=ORIENTED_EDGE('',*,*,#396,.F.);
#500=ORIENTED_EDGE('',*,*,#397,.F.);
#501=ORIENTED_EDGE('',*,*,#372,.T.);
#502=ORIENTED_EDGE('',*,*,#376,.T.);
#503=ORIENTED_EDGE('',*,*,#379,.T.);
#504=ORIENTED_EDGE('',*,*,#381,.T.);
#505=ORIENTED_EDGE('',*,*,#384,.T.);
#506=ORIENTED_EDGE('',*,*,#398,.F.);
#507=ORIENTED_EDGE('',*,*,#397,.T.);
#508=ORIENTED_EDGE('',*,*,#399,.F.);
#509=ORIENTED_EDGE('',*,*,#400,.F.);
#510=ORIENTED_EDGE('',*,*,#401,.F.);
#511=ORIENTED_EDGE('',*,*,#400,.T.);
#512=ORIENTED_EDGE('',*,*,#402,.F.);
#513=ORIENTED_EDGE('',*,*,#403,.F.);
#514=ORIENTED_EDGE('',*,*,#404,.F.);
#515=ORIENTED_EDGE('',*,*,#403,.T.);
#516=ORIENTED_EDGE('',*,*,#405,.F.);
#517=ORIENTED_EDGE('',*,*,#406,.F.);
#518=ORIENTED_EDGE('',*,*,#407,.F.);
#519=ORIENTED_EDGE('',*,*,#406,.T.);
#520=ORIENTED_EDGE('',*,*,#408,.F.);
#521=ORIENTED_EDGE('',*,*,#386,.F.);
#522=ORIENTED_EDGE('',*,*,#409,.T.);
#523=ORIENTED_EDGE('',*,*,#410,.T.);
#524=ORIENTED_EDGE('',*,*,#411,.T.);
#525=ORIENTED_EDGE('',*,*,#412,.T.);
#526=ORIENTED_EDGE('',*,*,#358,.T.);
#527=ORIENTED_EDGE('',*,*,#361,.T.);
#528=ORIENTED_EDGE('',*,*,#364,.T.);
#529=ORIENTED_EDGE('',*,*,#367,.T.);
#530=ORIENTED_EDGE('',*,*,#408,.T.);
#531=ORIENTED_EDGE('',*,*,#405,.T.);
#532=ORIENTED_EDGE('',*,*,#402,.T.);
#533=ORIENTED_EDGE('',*,*,#399,.T.);
#534=ORIENTED_EDGE('',*,*,#396,.T.);
#535=ORIENTED_EDGE('',*,*,#393,.T.);
#536=ORIENTED_EDGE('',*,*,#390,.T.);
#537=ORIENTED_EDGE('',*,*,#387,.T.);
#538=ORIENTED_EDGE('',*,*,#413,.F.);
#539=ORIENTED_EDGE('',*,*,#414,.T.);
#540=ORIENTED_EDGE('',*,*,#415,.T.);
#541=ORIENTED_EDGE('',*,*,#414,.F.);
#542=ORIENTED_EDGE('',*,*,#415,.F.);
#543=ORIENTED_EDGE('',*,*,#416,.F.);
#544=ORIENTED_EDGE('',*,*,#417,.F.);
#545=ORIENTED_EDGE('',*,*,#418,.T.);
#546=ORIENTED_EDGE('',*,*,#419,.T.);
#547=ORIENTED_EDGE('',*,*,#418,.F.);
#548=ORIENTED_EDGE('',*,*,#419,.F.);
#549=ORIENTED_EDGE('',*,*,#420,.F.);
#550=ORIENTED_EDGE('',*,*,#421,.F.);
#551=ORIENTED_EDGE('',*,*,#422,.T.);
#552=ORIENTED_EDGE('',*,*,#423,.T.);
#553=ORIENTED_EDGE('',*,*,#422,.F.);
#554=ORIENTED_EDGE('',*,*,#423,.F.);
#555=ORIENTED_EDGE('',*,*,#424,.F.);
#556=ORIENTED_EDGE('',*,*,#425,.F.);
#557=ORIENTED_EDGE('',*,*,#426,.T.);
#558=ORIENTED_EDGE('',*,*,#427,.T.);
#559=ORIENTED_EDGE('',*,*,#426,.F.);
#560=ORIENTED_EDGE('',*,*,#427,.F.);
#561=ORIENTED_EDGE('',*,*,#428,.F.);
#562=ORIENTED_EDGE('',*,*,#429,.F.);
#563=ORIENTED_EDGE('',*,*,#430,.T.);
#564=ORIENTED_EDGE('',*,*,#420,.T.);
#565=ORIENTED_EDGE('',*,*,#430,.F.);
#566=ORIENTED_EDGE('',*,*,#431,.F.);
#567=ORIENTED_EDGE('',*,*,#432,.T.);
#568=ORIENTED_EDGE('',*,*,#416,.T.);
#569=ORIENTED_EDGE('',*,*,#432,.F.);
#570=ORIENTED_EDGE('',*,*,#433,.F.);
#571=ORIENTED_EDGE('',*,*,#434,.T.);
#572=ORIENTED_EDGE('',*,*,#424,.T.);
#573=ORIENTED_EDGE('',*,*,#434,.F.);
#574=ORIENTED_EDGE('',*,*,#435,.F.);
#575=ORIENTED_EDGE('',*,*,#436,.T.);
#576=ORIENTED_EDGE('',*,*,#428,.T.);
#577=ORIENTED_EDGE('',*,*,#436,.F.);
#578=ORIENTED_EDGE('',*,*,#437,.T.);
#579=ORIENTED_EDGE('',*,*,#438,.T.);
#580=ORIENTED_EDGE('',*,*,#411,.F.);
#581=ORIENTED_EDGE('',*,*,#439,.F.);
#582=ORIENTED_EDGE('',*,*,#440,.T.);
#583=ORIENTED_EDGE('',*,*,#439,.T.);
#584=ORIENTED_EDGE('',*,*,#410,.F.);
#585=ORIENTED_EDGE('',*,*,#441,.F.);
#586=ORIENTED_EDGE('',*,*,#442,.T.);
#587=ORIENTED_EDGE('',*,*,#441,.T.);
#588=ORIENTED_EDGE('',*,*,#409,.F.);
#589=ORIENTED_EDGE('',*,*,#443,.F.);
#590=ORIENTED_EDGE('',*,*,#370,.T.);
#591=ORIENTED_EDGE('',*,*,#380,.T.);
#592=ORIENTED_EDGE('',*,*,#377,.T.);
#593=ORIENTED_EDGE('',*,*,#374,.T.);
#594=ORIENTED_EDGE('',*,*,#382,.T.);
#595=ORIENTED_EDGE('',*,*,#444,.T.);
#596=ORIENTED_EDGE('',*,*,#443,.T.);
#597=ORIENTED_EDGE('',*,*,#412,.F.);
#598=ORIENTED_EDGE('',*,*,#438,.F.);
#599=ORIENTED_EDGE('',*,*,#385,.T.);
#600=ORIENTED_EDGE('',*,*,#389,.T.);
#601=ORIENTED_EDGE('',*,*,#392,.T.);
#602=ORIENTED_EDGE('',*,*,#395,.T.);
#603=ORIENTED_EDGE('',*,*,#398,.T.);
#604=ORIENTED_EDGE('',*,*,#401,.T.);
#605=ORIENTED_EDGE('',*,*,#404,.T.);
#606=ORIENTED_EDGE('',*,*,#407,.T.);
#607=ORIENTED_EDGE('',*,*,#435,.T.);
#608=ORIENTED_EDGE('',*,*,#433,.T.);
#609=ORIENTED_EDGE('',*,*,#431,.T.);
#610=ORIENTED_EDGE('',*,*,#429,.T.);
#611=ORIENTED_EDGE('',*,*,#444,.F.);
#612=ORIENTED_EDGE('',*,*,#437,.F.);
#613=ORIENTED_EDGE('',*,*,#440,.F.);
#614=ORIENTED_EDGE('',*,*,#442,.F.);
#615=ORIENTED_EDGE('',*,*,#413,.T.);
#616=ORIENTED_EDGE('',*,*,#417,.T.);
#617=ORIENTED_EDGE('',*,*,#421,.T.);
#618=ORIENTED_EDGE('',*,*,#425,.T.);
#619=CYLINDRICAL_SURFACE('',#690,0.08);
#620=CYLINDRICAL_SURFACE('',#694,0.0800000000000003);
#621=CYLINDRICAL_SURFACE('',#698,0.08);
#622=CYLINDRICAL_SURFACE('',#702,0.0800000000000003);
#623=CYLINDRICAL_SURFACE('',#710,0.41);
#624=CYLINDRICAL_SURFACE('',#713,0.212132034355964);
#625=CYLINDRICAL_SURFACE('',#717,0.212132034355964);
#626=CYLINDRICAL_SURFACE('',#721,0.212132034355964);
#627=CYLINDRICAL_SURFACE('',#725,0.212132034355964);
#628=CYLINDRICAL_SURFACE('',#730,0.1);
#629=CYLINDRICAL_SURFACE('',#735,0.0999999999999998);
#630=CYLINDRICAL_SURFACE('',#740,0.1);
#631=CYLINDRICAL_SURFACE('',#745,0.0999999999999998);
#632=CYLINDRICAL_SURFACE('',#750,0.0499999999999999);
#633=CYLINDRICAL_SURFACE('',#752,0.0499999999999999);
#634=CYLINDRICAL_SURFACE('',#754,0.0499999999999999);
#635=CYLINDRICAL_SURFACE('',#756,0.0499999999999999);
#636=ADVANCED_FACE('',(#59),#619,.F.);
#637=ADVANCED_FACE('',(#60),#36,.T.);
#638=ADVANCED_FACE('',(#61),#620,.F.);
#639=ADVANCED_FACE('',(#62),#37,.T.);
#640=ADVANCED_FACE('',(#63),#621,.F.);
#641=ADVANCED_FACE('',(#64),#38,.T.);
#642=ADVANCED_FACE('',(#65),#622,.F.);
#643=ADVANCED_FACE('',(#66),#39,.T.);
#644=ADVANCED_FACE('',(#67),#40,.F.);
#645=ADVANCED_FACE('',(#68),#41,.F.);
#646=ADVANCED_FACE('',(#69),#42,.F.);
#647=ADVANCED_FACE('',(#70),#43,.F.);
#648=ADVANCED_FACE('',(#71),#623,.F.);
#649=ADVANCED_FACE('',(#72),#624,.T.);
#650=ADVANCED_FACE('',(#73),#44,.T.);
#651=ADVANCED_FACE('',(#74),#625,.T.);
#652=ADVANCED_FACE('',(#75,#15,#16),#45,.T.);
#653=ADVANCED_FACE('',(#76),#626,.T.);
#654=ADVANCED_FACE('',(#77),#46,.T.);
#655=ADVANCED_FACE('',(#78),#627,.T.);
#656=ADVANCED_FACE('',(#79),#47,.T.);
#657=ADVANCED_FACE('',(#80,#17,#18,#19,#20,#21),#48,.T.);
#658=ADVANCED_FACE('',(#81),#628,.F.);
#659=ADVANCED_FACE('',(#82,#22),#49,.F.);
#660=ADVANCED_FACE('',(#83),#629,.F.);
#661=ADVANCED_FACE('',(#84,#23),#50,.F.);
#662=ADVANCED_FACE('',(#85),#630,.F.);
#663=ADVANCED_FACE('',(#86,#24),#51,.F.);
#664=ADVANCED_FACE('',(#87),#631,.F.);
#665=ADVANCED_FACE('',(#88,#25),#52,.F.);
#666=ADVANCED_FACE('',(#89),#632,.F.);
#667=ADVANCED_FACE('',(#90),#633,.F.);
#668=ADVANCED_FACE('',(#91),#634,.F.);
#669=ADVANCED_FACE('',(#92),#635,.F.);
#670=ADVANCED_FACE('',(#93),#53,.T.);
#671=ADVANCED_FACE('',(#94),#54,.T.);
#672=ADVANCED_FACE('',(#95,#26,#27),#55,.T.);
#673=ADVANCED_FACE('',(#96),#56,.T.);
#674=ADVANCED_FACE('',(#97,#28,#29,#30,#31),#57,.T.);
#675=ADVANCED_FACE('',(#98,#32,#33,#34,#35),#58,.F.);
#676=CLOSED_SHELL('',(#636,#637,#638,#639,#640,#641,#642,#643,#644,#645,
#646,#647,#648,#649,#650,#651,#652,#653,#654,#655,#656,#657,#658,#659,#660,
#661,#662,#663,#664,#665,#666,#667,#668,#669,#670,#671,#672,#673,#674,#675));
#677=DERIVED_UNIT_ELEMENT(#679,1.);
#678=DERIVED_UNIT_ELEMENT(#1160,-3.);
#679=(
MASS_UNIT()
NAMED_UNIT(*)
SI_UNIT(.KILO.,.GRAM.)
);
#680=DERIVED_UNIT((#677,#678));
#681=MEASURE_REPRESENTATION_ITEM('density measure',
POSITIVE_RATIO_MEASURE(7850.),#680);
#682=PROPERTY_DEFINITION_REPRESENTATION(#687,#684);
#683=PROPERTY_DEFINITION_REPRESENTATION(#688,#685);
#684=REPRESENTATION('material name',(#686),#1155);
#685=REPRESENTATION('density',(#681),#1155);
#686=DESCRIPTIVE_REPRESENTATION_ITEM('Steel','Steel');
#687=PROPERTY_DEFINITION('material property','material name',#1168);
#688=PROPERTY_DEFINITION('material property','density of part',#1168);
#689=AXIS2_PLACEMENT_3D('',#967,#764,#765);
#690=AXIS2_PLACEMENT_3D('',#968,#766,#767);
#691=AXIS2_PLACEMENT_3D('',#970,#768,#769);
#692=AXIS2_PLACEMENT_3D('',#973,#771,#772);
#693=AXIS2_PLACEMENT_3D('',#974,#773,#774);
#694=AXIS2_PLACEMENT_3D('',#975,#775,#776);
#695=AXIS2_PLACEMENT_3D('',#977,#777,#778);
#696=AXIS2_PLACEMENT_3D('',#980,#780,#781);
#697=AXIS2_PLACEMENT_3D('',#981,#782,#783);
#698=AXIS2_PLACEMENT_3D('',#982,#784,#785);
#699=AXIS2_PLACEMENT_3D('',#984,#786,#787);
#700=AXIS2_PLACEMENT_3D('',#987,#789,#790);
#701=AXIS2_PLACEMENT_3D('',#988,#791,#792);
#702=AXIS2_PLACEMENT_3D('',#989,#793,#794);
#703=AXIS2_PLACEMENT_3D('',#991,#795,#796);
#704=AXIS2_PLACEMENT_3D('',#994,#798,#799);
#705=AXIS2_PLACEMENT_3D('',#995,#800,#801);
#706=AXIS2_PLACEMENT_3D('',#996,#802,#803);
#707=AXIS2_PLACEMENT_3D('',#1005,#808,#809);
#708=AXIS2_PLACEMENT_3D('',#1011,#813,#814);
#709=AXIS2_PLACEMENT_3D('',#1017,#818,#819);
#710=AXIS2_PLACEMENT_3D('',#1020,#822,#823);
#711=AXIS2_PLACEMENT_3D('',#1022,#824,#825);
#712=AXIS2_PLACEMENT_3D('',#1025,#827,#828);
#713=AXIS2_PLACEMENT_3D('',#1026,#829,#830);
#714=AXIS2_PLACEMENT_3D('',#1029,#831,#832);
#715=AXIS2_PLACEMENT_3D('',#1033,#834,#835);
#716=AXIS2_PLACEMENT_3D('',#1035,#837,#838);
#717=AXIS2_PLACEMENT_3D('',#1041,#842,#843);
#718=AXIS2_PLACEMENT_3D('',#1043,#844,#845);
#719=AXIS2_PLACEMENT_3D('',#1045,#846,#847);
#720=AXIS2_PLACEMENT_3D('',#1047,#849,#850);
#721=AXIS2_PLACEMENT_3D('',#1053,#854,#855);
#722=AXIS2_PLACEMENT_3D('',#1055,#856,#857);
#723=AXIS2_PLACEMENT_3D('',#1057,#858,#859);
#724=AXIS2_PLACEMENT_3D('',#1059,#861,#862);
#725=AXIS2_PLACEMENT_3D('',#1065,#866,#867);
#726=AXIS2_PLACEMENT_3D('',#1067,#868,#869);
#727=AXIS2_PLACEMENT_3D('',#1069,#870,#871);
#728=AXIS2_PLACEMENT_3D('',#1071,#873,#874);
#729=AXIS2_PLACEMENT_3D('',#1074,#877,#878);
#730=AXIS2_PLACEMENT_3D('',#1083,#883,#884);
#731=AXIS2_PLACEMENT_3D('',#1085,#885,#886);
#732=AXIS2_PLACEMENT_3D('',#1088,#888,#889);
#733=AXIS2_PLACEMENT_3D('',#1089,#890,#891);
#734=AXIS2_PLACEMENT_3D('',#1091,#892,#893);
#735=AXIS2_PLACEMENT_3D('',#1092,#894,#895);
#736=AXIS2_PLACEMENT_3D('',#1094,#896,#897);
#737=AXIS2_PLACEMENT_3D('',#1097,#899,#900);
#738=AXIS2_PLACEMENT_3D('',#1098,#901,#902);
#739=AXIS2_PLACEMENT_3D('',#1100,#903,#904);
#740=AXIS2_PLACEMENT_3D('',#1101,#905,#906);
#741=AXIS2_PLACEMENT_3D('',#1103,#907,#908);
#742=AXIS2_PLACEMENT_3D('',#1106,#910,#911);
#743=AXIS2_PLACEMENT_3D('',#1107,#912,#913);
#744=AXIS2_PLACEMENT_3D('',#1109,#914,#915);
#745=AXIS2_PLACEMENT_3D('',#1110,#916,#917);
#746=AXIS2_PLACEMENT_3D('',#1112,#918,#919);
#747=AXIS2_PLACEMENT_3D('',#1115,#921,#922);
#748=AXIS2_PLACEMENT_3D('',#1116,#923,#924);
#749=AXIS2_PLACEMENT_3D('',#1118,#925,#926);
#750=AXIS2_PLACEMENT_3D('',#1119,#927,#928);
#751=AXIS2_PLACEMENT_3D('',#1121,#929,#930);
#752=AXIS2_PLACEMENT_3D('',#1123,#932,#933);
#753=AXIS2_PLACEMENT_3D('',#1125,#934,#935);
#754=AXIS2_PLACEMENT_3D('',#1127,#937,#938);
#755=AXIS2_PLACEMENT_3D('',#1129,#939,#940);
#756=AXIS2_PLACEMENT_3D('',#1131,#942,#943);
#757=AXIS2_PLACEMENT_3D('',#1133,#944,#945);
#758=AXIS2_PLACEMENT_3D('',#1135,#947,#948);
#759=AXIS2_PLACEMENT_3D('',#1141,#952,#953);
#760=AXIS2_PLACEMENT_3D('',#1145,#956,#957);
#761=AXIS2_PLACEMENT_3D('',#1149,#960,#961);
#762=AXIS2_PLACEMENT_3D('',#1151,#963,#964);
#763=AXIS2_PLACEMENT_3D('',#1152,#965,#966);
#764=DIRECTION('axis',(0.,0.,1.));
#765=DIRECTION('refdir',(1.,0.,0.));
#766=DIRECTION('center_axis',(0.,0.,-1.));
#767=DIRECTION('ref_axis',(-1.,0.,0.));
#768=DIRECTION('center_axis',(0.,0.,-1.));
#769=DIRECTION('ref_axis',(-1.,0.,0.));
#770=DIRECTION('',(0.,0.,-1.));
#771=DIRECTION('center_axis',(0.,0.,-1.));
#772=DIRECTION('ref_axis',(-1.,0.,0.));
#773=DIRECTION('center_axis',(0.,0.,1.));
#774=DIRECTION('ref_axis',(-1.,0.,0.));
#775=DIRECTION('center_axis',(0.,0.,-1.));
#776=DIRECTION('ref_axis',(-1.,0.,0.));
#777=DIRECTION('center_axis',(0.,0.,-1.));
#778=DIRECTION('ref_axis',(-1.,0.,0.));
#779=DIRECTION('',(0.,0.,-1.));
#780=DIRECTION('center_axis',(0.,0.,-1.));
#781=DIRECTION('ref_axis',(-1.,0.,0.));
#782=DIRECTION('center_axis',(0.,0.,1.));
#783=DIRECTION('ref_axis',(-1.,0.,0.));
#784=DIRECTION('center_axis',(0.,0.,-1.));
#785=DIRECTION('ref_axis',(-1.,0.,0.));
#786=DIRECTION('center_axis',(0.,0.,-1.));
#787=DIRECTION('ref_axis',(-1.,0.,0.));
#788=DIRECTION('',(0.,0.,-1.));
#789=DIRECTION('center_axis',(0.,0.,-1.));
#790=DIRECTION('ref_axis',(-1.,0.,0.));
#791=DIRECTION('center_axis',(0.,0.,1.));
#792=DIRECTION('ref_axis',(-1.,0.,0.));
#793=DIRECTION('center_axis',(0.,0.,-1.));
#794=DIRECTION('ref_axis',(-1.,0.,0.));
#795=DIRECTION('center_axis',(0.,0.,-1.));
#796=DIRECTION('ref_axis',(-1.,0.,0.));
#797=DIRECTION('',(0.,0.,-1.));
#798=DIRECTION('center_axis',(0.,0.,-1.));
#799=DIRECTION('ref_axis',(-1.,0.,0.));
#800=DIRECTION('center_axis',(0.,0.,1.));
#801=DIRECTION('ref_axis',(-1.,0.,0.));
#802=DIRECTION('center_axis',(1.,0.,0.));
#803=DIRECTION('ref_axis',(0.,0.,-1.));
#804=DIRECTION('',(0.,0.,-1.));
#805=DIRECTION('',(0.,1.,0.));
#806=DIRECTION('',(0.,0.,1.));
#807=DIRECTION('',(0.,1.,0.));
#808=DIRECTION('center_axis',(0.,0.,1.));
#809=DIRECTION('ref_axis',(1.,0.,0.));
#810=DIRECTION('',(1.,0.,0.));
#811=DIRECTION('',(0.,1.,0.));
#812=DIRECTION('',(-1.,0.,0.));
#813=DIRECTION('center_axis',(-1.,0.,0.));
#814=DIRECTION('ref_axis',(0.,0.,1.));
#815=DIRECTION('',(0.,0.,1.));
#816=DIRECTION('',(0.,1.,0.));
#817=DIRECTION('',(0.,0.,-1.));
#818=DIRECTION('center_axis',(0.,0.,-1.));
#819=DIRECTION('ref_axis',(-1.,0.,0.));
#820=DIRECTION('',(-1.,0.,0.));
#821=DIRECTION('',(1.,0.,0.));
#822=DIRECTION('center_axis',(0.,1.,0.));
#823=DIRECTION('ref_axis',(1.,0.,0.));
#824=DIRECTION('center_axis',(0.,1.,0.));
#825=DIRECTION('ref_axis',(1.,0.,0.));
#826=DIRECTION('',(0.,1.,0.));
#827=DIRECTION('center_axis',(0.,-1.,0.));
#828=DIRECTION('ref_axis',(1.,0.,0.));
#829=DIRECTION('center_axis',(0.,0.,1.));
#830=DIRECTION('ref_axis',(-1.,0.,0.));
#831=DIRECTION('center_axis',(0.,0.,-1.));
#832=DIRECTION('ref_axis',(-1.,0.,0.));
#833=DIRECTION('',(0.,0.,1.));
#834=DIRECTION('center_axis',(0.,0.,1.));
#835=DIRECTION('ref_axis',(-1.,0.,0.));
#836=DIRECTION('',(0.,0.,1.));
#837=DIRECTION('center_axis',(1.,0.,0.));
#838=DIRECTION('ref_axis',(0.,1.,0.));
#839=DIRECTION('',(0.,-1.,0.));
#840=DIRECTION('',(0.,1.,0.));
#841=DIRECTION('',(0.,0.,1.));
#842=DIRECTION('center_axis',(0.,0.,1.));
#843=DIRECTION('ref_axis',(-1.,0.,0.));
#844=DIRECTION('center_axis',(0.,0.,-1.));
#845=DIRECTION('ref_axis',(-1.,0.,0.));
#846=DIRECTION('center_axis',(0.,0.,1.));
#847=DIRECTION('ref_axis',(-1.,0.,0.));
#848=DIRECTION('',(0.,0.,1.));
#849=DIRECTION('center_axis',(0.,1.,0.));
#850=DIRECTION('ref_axis',(-1.,0.,0.));
#851=DIRECTION('',(1.,0.,0.));
#852=DIRECTION('',(-1.,0.,0.));
#853=DIRECTION('',(0.,0.,1.));
#854=DIRECTION('center_axis',(0.,0.,1.));
#855=DIRECTION('ref_axis',(-1.,0.,0.));
#856=DIRECTION('center_axis',(0.,0.,-1.));
#857=DIRECTION('ref_axis',(-1.,0.,0.));
#858=DIRECTION('center_axis',(0.,0.,1.));
#859=DIRECTION('ref_axis',(-1.,0.,0.));
#860=DIRECTION('',(0.,0.,1.));
#861=DIRECTION('center_axis',(-1.,0.,0.));
#862=DIRECTION('ref_axis',(0.,-1.,0.));
#863=DIRECTION('',(0.,1.,0.));
#864=DIRECTION('',(0.,-1.,0.));
#865=DIRECTION('',(0.,0.,1.));
#866=DIRECTION('center_axis',(0.,0.,1.));
#867=DIRECTION('ref_axis',(-1.,0.,0.));
#868=DIRECTION('center_axis',(0.,0.,-1.));
#869=DIRECTION('ref_axis',(-1.,0.,0.));
#870=DIRECTION('center_axis',(0.,0.,1.));
#871=DIRECTION('ref_axis',(-1.,0.,0.));
#872=DIRECTION('',(0.,0.,1.));
#873=DIRECTION('center_axis',(0.,-1.,0.));
#874=DIRECTION('ref_axis',(1.,0.,0.));
#875=DIRECTION('',(-1.,0.,0.));
#876=DIRECTION('',(1.,0.,0.));
#877=DIRECTION('center_axis',(0.,0.,1.));
#878=DIRECTION('ref_axis',(-1.,0.,0.));
#879=DIRECTION('',(1.,0.,0.));
#880=DIRECTION('',(0.,1.,0.));
#881=DIRECTION('',(-1.,0.,0.));
#882=DIRECTION('',(0.,-1.,0.));
#883=DIRECTION('center_axis',(0.,0.,1.));
#884=DIRECTION('ref_axis',(1.,0.,0.));
#885=DIRECTION('center_axis',(0.,0.,1.));
#886=DIRECTION('ref_axis',(1.,0.,0.));
#887=DIRECTION('',(0.,0.,1.));
#888=DIRECTION('center_axis',(0.,0.,1.));
#889=DIRECTION('ref_axis',(1.,0.,0.));
#890=DIRECTION('center_axis',(0.,0.,1.));
#891=DIRECTION('ref_axis',(1.,0.,0.));
#892=DIRECTION('center_axis',(0.,0.,-1.));
#893=DIRECTION('ref_axis',(1.,0.,0.));
#894=DIRECTION('center_axis',(0.,0.,1.));
#895=DIRECTION('ref_axis',(1.,0.,0.));
#896=DIRECTION('center_axis',(0.,0.,1.));
#897=DIRECTION('ref_axis',(1.,0.,0.));
#898=DIRECTION('',(0.,0.,1.));
#899=DIRECTION('center_axis',(0.,0.,1.));
#900=DIRECTION('ref_axis',(1.,0.,0.));
#901=DIRECTION('center_axis',(0.,0.,1.));
#902=DIRECTION('ref_axis',(1.,0.,0.));
#903=DIRECTION('center_axis',(0.,0.,-1.));
#904=DIRECTION('ref_axis',(1.,0.,0.));
#905=DIRECTION('center_axis',(0.,0.,1.));
#906=DIRECTION('ref_axis',(1.,0.,0.));
#907=DIRECTION('center_axis',(0.,0.,1.));
#908=DIRECTION('ref_axis',(1.,0.,0.));
#909=DIRECTION('',(0.,0.,1.));
#910=DIRECTION('center_axis',(0.,0.,1.));
#911=DIRECTION('ref_axis',(1.,0.,0.));
#912=DIRECTION('center_axis',(0.,0.,1.));
#913=DIRECTION('ref_axis',(1.,0.,0.));
#914=DIRECTION('center_axis',(0.,0.,-1.));
#915=DIRECTION('ref_axis',(1.,0.,0.));
#916=DIRECTION('center_axis',(0.,0.,1.));
#917=DIRECTION('ref_axis',(1.,0.,0.));
#918=DIRECTION('center_axis',(0.,0.,1.));
#919=DIRECTION('ref_axis',(1.,0.,0.));
#920=DIRECTION('',(0.,0.,1.));
#921=DIRECTION('center_axis',(0.,0.,1.));
#922=DIRECTION('ref_axis',(1.,0.,0.));
#923=DIRECTION('center_axis',(0.,0.,1.));
#924=DIRECTION('ref_axis',(1.,0.,0.));
#925=DIRECTION('center_axis',(0.,0.,-1.));
#926=DIRECTION('ref_axis',(1.,0.,0.));
#927=DIRECTION('center_axis',(0.,0.,1.));
#928=DIRECTION('ref_axis',(1.,0.,0.));
#929=DIRECTION('center_axis',(0.,0.,-1.));
#930=DIRECTION('ref_axis',(1.,0.,0.));
#931=DIRECTION('',(0.,0.,-1.));
#932=DIRECTION('center_axis',(0.,0.,1.));
#933=DIRECTION('ref_axis',(1.,0.,0.));
#934=DIRECTION('center_axis',(0.,0.,-1.));
#935=DIRECTION('ref_axis',(1.,0.,0.));
#936=DIRECTION('',(0.,0.,-1.));
#937=DIRECTION('center_axis',(0.,0.,1.));
#938=DIRECTION('ref_axis',(1.,0.,0.));
#939=DIRECTION('center_axis',(0.,0.,-1.));
#940=DIRECTION('ref_axis',(1.,0.,0.));
#941=DIRECTION('',(0.,0.,-1.));
#942=DIRECTION('center_axis',(0.,0.,1.));
#943=DIRECTION('ref_axis',(1.,0.,0.));
#944=DIRECTION('center_axis',(0.,0.,-1.));
#945=DIRECTION('ref_axis',(1.,0.,0.));
#946=DIRECTION('',(0.,0.,-1.));
#947=DIRECTION('center_axis',(0.,1.,0.));
#948=DIRECTION('ref_axis',(-1.,0.,0.));
#949=DIRECTION('',(-1.,0.,0.));
#950=DIRECTION('',(0.,0.,1.));
#951=DIRECTION('',(0.,0.,1.));
#952=DIRECTION('center_axis',(1.,0.,0.));
#953=DIRECTION('ref_axis',(0.,1.,0.));
#954=DIRECTION('',(0.,1.,0.));
#955=DIRECTION('',(0.,0.,1.));
#956=DIRECTION('center_axis',(0.,-1.,0.));
#957=DIRECTION('ref_axis',(1.,0.,0.));
#958=DIRECTION('',(1.,0.,0.));
#959=DIRECTION('',(0.,0.,1.));
#960=DIRECTION('center_axis',(-1.,0.,0.));
#961=DIRECTION('ref_axis',(0.,-1.,0.));
#962=DIRECTION('',(0.,-1.,0.));
#963=DIRECTION('center_axis',(0.,0.,1.));
#964=DIRECTION('ref_axis',(1.,0.,0.));
#965=DIRECTION('center_axis',(0.,0.,1.));
#966=DIRECTION('ref_axis',(1.,0.,0.));
#967=CARTESIAN_POINT('',(0.,0.,0.));
#968=CARTESIAN_POINT('Origin',(0.18,0.18,2.15));
#969=CARTESIAN_POINT('',(0.26,0.18,2.15));
#970=CARTESIAN_POINT('Origin',(0.18,0.18,2.15));
#971=CARTESIAN_POINT('',(0.26,0.18,1.885));
#972=CARTESIAN_POINT('',(0.26,0.18,2.15));
#973=CARTESIAN_POINT('Origin',(0.18,0.18,1.885));
#974=CARTESIAN_POINT('Origin',(0.18,0.18,1.885));
#975=CARTESIAN_POINT('Origin',(3.82,0.18,2.15));
#976=CARTESIAN_POINT('',(3.9,0.18,2.15));
#977=CARTESIAN_POINT('Origin',(3.82,0.18,2.15));
#978=CARTESIAN_POINT('',(3.9,0.18,1.885));
#979=CARTESIAN_POINT('',(3.9,0.18,2.15));
#980=CARTESIAN_POINT('Origin',(3.82,0.18,1.885));
#981=CARTESIAN_POINT('Origin',(3.82,0.18,1.885));
#982=CARTESIAN_POINT('Origin',(0.18,3.82,2.15));
#983=CARTESIAN_POINT('',(0.26,3.82,2.15));
#984=CARTESIAN_POINT('Origin',(0.18,3.82,2.15));
#985=CARTESIAN_POINT('',(0.26,3.82,1.885));
#986=CARTESIAN_POINT('',(0.26,3.82,2.15));
#987=CARTESIAN_POINT('Origin',(0.18,3.82,1.885));
#988=CARTESIAN_POINT('Origin',(0.18,3.82,1.885));
#989=CARTESIAN_POINT('Origin',(3.82,3.82,2.15));
#990=CARTESIAN_POINT('',(3.9,3.82,2.15));
#991=CARTESIAN_POINT('Origin',(3.82,3.82,2.15));
#992=CARTESIAN_POINT('',(3.9,3.82,1.885));
#993=CARTESIAN_POINT('',(3.9,3.82,2.15));
#994=CARTESIAN_POINT('Origin',(3.82,3.82,1.885));
#995=CARTESIAN_POINT('Origin',(3.82,3.82,1.885));
#996=CARTESIAN_POINT('Origin',(3.,0.,2.));
#997=CARTESIAN_POINT('',(3.,0.,2.));
#998=CARTESIAN_POINT('',(3.,0.,1.2));
#999=CARTESIAN_POINT('',(3.,0.,1.));
#1000=CARTESIAN_POINT('',(3.,0.15,2.));
#1001=CARTESIAN_POINT('',(3.,0.,2.));
#1002=CARTESIAN_POINT('',(3.,0.15,1.2));
#1003=CARTESIAN_POINT('',(3.,0.15,1.075));
#1004=CARTESIAN_POINT('',(3.,0.,1.2));
#1005=CARTESIAN_POINT('Origin',(1.,0.,2.));
#1006=CARTESIAN_POINT('',(1.,0.,2.));
#1007=CARTESIAN_POINT('',(0.5,0.,2.));
#1008=CARTESIAN_POINT('',(1.,0.15,2.));
#1009=CARTESIAN_POINT('',(1.,0.,2.));
#1010=CARTESIAN_POINT('',(2.31893398282202,0.15,2.));
#1011=CARTESIAN_POINT('Origin',(1.,0.,1.2));
#1012=CARTESIAN_POINT('',(1.,0.,1.2));
#1013=CARTESIAN_POINT('',(1.,0.,0.6));
#1014=CARTESIAN_POINT('',(1.,0.15,1.2));
#1015=CARTESIAN_POINT('',(1.,0.,1.2));
#1016=CARTESIAN_POINT('',(1.,0.15,0.675));
#1017=CARTESIAN_POINT('Origin',(3.,0.,1.2));
#1018=CARTESIAN_POINT('',(1.5,0.,1.2));
#1019=CARTESIAN_POINT('',(3.31893398282202,0.15,1.2));
#1020=CARTESIAN_POINT('Origin',(2.,0.,0.6));
#1021=CARTESIAN_POINT('',(1.59,0.,0.6));
#1022=CARTESIAN_POINT('Origin',(2.,0.,0.6));
#1023=CARTESIAN_POINT('',(1.59,0.15,0.6));
#1024=CARTESIAN_POINT('',(1.59,0.,0.6));
#1025=CARTESIAN_POINT('Origin',(2.,0.15,0.6));
#1026=CARTESIAN_POINT('Origin',(0.15,3.85,0.15));
#1027=CARTESIAN_POINT('',(0.362132034355964,3.85,0.15));
#1028=CARTESIAN_POINT('',(0.15,3.63786796564403,0.15));
#1029=CARTESIAN_POINT('Origin',(0.15,3.85,0.15));
#1030=CARTESIAN_POINT('',(0.362132034355964,3.85,2.15));
#1031=CARTESIAN_POINT('',(0.362132034355964,3.85,0.15));
#1032=CARTESIAN_POINT('',(0.15,3.63786796564403,2.15));
#1033=CARTESIAN_POINT('Origin',(0.15,3.85,2.15));
#1034=CARTESIAN_POINT('',(0.15,3.63786796564403,0.15));
#1035=CARTESIAN_POINT('Origin',(0.15,0.362132034355964,0.15));
#1036=CARTESIAN_POINT('',(0.15,0.362132034355964,0.15));
#1037=CARTESIAN_POINT('',(0.15,1.18106601717798,0.15));
#1038=CARTESIAN_POINT('',(0.15,0.362132034355964,2.15));
#1039=CARTESIAN_POINT('',(0.15,4.,2.15));
#1040=CARTESIAN_POINT('',(0.15,0.362132034355964,0.15));
#1041=CARTESIAN_POINT('Origin',(0.15,0.15,0.15));
#1042=CARTESIAN_POINT('',(0.362132034355964,0.15,0.15));
#1043=CARTESIAN_POINT('Origin',(0.15,0.15,0.15));
#1044=CARTESIAN_POINT('',(0.362132034355964,0.15,2.15));
#1045=CARTESIAN_POINT('Origin',(0.15,0.15,2.15));
#1046=CARTESIAN_POINT('',(0.362132034355964,0.15,0.15));
#1047=CARTESIAN_POINT('Origin',(3.63786796564404,0.15,0.15));
#1048=CARTESIAN_POINT('',(3.63786796564404,0.15,0.15));
#1049=CARTESIAN_POINT('',(2.81893398282202,0.15,0.15));
#1050=CARTESIAN_POINT('',(3.63786796564404,0.15,2.15));
#1051=CARTESIAN_POINT('',(4.,0.15,2.15));
#1052=CARTESIAN_POINT('',(3.63786796564404,0.15,0.15));
#1053=CARTESIAN_POINT('Origin',(3.85,0.15,0.15));
#1054=CARTESIAN_POINT('',(3.85,0.362132034355964,0.15));
#1055=CARTESIAN_POINT('Origin',(3.85,0.15,0.15));
#1056=CARTESIAN_POINT('',(3.85,0.362132034355964,2.15));
#1057=CARTESIAN_POINT('Origin',(3.85,0.15,2.15));
#1058=CARTESIAN_POINT('',(3.85,0.362132034355964,0.15));
#1059=CARTESIAN_POINT('Origin',(3.85,3.63786796564403,0.15));
#1060=CARTESIAN_POINT('',(3.85,3.63786796564403,0.15));
#1061=CARTESIAN_POINT('',(3.85,2.81893398282202,0.15));
#1062=CARTESIAN_POINT('',(3.85,3.63786796564403,2.15));
#1063=CARTESIAN_POINT('',(3.85,4.,2.15));
#1064=CARTESIAN_POINT('',(3.85,3.63786796564403,0.15));
#1065=CARTESIAN_POINT('Origin',(3.85,3.85,0.15));
#1066=CARTESIAN_POINT('',(3.63786796564404,3.85,0.15));
#1067=CARTESIAN_POINT('Origin',(3.85,3.85,0.15));
#1068=CARTESIAN_POINT('',(3.63786796564404,3.85,2.15));
#1069=CARTESIAN_POINT('Origin',(3.85,3.85,2.15));
#1070=CARTESIAN_POINT('',(3.63786796564404,3.85,0.15));
#1071=CARTESIAN_POINT('Origin',(0.362132034355964,3.85,0.15));
#1072=CARTESIAN_POINT('',(1.18106601717798,3.85,0.15));
#1073=CARTESIAN_POINT('',(4.,3.85,2.15));
#1074=CARTESIAN_POINT('Origin',(2.,2.,2.15));
#1075=CARTESIAN_POINT('',(0.,0.,2.15));
#1076=CARTESIAN_POINT('',(4.,0.,2.15));
#1077=CARTESIAN_POINT('',(0.,0.,2.15));
#1078=CARTESIAN_POINT('',(4.,4.,2.15));
#1079=CARTESIAN_POINT('',(4.,0.,2.15));
#1080=CARTESIAN_POINT('',(0.,4.,2.15));
#1081=CARTESIAN_POINT('',(4.,4.,2.15));
#1082=CARTESIAN_POINT('',(0.,3.85,2.15));
#1083=CARTESIAN_POINT('Origin',(1.1,3.3,0.));
#1084=CARTESIAN_POINT('',(1.,3.3,0.));
#1085=CARTESIAN_POINT('Origin',(1.1,3.3,0.));
#1086=CARTESIAN_POINT('',(1.,3.3,0.08));
#1087=CARTESIAN_POINT('',(1.,3.3,0.));
#1088=CARTESIAN_POINT('Origin',(1.1,3.3,0.08));
#1089=CARTESIAN_POINT('Origin',(1.1,3.3,0.08));
#1090=CARTESIAN_POINT('',(1.05,3.3,0.08));
#1091=CARTESIAN_POINT('Origin',(1.1,3.3,0.08));
#1092=CARTESIAN_POINT('Origin',(2.9,3.3,0.));
#1093=CARTESIAN_POINT('',(2.8,3.3,0.));
#1094=CARTESIAN_POINT('Origin',(2.9,3.3,0.));
#1095=CARTESIAN_POINT('',(2.8,3.3,0.08));
#1096=CARTESIAN_POINT('',(2.8,3.3,0.));
#1097=CARTESIAN_POINT('Origin',(2.9,3.3,0.08));
#1098=CARTESIAN_POINT('Origin',(2.9,3.3,0.08));
#1099=CARTESIAN_POINT('',(2.85,3.3,0.08));
#1100=CARTESIAN_POINT('Origin',(2.9,3.3,0.08));
#1101=CARTESIAN_POINT('Origin',(1.1,0.7,0.));
#1102=CARTESIAN_POINT('',(1.,0.7,0.));
#1103=CARTESIAN_POINT('Origin',(1.1,0.7,0.));
#1104=CARTESIAN_POINT('',(1.,0.7,0.08));
#1105=CARTESIAN_POINT('',(1.,0.7,0.));
#1106=CARTESIAN_POINT('Origin',(1.1,0.7,0.08));
#1107=CARTESIAN_POINT('Origin',(1.1,0.7,0.08));
#1108=CARTESIAN_POINT('',(1.05,0.7,0.08));
#1109=CARTESIAN_POINT('Origin',(1.1,0.7,0.08));
#1110=CARTESIAN_POINT('Origin',(2.9,0.7,0.));
#1111=CARTESIAN_POINT('',(2.8,0.7,0.));
#1112=CARTESIAN_POINT('Origin',(2.9,0.7,0.));
#1113=CARTESIAN_POINT('',(2.8,0.7,0.08));
#1114=CARTESIAN_POINT('',(2.8,0.7,0.));
#1115=CARTESIAN_POINT('Origin',(2.9,0.7,0.08));
#1116=CARTESIAN_POINT('Origin',(2.9,0.7,0.08));
#1117=CARTESIAN_POINT('',(2.85,0.7,0.08));
#1118=CARTESIAN_POINT('Origin',(2.9,0.7,0.08));
#1119=CARTESIAN_POINT('Origin',(2.9,3.3,0.));
#1120=CARTESIAN_POINT('',(2.85,3.3,0.15));
#1121=CARTESIAN_POINT('Origin',(2.9,3.3,0.15));
#1122=CARTESIAN_POINT('',(2.85,3.3,0.));
#1123=CARTESIAN_POINT('Origin',(1.1,3.3,0.));
#1124=CARTESIAN_POINT('',(1.05,3.3,0.15));
#1125=CARTESIAN_POINT('Origin',(1.1,3.3,0.15));
#1126=CARTESIAN_POINT('',(1.05,3.3,0.));
#1127=CARTESIAN_POINT('Origin',(1.1,0.7,0.));
#1128=CARTESIAN_POINT('',(1.05,0.7,0.15));
#1129=CARTESIAN_POINT('Origin',(1.1,0.7,0.15));
#1130=CARTESIAN_POINT('',(1.05,0.7,0.));
#1131=CARTESIAN_POINT('Origin',(2.9,0.7,0.));
#1132=CARTESIAN_POINT('',(2.85,0.7,0.15));
#1133=CARTESIAN_POINT('Origin',(2.9,0.7,0.15));
#1134=CARTESIAN_POINT('',(2.85,0.7,0.));
#1135=CARTESIAN_POINT('Origin',(4.,4.,0.));
#1136=CARTESIAN_POINT('',(4.,4.,0.));
#1137=CARTESIAN_POINT('',(0.,4.,0.));
#1138=CARTESIAN_POINT('',(4.,4.,0.));
#1139=CARTESIAN_POINT('',(0.,4.,0.));
#1140=CARTESIAN_POINT('',(4.,4.,0.));
#1141=CARTESIAN_POINT('Origin',(4.,0.,0.));
#1142=CARTESIAN_POINT('',(4.,0.,0.));
#1143=CARTESIAN_POINT('',(4.,0.,0.));
#1144=CARTESIAN_POINT('',(4.,0.,0.));
#1145=CARTESIAN_POINT('Origin',(0.,0.,0.));
#1146=CARTESIAN_POINT('',(0.,0.,0.));
#1147=CARTESIAN_POINT('',(0.,0.,0.));
#1148=CARTESIAN_POINT('',(0.,0.,0.));
#1149=CARTESIAN_POINT('Origin',(0.,4.,0.));
#1150=CARTESIAN_POINT('',(0.,4.,0.));
#1151=CARTESIAN_POINT('Origin',(2.,2.,0.15));
#1152=CARTESIAN_POINT('Origin',(2.,2.,0.));
#1153=UNCERTAINTY_MEASURE_WITH_UNIT(LENGTH_MEASURE(0.000393700787401575),
#1158,'DISTANCE_ACCURACY_VALUE',
'Maximum model space distance between geometric entities at asserted c
onnectivities');
#1154=UNCERTAINTY_MEASURE_WITH_UNIT(LENGTH_MEASURE(0.000393700787401575),
#1158,'DISTANCE_ACCURACY_VALUE',
'Maximum model space distance between geometric entities at asserted c
onnectivities');
#1155=(
GEOMETRIC_REPRESENTATION_CONTEXT(3)
GLOBAL_UNCERTAINTY_ASSIGNED_CONTEXT((#1153))
GLOBAL_UNIT_ASSIGNED_CONTEXT((#1158,#1162,#1163))
REPRESENTATION_CONTEXT('','3D')
);
#1156=(
GEOMETRIC_REPRESENTATION_CONTEXT(3)
GLOBAL_UNCERTAINTY_ASSIGNED_CONTEXT((#1154))
GLOBAL_UNIT_ASSIGNED_CONTEXT((#1158,#1162,#1163))
REPRESENTATION_CONTEXT('','3D')
);
#1157=DIMENSIONAL_EXPONENTS(1.,0.,0.,0.,0.,0.,0.);
#1158=(
CONVERSION_BASED_UNIT('inch',#1161)
LENGTH_UNIT()
NAMED_UNIT(#1157)
);
#1159=(
LENGTH_UNIT()
NAMED_UNIT(*)
SI_UNIT(.MILLI.,.METRE.)
);
#1160=(
LENGTH_UNIT()
NAMED_UNIT(*)
SI_UNIT($,.METRE.)
);
#1161=LENGTH_MEASURE_WITH_UNIT(LENGTH_MEASURE(25.4),#1159);
#1162=(
NAMED_UNIT(*)
PLANE_ANGLE_UNIT()
SI_UNIT($,.RADIAN.)
);
#1163=(
NAMED_UNIT(*)
SI_UNIT($,.STERADIAN.)
SOLID_ANGLE_UNIT()
);
#1164=SHAPE_DEFINITION_REPRESENTATION(#1165,#1166);
#1165=PRODUCT_DEFINITION_SHAPE('',$,#1168);
#1166=SHAPE_REPRESENTATION('',(#689),#1155);
#1167=PRODUCT_DEFINITION_CONTEXT('part definition',#1172,'design');
#1168=PRODUCT_DEFINITION('2026-03-31-17-38-34-156','Enclosure',#1169,#1167);
#1169=PRODUCT_DEFINITION_FORMATION('',$,#1174);
#1170=PRODUCT_RELATED_PRODUCT_CATEGORY('Enclosure','Enclosure',(#1174));
#1171=APPLICATION_PROTOCOL_DEFINITION('international standard',
'automotive_design',2009,#1172);
#1172=APPLICATION_CONTEXT(
'Core Data for Automotive Mechanical Design Process');
#1173=PRODUCT_CONTEXT('part definition',#1172,'mechanical');
#1174=PRODUCT('2026-03-31-17-38-34-156','Enclosure',$,(#1173));
#1175=PRESENTATION_STYLE_ASSIGNMENT((#1176));
#1176=SURFACE_STYLE_USAGE(.BOTH.,#1177);
#1177=SURFACE_SIDE_STYLE('',(#1178));
#1178=SURFACE_STYLE_FILL_AREA(#1179);
#1179=FILL_AREA_STYLE('Steel - Satin',(#1180));
#1180=FILL_AREA_STYLE_COLOUR('Steel - Satin',#1181);
#1181=COLOUR_RGB('Steel - Satin',0.627450980392157,0.627450980392157,0.627450980392157);
ENDSEC;
END-ISO-10303-21;
